<svg xmlns="http://www.w3.org/2000/svg" width="659" height="477" viewBox="0 0 659 477">
    <g fill="none" fill-rule="evenodd">
        <g>
            <g>
                <path fill="#002855" d="M304.87 71.56c.03.26-.06.52-.23.73-.17.2-.41.33-.68.35l-2.68.24-.7-7.98 2.69-.24c.26-.02.52.06.73.23.2.18.33.42.35.68l.09 1.06.35 3.98.08.95zm-18.14 2.59l-.7-7.98 11.56-1.01.7 7.98-11.56 1.01zm-6.47.57l-.7-7.98 3.48-.31.7 7.98-3.48.31zm233.43 21.35c-12-8.73-29.71-10.19-52.65-4.36-.45.07-3.51.39-6.42-1.95-3.42-2.76-5.42-8.3-5.77-16.02l-.13-2.82c-.95-21.12-1.7-37.8-16.96-40.5-10.45-1.85-19.27.87-26.95 8.31-9.96 9.65-17.73 27.46-23.11 52.98-2.49-3.37-6.84-8.18-13.83-12.74-19.22-12.55-44.03-13.82-62.43-12.42l-.09-1.06c-.05-.54-.3-1.02-.71-1.36-.41-.34-.93-.51-1.46-.46l-3.18.28-.5.04-1 .09-13.55 1.19-1 .08-4.98.44-.49.04.87 9.97.5-.04 4.98-.44.99-.09 13.55-1.18 1-.09.5-.04 3.18-.28c.53-.05 1.02-.3 1.36-.71.34-.41.51-.93.46-1.46l-.08-.94c17.66-1.33 41.39-.16 59.64 11.62 11.47 7.4 15.39 15.63 15.43 15.7l.004.01c.812 1.765 3.412 1.45 3.776-.46 5.24-27.35 12.96-46.12 22.95-55.8 6.7-6.48 14.38-8.85 23.47-7.24 11.57 2.04 12.64 14 13.66 36.74l.13 2.82c.42 9.1 2.89 15.5 7.35 19.03 4.54 3.59 9.41 2.73 9.62 2.69l.12-.03c21.74-5.54 38.34-4.31 49.35 3.66 11.8 8.55 12.86 22.19 12.87 22.33l3.99-.26c-.04-.63-1.14-15.59-14.46-25.27zM267.19 255.245c-10.087-38.919-56.972-58.777-95.894-48.689 32.629 3.66 52.949 15.262 62.914 34.394-8.931-9.803-20.621-17.29-34.32-21.078-38.748-10.723-79.387 19.951-90.113 58.702 21.379-28.994 43.626-40.378 67.566-36.655-3.585.482-7.14 1.227-10.626 2.236l.008.013c-12.787 3.926-24.64 11.393-33.942 22.303-26.096 30.586-15.47 80.382 15.118 106.48-13.803-25.319-17.144-46.375-11.01-64.089-1.166 8.966-.675 18.297 1.73 27.576 10.09 38.92 56.976 58.78 95.898 48.69-32.624-3.657-52.944-15.254-62.91-34.382 8.934 9.793 20.622 17.277 34.312 21.068 38.75 10.721 79.39-19.953 90.117-58.705-21.382 29.002-43.63 40.381-67.571 36.656 3.587-.482 7.14-1.23 10.63-2.239l-.005-.006c12.785-3.927 24.638-11.395 33.943-22.304 26.093-30.589 15.467-80.383-15.121-106.48 13.81 25.326 17.149 46.39 11.004 64.106 1.172-8.974.68-18.309-1.727-27.597" transform="translate(-391 -232) translate(391 232)"/>
                <path stroke="#002855" d="M488.9 382.67c0 38.64-27.01 72.78-68.29 93.33H238.3c-41.29-20.55-68.3-54.69-68.3-93.33 0-62.81 71.39-113.73 159.45-113.73 88.07 0 159.45 50.92 159.45 113.73z" transform="translate(-391 -232) translate(391 232)"/>
                <path stroke="#002855" d="M568.08 382.67c0 34.46-14.36 66.53-39.04 93.33H129.87c-24.68-26.8-39.04-58.87-39.04-93.33 0-94 106.84-170.2 238.62-170.2 131.79 0 238.63 76.2 238.63 170.2z" transform="translate(-391 -232) translate(391 232)"/>
                <path stroke="#002855" d="M648.86 382.67c0 33.25-9.99 64.85-27.95 93.33H37.99c-17.95-28.48-27.94-60.08-27.94-93.33 0-125.82 143-227.82 319.4-227.82 176.4 0 319.41 102 319.41 227.82z" transform="translate(-391 -232) translate(391 232)"/>
                <path stroke="#002855" d="M658.5 104.95V476H.5V104.89c88.78-53.54 203.58-85.82 328.95-85.82 125.42 0 240.25 32.3 329.05 85.88z" transform="translate(-391 -232) translate(391 232)"/>
                <path stroke="#002855" d="M111.994 128.224c-29.723-2.715-31.938-4.898-34.678-34.36-2.744 29.462-4.961 31.646-34.697 34.36 29.736 2.7 31.953 4.914 34.697 34.36 2.74-29.446 4.955-31.66 34.678-34.36zM106.144 379.19c-1.047 11.217-1.895 12.055-13.215 13.092 11.32 1.021 12.168 1.88 13.215 13.107 1.029-11.229 1.877-12.086 13.21-13.107-11.333-1.037-12.181-1.875-13.21-13.092z" transform="translate(-391 -232) translate(391 232)"/>
                <path fill="#002855" d="M106.14 158.222c.682-7.289 1.234-7.826 8.594-8.514-7.36-.67-7.912-1.205-8.594-8.496-.676 7.291-1.23 7.826-8.59 8.496 7.36.688 7.914 1.225 8.59 8.514" transform="translate(-391 -232) translate(391 232)"/>
                <path stroke="#002855" d="M106.14 158.222c.682-7.289 1.234-7.826 8.594-8.514-7.36-.67-7.912-1.205-8.594-8.496-.676 7.291-1.23 7.826-8.59 8.496 7.36.688 7.914 1.225 8.59 8.514z" transform="translate(-391 -232) translate(391 232)"/>
                <path fill="#002855" d="M223.811 69.149c.683-7.29 1.234-7.826 8.594-8.514-7.358-.67-7.911-1.205-8.594-8.496-.675 7.29-1.23 7.826-8.59 8.496 7.36.688 7.915 1.225 8.59 8.514" transform="translate(-391 -232) translate(391 232)"/>
                <path stroke="#002855" d="M223.811 69.149c.683-7.29 1.234-7.826 8.594-8.514-7.358-.67-7.911-1.205-8.594-8.496-.675 7.29-1.23 7.826-8.59 8.496 7.36.688 7.915 1.225 8.59 8.514z" transform="translate(-391 -232) translate(391 232)"/>
                <path fill="#002855" d="M54.098 174.471c.5-5.35.906-5.746 6.309-6.25-5.402-.492-5.81-.885-6.31-6.238-.495 5.353-.902 5.746-6.305 6.238 5.403.504 5.81.9 6.306 6.25" transform="translate(-391 -232) translate(391 232)"/>
                <path stroke="#002855" d="M54.098 174.471c.5-5.35.906-5.746 6.309-6.25-5.402-.492-5.81-.885-6.31-6.238-.495 5.353-.902 5.746-6.305 6.238 5.403.504 5.81.9 6.306 6.25z" transform="translate(-391 -232) translate(391 232)"/>
                <path fill="#002855" d="M305.195 17.026C290.899 15.72 289.834 14.67 288.515.5c-1.32 14.17-2.385 15.22-16.687 16.525 14.302 1.299 15.368 2.364 16.688 16.527 1.318-14.163 2.383-15.228 16.679-16.527" transform="translate(-391 -232) translate(391 232)"/>
                <path stroke="#002855" d="M305.195 17.026C290.899 15.72 289.834 14.67 288.515.5c-1.32 14.17-2.385 15.22-16.687 16.525 14.302 1.299 15.368 2.364 16.688 16.527 1.318-14.163 2.383-15.228 16.679-16.527z" transform="translate(-391 -232) translate(391 232)"/>
                <path fill="#002855" d="M51.841 323.46c-.506 5.43-.917 5.835-6.396 6.337 5.48.494 5.89.909 6.396 6.344.498-5.435.91-5.85 6.395-6.344-5.486-.502-5.897-.907-6.395-6.336" transform="translate(-391 -232) translate(391 232)"/>
                <path stroke="#002855" d="M51.841 323.46c-.506 5.43-.917 5.835-6.396 6.337 5.48.494 5.89.909 6.396 6.344.498-5.435.91-5.85 6.395-6.344-5.486-.502-5.897-.907-6.395-6.336zM645.307 242.167c-17.663-1.613-18.979-2.911-20.607-20.418-1.63 17.507-2.948 18.805-20.618 20.418 17.67 1.604 18.988 2.92 20.618 20.419 1.628-17.499 2.944-18.815 20.607-20.419z" transform="translate(-391 -232) translate(391 232)"/>
                <path fill="#002855" d="M386.541 289.774c1.04-11.102 1.88-11.92 13.09-12.968-11.208-1.02-12.05-1.835-13.09-12.94-1.03 11.105-1.873 11.92-13.082 12.94 11.209 1.048 12.053 1.866 13.082 12.968" transform="translate(-391 -232) translate(391 232)"/>
                <path stroke="#002855" d="M386.541 289.774c1.04-11.102 1.88-11.92 13.09-12.968-11.208-1.02-12.05-1.835-13.09-12.94-1.03 11.105-1.873 11.92-13.082 12.94 11.209 1.048 12.053 1.866 13.082 12.968z" transform="translate(-391 -232) translate(391 232)"/>
                <path fill="#002855" d="M448.127 324.674c.572-6.116 1.036-6.567 7.212-7.145-6.175-.562-6.64-1.011-7.212-7.13-.567 6.119-1.033 6.568-7.209 7.13 6.176.578 6.642 1.029 7.209 7.145" transform="translate(-391 -232) translate(391 232)"/>
                <path stroke="#002855" d="M448.127 324.674c.572-6.116 1.036-6.567 7.212-7.145-6.175-.562-6.64-1.011-7.212-7.13-.567 6.119-1.033 6.568-7.209 7.13 6.176.578 6.642 1.029 7.209 7.145zM296.035 431.297c1.039-11.102 1.879-11.92 13.089-12.967-11.208-1.02-12.05-1.836-13.09-12.94-1.03 11.104-1.873 11.92-13.082 12.94 11.209 1.048 12.053 1.865 13.083 12.967z" transform="translate(-391 -232) translate(391 232)"/>
                <path fill="#002855" d="M607.025 467.552c3.708-39.64 6.71-42.56 46.736-46.301-40.02-3.643-43.028-6.553-46.736-46.203-3.676 39.65-6.69 42.56-46.714 46.203 40.025 3.74 43.038 6.662 46.714 46.3" transform="translate(-391 -232) translate(391 232)"/>
                <path stroke="#002855" d="M607.025 467.552c3.708-39.64 6.71-42.56 46.736-46.301-40.02-3.643-43.028-6.553-46.736-46.203-3.676 39.65-6.69 42.56-46.714 46.203 40.025 3.74 43.038 6.662 46.714 46.3zM219.194 117.344c-1.047 11.217-1.895 12.055-13.215 13.092 11.32 1.021 12.168 1.88 13.215 13.107 1.03-11.229 1.877-12.086 13.211-13.107-11.334-1.037-12.182-1.875-13.21-13.092z" transform="translate(-391 -232) translate(391 232)"/>
                <path fill="#FFF" d="M152.735 263.772c-.413 4.425-.748 4.757-5.213 5.166 4.465.401 4.8.74 5.213 5.17.406-4.43.74-4.769 5.21-5.17-4.47-.41-4.804-.74-5.21-5.166" transform="translate(-391 -232) translate(391 232)"/>
                <path stroke="#FFF" d="M152.735 263.772c-.413 4.425-.748 4.757-5.213 5.166 4.465.401 4.8.74 5.213 5.17.406-4.43.74-4.769 5.21-5.17-4.47-.41-4.804-.74-5.21-5.166z" transform="translate(-391 -232) translate(391 232)"/>
                <path fill="#FFF" d="M247.162 310.4c-.55 5.896-.996 6.337-6.947 6.882 5.951.536 6.397.987 6.947 6.89.541-5.903.987-6.354 6.945-6.89-5.958-.545-6.404-.986-6.945-6.883" transform="translate(-391 -232) translate(391 232)"/>
                <path stroke="#FFF" d="M247.162 310.4c-.55 5.896-.996 6.337-6.947 6.882 5.951.536 6.397.987 6.947 6.89.541-5.903.987-6.354 6.945-6.89-5.958-.545-6.404-.986-6.945-6.883z" transform="translate(-391 -232) translate(391 232)"/>
                <path fill="#FFF" d="M211.401 278.161l10.808 18.261-57.206 26.438c-2.202 1.053-4.705.347-5.788-1.483-1.083-1.83-.498-4.364 1.484-5.788l50.702-37.428z" transform="translate(-391 -232) translate(391 232)"/>
                <path fill="#FFF" d="M199.984 259.913l10.961 18.52-19.177 14.355.985-25.98c.017-.449.21-.917.516-1.254l5.004-5.498c.597-.657 1.367-.725 1.711-.143" transform="translate(-391 -232) translate(391 232)"/>
                <path stroke="#002855" d="M199.984 259.913l10.961 18.52-19.177 14.355.985-25.98c.017-.449.21-.917.516-1.254l5.004-5.498c.597-.657 1.367-.725 1.711-.143z" transform="translate(-391 -232) translate(391 232)"/>
                <path fill="#FFF" d="M232.743 315.26l-10.96-18.52-21.813 9.905 23.25 11.637c.4.2.904.258 1.348.15l7.227-1.74c.862-.207 1.292-.85.948-1.432" transform="translate(-391 -232) translate(391 232)"/>
                <path stroke="#002855" d="M232.743 315.26l-10.96-18.52-21.813 9.905 23.25 11.637c.4.2.904.258 1.348.15l7.227-1.74c.862-.207 1.292-.85.948-1.432z" transform="translate(-391 -232) translate(391 232)"/>
                <path fill="#FFF" d="M208.735 280.121L197.481 261.106" transform="translate(-391 -232) translate(391 232)"/>
                <path fill="#002855" d="M198.184 260.691L209.437 279.705 208.033 280.536 196.779 261.522z" transform="translate(-391 -232) translate(391 232)"/>
                <path fill="#FFF" d="M230.502 316.897L219.238 297.866" transform="translate(-391 -232) translate(391 232)"/>
                <path fill="#002855" d="M219.94 297.45L231.204 316.482 229.799 317.313 218.536 298.282zM167.633 317.274L169.293 320.079 165.781 320.923 164.542 318.83z" transform="translate(-391 -232) translate(391 232)"/>
                <path stroke="#002855" d="M167.633 317.274L169.293 320.079 165.781 320.923 164.542 318.83z" transform="translate(-391 -232) translate(391 232)"/>
                <path fill="#002855" d="M165.027 312.871L166.687 315.676 163.836 317.638 162.597 315.544z" transform="translate(-391 -232) translate(391 232)"/>
                <path stroke="#002855" d="M165.027 312.871L166.687 315.676 163.836 317.638 162.597 315.544z" transform="translate(-391 -232) translate(391 232)"/>
                <path fill="#FFF" d="M212.249 302.665c-1.338 0-2.744-.858-3.5-2.137-.145-.244-.264-.504-.344-.751-.524-1.47-.117-2.914 1.006-3.603l5.29-3.2c1.213 1.515 2.525 2.831 3.814 3.821 1.484 1.139 2.91 1.837 4.179 2.05-.482.273-.994.513-1.524.711l-7.924 2.936c-.31.114-.647.173-.998.173" transform="translate(-391 -232) translate(391 232)"/>
                <path fill="#002855" d="M214.82 292.316l-5.67 3.432c-1.35.828-1.806 2.54-1.221 4.184.093.286.227.577.39.851.868 1.468 2.435 2.381 3.93 2.381.4 0 .796-.066 1.17-.203l7.926-2.937c1.134-.424 2.16-1.013 3.014-1.717-.272.071-.56.107-.86.107-1.366 0-3-.726-4.68-2.016-1.338-1.028-2.71-2.417-4-4.082m-.232 1.311c1.159 1.402 2.4 2.625 3.624 3.564 1.058.812 2.096 1.411 3.078 1.781-.096.04-.193.078-.291.115l-7.924 2.935c-.255.095-.534.142-.825.142-1.167 0-2.401-.76-3.07-1.89-.127-.214-.23-.439-.308-.677-.437-1.23-.115-2.434.797-2.994l4.919-2.976" transform="translate(-391 -232) translate(391 232)"/>
                <path fill="#FFF" d="M206.317 301.102c-.371 0-.74-.051-1.096-.15-1.045-.27-1.942-.935-2.47-1.827-.846-1.43-.651-3.222.486-4.458.21-.232.459-.442.744-.628l7.55-4.935.06.102c.102.172.205.345.312.503.617 1.002 1.296 1.959 2.009 2.83 1.215 1.487 2.559 2.786 3.927 3.794-.081.038-9.852 4.409-9.852 4.409-.53.239-1.091.36-1.67.36" transform="translate(-391 -232) translate(391 232)"/>
                <path fill="#002855" d="M211.704 288.394l-7.997 5.227c-.316.207-.601.447-.837.708-1.262 1.37-1.52 3.409-.548 5.05.614 1.038 1.626 1.76 2.764 2.054.398.11.812.169 1.23.169.63 0 1.269-.131 1.876-.404l9.609-4.297c.347-.154.686-.325 1.01-.497-1.543-1.022-3.092-2.444-4.512-4.183-.702-.855-1.362-1.785-1.981-2.79-.102-.151-.198-.315-.296-.48-.11-.186-.221-.372-.318-.557m-.334 1.413c.034.054.066.104.097.149.639 1.038 1.332 2.013 2.057 2.897 1.043 1.278 2.182 2.42 3.35 3.366l-9.094 4.067c-.463.21-.955.316-1.463.316-.325 0-.65-.045-.981-.138-.908-.234-1.693-.815-2.154-1.593-.733-1.24-.563-2.793.429-3.872.177-.195.394-.377.644-.542l7.115-4.65" transform="translate(-391 -232) translate(391 232)"/>
                <path fill="#FFF" d="M203.783 289.094c-.873 0-1.753-.437-2.417-1.2-.19-.21-.343-.42-.478-.646-.985-1.666-.791-3.812.444-4.887l6.387-5.535c.43-.37.888-.705 1.362-.997-.42 1.202-.501 2.768-.225 4.58.24 1.638.763 3.448 1.519 5.257l-5.353 3.097c-.38.22-.797.33-1.24.33" transform="translate(-391 -232) translate(391 232)"/>
                <path fill="#002855" d="M210.347 274.632c-1.028.41-2.04 1.026-2.956 1.816l-6.387 5.536c-1.427 1.242-1.647 3.658-.546 5.519.158.267.336.503.53.72.766.879 1.789 1.37 2.796 1.37.512 0 1.02-.127 1.489-.398l5.736-3.318c-.856-1.96-1.412-3.86-1.66-5.543-.383-2.523-.064-4.58.998-5.702m-2.065 2.375c-.143 1.013-.12 2.177.078 3.473.229 1.557.705 3.26 1.387 4.97l-4.975 2.88c-.303.176-.636.264-.988.264-.73 0-1.472-.374-2.051-1.04-.162-.18-.297-.362-.414-.561-.867-1.465-.717-3.334.34-4.255l6.384-5.532c.079-.067.158-.134.239-.2" transform="translate(-391 -232) translate(391 232)"/>
                <path fill="#FFF" d="M201.705 293.825c-1.31 0-2.482-.662-3.138-1.77-.52-.879-.656-1.928-.384-2.955.22-.926.764-1.752 1.534-2.335 0 0 8.556-6.46 8.636-6.519.203 1.687.677 3.483 1.388 5.245.434 1.07.922 2.087 1.45 3.02.093.173.205.365.318.554l.015.026-7.947 4.266c-.307.163-.61.28-.898.342-.331.085-.653.126-.974.126" transform="translate(-391 -232) translate(391 232)"/>
                <path fill="#002855" d="M208.772 279.357c-.33.205-.647.433-.96.667l-8.398 6.343c-.892.677-1.477 1.605-1.714 2.605-.3 1.125-.165 2.32.437 3.336.764 1.293 2.13 2.017 3.569 2.017.358 0 .72-.045 1.08-.138.345-.076.692-.212 1.026-.39l8.416-4.517c-.1-.149-.195-.31-.29-.47-.107-.182-.216-.366-.311-.547-.558-.983-1.026-1.98-1.423-2.96-.835-2.072-1.31-4.112-1.433-5.946m-.792 1.794c.248 1.477.688 3.016 1.298 4.528.442 1.09.94 2.124 1.465 3.05l.09.166-7.49 4.02c-.268.142-.528.242-.805.303-.274.071-.554.107-.832.107-1.13 0-2.143-.57-2.709-1.527-.45-.76-.567-1.674-.325-2.594.192-.802.67-1.527 1.347-2.039l7.96-6.014" transform="translate(-391 -232) translate(391 232)"/>
                <path fill="#002855" d="M222.178 298.537c-.34 0-.676-.059-.994-.174-.894-.326-1.858-.888-2.864-1.675-1.336-1.043-2.706-2.457-3.96-4.088-.635-.82-1.248-1.714-1.825-2.658-.096-.146-.18-.289-.264-.43-.117-.198-.219-.37-.31-.54-.51-.89-.988-1.84-1.427-2.834-.835-1.899-1.418-3.804-1.683-5.509-.18-1.123-.218-2.135-.114-3.008.17-1.419 1.207-2.522 2.524-2.684.3-.04.566-.058.828-.058.693 0 1.318.13 1.858.387.067.032.124.062.184.093 2.686 1.476 5.59 4.597 7.832 8.384 2.238 3.781 3.576 7.827 3.577 10.821 0 0 0 .23-.003.28-.05.821-.395 1.68-.993 2.488-.554.766-1.43 1.205-2.366 1.205" transform="translate(-391 -232) translate(391 232)"/>
                <path fill="#002855" d="M212.088 274.379c-.283 0-.573.02-.867.06l-.02.002c-1.58.194-2.771 1.529-2.961 3.122-.11.92-.07 1.982.118 3.143.265 1.709.84 3.64 1.719 5.634.416.943.893 1.908 1.443 2.868.094.177.2.356.306.534.094.158.187.316.283.46.59.967 1.208 1.867 1.854 2.703 1.309 1.702 2.697 3.122 4.05 4.178 1.037.81 2.054 1.405 3 1.75.38.138.774.204 1.165.204 1.067 0 2.109-.495 2.75-1.382l.018-.025c.65-.88 1.033-1.83 1.09-2.753.007-.101.002-.204.005-.312-.002-2.987-1.266-7.053-3.648-11.077-2.381-4.023-5.342-7.095-7.96-8.534-.095-.05-.18-.096-.27-.14-.613-.29-1.318-.435-2.075-.435m0 1c.619 0 1.172.113 1.65.342.053.024.102.05.153.078l.06.03c2.55 1.403 5.384 4.456 7.582 8.168 2.195 3.709 3.506 7.659 3.508 10.546l-.001.148c0 .04 0 .08-.002.124-.045.722-.354 1.49-.921 2.254-.438.607-1.163.968-1.94.968-.281 0-.558-.05-.821-.144-.845-.307-1.763-.845-2.728-1.598-1.303-1.018-2.643-2.4-3.873-4.001-.622-.804-1.225-1.683-1.81-2.64-.087-.132-.172-.277-.258-.421-.1-.167-.198-.334-.3-.521-.494-.865-.964-1.8-1.395-2.774-.82-1.862-1.388-3.723-1.647-5.39-.173-1.076-.21-2.041-.111-2.867.14-1.19 1-2.114 2.122-2.251.249-.034.496-.051.732-.051" transform="translate(-391 -232) translate(391 232)"/>
                <path fill="#FFF" d="M217.63 294.893c-1.252 0-2.515-.833-3.216-2.123-.482-.887-.647-1.873-.465-2.777.177-.871.658-1.561 1.355-1.94.375-.204.79-.307 1.23-.307 1.252 0 2.513.833 3.215 2.123.98 1.8.58 3.917-.89 4.716-.376.204-.79.308-1.23.308" transform="translate(-391 -232) translate(391 232)"/>
                <path fill="#002855" d="M216.534 287.245c-.508 0-1.009.118-1.468.368-1.716.933-2.204 3.35-1.09 5.396.814 1.498 2.262 2.383 3.653 2.383.51 0 1.01-.118 1.468-.368 1.716-.932 2.205-3.348 1.091-5.395-.815-1.499-2.263-2.384-3.654-2.384m0 1c1.071 0 2.16.73 2.775 1.861.427.785.574 1.651.414 2.44-.146.724-.538 1.293-1.104 1.6-.3.163-.634.246-.99.246-1.07 0-2.16-.73-2.776-1.862-.848-1.558-.538-3.37.691-4.039.301-.163.634-.246.99-.246" transform="translate(-391 -232) translate(391 232)"/>
                <path fill="#FFF" d="M218.235 293.604c-.944 0-1.906-.647-2.45-1.647-.75-1.377-.478-2.98.608-3.57.266-.144.561-.22.877-.22.944 0 1.906.649 2.45 1.65.75 1.377.477 2.978-.609 3.568-.266.146-.56.22-.876.22" transform="translate(-391 -232) translate(391 232)"/>
                <path fill="#002855" d="M217.27 287.668c-.387 0-.768.09-1.115.279-1.33.724-1.692 2.625-.81 4.248.651 1.198 1.798 1.91 2.89 1.91.387 0 .767-.09 1.116-.28 1.33-.723 1.691-2.626.81-4.248-.653-1.197-1.8-1.909-2.89-1.909m0 1c.752 0 1.56.558 2.01 1.387.607 1.116.421 2.44-.407 2.891-.194.105-.409.159-.64.159-.752 0-1.56-.558-2.01-1.387-.607-1.116-.42-2.441.409-2.892.191-.104.406-.158.637-.158" transform="translate(-391 -232) translate(391 232)"/>
                <path fill="#FFF" d="M212.803 286.74c-1.252 0-2.514-.834-3.215-2.124-.98-1.8-.58-3.917.89-4.717.375-.204.79-.307 1.23-.307 1.251 0 2.512.833 3.215 2.123.98 1.8.58 3.918-.89 4.717-.376.204-.789.308-1.23.308" transform="translate(-391 -232) translate(391 232)"/>
                <path fill="#002855" d="M211.708 279.092c-.509 0-1.009.118-1.468.368-1.716.934-2.204 3.349-1.092 5.396.816 1.499 2.264 2.383 3.655 2.383.508 0 1.009-.118 1.468-.368 1.716-.932 2.204-3.348 1.091-5.395-.815-1.498-2.263-2.384-3.654-2.384m0 1c1.071 0 2.16.73 2.775 1.862.427.784.574 1.65.414 2.44-.146.723-.538 1.292-1.104 1.599-.301.163-.634.246-.99.246-1.071 0-2.16-.73-2.776-1.861-.848-1.56-.538-3.371.69-4.04.301-.163.635-.246.991-.246" transform="translate(-391 -232) translate(391 232)"/>
                <path fill="#FFF" d="M213.408 285.451c-.944 0-1.905-.646-2.45-1.647-.371-.684-.504-1.44-.373-2.129.125-.653.473-1.164.982-1.44.267-.146.563-.22.878-.22.944 0 1.905.647 2.449 1.648.75 1.378.477 2.978-.61 3.57-.265.145-.56.218-.876.218z" transform="translate(-391 -232) translate(391 232)"/>
                <path fill="#002855" d="M212.444 279.516c-.388 0-.768.09-1.116.279-1.33.723-1.692 2.625-.809 4.248.651 1.198 1.798 1.909 2.89 1.909.387 0 .766-.09 1.115-.28 1.33-.723 1.692-2.625.81-4.248-.652-1.197-1.799-1.908-2.89-1.908m0 1c.752 0 1.56.557 2.011 1.386.607 1.117.42 2.44-.408 2.89-.193.107-.408.16-.639.16-.752 0-1.56-.557-2.01-1.387-.608-1.116-.42-2.441.407-2.892.193-.104.408-.157.64-.157" transform="translate(-391 -232) translate(391 232)"/>
                <path fill="#FFF" d="M224.865 295.825c-1.108 0-2.226-.739-2.848-1.884-.429-.787-.576-1.663-.414-2.466.156-.769.58-1.378 1.195-1.712.33-.179.694-.27 1.082-.27 1.108 0 2.227.74 2.85 1.885.867 1.596.517 3.47-.782 4.176-.33.18-.694.271-1.083.271z" transform="translate(-391 -232) translate(391 232)"/>
                <path fill="#002855" d="M223.88 288.993c-.458 0-.908.106-1.32.331-1.545.84-1.985 3.015-.983 4.856.734 1.35 2.037 2.146 3.288 2.146.458 0 .908-.106 1.322-.332 1.544-.84 1.984-3.014.982-4.855-.734-1.349-2.038-2.146-3.289-2.146m0 1c.928 0 1.874.638 2.41 1.624.373.685.501 1.44.362 2.127-.126.622-.46 1.11-.943 1.372-.256.14-.539.21-.844.21-.927 0-1.873-.638-2.409-1.624-.373-.685-.5-1.44-.363-2.127.126-.622.461-1.109.944-1.372.256-.139.54-.21.843-.21" transform="translate(-391 -232) translate(391 232)"/>
                <path fill="#FFF" d="M225.41 294.666c-.831 0-1.68-.571-2.16-1.456-.661-1.216-.424-2.626.528-3.145.232-.127.49-.19.765-.19.832 0 1.68.571 2.16 1.456.663 1.216.426 2.627-.527 3.145-.232.127-.49.19-.765.19" transform="translate(-391 -232) translate(391 232)"/>
                <path fill="#002855" d="M224.543 289.375c-.349 0-.69.08-1.005.251-1.197.651-1.522 2.362-.728 3.823.587 1.077 1.619 1.717 2.6 1.717.35 0 .691-.08 1.006-.251 1.196-.651 1.522-2.362.727-3.823-.585-1.077-1.619-1.717-2.6-1.717m0 1c.642 0 1.333.48 1.721 1.195.522.957.371 2.086-.327 2.466-.157.087-.336.13-.526.13-.642 0-1.334-.48-1.721-1.195-.272-.496-.373-1.062-.28-1.55.048-.244.188-.689.607-.916.157-.087.335-.13.526-.13" transform="translate(-391 -232) translate(391 232)"/>
                <path fill="#FFF" d="M221.438 287.512c-1.108 0-2.227-.74-2.85-1.885-.868-1.596-.517-3.47.781-4.177.33-.18.695-.27 1.083-.27 1.108 0 2.227.739 2.85 1.885.867 1.596.517 3.47-.782 4.176-.33.18-.695.27-1.083.27" transform="translate(-391 -232) translate(391 232)"/>
                <path fill="#002855" d="M220.452 280.68c-.458 0-.908.106-1.321.33-1.544.84-1.984 3.015-.982 4.857.734 1.348 2.037 2.145 3.288 2.145.458 0 .908-.106 1.322-.331 1.544-.84 1.983-3.014.982-4.855-.734-1.35-2.038-2.146-3.29-2.146m0 1c.928 0 1.875.637 2.41 1.623.737 1.355.477 2.924-.58 3.499-.256.14-.54.21-.844.21-.927 0-1.873-.637-2.41-1.623-.372-.686-.501-1.44-.362-2.128.126-.622.46-1.11.944-1.372.256-.14.539-.21.843-.21" transform="translate(-391 -232) translate(391 232)"/>
                <path fill="#FFF" d="M221.981 286.353c-.831 0-1.679-.572-2.16-1.457-.329-.606-.446-1.274-.331-1.882.109-.572.414-1.02.859-1.262.233-.127.49-.192.766-.192.831 0 1.679.572 2.16 1.457.33.606.447 1.274.331 1.882-.109.572-.414 1.02-.858 1.262-.233.127-.491.192-.767.192z" transform="translate(-391 -232) translate(391 232)"/>
                <path fill="#002855" d="M221.114 281.06c-.349 0-.69.082-1.004.252-1.197.65-1.523 2.361-.728 3.822.586 1.077 1.618 1.719 2.6 1.719.348 0 .691-.082 1.004-.252 1.197-.65 1.523-2.363.728-3.822-.586-1.079-1.618-1.719-2.6-1.719m0 1c.641 0 1.333.48 1.722 1.195.27.498.372 1.063.278 1.55-.046.245-.187.69-.605.918-.159.085-.336.13-.528.13-.64 0-1.332-.48-1.72-1.195-.27-.498-.373-1.063-.28-1.552.047-.243.188-.688.606-.916.16-.086.336-.13.527-.13" transform="translate(-391 -232) translate(391 232)"/>
                <path fill="#FFF" d="M215.8 280.505c-1.109 0-2.228-.74-2.85-1.885-.429-.787-.576-1.663-.414-2.465.156-.77.58-1.378 1.195-1.712.33-.18.694-.27 1.082-.27 1.108 0 2.227.739 2.85 1.885.428.787.574 1.663.412 2.465-.155.769-.58 1.378-1.194 1.71-.33.18-.694.272-1.082.272" transform="translate(-391 -232) translate(391 232)"/>
                <path fill="#002855" d="M214.814 273.673c-.458 0-.909.106-1.321.33-1.544.84-1.984 3.015-.982 4.857.733 1.349 2.037 2.145 3.287 2.145.458 0 .91-.106 1.322-.331 1.544-.84 1.983-3.014.982-4.855-.733-1.35-2.037-2.146-3.288-2.146m0 1c.928 0 1.874.638 2.41 1.623.736 1.355.476 2.925-.581 3.5-.256.139-.54.209-.845.209-.927 0-1.873-.637-2.41-1.623-.736-1.355-.475-2.924.582-3.5.256-.14.54-.21.844-.21" transform="translate(-391 -232) translate(391 232)"/>
                <path fill="#FFF" d="M216.344 279.346c-.832 0-1.68-.571-2.161-1.457-.33-.605-.446-1.273-.33-1.882.109-.572.413-1.02.858-1.262.232-.127.49-.19.765-.19.832 0 1.68.57 2.162 1.456.66 1.216.423 2.627-.53 3.145-.231.127-.49.19-.764.19" transform="translate(-391 -232) translate(391 232)"/>
                <path fill="#002855" d="M215.477 274.055c-.35 0-.691.08-1.005.25-1.196.65-1.522 2.363-.728 3.823.586 1.078 1.619 1.718 2.6 1.718.349 0 .69-.081 1.005-.251 1.196-.651 1.523-2.362.728-3.823-.586-1.077-1.62-1.717-2.6-1.717m0 1c.64 0 1.333.479 1.722 1.194.27.497.37 1.062.278 1.55-.046.245-.187.69-.606.917-.16.086-.336.13-.527.13-.641 0-1.333-.48-1.721-1.195-.271-.496-.372-1.062-.28-1.55.047-.245.188-.69.607-.917.158-.086.336-.13.527-.13M191.815 303.362c-2.47 1.462-4.82 2.058-5.25 1.331-.43-.727 1.224-2.5 3.692-3.962 2.47-1.46 4.82-2.056 5.25-1.33.43.727-1.224 2.5-3.692 3.961" transform="translate(-391 -232) translate(391 232)"/>
                <path stroke="#002855" d="M191.815 303.362c-2.47 1.462-4.82 2.058-5.25 1.331-.43-.727 1.224-2.5 3.692-3.962 2.47-1.46 4.82-2.056 5.25-1.33.43.727-1.224 2.5-3.692 3.961z" transform="translate(-391 -232) translate(391 232)"/>
                <path fill="#FFF" d="M190.405 304.197c-2.469 1.461-4.819 2.057-5.249 1.33-.43-.726 1.223-2.5 3.692-3.96 2.47-1.463 4.82-2.058 5.248-1.332.431.727-1.222 2.5-3.69 3.962" transform="translate(-391 -232) translate(391 232)"/>
                <path stroke="#002855" d="M190.405 304.197c-2.469 1.461-4.819 2.057-5.249 1.33-.43-.726 1.223-2.5 3.692-3.96 2.47-1.463 4.82-2.058 5.248-1.332.431.727-1.222 2.5-3.69 3.962z" transform="translate(-391 -232) translate(391 232)"/>
                <path fill="#002855" d="M162.252 319.834c.801 1.387.782 2.897-.043 3.373-.824.476-2.142-.263-2.942-1.649-.801-1.387-.782-2.898.043-3.373.824-.476 2.141.262 2.942 1.649" transform="translate(-391 -232) translate(391 232)"/>
                <path fill="#FFF" d="M541.885 168.7c-.05.04-.1.07-.16.11-.32-.14-.64-.28-.95-.42l-31.96-14.31 13.5-22.31 23.34 13.53v.01c.05.17.12.44.22.79.63 2.24 2.13 7.62 2.59 9.16 1.83 6.24-2.47 10.72-6.58 13.44" transform="translate(-391 -232) translate(391 232)"/>
                <path fill="#002855" d="M583.325 172.23c.16-.38.29-.61.32-.66l.39.21c-.24.15-.47.3-.71.45zm-29.84 27.37c0 .06-.18 5.61-10.05 11.97-.12.08-.23.16-.35.23l-34.27-15.35 16.73-27.65 27.94 16.19v14.61zm64.27-14.77c-.62-.9-1.49-2.02-2.72-2.72-1.15-.65-2.45-.85-3.71-1.05-.29-.04-.59-.09-.89-.14-4.99-.88-9.45-3.64-13.76-6.32-2.35-1.46-4.78-2.96-7.3-4.17-.7-.34-1.46-.68-2.28-.63-.95.05-1.76.57-2.41.98l-23.05 14.63c-1.05.66-2.08 1.25-3.1 1.11-.58-.09-1.13-.41-1.67-.72l-31.66-18.36-17.83 29.46 40.47 18.12c2.48 1.12 5.28 2.37 8.25 2.37h.3c3.5-.1 6.74-2.04 9.35-3.59l11.42-6.81c2.53-1.51 5.4-3.22 8.49-3.51 3.27-.32 6.42.92 9.45 2.12.94.37 1.87.73 2.81 1.06l.45.15c3.35 1.17 7.93 2.77 11.44 1.94 2.51-.59 4.76-1.85 6.94-3.08.82-.46 1.72-.97 2.48-1.68h-.23c-.17 0-.35 0-.53-.01-.26 0-.53-.02-.8-.03-.45.31-.94.58-1.41.85-2.12 1.19-4.31 2.42-6.68 2.98-3.22.76-7.65-.78-10.88-1.91l-.46-.16c-.92-.32-1.84-.68-2.76-1.04-3.14-1.25-6.4-2.53-9.91-2.19-3.32.32-6.29 2.09-8.91 3.65l-5.6 3.34-.05.03-.02-.05c-.92-.3-4.23-1.74-5.95-7.76-1.63-5.71-1.15-13-.87-15.81.05-.44.09-.77.11-.97l18.7-11.87c-.89 2.33-2.07 7.01.69 11.02 3.25 4.7 20.49 18.98 34 19.89.22-.15.44-.3.64-.47.17-.14.34-.3.49-.46l-.04-.03c-13.32-.17-31-14.78-34.26-19.5-3.19-4.64-.45-10.51-.03-11.34l-.04-.03.09-.06c.01 0 .01-.01.01-.01l.69-.43c.59-.37 1.25-.78 1.92-.82.6-.02 1.22.25 1.81.53 2.47 1.18 4.87 2.68 7.2 4.12 4.39 2.72 8.94 5.54 14.12 6.45.3.06.61.11.91.15 1.22.19 2.37.37 3.36.93 1.06.6 1.84 1.61 2.4 2.41 2.63 3.8 3.87 8.43 3.52 13.03-.16 1.99-.62 3.39-1.46 4.38-.06.07-.11.13-.17.19h.48v.21l.01.29.01.41c.15-.14.3-.29.43-.45.98-1.17 1.52-2.74 1.69-4.95.38-4.83-.93-9.69-3.69-13.67z" transform="translate(-391 -232) translate(391 232)"/>
                <path fill="#FFF" d="M553.485 184.99v14.61c0 .06-.18 5.61-10.05 11.97-.12.08-.23.16-.35.23l-34.27-15.35 16.73-27.65 27.94 16.19z" transform="translate(-391 -232) translate(391 232)"/>
                <path fill="#FFF" d="M508.085 196.2c-18.84-7.03-32.34-13.76-32.48-13.83l-19.74-1.92h-.06l-38.98 5.46-6.74-3.69 6.63-17.35 24.72-2.25 5.35-7.52c1.3-.9 20.77-14.29 30.96-8.31 10.31 6.05 39.37 27.67 41.99 29.61.09 1.97.33 16.34-11.65 19.8" transform="translate(-391 -232) translate(391 232)"/>
                <path fill="#002855" d="M595.965 160.83c-1.71.96-3.48 1.96-5.4 2.41-2.59.61-6.18-.64-8.8-1.55l-.36-.13c-.75-.26-1.5-.55-2.25-.85-2.57-1.01-5.22-2.05-8.1-1.78-1.84.18-3.54.89-5.11 1.74l-1.21-1.21c-1.56-1.55-3.97-3.93-5.25-5.11-.79-.62-2.42-5.45-3.53-9.24-.15-.49-.29-.95-.41-1.39l13.24-8.4c-.71 1.98-1.51 5.62.67 8.78 2.62 3.8 16.47 15.29 27.45 16.18-.31.19-.63.37-.94.55m-54.08 7.87c-.05.04-.1.07-.16.11-.32-.14-.64-.28-.95-.42l-31.96-14.31 13.5-22.31 23.34 13.53v.01c.05.17.12.44.22.79.63 2.24 2.13 7.62 2.59 9.16 1.83 6.24-2.47 10.72-6.58 13.44m55.43-24.08c-.51-.74-1.23-1.66-2.25-2.24-.95-.54-2.01-.7-3.04-.86-.24-.04-.48-.07-.72-.11-4.04-.72-7.5-2.86-11.16-5.13-1.91-1.18-3.89-2.41-5.94-3.4-.58-.28-1.19-.55-1.9-.51-.79.04-1.46.46-2 .81l-18.74 11.89c-.84.53-1.65 1-2.45.88-.46-.06-.9-.32-1.33-.57l-25.82-14.96-14.59 24.11 32.99 14.78c2.03.9 4.32 1.93 6.75 1.93h.24c2.88-.09 5.52-1.66 7.65-2.93l9.28-5.54c2.05-1.22 4.37-2.6 6.87-2.84 2.63-.26 5.18.74 7.63 1.71.77.3 1.53.61 2.29.87l.36.12c2.74.96 6.48 2.26 9.36 1.58 2.05-.48 3.89-1.51 5.67-2.51.66-.37 1.39-.79 2.01-1.36h.04v-.03c.15-.14.29-.28.42-.44.81-.96 1.25-2.25 1.4-4.07.3-3.95-.77-7.92-3.02-11.18M387.665 169.93l5.67-14.53 22.38 9.28-6.51 17.05-21.54-11.8zm120.42 26.27c-18.84-7.03-32.34-13.76-32.48-13.83l-19.74-1.92h-.06l-38.98 5.46-6.74-3.69 6.63-17.35 24.72-2.25 5.35-7.52c1.3-.9 20.77-14.29 30.96-8.31 10.31 6.05 39.37 27.67 41.99 29.61.09 1.97.33 16.34-11.65 19.8zm12.63-20.1l-.02-.22-.18-.14c-.31-.23-31.47-23.48-42.27-29.81-11.05-6.48-31.26 7.8-32.11 8.41l-5.25 7.33-24.45 2.22-23.66-9.8-6.36 16.3 30.08 16.48.14.08 39.2-5.49 19.41 1.85c1.18.58 14.45 7.1 32.65 13.88l.15.06.15-.05c13.77-3.82 12.54-20.93 12.52-21.1zM442.065 68.95L426.315 79.55 414.295 56.73 425.865 50.12z" transform="translate(-391 -232) translate(391 232)"/>
                <path fill="#FFF" d="M465.575 105.249L463.305 110.6 441.835 106.079 438.745 101.24 426.795 80.419 442.655 69.749z" transform="translate(-391 -232) translate(391 232)"/>
                <path fill="#002855" d="M463.305 110.6l-21.47-4.52-3.09-4.84-11.95-20.82 15.86-10.67 22.92 35.5-2.27 5.35zm-49.01-53.87l11.57-6.61 16.2 18.83-15.75 10.6-12.02-22.82zm28.89 11.99l-17.1-19.88-13.13 7.5 12.74 24.18 12.19 21.22 3.33 5.23 22.69 4.78 2.8-6.6-23.52-36.43z" transform="translate(-391 -232) translate(391 232)"/>
                <path fill="#FFF" d="M475.383 128.12c0 14.705-11.92 26.625-26.625 26.625s-26.625-11.92-26.625-26.625 11.92-26.625 26.625-26.625 26.625 11.92 26.625 26.625" transform="translate(-391 -232) translate(391 232)"/>
                <path stroke="#002855" d="M475.383 128.12c0 14.705-11.92 26.625-26.625 26.625s-26.625-11.92-26.625-26.625 11.92-26.625 26.625-26.625 26.625 11.92 26.625 26.625z" transform="translate(-391 -232) translate(391 232)"/>
                <path fill="#002855" d="M422.133 128.12c0 8.891 4.363 16.76 11.06 21.595 6.696-4.836 11.059-12.704 11.059-21.595 0-8.892-4.363-16.759-11.06-21.595-6.696 4.836-11.06 12.703-11.06 21.595" transform="translate(-391 -232) translate(391 232)"/>
                <path stroke="#002855" d="M422.133 128.12c0 8.891 4.363 16.76 11.06 21.595 6.696-4.836 11.059-12.704 11.059-21.595 0-8.892-4.363-16.759-11.06-21.595-6.696 4.836-11.06 12.703-11.06 21.595z" transform="translate(-391 -232) translate(391 232)"/>
                <path fill="#FFF" d="M618.755 202.99l.04.03c-.15.16-.32.32-.49.46-.2.17-.42.32-.64.47.27.01.54.03.8.03.2-.15.4-.31.58-.49.04-.04.08-.09.12-.13.05-.05.1-.1.14-.16v-.21h-.55z" transform="translate(-391 -232) translate(391 232)"/>
                <path fill="#002855" d="M583.645 171.57c-.03.05-.16.28-.32.66.24-.15.47-.3.71-.45l-.39-.21zm35.67 31.92l-.01-.29v-.21h-.48l-.03.03c-.15.16-.32.32-.49.46-.2.17-.42.32-.64.47.27.01.54.03.8.03.18.01.36.01.53.01h.23c.04-.02.07-.06.1-.09l-.01-.41z" transform="translate(-391 -232) translate(391 232)"/>
                <path fill="#FFF" d="M544.073 132.354l-6.557 37.04c-.046.263-.112.527-.202.765.179-3.082-1.464-6.18-3.907-7.227l-69.444-29.764-4.123-1.765c-2.055-.892-4.521.216-5.833 2.507.044-.208.115-.404.196-.611l13.133-30.914c.979-2.316 3.455-3.515 5.555-2.701l67.608 26.025c2.458.942 4.059 3.904 3.574 6.645" transform="translate(-391 -232) translate(391 232)"/>
                <path stroke="#002855" d="M544.073 132.354l-6.557 37.04c-.046.263-.112.527-.202.765.179-3.082-1.464-6.18-3.907-7.227l-69.444-29.764-4.123-1.765c-2.055-.892-4.521.216-5.833 2.507.044-.208.115-.404.196-.611l13.133-30.914c.979-2.316 3.455-3.515 5.555-2.701l67.608 26.025c2.458.942 4.059 3.904 3.574 6.645z" transform="translate(-391 -232) translate(391 232)"/>
                <path fill="#FFF" d="M475.372 103.876c-.035.498-.147 1.005-.345 1.505l-11.064 27.787-4.124-1.764c-2.054-.892-4.52.215-5.832 2.506-.14.23-.265.48-.37.733l.566-1.345 13.132-30.913c.98-2.316 3.455-3.514 5.556-2.702 1.656.637 2.608 2.347 2.481 4.193" transform="translate(-391 -232) translate(391 232)"/>
                <path stroke="#002855" d="M475.372 103.876c-.035.498-.147 1.005-.345 1.505l-11.064 27.787-4.124-1.764c-2.054-.892-4.52.215-5.832 2.506-.14.23-.265.48-.37.733l.566-1.345 13.132-30.913c.98-2.316 3.455-3.514 5.556-2.702 1.656.637 2.608 2.347 2.481 4.193z" transform="translate(-391 -232) translate(391 232)"/>
                <path fill="#FFF" d="M537.314 170.159c-.012.304-.045.596-.098.9l-.961 5.382c-.619 3.52-3.415 5.373-6.212 4.117l-76.315-34.302c-2.334-1.048-3.211-4.272-1.986-7.16l1.721-4.036.173-.417c.106-.252.231-.504.371-.733 1.311-2.291 3.778-3.398 5.832-2.506l4.124 1.764 69.444 29.764c2.443 1.047 4.086 4.145 3.907 7.227" transform="translate(-391 -232) translate(391 232)"/>
                <path stroke="#002855" d="M537.314 170.159c-.012.304-.045.596-.098.9l-.961 5.382c-.619 3.52-3.415 5.373-6.212 4.117l-76.315-34.302c-2.334-1.048-3.211-4.272-1.986-7.16l1.721-4.036.173-.417c.106-.252.231-.504.371-.733 1.311-2.291 3.778-3.398 5.832-2.506l4.124 1.764 69.444 29.764c2.443 1.047 4.086 4.145 3.907 7.227z" transform="translate(-391 -232) translate(391 232)"/>
                <path fill="#002855" d="M620.455 198.42c-.16 1.99-.62 3.39-1.46 4.38-.06.07-.11.13-.17.19h-.07c-13.32-.17-31-14.78-34.26-19.5-3.19-4.64-.45-10.51-.03-11.34.03-.04.04-.07.05-.09.01 0 .01-.01.01-.01l.69-.43c.59-.37 1.25-.78 1.92-.82.6-.02 1.22.25 1.81.53 2.47 1.18 4.87 2.68 7.2 4.12 4.39 2.72 8.94 5.54 14.12 6.45.3.06.61.11.91.15 1.22.19 2.37.37 3.36.93 1.06.6 1.84 1.61 2.4 2.41 2.63 3.8 3.87 8.43 3.52 13.03" transform="translate(-391 -232) translate(391 232)"/>
                <path fill="#FFF" d="M619.315 203.49h-.27c-.25 0-.49 0-.74-.01.17-.14.34-.3.49-.46l.37.34.15.13z" transform="translate(-391 -232) translate(391 232)"/>
                <path fill="#002855" d="M584.035 171.78c-.24.15-.47.3-.71.45.16-.38.29-.61.32-.66l.39.21zM584.515 172.06c-.01.02-.02.05-.05.09l-.04-.03.09-.06zM619.325 203.9v.09h-.33c-.17 0-.35 0-.53-.01-.26 0-.53-.02-.8-.03.22-.15.44-.3.64-.47.17-.14.34-.3.49-.46l-.04-.03h.55v.21l.01.29.01.41z" transform="translate(-391 -232) translate(391 232)"/>
                <path fill="#FFF" d="M617.665 203.95c-.45.31-.94.58-1.41.85-2.12 1.19-4.31 2.42-6.68 2.98-3.22.76-7.65-.78-10.88-1.91l-.46-.16c-.92-.32-1.84-.68-2.76-1.04-3.14-1.25-6.4-2.53-9.91-2.19-3.32.32-6.29 2.09-8.91 3.65l-5.6 3.34c-.02-.01-.04-.01-.07-.02-.92-.3-4.23-1.74-5.95-7.76-1.63-5.71-1.15-13-.87-15.81.05-.44.09-.77.11-.97l18.7-11.87c-.89 2.33-2.07 7.01.69 11.02 3.25 4.7 20.49 18.98 34 19.89" transform="translate(-391 -232) translate(391 232)"/>
                <path fill="#002855" d="M571.055 209.47l-.05.03-.02-.05c.03.01.05.01.07.02" transform="translate(-391 -232) translate(391 232)"/>
                <path fill="#FFF" d="M596.905 160.28c-.31.19-.63.37-.94.55-1.71.96-3.48 1.96-5.4 2.41-2.59.61-6.18-.64-8.8-1.55l-.36-.13c-.75-.26-1.5-.55-2.25-.85-2.57-1.01-5.22-2.05-8.1-1.78-1.84.18-3.54.89-5.11 1.74l-1.21-1.21c-1.56-1.55-3.97-3.93-5.25-5.11-.79-.62-2.42-5.45-3.53-9.24-.15-.49-.29-.95-.41-1.39l13.24-8.4c-.71 1.98-1.51 5.62.67 8.78 2.62 3.8 16.47 15.29 27.45 16.18" transform="translate(-391 -232) translate(391 232)"/>
                <path fill="#002855" d="M415.715 164.68L409.205 181.73 387.665 169.93 393.335 155.4z" transform="translate(-391 -232) translate(391 232)"/>
                <path fill="#FFF" d="M413.624 56.536s-8.462.396-10.105 0c-1.143-.275-2.202-1.55-2.961-2.374-.976-1.056-1.822-2.246-2.367-3.582-.114-.28-.217-.582-.162-.88.359-1.93 6.448 2.245 7.137 2.661-2.695-2.08-5.35-4.215-7.962-6.399-.559-.467-1.168-1.054-1.11-1.78.056-.698.764-1.209 1.463-1.254.698-.046 1.371.266 1.965.635.593.37 1.589 1.945 1.798 1.041.09-.383-.674-1.409-.56-2.015.114-.606.476-.68 1.085-.78.232-.037.521-.053.616-.267.088-.196-.057-.408-.131-.609-.117-.313-.05-.688.168-.942.218-.254.578-.377.906-.31.217.044.447.164.645.064.193-.096.242-.349.236-.565-.006-.216-.038-.449.075-.633.206-.339.591-.547.981-.474.316.06.603.128 1.401.235 1.703.274-.485-1.312-.364-1.807.453-1.847 2.901-.933 3.973-.273 1.382.85 12.851 10.034 15.621 13.252l-12.348 7.056z" transform="translate(-391 -232) translate(391 232)"/>
                <path stroke="#002855" d="M413.624 56.536s-8.462.396-10.105 0c-1.143-.275-2.202-1.55-2.961-2.374-.976-1.056-1.822-2.246-2.367-3.582-.114-.28-.217-.582-.162-.88.359-1.93 6.448 2.245 7.137 2.661-2.695-2.08-5.35-4.215-7.962-6.399-.559-.467-1.168-1.054-1.11-1.78.056-.698.764-1.209 1.463-1.254.698-.046 1.371.266 1.965.635.593.37 1.589 1.945 1.798 1.041.09-.383-.674-1.409-.56-2.015.114-.606.476-.68 1.085-.78.232-.037.521-.053.616-.267.088-.196-.057-.408-.131-.609-.117-.313-.05-.688.168-.942.218-.254.578-.377.906-.31.217.044.447.164.645.064.193-.096.242-.349.236-.565-.006-.216-.038-.449.075-.633.206-.339.591-.547.981-.474.316.06.603.128 1.401.235 1.703.274-.485-1.312-.364-1.807.453-1.847 2.901-.933 3.973-.273 1.382.85 12.851 10.034 15.621 13.252l-12.348 7.056z" transform="translate(-391 -232) translate(391 232)"/>
                <path fill="#FFF" d="M393.053 154.745s-5.429-3.798-6.014-5.03c-1.206-2.544-7.389-8.06-7.636-8.204-.494-.287-1.588-.08-1.984.873-.397.952 3.65 7.063 3.094 8.015-.555.952-13.809-3.254-14.522-3.254-2.202-.447-4.717-.743-2.699 1.27.97 1.202 5.643 3.64 7.855 4.527.152.062.102.29-.063.282l-9.935-.365s-1.587.36-1.508 1.886c-.083 1.687 5.34 1.833 7.695 2.064.174.017.18.265.01.296 0 0-6.71 1.102-7.308 1.31-.598.207-1.9 1.687-.375 2.97.536.56 6.37.683 8.601.683.12 0 .134.17.02.198-1.97.494-6.395.765-5.895 3.323.08 1.111 12.588-.156 12.588-.156l12.062 4.726 6.014-15.414z" transform="translate(-391 -232) translate(391 232)"/>
                <path stroke="#002855" d="M393.053 154.745s-5.429-3.798-6.014-5.03c-1.206-2.544-7.389-8.06-7.636-8.204-.494-.287-1.588-.08-1.984.873-.397.952 3.65 7.063 3.094 8.015-.555.952-13.809-3.254-14.522-3.254-2.202-.447-4.717-.743-2.699 1.27.97 1.202 5.643 3.64 7.855 4.527.152.062.102.29-.063.282l-9.935-.365s-1.587.36-1.508 1.886c-.083 1.687 5.34 1.833 7.695 2.064.174.017.18.265.01.296 0 0-6.71 1.102-7.308 1.31-.598.207-1.9 1.687-.375 2.97.536.56 6.37.683 8.601.683.12 0 .134.17.02.198-1.97.494-6.395.765-5.895 3.323.08 1.111 12.588-.156 12.588-.156l12.062 4.726 6.014-15.414z" transform="translate(-391 -232) translate(391 232)"/>
                <path fill="#002855" d="M460.302 160.069L458.915 161.586 461.048 163.807 460.972 170.415 461.991 170.385 462.461 176.175 456.283 170.601 454.28 170.678 453.901 170.342 452.799 170.435 445.794 172.022 446.513 170.96 444.811 171.109 449.276 166.224 456.457 166.023 456.458 161.463 457.651 160.265zM508.434 120.014L506.785 122.382 510.153 125.05 511.167 133.739 512.536 133.555 514.041 140.664 504.973 134.635 502.373 135.008 501.812 134.643 500.405 134.91 491.911 137.768 492.541 136.399 490.462 136.801 494.892 130.123 504.305 128.756 503.371 122.648 504.767 120.778z" transform="translate(-391 -232) translate(391 232)"/>
            </g>
        </g>
    </g>
</svg>
