<svg xmlns="http://www.w3.org/2000/svg" xmlns:xlink="http://www.w3.org/1999/xlink" width="650" height="424" viewBox="0 0 650 424">
    <defs>
        <path id="95hje1qzpa" d="M0 423.707L649.367 423.707 649.367 0 0 0z"/>
    </defs>
    <g fill="none" fill-rule="evenodd">
        <g>
            <g>
                <g transform="translate(-685 -1173) translate(0 1039) translate(685 134)">
                    <path fill="#002855" d="M469.816 269.242c-1.193-.834-2.513-1.503-3.8-2.178-2.182-1.146-4.395-2.235-6.612-3.313-6.206-3.014-12.467-5.913-18.736-8.79-7.046-3.233-14.111-6.425-21.186-9.597-5.913-2.65-11.835-5.287-17.761-7.909-2.813-1.245-5.605-2.6-8.465-3.73-.08-.032-.154-.07-.235-.1-.177-.066-.363.018-.496.131-5.854 4.988-7.549 13.739-7.051 21.06.6 8.803 4.558 17.478 11.867 22.673 4.982 3.54 11.092 5.35 17.041 6.423 6.408 1.157 12.92 1.511 19.376 2.301 3.05.373 6.095.811 9.144 1.202 1.846.237 3.702.451 5.531.8 1.127.215 2.311.472 3.348.98.532.26.905.797.628 1.402-.153.332-.456.617-.672.913-.468.645-.893 1.323-1.288 2.016-2.398 4.213-3.82 9.002-4.541 13.777-.491 3.248-.659 6.542-.504 9.825.155 3.319.266 6.631.186 9.956-.106 4.434-.55 8.831-1.109 13.23-.16 1.252-.337 2.513-.347 3.778-.009 1.204.095 2.617 1.106 3.431 1.042.84 2.608.829 3.876.85 1.121.019 2.244-.01 3.365-.024 1.242-.014 2.51.07 3.748-.007.906-.057 1.515-.778 1.953-1.503.762-1.263 1.227-2.725 1.67-4.123.762-2.397 1.391-4.835 2.013-7.271 2.227-8.724 4.292-17.49 6.488-26.22 1.622-6.454 3.344-12.88 4.981-19.327 1.22-4.8 2.379-10.285.682-15.114-.797-2.27-2.245-4.15-4.2-5.542"/>
                    <path fill="#002855" d="M469.311 301.304c-2.505 9.762-4.878 19.556-7.296 29.34-.724 2.934-1.45 5.87-2.258 8.781-.508 1.834-1.031 3.681-1.748 5.446-.167.414-.446 1.03-.743 1.51-.056.091-.115.18-.175.268-.132.193-.015.044-.148.19-.057.065-.115.126-.176.188-.027.029-.058.054-.087.081-.117.107.018-.006-.03.026-.061.041-.121.082-.187.117-.162.087.074-.026-.095.039-.09.035-.24.04-.083.027-.33.029-.669 0-1-.002-2.308-.011-4.629.126-6.936.014-.967-.044-2.322-.097-2.843-1.044-.557-1.016-.38-2.437-.282-3.543.3-3.441.866-6.85 1.123-10.297.206-2.753.301-5.513.295-8.273-.007-3.437-.327-6.871-.266-10.307.096-5.54 1.108-11.111 3.218-16.247.704-1.712 1.543-3.386 2.566-4.93.413-.624 1.095-1.26 1.291-1.987.284-1.061-.34-2.024-1.29-2.448-2.677-1.194-5.749-1.406-8.62-1.776-6.106-.786-12.2-1.566-18.328-2.18-6.33-.632-12.724-1.372-18.773-3.445-4.955-1.698-9.548-4.286-13-8.282-2.828-3.275-4.78-7.252-5.894-11.42-1.994-7.46-1.621-16.362 2.586-23.038.856-1.358 1.89-2.592 3.114-3.635l-.496.132c-.234-.086-.045-.02.025.011.128.057.257.114.386.169l1.405.618c1.72.755 3.44 1.513 5.158 2.272 5.644 2.496 11.283 5.004 16.917 7.524 7.042 3.151 14.074 6.321 21.09 9.53 6.43 2.94 12.85 5.903 19.221 8.964l12.36 37.607z"/>
                    <path fill="#FFF" d="M477.593 363.205c-.092 0-.19-.016-.29-.048-8.626-2.74-15.238-4.806-20.302-6.389-15.708-4.908-16.157-5.08-16.009-6.117l.11-.817c.492-3.764 1.384-10.58 4.599-13.725 1.395 4.72 9.25 9.729 11.162 9.729.077 0 .146-.006.207-.019 1.527-.306 2.127-2.5 2.656-4.435.161-.59.315-1.151.474-1.558l.064.323c.248 1.255.623 3.15 1.585 4.993 2.491 4.774 7.777 7.513 12.888 10.163l1.478.768c2.614 1.372 3.01 4.118 2.638 5.627-.226.915-.72 1.505-1.26 1.505"/>
                    <path fill="#002855" d="M446.023 335.158c-4.131 3.128-5 11.442-5.517 15.29-.284 2.117-1.012 1.233 36.642 13.195.153.05.302.072.446.072 2.273 0 3.158-5.837-1.142-8.093-5.452-2.862-11.495-5.629-14.151-10.716-1.561-2.992-1.538-6.222-1.99-6.222-.127 0-.29.25-.534.824-.674 1.589-1.118 5.472-2.808 5.811-.03.006-.066.01-.106.01-1.652 0-10.303-5.39-10.84-10.171m-.512 1.914c2.05 4.734 9.416 9.277 11.352 9.277.114 0 .216-.012.307-.03 1.728-.346 2.4-2.454 2.948-4.434.261 1.06.647 2.283 1.279 3.493 2.566 4.918 7.926 7.696 13.11 10.38.493.257.985.511 1.47.766 2.356 1.237 2.714 3.7 2.38 5.055-.179.725-.526 1.115-.763 1.115-.041 0-.087-.007-.137-.023-8.632-2.743-15.383-4.852-20.312-6.393-10.498-3.28-14.995-4.686-15.676-5.336.006-.062.019-.15.029-.219l.02-.14.09-.683c.454-3.474 1.255-9.596 3.903-12.828"/>
                    <path fill="#002855" d="M477.61 363.22c-.106 0-.211-.017-.312-.05l-35.867-11.471c-.529-.169-.827-.737-.666-1.267l.774-2.555 36.244 11.592c.432.138.784.437.99.84.208.405.244.865.103 1.298l-.297.91c-.138.42-.528.703-.97.703"/>
                    <path fill="#002855" d="M441.201 347.233l-.924 3.05c-.243.8.202 1.648.999 1.902l35.866 11.472c.155.05.312.073.466.073.645 0 1.244-.41 1.455-1.055l.297-.91c.38-1.161-.258-2.41-1.421-2.782l-36.738-11.75zm.677 1.288l35.75 11.434c.302.097.548.306.691.587.145.282.17.605.072.906l-.297.909c-.07.211-.264.353-.486.353-.052 0-.104-.01-.155-.025l-35.867-11.472c-.265-.085-.414-.369-.333-.634l.625-2.058zM164.296 88.092L164.296 141.786 165.316 141.786 165.316 89.113 231.939 89.113 231.939 134.011 232.959 134.011 232.959 88.092zM565.786 88.092L565.786 141.786 566.806 141.786 566.806 89.113 633.428 89.113 633.428 218.582 588.826 218.582 588.826 219.603 634.449 219.603 634.449 88.092zM299.99 132.99L299.99 94.684 291.02 94.684 291.02 70.143 278.377 70.143 268.357.001 258.337 70.143 245.704 70.143 245.704 94.684 236.724 94.684 236.724 132.99 232.959 132.99 232.959 134.011 237.745 134.011 237.745 95.705 246.724 95.705 246.724 71.164 259.224 71.164 268.357 7.215 277.49 71.164 290 71.164 290 95.705 298.969 95.705 298.969 134.011 313.939 134.011 313.939 141.786 314.959 141.786 314.959 132.99z"/>
                    <path fill="#002855" d="M562.02 132.99L562.02 94.684 553.041 94.684 553.041 70.143 540.398 70.143 530.377.001 520.367 70.143 507.724 70.143 507.724 94.684 498.745 94.684 498.745 132.99 483.786 132.99 483.786 141.786 484.806 141.786 484.806 134.011 499.765 134.011 499.765 95.705 508.745 95.705 508.745 71.164 521.245 71.164 530.377 7.215 539.52 71.164 552.02 71.164 552.02 95.705 561 95.705 561 134.011 565.786 134.011 565.786 141.786 566.806 141.786 566.806 132.99zM378.398 111.776L378.398 141.786 377.377 141.786 377.377 112.797 372.735 112.797 372.735 76.909 307.826 76.909 307.826 112.797 299.479 112.797 299.479 111.776 306.806 111.776 306.806 75.888 373.755 75.888 373.755 111.776z"/>
                    <path fill="#002855" d="M499.255 111.776L499.255 112.797 490.908 112.797 490.908 76.909 426.01 76.909 426.01 112.797 421.367 112.797 421.367 141.786 420.347 141.786 420.347 111.776 424.99 111.776 424.99 75.888 491.928 75.888 491.928 111.776z"/>
                    <path fill="#002855" d="M421.367 107.143L421.367 112.286 420.347 112.286 420.347 108.164 415.102 108.164 403.378 66.164 400.602 66.164 399.367 46.317 398.143 66.164 395.367 66.164 383.643 108.164 378.398 108.164 378.398 112.286 377.378 112.286 377.378 107.143 382.867 107.143 394.592 65.143 397.184 65.143 398.857 38.031 399.878 38.031 401.561 65.143 404.153 65.143 415.878 107.143z"/>
                    <path stroke="#002855" stroke-width="1.02" d="M201.463 88.606L201.463 59.435 175.064 59.435 175.064 38.064 113.468 38.064 113.468 88.606"/>
                    <path fill="#002855" d="M52.143 130.919L52.143 156.97 33.357 156.97 33.357 219.602 83.949 219.602 83.949 218.582 34.378 218.582 34.378 157.99 53.163 157.99 53.163 131.449 121.112 84.357 121.112 141.786 122.133 141.786 122.133 82.408z"/>
                    <mask id="7wxvpekstb" fill="#fff">
                        <use xlink:href="#95hje1qzpa"/>
                    </mask>
                    <path fill="#002855" d="M0 219.602L83.949 219.602 83.949 218.582 0 218.582zM588.827 219.602L649.367 219.602 649.367 218.582 588.827 218.582zM313.204 35.908L315.32 35.46 315.878 37.572zM309.249 29.596L306.759 34.455 304.63 26.725z" mask="url(#7wxvpekstb)"/>
                    <path fill="#002855" d="M308.635 29.672L307.024 34.566 304.043 27.656zM308.346 35.766L314.172 34.682 315.32 35.459 312.972 38.739z" mask="url(#7wxvpekstb)"/>
                    <path fill="#002855" d="M306.404 34.304L309.249 29.596 310.912 37.346zM307.801 40.486L303.194 41.74 306.791 35.875z" mask="url(#7wxvpekstb)"/>
                    <path fill="#002855" d="M312.972 38.739L307.613 39.669 306.404 34.303zM343.623 19.699L345.801 19.526 346.084 21.714zM340.484 12.863L337.359 17.405 336.231 9.387z" mask="url(#7wxvpekstb)"/>
                    <path fill="#002855" d="M339.859 12.859L337.609 17.551 335.523 10.243zM338.776 18.924L344.753 18.597 345.801 19.525 343.022 22.504z" mask="url(#7wxvpekstb)"/>
                    <path fill="#002855" d="M337.022 17.208L340.484 12.863 341.142 20.842zM337.617 23.581L332.84 24.237 337.205 18.832z" mask="url(#7wxvpekstb)"/>
                    <path fill="#002855" d="M343.022 22.504L337.536 22.738 337.022 17.208zM284.603 21.236L286.044 21.121 286.232 22.568zM282.527 16.714L280.46 19.718 279.714 14.415z" mask="url(#7wxvpekstb)"/>
                    <path fill="#002855" d="M282.114 16.711L280.626 19.815 279.245 14.981zM281.398 20.723L285.351 20.507 286.043 21.121 284.206 23.09z" mask="url(#7wxvpekstb)"/>
                    <path fill="#002855" d="M280.237 19.588L282.527 16.714 282.962 21.991zM280.631 23.803L277.47 24.237 280.358 20.661z" mask="url(#7wxvpekstb)"/>
                    <path fill="#002855" d="M284.206 23.091L280.577 23.246 280.237 19.588zM550.146 35.908L552.262 35.46 552.82 37.572zM546.191 29.596L543.702 34.455 541.572 26.725z" mask="url(#7wxvpekstb)"/>
                    <path fill="#002855" d="M545.577 29.672L543.966 34.566 540.985 27.656zM545.288 35.766L551.114 34.682 552.262 35.459 549.913 38.739z" mask="url(#7wxvpekstb)"/>
                    <path fill="#002855" d="M543.346 34.304L546.191 29.596 547.854 37.346zM544.743 40.486L540.136 41.74 543.733 35.875z" mask="url(#7wxvpekstb)"/>
                    <path fill="#002855" d="M549.914 38.739L544.556 39.669 543.346 34.303zM521.546 21.236L522.986 21.121 523.174 22.568zM519.469 16.714L517.402 19.718 516.656 14.415z" mask="url(#7wxvpekstb)"/>
                    <path fill="#002855" d="M519.056 16.711L517.567 19.815 516.187 14.981zM518.339 20.723L522.293 20.507 522.985 21.121 521.148 23.09z" mask="url(#7wxvpekstb)"/>
                    <path fill="#002855" d="M517.179 19.588L519.469 16.714 519.904 21.991zM517.573 23.803L514.413 24.237 517.3 20.661z" mask="url(#7wxvpekstb)"/>
                    <path fill="#002855" d="M521.148 23.091L517.519 23.246 517.179 19.588zM259.183 20.881L260.355 20.787 260.508 21.965zM257.492 17.199L255.81 19.645 255.202 15.327z" mask="url(#7wxvpekstb)"/>
                    <path fill="#002855" d="M257.156 17.197L255.944 19.724 254.82 15.789zM256.573 20.463L259.791 20.287 260.355 20.787 258.859 22.391z" mask="url(#7wxvpekstb)"/>
                    <path fill="#002855" d="M255.628 19.539L257.492 17.2 257.846 21.495zM255.948 22.971L253.376 23.324 255.726 20.414z" mask="url(#7wxvpekstb)"/>
                    <path fill="#002855" d="M258.859 22.391L255.904 22.518 255.628 19.539zM377.378 141.786h1.02v-1.02h-1.02v1.02zm-256.266-1.02l-.5 1.02h44.704v-1.02h-44.204zm192.827 1.02h1.02v-1.02h-1.02v1.02zm169.847 0h1.02v-1.02h-1.02v1.02zm82-1.02v1.02h23.04v77.816h1.02v-78.837h-24.06zm-145.44 1.02h1.021v-1.02h-1.02v1.02zM535.488 320.206c-28.58 0-51.75 23.17-51.75 51.75 0 28.582 23.17 51.751 51.75 51.751 28.582 0 51.751-23.169 51.751-51.75s-23.17-51.75-51.75-51.75m0 6.122c25.158 0 45.628 20.468 45.628 45.627 0 25.16-20.47 45.629-45.629 45.629s-45.628-20.47-45.628-45.629 20.469-45.627 45.628-45.627" mask="url(#7wxvpekstb)"/>
                    <path fill="#002855" d="M535.488 330.907c-22.671 0-41.05 18.378-41.05 41.05 0 22.67 18.379 41.049 41.05 41.049 22.672 0 41.05-18.379 41.05-41.05 0-22.67-18.378-41.05-41.05-41.05m0 1.021c22.073 0 40.03 17.957 40.03 40.03 0 22.071-17.957 40.028-40.03 40.028-22.072 0-40.03-17.957-40.03-40.028 0-22.073 17.958-40.03 40.03-40.03" mask="url(#7wxvpekstb)"/>
                    <path fill="#002855" d="M564.947 400.534L535.137 372.327 535.839 371.586 565.648 399.792z" mask="url(#7wxvpekstb)"/>
                    <path fill="#002855" d="M571.134 392.299L535.24 372.403 535.735 371.51 571.629 391.406z" mask="url(#7wxvpekstb)"/>
                    <path fill="#002855" d="M575.077 382.782L535.359 372.451 535.617 371.463 575.334 381.794z" mask="url(#7wxvpekstb)"/>
                    <path fill="#002855" d="M576.526 372.525L535.487 372.525 535.487 371.446 576.529 371.446z" mask="url(#7wxvpekstb)"/>
                    <path fill="#002855" d="M575.389 362.346L535.613 372.451 535.362 371.462 575.138 361.356z" mask="url(#7wxvpekstb)"/>
                    <path fill="#002855" d="M571.739 352.713L535.733 372.405 535.243 371.509 571.249 351.817z" mask="url(#7wxvpekstb)"/>
                    <path fill="#002855" d="M565.806 344.293L535.837 372.33 535.139 371.584 565.109 343.548z" mask="url(#7wxvpekstb)"/>
                    <path fill="#002855" d="M557.963 337.615L535.919 372.231 535.057 371.682 557.101 337.067z" mask="url(#7wxvpekstb)"/>
                    <path fill="#002855" d="M548.704 333.1L535.973 372.114 535.003 371.799 547.733 332.784z" mask="url(#7wxvpekstb)"/>
                    <path fill="#002855" d="M538.612 331.033L535.998 371.989 534.979 371.924 537.594 330.969z" mask="url(#7wxvpekstb)"/>
                    <path fill="#002855" d="M528.324 331.544L535.989 371.862 534.987 372.052 527.321 331.735z" mask="url(#7wxvpekstb)"/>
                    <path fill="#002855" d="M518.487 334.602L535.95 371.741 535.027 372.173 517.564 335.036z" mask="url(#7wxvpekstb)"/>
                    <path fill="#002855" d="M509.721 340.012L535.881 371.631 535.096 372.282 508.934 340.663z" mask="url(#7wxvpekstb)"/>
                    <path fill="#002855" d="M502.578 347.434L535.788 371.544 535.188 372.369 501.978 348.26z" mask="url(#7wxvpekstb)"/>
                    <path fill="#002855" d="M497.509 356.401L535.676 371.482 535.3 372.432 497.133 357.35z" mask="url(#7wxvpekstb)"/>
                    <path fill="#002855" d="M494.831 366.348L535.552 371.45 535.425 372.462 494.705 367.36z" mask="url(#7wxvpekstb)"/>
                    <path fill="#002855" d="M494.715 376.648L535.424 371.45 535.553 372.462 494.845 377.66z" mask="url(#7wxvpekstb)"/>
                    <path fill="#002855" d="M497.168 386.653L535.3 371.482 535.677 372.43 497.545 387.602z" mask="url(#7wxvpekstb)"/>
                    <path fill="#002855" d="M502.034 395.732L535.188 371.544 535.789 372.368 502.635 396.556z" mask="url(#7wxvpekstb)"/>
                    <path fill="#002855" d="M509.008 403.313L535.094 371.632 535.882 372.281 509.795 403.962z" mask="url(#7wxvpekstb)"/>
                    <path fill="#002855" d="M517.649 408.919L535.026 371.74 535.95 372.172 518.574 409.352z" mask="url(#7wxvpekstb)"/>
                    <path fill="#002855" d="M527.415 412.197L534.986 371.863 535.99 372.051 528.418 412.385z" mask="url(#7wxvpekstb)"/>
                    <path fill="#002855" d="M537.689 412.94L534.979 371.99 535.997 371.923 538.707 412.873z" mask="url(#7wxvpekstb)"/>
                    <path fill="#002855" d="M547.824 411.1L535.004 372.116 535.973 371.796 548.794 410.782z" mask="url(#7wxvpekstb)"/>
                    <path fill="#002855" d="M557.183 406.797L535.058 372.231 535.918 371.681 558.042 406.246zM152.983 319.76c-28.58 0-51.751 23.17-51.751 51.75 0 28.582 23.17 51.751 51.75 51.751 28.582 0 51.752-23.17 51.752-51.751 0-28.58-23.17-51.75-51.751-51.75m0 6.122c25.159 0 45.628 20.469 45.628 45.628 0 25.16-20.469 45.629-45.628 45.629-25.16 0-45.629-20.47-45.629-45.629 0-25.16 20.47-45.628 45.629-45.628" mask="url(#7wxvpekstb)"/>
                    <path fill="#002855" d="M152.983 330.46c-22.672 0-41.05 18.379-41.05 41.05 0 22.67 18.378 41.05 41.05 41.05 22.671 0 41.05-18.38 41.05-41.05 0-22.671-18.379-41.05-41.05-41.05m0 1.02c22.072 0 40.03 17.958 40.03 40.03 0 22.072-17.958 40.03-40.03 40.03-22.073 0-40.03-17.958-40.03-40.03 0-22.072 17.957-40.03 40.03-40.03" mask="url(#7wxvpekstb)"/>
                    <path fill="#002855" d="M182.441 400.087L152.632 371.88 153.334 371.139 183.142 399.345z" mask="url(#7wxvpekstb)"/>
                    <path fill="#002855" d="M188.629 391.852L152.735 371.956 153.23 371.063 189.124 390.959z" mask="url(#7wxvpekstb)"/>
                    <path fill="#002855" d="M192.572 382.336L152.854 372.004 153.111 371.016 192.829 381.348z" mask="url(#7wxvpekstb)"/>
                    <path fill="#002855" d="M194.02 372.079L152.981 372.079 152.981 370.999 194.023 370.999z" mask="url(#7wxvpekstb)"/>
                    <path fill="#002855" d="M192.884 361.9L153.108 372.005 152.857 371.016 192.633 360.91z" mask="url(#7wxvpekstb)"/>
                    <path fill="#002855" d="M189.234 352.267L153.228 371.958 152.738 371.062 188.744 351.371z" mask="url(#7wxvpekstb)"/>
                    <path fill="#002855" d="M183.3 343.846L153.331 371.884 152.634 371.138 182.603 343.101z" mask="url(#7wxvpekstb)"/>
                    <path fill="#002855" d="M175.457 337.169L153.413 371.785 152.552 371.237 174.596 336.621z" mask="url(#7wxvpekstb)"/>
                    <path fill="#002855" d="M166.198 332.654L153.468 371.668 152.498 371.353 165.228 332.337z" mask="url(#7wxvpekstb)"/>
                    <path fill="#002855" d="M156.107 330.587L153.493 371.543 152.473 371.478 155.088 330.523z" mask="url(#7wxvpekstb)"/>
                    <path fill="#002855" d="M145.819 331.098L153.484 371.415 152.482 371.605 144.816 331.289z" mask="url(#7wxvpekstb)"/>
                    <path fill="#002855" d="M135.982 334.155L153.445 371.294 152.522 371.727 135.058 334.59z" mask="url(#7wxvpekstb)"/>
                    <path fill="#002855" d="M127.216 339.565L153.376 371.185 152.59 371.836 126.429 340.216z" mask="url(#7wxvpekstb)"/>
                    <path fill="#002855" d="M120.073 346.987L153.283 371.097 152.683 371.923 119.473 347.814z" mask="url(#7wxvpekstb)"/>
                    <path fill="#002855" d="M115.003 355.955L153.171 371.035 152.795 371.985 114.628 356.904z" mask="url(#7wxvpekstb)"/>
                    <path fill="#002855" d="M112.326 365.902L153.046 371.004 152.92 372.016 112.199 366.914z" mask="url(#7wxvpekstb)"/>
                    <path fill="#002855" d="M112.21 376.201L152.918 371.003 153.048 372.016 112.339 377.214z" mask="url(#7wxvpekstb)"/>
                    <path fill="#002855" d="M114.662 386.206L152.795 371.036 153.171 371.984 115.04 387.155z" mask="url(#7wxvpekstb)"/>
                    <path fill="#002855" d="M119.529 395.285L152.682 371.097 153.284 371.922 120.13 396.11z" mask="url(#7wxvpekstb)"/>
                    <path fill="#002855" d="M126.502 402.866L152.589 371.186 153.377 371.835 127.29 403.515z" mask="url(#7wxvpekstb)"/>
                    <path fill="#002855" d="M135.144 408.473L152.52 371.293 153.445 371.726 136.068 408.905z" mask="url(#7wxvpekstb)"/>
                    <path fill="#002855" d="M144.909 411.75L152.481 371.417 153.484 371.604 145.913 411.939z" mask="url(#7wxvpekstb)"/>
                    <path fill="#002855" d="M155.184 412.494L152.473 371.544 153.492 371.476 156.202 412.426z" mask="url(#7wxvpekstb)"/>
                    <path fill="#002855" d="M165.319 410.654L152.499 371.669 153.468 371.35 166.288 410.336z" mask="url(#7wxvpekstb)"/>
                    <path fill="#002855" d="M174.677 406.35L152.553 371.785 153.412 371.235 175.537 405.799z" mask="url(#7wxvpekstb)"/>
                    <path fill="#FFF" d="M213.934 328.86L166.2 156.84s-16.691 4.394-28.186-2.62c-13.711-8.371-35.078 3.594-42.969 11.228 0 0 19.618 39.406 19.618 45.977 0 6.57 16.616-15.548 30.248-9.766 19.095 8.098 34.636 3.28 34.636 3.28l34.388 123.922z" mask="url(#7wxvpekstb)"/>
                    <path stroke="#002855" stroke-width="2.041" d="M213.934 328.86L166.2 156.84s-16.691 4.394-28.186-2.62c-13.711-8.371-35.078 3.594-42.969 11.228 0 0 19.618 39.406 19.618 45.977 0 6.57 16.616-15.548 30.248-9.766 19.095 8.098 34.636 3.28 34.636 3.28l34.388 123.922z" mask="url(#7wxvpekstb)"/>
                    <path fill="#002855" d="M147.539 172.724L151.239 169.916 154.49 173.224zM133.364 164.995L133.364 176.156 121.328 164.137z" mask="url(#7wxvpekstb)"/>
                    <path fill="#002855" d="M132.202 165.711L134.029 176.11 121.125 166.379zM137.849 177.041L148.189 169.585 151.239 169.916 149.969 178.079z" mask="url(#7wxvpekstb)"/>
                    <path fill="#002855" d="M132.544 176.218L133.364 164.995 144.504 177.491zM141.594 186.12L133.822 192.735 134.906 178.705z" mask="url(#7wxvpekstb)"/>
                    <path fill="#002855" d="M149.97 178.079L140.392 184.813 132.543 176.217z" mask="url(#7wxvpekstb)"/>
                    <path fill="#FFF" d="M219.03 342.846L218.774 343.02 218.734 342.866z" mask="url(#7wxvpekstb)"/>
                    <path fill="#002855" d="M219.03 342.846L218.734 342.866 218.774 343.02z" mask="url(#7wxvpekstb)"/>
                    <path fill="#FFF" d="M428.722 358.998l-11.351-42.693 74.723-5.704-63.372 48.397zm-198.75 6.22c-.056-.21-8.974-33.761-9.02-33.94.147-.006 89.788-6.844 89.995-6.859l10.85 40.8h-91.824zm-57.242 0l38.342-26.834 7.131 26.834H172.73zm245.877 0h-85.04l-11.075-41.683 83.345-6.353 12.77 48.036zm83.202-47.656l28.095 56.285c1.294 2.918 4.728 4.14 7.52 2.862 2.86-1.307 4.127-4.695 2.84-7.578l-32.825-65.759v-18.7h-9.44v13.994l-83.621 6.375-3.362-12.655-10.982 2.965 2.809 10.574-83.355 6.354-3.26-12.284-10.982 2.965 2.707 10.194-90.006 6.86-4.004-15.076-10.972 2.965 4.975 18.73c-.279.253-56.557 39.524-56.793 39.748-3.557 2.554-2.65 8.646 1.563 9.958 4.132.68 271.581.032 271.581.032l77.512-58.809z" mask="url(#7wxvpekstb)"/>
                    <path stroke="#002855" stroke-width="1.02" d="M428.722 358.998l-11.351-42.693 74.723-5.704-63.372 48.397zm-198.75 6.22c-.056-.21-8.974-33.761-9.02-33.94.147-.006 89.788-6.844 89.995-6.859l10.85 40.8h-91.824zm-57.242 0l38.342-26.834 7.131 26.834H172.73zm245.877 0h-85.04l-11.075-41.683 83.345-6.353 12.77 48.036zm83.202-47.656l28.095 56.285c1.294 2.918 4.728 4.14 7.52 2.862 2.86-1.307 4.127-4.695 2.84-7.578l-32.825-65.759v-18.7h-9.44v13.994l-83.621 6.375-3.362-12.655-10.982 2.965 2.809 10.574-83.355 6.354-3.26-12.284-10.982 2.965 2.707 10.194-90.006 6.86-4.004-15.076-10.972 2.965 4.975 18.73c-.279.253-56.557 39.524-56.793 39.748-3.557 2.554-2.65 8.646 1.563 9.958 4.132.68 271.581.032 271.581.032l77.512-58.809z" mask="url(#7wxvpekstb)"/>
                    <path fill="#FFF" d="M398.897 280.837L404.361 279.373 408.013 293.004 402.584 294.594z" mask="url(#7wxvpekstb)"/>
                    <path fill="#002855" d="M404.72 278.748l-6.447 1.728 3.953 14.755 6.408-1.878-3.913-14.605zm-.72 1.25l3.391 12.658-4.45 1.303-3.418-12.762 4.476-1.199z" mask="url(#7wxvpekstb)"/>
                    <path fill="#FFF" d="M499.885 284.528L505.54 284.528 505.54 270.271 499.885 270.271z" mask="url(#7wxvpekstb)"/>
                    <path fill="#002855" d="M499.376 285.038h6.675V269.76h-6.675v15.277zm1.02-1.022h4.635v-13.235h-4.635v13.235z" mask="url(#7wxvpekstb)"/>
                    <path fill="#FFF" d="M304.295 288.496L309.758 287.032 313.41 300.664 307.982 302.254z" mask="url(#7wxvpekstb)"/>
                    <path fill="#002855" d="M310.119 286.407l-6.45 1.728 3.955 14.756 6.408-1.878-3.913-14.606zm-.722 1.251l3.392 12.656-4.45 1.305-3.42-12.763 4.478-1.198z" mask="url(#7wxvpekstb)"/>
                    <path fill="#FFF" d="M202.996 295.697L208.459 294.232 211.488 305.537 206.053 307.107z" mask="url(#7wxvpekstb)"/>
                    <path fill="#002855" d="M208.82 293.608l-6.448 1.728 3.323 12.406 6.415-1.854-3.29-12.28zm-.722 1.251l2.768 10.327-4.455 1.286-2.79-10.415 4.477-1.198z" mask="url(#7wxvpekstb)"/>
                    <path fill="#FFF" d="M239.925 371.14c0 6.883-5.58 12.463-12.464 12.463s-12.465-5.58-12.465-12.464 5.58-12.464 12.465-12.464c6.883 0 12.464 5.58 12.464 12.464" mask="url(#7wxvpekstb)"/>
                    <path stroke="#002855" stroke-width="1.02" d="M239.925 371.14c0 6.883-5.58 12.463-12.464 12.463s-12.465-5.58-12.465-12.464 5.58-12.464 12.465-12.464c6.883 0 12.464 5.58 12.464 12.464z" mask="url(#7wxvpekstb)"/>
                    <path fill="#002855" d="M231.38 361.29l.562 2.667c.259 1.233 1.28 2.157 2.528 2.289l2.701.287c2.792.295 3.573 4.004 1.14 5.41l-2.354 1.362c-1.088.63-1.649 1.89-1.389 3.124l.561 2.665c.683 2.565-2.623 4.488-4.776 2.764l-2.016-1.824c-.933-.843-2.3-.99-3.388-.358l-2.354 1.362c-2.433 1.406-5.238-1.13-4.093-3.704l1.108-2.49c.512-1.151.228-2.501-.705-3.344l-2.016-1.824c-2.21-1.923-.71-5.391 2.248-5.054l2.7.286c1.25.133 2.441-.557 2.953-1.708l1.108-2.489c1.18-2.623 4.974-2.276 5.481.58" mask="url(#7wxvpekstb)"/>
                    <path stroke="#002855" stroke-width="1.02" d="M231.38 361.29l.562 2.667c.259 1.233 1.28 2.157 2.528 2.289l2.701.287c2.792.295 3.573 4.004 1.14 5.41l-2.354 1.362c-1.088.63-1.649 1.89-1.389 3.124l.561 2.665c.683 2.565-2.623 4.488-4.776 2.764l-2.016-1.824c-.933-.843-2.3-.99-3.388-.358l-2.354 1.362c-2.433 1.406-5.238-1.13-4.093-3.704l1.108-2.49c.512-1.151.228-2.501-.705-3.344l-2.016-1.824c-2.21-1.923-.71-5.391 2.248-5.054l2.7.286c1.25.133 2.441-.557 2.953-1.708l1.108-2.489c1.18-2.623 4.974-2.276 5.481.58z" mask="url(#7wxvpekstb)"/>
                    <path fill="#002855" d="M228.646 372.032L226.275 370.095 238.286 355.427 240.656 357.366z" mask="url(#7wxvpekstb)"/>
                    <path fill="#FFF" d="M214.993 388.768L212.622 386.833 226.275 370.095 228.645 372.032zM246.836 359.342L235.763 355.996 237.052 351.727 248.126 355.073z" mask="url(#7wxvpekstb)"/>
                    <path stroke="#002855" stroke-width="1.02" d="M246.836 359.342L235.763 355.996 237.052 351.727 248.126 355.073z" mask="url(#7wxvpekstb)"/>
                    <path fill="#FFF" d="M217.595 392.423L207.785 386.293 210.273 382.312 220.083 388.442z" mask="url(#7wxvpekstb)"/>
                    <path stroke="#002855" stroke-width="1.02" d="M217.595 392.423L207.785 386.293 210.273 382.312 220.083 388.442z" mask="url(#7wxvpekstb)"/>
                    <path fill="#FFF" d="M341.024 371.14c0 6.883-5.58 12.463-12.464 12.463s-12.464-5.58-12.464-12.464 5.58-12.464 12.464-12.464 12.464 5.58 12.464 12.464" mask="url(#7wxvpekstb)"/>
                    <path stroke="#002855" stroke-width="1.02" d="M341.024 371.14c0 6.883-5.58 12.463-12.464 12.463s-12.464-5.58-12.464-12.464 5.58-12.464 12.464-12.464 12.464 5.58 12.464 12.464z" mask="url(#7wxvpekstb)"/>
                    <path fill="#002855" d="M332.48 361.29l.56 2.667c.26 1.233 1.281 2.157 2.53 2.289l2.701.287c2.792.295 3.573 4.004 1.14 5.41l-2.354 1.362c-1.088.63-1.65 1.89-1.389 3.124l.561 2.665c.683 2.565-2.623 4.488-4.777 2.764l-2.017-1.824c-.931-.843-2.299-.99-3.387-.358l-2.353 1.362c-2.434 1.406-5.238-1.13-4.093-3.704l1.108-2.49c.511-1.151.226-2.501-.705-3.344l-2.017-1.824c-2.21-1.923-.71-5.391 2.248-5.054l2.701.286c1.25.133 2.441-.557 2.952-1.708l1.109-2.489c1.18-2.623 4.974-2.276 5.481.58" mask="url(#7wxvpekstb)"/>
                    <path stroke="#002855" stroke-width="1.02" d="M332.48 361.29l.56 2.667c.26 1.233 1.281 2.157 2.53 2.289l2.701.287c2.792.295 3.573 4.004 1.14 5.41l-2.354 1.362c-1.088.63-1.65 1.89-1.389 3.124l.561 2.665c.683 2.565-2.623 4.488-4.777 2.764l-2.017-1.824c-.931-.843-2.299-.99-3.387-.358l-2.353 1.362c-2.434 1.406-5.238-1.13-4.093-3.704l1.108-2.49c.511-1.151.226-2.501-.705-3.344l-2.017-1.824c-2.21-1.923-.71-5.391 2.248-5.054l2.701.286c1.25.133 2.441-.557 2.952-1.708l1.109-2.489c1.18-2.623 4.974-2.276 5.481.58z" mask="url(#7wxvpekstb)"/>
                    <path fill="#002855" d="M329.745 372.032L327.375 370.095 339.386 355.427 341.755 357.366z" mask="url(#7wxvpekstb)"/>
                    <path fill="#FFF" d="M316.093 388.768L313.722 386.833 327.375 370.095 329.745 372.032z" mask="url(#7wxvpekstb)"/>
                    <path fill="#FFF" d="M317.694 392.423L307.883 386.293 310.371 382.312 320.181 388.442z" mask="url(#7wxvpekstb)"/>
                    <path stroke="#002855" stroke-width="1.02" d="M317.694 392.423L307.883 386.293 310.371 382.312 320.181 388.442z" mask="url(#7wxvpekstb)"/>
                    <path fill="#FFF" d="M345.247 360.483L334.174 357.137 335.532 352.642 346.606 355.989z" mask="url(#7wxvpekstb)"/>
                    <path stroke="#002855" stroke-width="1.02" d="M345.247 360.483L334.174 357.137 335.532 352.642 346.606 355.989z" mask="url(#7wxvpekstb)"/>
                    <path fill="#FFF" d="M440.808 371.14c0 6.883-5.581 12.463-12.465 12.463-6.883 0-12.464-5.58-12.464-12.464s5.58-12.464 12.464-12.464 12.465 5.58 12.465 12.464" mask="url(#7wxvpekstb)"/>
                    <path stroke="#002855" stroke-width="1.02" d="M440.808 371.14c0 6.883-5.581 12.463-12.465 12.463-6.883 0-12.464-5.58-12.464-12.464s5.58-12.464 12.464-12.464 12.465 5.58 12.465 12.464z" mask="url(#7wxvpekstb)"/>
                    <path fill="#002855" d="M432.262 361.29l.562 2.667c.26 1.233 1.281 2.157 2.53 2.289l2.7.287c2.792.295 3.573 4.004 1.14 5.41l-2.354 1.362c-1.088.63-1.65 1.89-1.389 3.124l.561 2.665c.683 2.565-2.623 4.488-4.776 2.764l-2.017-1.824c-.932-.843-2.3-.99-3.387-.358l-2.354 1.362c-2.434 1.406-5.238-1.13-4.093-3.704l1.108-2.49c.512-1.151.227-2.501-.705-3.344l-2.017-1.824c-2.21-1.923-.71-5.391 2.248-5.054l2.701.286c1.25.133 2.441-.557 2.952-1.708l1.109-2.489c1.18-2.623 4.974-2.276 5.481.58" mask="url(#7wxvpekstb)"/>
                    <path stroke="#002855" stroke-width="1.02" d="M432.262 361.29l.562 2.667c.26 1.233 1.281 2.157 2.53 2.289l2.7.287c2.792.295 3.573 4.004 1.14 5.41l-2.354 1.362c-1.088.63-1.65 1.89-1.389 3.124l.561 2.665c.683 2.565-2.623 4.488-4.776 2.764l-2.017-1.824c-.932-.843-2.3-.99-3.387-.358l-2.354 1.362c-2.434 1.406-5.238-1.13-4.093-3.704l1.108-2.49c.512-1.151.227-2.501-.705-3.344l-2.017-1.824c-2.21-1.923-.71-5.391 2.248-5.054l2.701.286c1.25.133 2.441-.557 2.952-1.708l1.109-2.489c1.18-2.623 4.974-2.276 5.481.58z" mask="url(#7wxvpekstb)"/>
                    <path fill="#FFF" d="M415.876 388.768L413.505 386.833 427.158 370.096 429.529 372.031z" mask="url(#7wxvpekstb)"/>
                    <path fill="#FFF" d="M417.166 392.423L407.356 386.293 409.843 382.312 419.653 388.442z" mask="url(#7wxvpekstb)"/>
                    <path stroke="#002855" stroke-width="1.02" d="M417.166 392.423L407.356 386.293 409.843 382.312 419.653 388.442z" mask="url(#7wxvpekstb)"/>
                    <path fill="#FFF" d="M455.888 362.029L447.215 359.409 451.987 355.946 457.246 357.535z" mask="url(#7wxvpekstb)"/>
                    <path stroke="#002855" stroke-width="1.02" d="M455.888 362.029L447.215 359.409 451.987 355.946 457.246 357.535z" mask="url(#7wxvpekstb)"/>
                    <path fill="#FFF" d="M226.276 263.615l24.533 4.873 19.205 22.485-11.482 19.609s-71.258-35.81-32.256-46.967" mask="url(#7wxvpekstb)"/>
                    <path fill="#002855" d="M226.298 264.139c-7.04 2.035-10.792 5.011-11.152 8.847-1.277 13.61 38.598 34.559 43.19 36.922l11.055-18.88-18.856-22.073-24.237-4.816zm32.433 47.114l-.428-.215c-.113-.057-11.48-5.791-22.527-13.274-14.96-10.133-22.243-18.502-21.646-24.873.405-4.318 4.445-7.603 12.006-9.767l.118-.033 24.828 4.931 19.556 22.894-11.907 20.337z" mask="url(#7wxvpekstb)"/>
                    <path fill="#FFF" d="M470.49 242.232s-2.223 13.35 2.356 18.303c4.58 4.95 18.014 8.725 18.014 8.725l2.102-27.098v-29.777c-10.681 7.35-22.473 29.847-22.473 29.847" mask="url(#7wxvpekstb)"/>
                    <path stroke="#002855" stroke-width="1.02" d="M470.49 242.232s-2.223 13.35 2.356 18.303c4.58 4.95 18.014 8.725 18.014 8.725l2.102-27.098v-29.777c-10.681 7.35-22.473 29.847-22.473 29.847z" mask="url(#7wxvpekstb)"/>
                    <path stroke="#002855" stroke-linejoin="round" stroke-width="1.02" d="M350.288 217.477l7.234-11.44 5.046-11.827 20.431.775c0 13.536 2.505 13.217 2.468 14.014-.569.72-2.258.69-2.536.945-.612.564.817 7.429-1.295 8.9-1.393.968-12.225.559-12.122.559-.642 0-1.259 1.268-1.757 2.67-2.935-3.679-11.364-2.972-17.469-4.596z" mask="url(#7wxvpekstb)"/>
                    <path fill="#FFF" d="M186.087 282.774c-.963.037-2.7.26-3.473.836-.772.576-1.29 1.555-1.13 2.505.127.76.644 1.387 1.142 1.974 2.706 3.195 5.48 6.447 9.06 8.616.666.404 1.374.773 2.146.882 1.556.22 3.03-.634 4.5-1.19 1.47-.554 3.685-.71 4.904.154l-17.15-13.777z" mask="url(#7wxvpekstb)"/>
                    <path fill="#002855" d="M186.087 282.264c-1.847.084-4.016.41-4.868 2.289-1.025 2.264 1.288 4.207 2.625 5.745 1.639 1.883 3.354 3.717 5.32 5.265 1.855 1.461 3.963 3.01 6.442 2.402 2.317-.568 4.992-2.544 7.373-.973.475.313 1.073-.436.618-.803l-5.79-4.65-9.233-7.418-2.126-1.708c-.507-.407-1.234.31-.722.722l5.79 4.65 9.233 7.419 2.126 1.707c.207-.266.412-.534.618-.801-1.458-.962-3.552-.81-5.137-.262-1.085.373-2.102.959-3.237 1.182-1.22.241-2.244-.196-3.269-.823-1.903-1.166-3.578-2.656-5.125-4.258-.769-.796-1.507-1.62-2.232-2.456-.737-.85-1.618-1.702-2.192-2.673-.627-1.063-.235-2.377.87-2.952.863-.447 1.962-.54 2.916-.584.654-.03.658-1.05 0-1.02" mask="url(#7wxvpekstb)"/>
                    <path fill="#FFF" d="M284.738 270.193c-.964.037-1.95.26-2.723.836-.773.578-1.29 1.556-1.13 2.506.126.76.643 1.387 1.14 1.974 2.707 3.195 5.48 6.447 9.062 8.616.666.404 1.374.773 2.144.883 1.557.22 3.03-.636 4.5-1.19 1.47-.555 3.687-.711 4.906.152l-17.9-13.777z" mask="url(#7wxvpekstb)"/>
                    <path fill="#002855" d="M284.738 269.683c-1.974.104-4.277 1.101-4.387 3.377-.054 1.114.635 2.002 1.314 2.809.76.903 1.526 1.8 2.311 2.68 1.57 1.757 3.237 3.431 5.127 4.847.92.69 1.906 1.382 2.98 1.815 1.06.426 2.158.411 3.245.087 2.188-.652 4.794-2.375 7.05-.887.563.371 1.02-.493.516-.882l-6.02-4.633-9.662-7.437c-.74-.568-1.478-1.137-2.217-1.706-.52-.4-1.029.486-.515.881l6.02 4.635 9.662 7.436 2.216 1.706c.173-.293.344-.588.516-.882-1.394-.92-3.35-.805-4.887-.343-1.01.304-1.938.829-2.949 1.128-1.121.33-2.127.236-3.16-.311-3.745-1.986-6.6-5.422-9.297-8.602-.779-.918-1.648-1.938-.97-3.172.61-1.114 1.926-1.463 3.107-1.525.653-.034.657-1.054 0-1.02" mask="url(#7wxvpekstb)"/>
                    <path stroke="#002855" stroke-width="1.02" d="M201.08 374.109L201.08 374.109" mask="url(#7wxvpekstb)"/>
                    <path fill="#FFF" d="M512.808 295.673c-2.64 0-3.363-.444-3.363-2.061 0-1.33.363-1.6 2.16-1.6.353 0 .743.013 1.169.025.523.013 1.1.03 1.731.03 1.402 0 2.644-.081 3.909-.255 3.517-.486 5.834-13.707 5.633-15.685l-.031-.308c-.102-1-.183-1.788-.109-1.96.001.034.22.036.413.036h.038c.448 0 1.126 0 2.04-.175.142-.027.279-.041.41-.041.609 0 1.136.286 1.568.845.625.813.87 2.02.707 2.637-.35 1.32-.67 2.717-.977 4.067-1.675 7.34-3.259 14.273-10.094 14.312-1.1.006-2.11.043-3.023.077-.803.03-1.532.056-2.18.056" mask="url(#7wxvpekstb)"/>
                    <path fill="#002855" d="M526.808 273.169c-.161 0-.33.016-.505.05-3.092.592-3.157-.921-2.764 2.96.203 1.994-2.16 14.708-5.196 15.127-1.45.2-2.727.252-3.836.252-1.146 0-2.113-.055-2.901-.055-1.793 0-2.672.28-2.672 2.109 0 2.172 1.348 2.571 3.875 2.571 1.389 0 3.133-.12 5.206-.132 8.602-.05 9.364-10.467 11.561-18.76.329-1.24-.59-4.122-2.768-4.122m0 1.02c.449 0 .828.212 1.163.646.553.719.733 1.763.618 2.195-.352 1.33-.671 2.73-.98 4.084-1.63 7.138-3.169 13.88-9.6 13.916-1.111.007-2.136.044-3.039.077-.818.03-1.524.056-2.161.056-2.733 0-2.854-.503-2.854-1.551 0-.923 0-1.089 1.65-1.089.35 0 .734.011 1.155.023.527.015 1.11.032 1.747.032 1.425 0 2.689-.084 3.976-.261 4.119-.568 6.24-14.587 6.072-16.242l-.032-.308c-.053-.518-.104-1.017-.124-1.361.467 0 1.16-.006 2.095-.186.109-.02.214-.03.314-.03" mask="url(#7wxvpekstb)"/>
                    <path fill="#FFF" d="M291.933 298.825L293.019 294.478 305.284 303.693 307.108 310.663z" mask="url(#7wxvpekstb)"/>
                    <path fill="#002855" d="M292.71 293.608l-1.353 5.415 16.627 12.97-2.251-8.6-13.023-9.785zm.618 1.74l11.508 8.647 1.397 5.339-13.725-10.708.82-3.278z" mask="url(#7wxvpekstb)"/>
                    <path fill="#FFF" d="M273.267 304.081c-1.053 0-1.543-.065-1.768-.121-1.01-.25-1.696-1.155-1.596-2.106.1-.96 1.067-2.017 3.48-2.098 4.722-.16 6.296-.51 7.293-.862 1.112-.393 1.761-1.218 3.497-3.423 1.779-2.26 4.742-6.025 10.599-12.444 2.01.61 2.407 1.404 2.858 2.645l-.415.557c-9.28 12.473-12.08 16.236-17.552 17.462-.146.02-3.904.39-6.396.39z" mask="url(#7wxvpekstb)"/>
                    <path fill="#002855" d="M294.609 282.45c-11.682 12.778-12.1 15.254-14.102 15.964-1.129.398-2.884.686-7.142.831-5.12.175-4.752 4.527-1.988 5.21.4.098 1.083.136 1.892.136 2.575 0 6.428-.385 6.506-.4 5.772-1.296 8.634-5.273 18.428-18.435-.544-1.521-.929-2.578-3.594-3.307m.32 1.164c1.39.471 1.76 1.02 2.126 1.976l-.25.337c-9.166 12.318-11.951 16.06-17.21 17.258-.422.048-3.937.387-6.326.387-1.056 0-1.486-.067-1.648-.106-.87-.216-1.273-.965-1.211-1.559.1-.953 1.245-1.581 2.99-1.64 4.524-.153 6.249-.468 7.447-.891 1.25-.443 1.925-1.3 3.728-3.589 1.752-2.225 4.656-5.916 10.354-12.173" mask="url(#7wxvpekstb)"/>
                    <path fill="#FFF" d="M357.272 321.148l-10.677 24.618-2.679 4.435s-2.335.039-4.12-.764c-3.332-1.498 13.128-27.876 17.476-28.289" mask="url(#7wxvpekstb)"/>
                    <path fill="#002855" d="M356.296 322.118c-4.408 3.026-15.424 19.98-16.378 25.75-.13.784 0 1.064.086 1.103 1.311.59 2.977.697 3.627.716l2.526-4.185 10.139-23.384zm-12.443 28.593c-.422 0-2.555-.04-4.267-.809-.641-.288-.868-1.028-.675-2.2 1.04-6.285 14.145-26.666 18.312-27.062l.86-.082-11.02 25.412-2.856 4.736-.283.005h-.07zM250.922 219.988c.577-1.047 1.274-2.034 1.973-3 .69-.957 1.4-1.914 2.207-2.775.449-.48-.271-1.203-.721-.722-.847.903-1.592 1.911-2.318 2.911-.717.99-1.431 2-2.022 3.07-.317.577.564 1.092.881.516" mask="url(#7wxvpekstb)"/>
                    <path fill="#002855" d="M277.282 203.264c3.188-8.741-1.693-13.467-6.234-14.697-6.464-1.753-49.495-.891-29.41 16.054 4.478 3.777-1.749-.752 5.473-10.032 1.976 2.712-.385 15.539 6.316 20.806.38.125.843-.28 5.306-1.847-.099-3.08-.135-4.009-.144-4.1-4.354-.734-2.846 1.08-2.784-3.34.104-7.441 5.42-2.696 5.76-2.319 4.317 4.135 3.178 4.663 3.253-.729 13.285.186 12.084.204 12.464.204" mask="url(#7wxvpekstb)"/>
                    <path fill="#002855" d="M276.285 203.092c-.395 1.76-.447 3.596.242 5.29.433 1.066 1.147 1.896 1.77 2.843.079.12.197.32.225.394.062.167.076.193.017.295-.086.148-.388.29-.646.43-1.318.706-.861 2.404-.6 3.585.453 2.05-.2 4.697-2.14 5.812-1.312.755-2.441-.124-3.444-.943-1.009-.821-2.078-1.53-3.44-1.275-1.663.31-2.97 1.717-4.168 2.812-2.047 1.87-4.103 3.684-6.255 5.44-.508.417.218 1.134.722.722 1.975-1.613 3.909-3.244 5.766-4.989 1.095-1.027 2.282-2.36 3.715-2.87 1.372-.488 2.35.42 3.354 1.223 1.038.83 2.276 1.523 3.637 1.048 1.834-.64 3.005-2.645 3.319-4.472.206-1.198 0-2.252-.225-3.425-.086-.446-.284-1.346.074-1.67.272-.25.672-.303.946-.574.284-.281.45-.657.425-1.059-.063-1.01-1.121-1.906-1.615-2.727-1.04-1.729-1.13-3.68-.695-5.618.144-.64-.84-.914-.984-.272" mask="url(#7wxvpekstb)"/>
                    <path fill="#002855" d="M277.373 216.975c-.043-.002-.086-.008-.13-.012.225.02.04.004-.023-.01-.098-.021-.194-.049-.288-.082l-.139-.052c-.058-.025.151.064.038.014-.026-.01-.051-.022-.076-.035-.097-.045-.191-.096-.284-.148-.097-.056-.192-.116-.285-.178-.044-.03-.088-.061-.13-.092-.022-.016-.081-.061-.09-.066-.06-.046.122.095.04.03-.163-.13-.32-.27-.465-.421-.067-.072-.133-.145-.194-.222-.07-.085.065.088.03.041l-.038-.052c-.025-.035-.049-.07-.072-.107-.041-.065-.078-.129-.112-.198-.025-.052.06.151.03.061-.006-.015-.012-.03-.016-.046-.012-.031-.019-.063-.026-.097-.02-.086.012.137.012.082 0-.013-.004-.022-.004-.037l.001-.039c-.002-.075-.035.166-.012.088l.01-.035c.016-.078-.036.081-.036.081l.017-.031c.046-.076-.09.099-.052.065l.025-.027c.05-.058-.09.06-.066.05.027-.01.056-.031.082-.046-.169.096-.09.032-.018.014.018-.004.035-.004.053-.009l.023-.004c.07-.015-.17.02-.076.013.114-.009.226-.013.34-.003.035.002.07.006.105.01.114.011-.146-.022-.012-.002.08.012.16.026.239.043.439.09.866.227 1.288.376.25.09.569-.1.627-.355.065-.287-.087-.533-.357-.628-.399-.142-.805-.273-1.22-.363-.297-.064-.61-.12-.917-.108-.233.01-.481.051-.678.186-.237.161-.376.407-.386.694-.013.443.274.847.546 1.168.314.371.706.687 1.115.946.474.3 1.014.535 1.58.563.268.014.523-.244.511-.51-.013-.288-.225-.495-.51-.51M276.677 204.944c-.877-.352-1.998-.17-2.877.077-.859.241-1.953.682-2.368 1.541-.12.249-.068.552.183.699.223.13.577.065.698-.184.034-.07.073-.136.119-.2-.067.094.006-.006.026-.025.03-.032.059-.063.09-.093.032-.032.067-.061.1-.09.085-.076-.041.026.045-.037.08-.058.164-.112.25-.162.389-.231.728-.357 1.185-.48.46-.125.805-.185 1.26-.2.172-.007.456.003.555.015.078.01.323.066.463.122.256.103.56-.112.627-.356.08-.29-.099-.524-.356-.627" mask="url(#7wxvpekstb)"/>
                    <path fill="#FFF" d="M261.375 353.455l.265 1.007c.204.78.178 1.6-.063 2.37l-.207.655c-.255.795-1.108 1.242-1.901.997l-35.572-10.721c-.834-.245-1.367-1.066-1.266-1.926.518-4.367 3.7-12.685 5.211-16.047.386-.861 1.682-1.107 2.574-.804 2.028.69 4.085 1.289 6.137 1.91 1.031.308 2.052.62 3.076.941.68.222 1.342.492 2.058.567.338.038.855.482.872.71.083.875.002 1.444.158 2.322.167.915.463 1.799.805 2.658.577 1.474 1.304 3.033 2.376 4.218 3.407 3.767 8.861 6.173 13.313 8.452 1.073.55 1.858 1.526 2.164 2.691" mask="url(#7wxvpekstb)"/>
                    <path stroke="#002855" stroke-width="1.02" d="M222.63 345.837c-.1.86.433 1.68 1.267 1.926l35.572 10.721c.793.245 1.646-.202 1.9-.997l.208-.656c.24-.77.267-1.59.063-2.37l-.265-1.005c-.306-1.166-1.091-2.141-2.164-2.692-4.452-2.279-9.906-4.685-13.313-8.452-1.072-1.185-1.799-2.745-2.376-4.218-.342-.86-.638-1.743-.805-2.658-.156-.877-.075-1.447-.158-2.322-.017-.228-.534-.672-.872-.71-.716-.075-1.378-.344-2.058-.567-1.024-.32-2.045-.633-3.076-.942-2.052-.62-4.109-1.22-6.137-1.91-.892-.303-2.188-.056-2.574.804-1.511 3.362-4.693 11.68-5.211 16.048z" mask="url(#7wxvpekstb)"/>
                    <path fill="#002855" d="M233.232 338.014c.333 1.264-.423 2.56-1.688 2.893-1.264.332-2.559-.423-2.892-1.688-.333-1.266.423-2.56 1.687-2.892 1.266-.333 2.56.422 2.893 1.687M259.461 358.502L223.43 347.56c-.8-.243-1.257-1.083-1.027-1.886l.88-3.064 36.907 11.206c1.168.355 1.825 1.594 1.463 2.76l-.286.913c-.249.803-1.1 1.257-1.905 1.012" mask="url(#7wxvpekstb)"/>
                    <path stroke="#002855" stroke-width="1.02" d="M259.461 358.502L223.43 347.56c-.8-.243-1.257-1.083-1.027-1.886l.88-3.064 36.907 11.206c1.168.355 1.825 1.594 1.463 2.76l-.286.913c-.249.803-1.1 1.257-1.905 1.012z" mask="url(#7wxvpekstb)"/>
                    <path fill="#002855" d="M344.645 204.708c-1.48.02-8.408.01-11.327 0-.908 0-1.612-.785-1.52-1.693.704-6.562 19.53-8.684 6.245-8.817-3.174-.04-2.113-7.959 10.01-8.898 4.755-4.194 10.398-6.949 24.235-4.632 6.459 1.081 10.418-3.694 17.673 3.438 7.765 7.623 3.714 10.878 3.714 10.878h-13.949s-.387 3.367-3.367 3.367h-5.98c0 19.908 1.45 19.062-10.357 19-.612-.01-1.173-.387-1.398-.97-2.734-6.775-11.357-1.652-12.602-4.428-1.122-2.52 4.143-2.449-4.408-2.265-2.775.061-1.837-4.96 3.03-4.98" mask="url(#7wxvpekstb)"/>
                    <path stroke="#002855" stroke-width="1.02" d="M380.093 212.459c1.823 0 2.439-.184 2.626.331.15.407.031 1.253.032 2.975 0 .184-.198.304-.35.203-1.237-.811-5.128-3.51-2.308-3.51z" mask="url(#7wxvpekstb)"/>
                    <path fill="#002855" d="M263.44 263.57c1.295 1.715-1.296 2.785-3.133 3.98-6.347 4.143-7.143 5.215-7.643 5.46-3.612 1.744-6.755-16.266-8-17.46-2-1.908-18.47 6.888-25.806 12.755-14.898-12.285-23.48-18.081-26.674-20.5 51.531-29.306 37.276-27.244 52.653-28.316 4.837-.327 7.164.07 10.398 3.938 8.307 9.908-.153 11.674 5.235 32.102.908 3.45.245 4.399 2.97 8.042" mask="url(#7wxvpekstb)"/>
                    <path stroke="#002855" stroke-width="1.02" d="M260.47 255.53c-5.388-20.43 3.072-22.195-5.234-32.103-3.235-3.867-5.562-4.265-10.398-3.938-15.378 1.07-1.123-.99-52.654 28.317 3.194 2.418 11.776 8.213 26.674 20.5 7.337-5.868 23.806-14.665 25.806-12.755 1.245 1.192 4.388 19.204 8 17.459.5-.245 1.296-1.317 7.643-5.46 1.837-1.194 4.429-2.265 3.133-3.98-2.725-3.642-2.062-4.59-2.97-8.04z" mask="url(#7wxvpekstb)"/>
                    <path fill="#FFF" d="M258.956 307.953c-1.54 8.315-5.01 11.705-8.148 16.467-16.378 24.856-28.076 47.4-32.003 45.198-8.278-4.645-11.39-2.8-9.472-7.716 1.331-3.419 5.78-10.276 9.747-24.148 3.637-12.726 11.083-20.36 15.054-22.808.844-.518.949-1.709.231-2.393-2.278-2.177-4.994-3.172-14.562-8.055-10.94-5.581-23.296-9.559-31.502-18.93-12.88-14.725-8.702-32.926 3.883-37.766l66.772 52.873v7.278z" mask="url(#7wxvpekstb)"/>
                    <path fill="#002855" d="M258.486 308.487c-.46 2.867-1.715 5.55-3.143 8.06-1.52 2.674-3.316 5.195-5.02 7.766-1.725 2.592-3.44 5.203-5.133 7.816-5.041 7.796-9.888 15.705-14.725 23.622-1.5 2.46-2.99 4.91-4.56 7.317-1.032 1.561-2.072 3.133-3.317 4.53-.215.236-.439.47-.674.694-.102.103-.214.205-.326.296-.051.04-.102.093-.153.133-.113.092-.041.03-.102.072-.194.143-.398.275-.613.386-.03.032-.081.042-.122.063l-.02.01-.01.01h-.021c-.102.041-.194.072-.296.102-.051.01-.122.02-.173.03-.092.011-.184.011-.276.011H219.69c-.01 0-.02 0-.041-.011-.092-.02-.194-.05-.286-.082-.194-.05-.01.011-.173-.07-.398-.194-.786-.429-1.184-.643-1.204-.623-2.439-1.194-3.684-1.704-.918-.368-1.857-.704-2.775-1.051-.571-.215-1.194-.419-1.694-.776-.939-.663-.47-1.847-.122-2.776.959-2.58 2.398-5 3.56-7.5 2.174-4.642 4-9.428 5.511-14.326.908-2.928 1.714-5.857 2.939-8.673 1.03-2.368 2.245-4.643 3.643-6.806 2.06-3.194 4.56-6.245 7.571-8.602.51-.39 1.061-.715 1.572-1.092.806-.592 1.06-1.735.571-2.623-.53-.938-1.765-1.673-2.663-2.234-3.235-2.041-6.827-3.572-10.235-5.296-5.082-2.562-10.255-4.879-15.367-7.347-4.919-2.379-9.776-5-13.98-8.51-4.306-3.592-7.908-8.155-9.98-13.388-3.244-8.174-2.51-18.388 4.378-24.51 1.429-1.276 3.082-2.286 4.857-3 1.95 1.469 3.888 2.959 5.827 4.427 4.857 3.704 9.694 7.43 14.52 11.164 6 4.643 11.98 9.307 17.918 14.02 5.48 4.348 10.94 8.725 16.286 13.225 2 1.683 3.98 3.387 5.919 5.143 1.275 1.153 2.56 2.317 3.683 3.623.215.233.306.347.419.51 1.673 2.356 2.255 5.143 1.806 7.99m-.929-8.51c-1.449-2-3.48-3.654-5.306-5.276-3.265-2.9-6.622-5.684-9.99-8.439-4.194-3.439-8.439-6.826-12.694-10.195-4.428-3.509-8.877-6.989-13.347-10.459-3.98-3.08-7.959-6.163-11.949-9.224-2.887-2.203-5.765-4.408-8.653-6.612-.796-.602-1.591-1.204-2.387-1.816-.409-.306-.786-.765-1.327-.592-2.928.97-5.622 3.174-7.51 5.561-2 2.52-3.337 5.51-3.97 8.653-1.54 7.551.847 15.368 5.276 21.52 5.061 7.062 12.47 11.613 20.153 15.348 3.878 1.888 7.827 3.612 11.704 5.5 3.592 1.755 7.163 3.571 10.735 5.388 1.755.887 3.592 1.765 5.102 3.04.408.337.939.704.939 1.285 0 .705-.684.98-1.174 1.316-.928.654-1.806 1.39-2.632 2.164-5.327 4.98-9.082 11.664-11.347 18.54-.766 2.337-1.388 4.706-2.164 7.032-.673 2.02-1.408 4.03-2.194 6.01-1.163 2.919-2.48 5.766-3.867 8.572-.877 1.774-1.908 3.56-2.46 5.468-.234.817-.377 1.756.123 2.501.51.755 1.47 1.102 2.276 1.429 1.5.58 3.01 1.102 4.47 1.755 1.091.49 2.122 1.071 3.183 1.612.173.092.337.174.52.234.674.235 1.388.133 2.031-.163.786-.367 1.449-.99 2.04-1.623.92-.989 1.715-2.09 2.48-3.203 2.531-3.644 4.786-7.49 7.092-11.276 3.766-6.173 7.561-12.336 11.46-18.418 2.581-4.03 5.193-8.03 7.857-12.01 2.56-3.837 5.285-7.663 6.744-12.082 1.307-3.908 1.235-8.081-1.214-11.54" mask="url(#7wxvpekstb)"/>
                    <path fill="#FFF" d="M250.808 272.296c.074.106 0 0 8.213 8.039 4.185 4.098 8.496 8.063 12.745 12.094 3.774 3.58 7.645 7.227 12.396 9.345 1.259.56 2.72 1.005 3.986.46.808-.346 1.403-1.046 1.966-1.722l5.026-6.023c.595-.713 1.21-1.468 1.385-2.38.174-.913-.27-2.014-1.172-2.234-1.007-.248-2.03.666-3.039.422-1.368-.333-1.403-2.249-1.122-3.63l-7.27.823c-.634.071-1.32.133-1.868-.193-.418-.248-.686-.682-.952-1.088-3.376-5.158-9.1-8.471-12.298-13.742-1.439-2.37-4.508-7.602-5.174-8.605l-12.822 8.434z" mask="url(#7wxvpekstb)"/>
                    <path fill="#002855" d="M250.368 272.554c.125.182.295.328.45.482.785.767 1.571 1.53 2.356 2.297 5.005 4.884 10.032 9.74 15.128 14.528 2.641 2.484 5.219 5.052 7.999 7.382 2.582 2.166 5.512 4.367 8.755 5.425 1.502.49 3.053.442 4.3-.608.574-.483 1.035-1.086 1.515-1.66l3.399-4.074c1.22-1.464 3.26-3.27 2.707-5.342-.182-.68-.65-1.319-1.334-1.553-.756-.26-1.488.03-2.213.249-.768.231-1.447.18-1.727-.651-.238-.701-.156-1.514-.02-2.226.056-.289-.136-.686-.492-.646l-4.626.524c-.792.09-1.585.18-2.378.268-.302.035-.605.077-.909.084-1.136.032-1.499-.76-2.072-1.58-1.977-2.827-4.59-5.1-7.057-7.478-1.227-1.185-2.43-2.403-3.49-3.741-.917-1.152-1.655-2.419-2.408-3.679-1.384-2.316-2.695-4.697-4.181-6.95-.36-.546-1.244-.036-.88.516 1.338 2.03 2.524 4.17 3.769 6.26.72 1.21 1.412 2.45 2.234 3.597 1.02 1.419 2.203 2.71 3.442 3.943 2.532 2.517 5.343 4.816 7.456 7.72.469.644.854 1.47 1.504 1.955.682.51 1.519.49 2.328.404.555-.06 1.11-.125 1.664-.189 1.869-.21 3.184-.372 5.052-.583-.268.283-.262 1.723.366 2.703.774 1.212 2.071.908 3.233.559.733-.22 1.4-.205 1.706.606.309.814-.11 1.63-.575 2.287-.344.486-.751.939-1.133 1.396l-3.32 3.981c-1.115 1.335-2.291 3.303-4.227 3.206-1.685-.083-3.374-1.103-4.795-1.94-1.441-.85-2.806-1.825-4.107-2.875-2.692-2.17-5.152-4.611-7.666-6.978-5.134-4.835-10.226-9.702-15.27-14.629-1.055-1.03-2.11-2.057-3.164-3.087-.143-.139-.28-.283-.426-.418-.106-.1-.06-.07-.012 0-.37-.536-1.256-.027-.881.515" mask="url(#7wxvpekstb)"/>
                    <path fill="#FFF" d="M236.317 392.009v1.042c0 .806-.234 1.59-.663 2.274l-.367.582c-.45.705-1.388.919-2.092.48l-31.674-19.418c-.745-.45-1.05-1.379-.734-2.185 1.612-4.092 6.806-11.325 9.122-14.193.592-.735 1.908-.644 2.694-.122 1.786 1.183 3.622 2.285 5.449 3.408.918.56 1.826 1.121 2.735 1.694.602.388 1.173.816 1.847 1.071.316.123.704.684.663.907-.143.869-.368 1.398-.439 2.287-.071.929-.01 1.857.102 2.775.184 1.571.49 3.265 1.225 4.683 2.336 4.51 7 8.226 10.724 11.562.898.806 1.408 1.949 1.408 3.153" mask="url(#7wxvpekstb)"/>
                    <path stroke="#002855" stroke-width="1.02" d="M200.787 374.784c-.317.806-.01 1.735.734 2.185l31.674 19.417c.704.44 1.643.226 2.092-.48l.367-.58c.429-.685.663-1.47.663-2.276v-1.041c0-1.204-.51-2.347-1.408-3.153-3.724-3.336-8.388-7.051-10.724-11.562-.735-1.418-1.041-3.112-1.225-4.683-.112-.918-.173-1.846-.102-2.776.071-.887.296-1.417.439-2.285.04-.225-.347-.785-.663-.908-.674-.255-1.245-.683-1.847-1.071-.909-.572-1.817-1.134-2.735-1.694-1.827-1.123-3.663-2.225-5.449-3.408-.786-.521-2.102-.613-2.694.122-2.316 2.867-7.51 10.101-9.122 14.193z" mask="url(#7wxvpekstb)"/>
                    <path fill="#002855" d="M213.03 369.915c0 1.309-1.06 2.369-2.37 2.369-1.306 0-2.366-1.06-2.366-2.369 0-1.307 1.06-2.367 2.367-2.367 1.308 0 2.368 1.06 2.368 2.367M233.183 396.403l-32.064-19.749c-.712-.438-.94-1.366-.513-2.085l1.63-2.74 32.842 20.227c1.04.641 1.36 2.006.713 3.043l-.508.81c-.446.715-1.384.936-2.1.494" mask="url(#7wxvpekstb)"/>
                    <path stroke="#002855" stroke-width="1.02" d="M233.183 396.403l-32.064-19.749c-.712-.438-.94-1.366-.513-2.085l1.63-2.74 32.842 20.227c1.04.641 1.36 2.006.713 3.043l-.508.81c-.446.715-1.384.936-2.1.494z" mask="url(#7wxvpekstb)"/>
                    <path fill="#FFF" d="M359.018 358.906c-3.52 0-12.391-2.935-24.669-6.998l-4.737-1.566c-.147-.048-.243-.187-.23-.238 2.066-7.723 2.924-8.577 3.196-8.586.255.006.849 1.114 1.204 1.775.901 1.68 2.023 3.768 4.026 4.332 1.107.31 2.12.717 3.1 1.11.672.27 1.338.537 2.03.772.138.048.282.072.428.072.39 0 .758-.172 1.011-.47l2.612-4.26c.012-.004.096-.042.188-.042.077 0 .15.027.208.077 9.044 7.8 13.393 12.397 12.924 13.659-.086.23-.556.363-1.291.363" mask="url(#7wxvpekstb)"/>
                    <path fill="#002855" d="M332.578 341.008c-.854 0-1.865 2.148-3.689 8.964-.098.367.203.736.564.855 14.969 4.933 25.522 8.59 29.565 8.59 4.253 0 1.301-4.05-11.3-14.92-.156-.135-.349-.2-.54-.2-.232 0-.463.095-.623.285l-2.567 4.198c-.158.186-.386.288-.621.288-.089 0-.178-.014-.264-.044-1.713-.586-3.273-1.36-5.157-1.89-3.078-.867-4.031-6.126-5.368-6.126m.001 1.219c.228.326.522.875.754 1.308.896 1.67 2.125 3.958 4.337 4.581 1.08.304 2.08.704 3.049 1.092.661.265 1.346.539 2.053.782.192.065.392.099.595.099.539 0 1.049-.237 1.399-.65l.05-.06.043-.067 2.374-3.885c10.666 9.213 12.52 12.024 12.589 12.875-.107.038-.344.094-.804.094-3.438 0-12.275-2.924-24.505-6.972l-4.552-1.505c1.408-5.222 2.2-7.067 2.618-7.692" mask="url(#7wxvpekstb)"/>
                    <path fill="#FFF" d="M361.042 300.236c4.763 6.6.197 14.582-4.066 20.912-24.947 37.052-32.52 63.865-37.118 61.286-5.543-3.11-10.821-6.61-9.473-7.718 4.2-3.452 10.703-22.707 12.617-36.962 2.386-17.77 23.554-23.7 19.833-27.254-2.279-2.177-9.541-1.118-19.11-6.001-10.94-5.583-14.506-13.186-22.712-22.557-12.88-14.725-17.49-29.3-4.907-34.141.11.083 59.706 45.186 64.936 52.435" mask="url(#7wxvpekstb)"/>
                    <path fill="#002855" d="M360.601 300.493c3.882 5.495 1.114 12.038-1.993 17.174-1.752 2.898-3.72 5.665-5.56 8.507-1.85 2.86-3.658 5.747-5.424 8.659-5.734 9.45-10.976 19.178-15.99 29.027-1.7 3.338-3.37 6.693-5.122 10.003-1.144 2.161-2.295 4.368-3.751 6.337-.223.3-.46.596-.723.882-.113.122-.23.242-.351.357-.056.053-.113.105-.171.155-.029.024-.22.175-.132.11-.105.078-.214.146-.327.215-.177.107-.128.077-.224.107-.06.02-.366.088-.199.06-.101.018-.339-.007-.216.009-.07-.008-.33-.104-.191-.045-.578-.244-1.132-.634-1.673-.948-1.386-.805-2.759-1.638-4.091-2.533-1.068-.717-2.15-1.464-3.06-2.378-.246-.247-.547-.532-.674-.865-.083-.216-.055-.17.1-.32 1.038-.993 1.82-2.19 2.52-3.44 1.02-1.817 1.869-3.732 2.656-5.661 2.07-5.07 3.691-10.334 5.034-15.64.696-2.748 1.308-5.518 1.811-8.307.443-2.46.647-4.974 1.334-7.384 1.175-4.12 3.524-7.772 6.437-10.88 2.437-2.602 5.233-4.812 8.07-6.957 1.067-.81 2.151-1.605 3.162-2.487.652-.567 1.36-1.208 1.728-2.008 1.066-2.332-2.342-3.23-3.935-3.567-2.197-.466-4.42-.783-6.606-1.309-3.136-.753-6.183-1.84-9.057-3.308-4.895-2.498-9.013-5.976-12.584-10.13-1.74-2.027-3.37-4.147-5.02-6.25-1.901-2.422-3.885-4.763-5.878-7.11-4.058-4.778-7.905-10.115-10.03-16.068-1.426-4.001-2.148-8.873.567-12.514 1.298-1.74 3.207-2.914 5.203-3.693l-.393-.051c2.006 1.52 4.01 3.045 6.01 4.572 4.855 3.705 9.696 7.426 14.525 11.163 5.996 4.641 11.972 9.308 17.911 14.02 5.475 4.345 10.929 8.72 16.276 13.22 2.01 1.691 4.008 3.4 5.954 5.166 1.262 1.145 2.542 2.303 3.66 3.593.089.103.175.208.261.314.124.15.027.024.156.203.383.526 1.268.018.882-.516-1.548-2.131-3.729-3.884-5.689-5.613-3.498-3.087-7.098-6.057-10.713-9.005-4.437-3.616-8.914-7.184-13.408-10.728-4.61-3.636-9.24-7.247-13.882-10.843-3.974-3.079-7.958-6.146-11.95-9.203-2.592-1.986-5.187-3.966-7.786-5.941-.522-.396-1.031-.832-1.577-1.196-.536-.36-1.274.164-1.789.408-1.46.694-2.83 1.633-3.91 2.844-4.939 5.55-1.922 13.822 1.172 19.48 2.43 4.444 5.535 8.485 8.854 12.297 2.857 3.281 5.453 6.769 8.19 10.147 2.47 3.053 5.12 5.96 8.234 8.37 3.658 2.833 7.83 5 12.228 6.427 1.966.638 3.976 1.117 6.005 1.506 1.505.29 3.028.51 4.52.868.87.208 1.924.454 2.561 1.136.25.266.279.48.148.814-.185.471-.654.945-1.076 1.347-.636.603-1.328 1.149-2.022 1.684-1.96 1.515-3.961 2.974-5.853 4.575-4.721 3.997-8.816 8.907-10.54 14.953-.516 1.81-.718 3.664-1.015 5.516-.339 2.11-.749 4.21-1.21 6.296-.934 4.228-2.075 8.412-3.416 12.53-1.153 3.54-2.433 7.064-4.059 10.42-.595 1.226-1.235 2.441-2.002 3.57-.277.41-.571.809-.906 1.174-.285.31-.708.567-.861.972-.403 1.063.934 2.16 1.62 2.742 1.687 1.436 3.6 2.618 5.494 3.754.928.557 1.861 1.173 2.839 1.64.211.1.421.168.655.188.4.033.784-.073 1.138-.254.985-.504 1.714-1.502 2.34-2.379 1.042-1.46 1.921-3.036 2.778-4.609 2.79-5.116 5.327-10.371 8-15.55 3.9-7.554 7.976-15.018 12.324-22.325 2.666-4.482 5.428-8.904 8.29-13.264 2.669-4.063 5.627-8.04 7.297-12.65 1.47-4.064 1.547-8.458-1.023-12.098-.377-.531-1.262-.022-.882.516" mask="url(#7wxvpekstb)"/>
                    <path fill="#002855" d="M295.98 245.644c-24.107 11.048-12.058 41.846 12.871 49.005l19.71 22.532c14.884 3.43 31.074 0 41.988 13.28 0 0 2.653-37.243-7.287-47.289-9.94-10.045-40.771-19.308-40.771-19.308l-26.511-18.22z" mask="url(#7wxvpekstb)"/>
                    <path stroke="#002855" stroke-width="1.02" d="M350.288 217.477L356.262 208.126" mask="url(#7wxvpekstb)"/>
                    <path fill="#FFF" d="M334.356 395.27c-2.713 0-11.271-5.371-23.115-12.805l-4.223-2.648c-.131-.083-.19-.24-.166-.285 3.44-6.262 4.698-7.576 5.149-7.576.25.065.575 1.332.75 2.011.473 1.846 1.063 4.143 2.875 5.167 1.002.567 1.888 1.204 2.747 1.819.588.421 1.17.839 1.785 1.234.213.136.461.21.715.21.281 0 .55-.087.779-.252l3.553-3.517c.001.001.08-.004.114-.004.104 0 .202.05.262.133 6.817 9.589 9.95 15.077 9.31 16.316-.027.053-.101.197-.535.197" mask="url(#7wxvpekstb)"/>
                    <path fill="#002855" d="M312 371.446c-.853.001-2.362 1.956-5.595 7.84-.182.332.021.764.343.964 14.592 9.135 24.431 15.53 27.608 15.53 2.793 0 .439-4.944-8.36-17.319-.16-.226-.417-.348-.677-.348-.164 0-.33.05-.472.153l-3.495 3.465c-.143.104-.31.155-.479.155-.152 0-.305-.043-.44-.13-1.522-.977-2.852-2.1-4.556-3.065-2.869-1.625-2.43-7.246-3.876-7.245m-.164 1.2c.142.37.297.972.419 1.448.472 1.838 1.118 4.352 3.118 5.485.978.553 1.854 1.18 2.701 1.788.58.415 1.179.844 1.807 1.248.296.191.64.291.991.291.389 0 .761-.12 1.077-.349l.064-.046.056-.056 3.234-3.207c8.16 11.493 9.289 14.665 9.153 15.508-.027.002-.06.004-.101.004-2.566 0-11.513-5.615-22.84-12.724-1.308-.822-2.661-1.67-4.058-2.545 2.613-4.736 3.822-6.339 4.379-6.845" mask="url(#7wxvpekstb)"/>
                    <path fill="#FFF" d="M376.86 295.233c-1.056 0-1.546-.066-1.772-.122-1.01-.25-1.697-1.155-1.597-2.106.1-.96 1.068-2.016 3.48-2.097 4.725-.16 6.298-.51 7.295-.862 1.111-.393 1.761-1.219 3.497-3.424 1.78-2.26 4.743-6.024 10.598-12.443 2.011.61 2.408 1.404 2.858 2.645l-.415.557c-9.28 12.473-12.08 16.236-17.552 17.461-.145.02-3.879.391-6.392.391" mask="url(#7wxvpekstb)"/>
                    <path fill="#002855" d="M398.198 273.601c-11.682 12.779-12.1 15.256-14.102 15.964-1.129.399-2.884.687-7.142.832-5.12.174-4.752 4.527-1.988 5.209.4.1 1.083.137 1.89.137 2.577 0 6.43-.384 6.508-.4 5.771-1.296 8.634-5.273 18.428-18.434-.544-1.523-.929-2.579-3.594-3.308m.32 1.164c1.39.47 1.76 1.02 2.126 1.976l-.25.337c-9.167 12.318-11.951 16.061-17.209 17.257-.423.05-3.94.388-6.328.388-1.055 0-1.485-.067-1.647-.107-.87-.215-1.274-.964-1.211-1.557.1-.953 1.245-1.582 2.99-1.642 4.524-.153 6.248-.467 7.446-.89 1.251-.443 1.926-1.3 3.729-3.59 1.752-2.225 4.656-5.915 10.354-12.172" mask="url(#7wxvpekstb)"/>
                    <path fill="#FFF" d="M386.995 291.255L388.08 286.908 400.343 296.123 402.048 302.999z" mask="url(#7wxvpekstb)"/>
                    <path fill="#002855" d="M387.772 286.039l-1.352 5.415 16.478 12.855-2.104-8.486-13.022-9.784zm.617 1.74l11.502 8.641 1.306 5.269-13.627-10.632.819-3.278z" mask="url(#7wxvpekstb)"/>
                    <g mask="url(#7wxvpekstb)">
                        <g>
                            <path fill="#002855" d="M79.593 74.506l5.06-8.836c-1.55-2.603-6.091-6.878-13.51-14.266-.356-.346-.601-.796-.703-1.285l-4.133-19.797.02-.163c.01-.092 1.051-9.061 4.235-19.143.378-1.194.357-2.101-.071-2.755-1.082-1.674-4.98-2.101-8.735-2.52-4.54-.5-9.225-1.021-12.123-3.521-.632-.551-1.244-.816-1.867-.816-2.184 0-4.571 3.183-6.673 5.99-1.041 1.388-2.031 2.705-3 3.643C35.236 15.434 9.327 28.64 2.062 32.281L26.705 49.21 53.082 38.7l-3.306-9.358c-.143-.387.062-.816.45-.958l.254-.093 3.735 10.572 7.816 20.061c.031.073.072.143.123.194l17.439 15.388zm6.224-8.806l-5.98 10.44L61.46 59.862c-.163-.163-.296-.346-.378-.56L53.44 39.66 26.572 50.364.062 32.138s34.745-17.245 37.235-21.745c2.949-2.816 6.53-10.01 10.47-10.01.826 0 1.673.317 2.53 1.061 6.387 5.512 24.132.735 21.234 9.89-3.193 10.1-4.183 18.937-4.183 18.937l4.092 19.643c.06.287.204.561.418.765 2.296 2.287 12.755 12.062 13.96 15.02z" transform="translate(295.918 213.503)"/>
                            <path fill="#FFF" d="M84.654 65.67l-5.061 8.836-17.44-15.388c-.05-.051-.091-.122-.122-.193l-7.816-20.062L50.48 28.29l-.255.093c-.387.143-.592.572-.449.958l3.306 9.357-26.377 10.51L2.062 32.282c7.265-3.642 33.174-16.846 36.03-21.244.97-.939 1.96-2.255 3-3.643 2.103-2.806 4.49-5.99 6.674-5.99.623 0 1.235.265 1.867.816 2.898 2.5 7.582 3.02 12.123 3.521 3.755.419 7.653.847 8.735 2.52.428.654.449 1.562.071 2.755-3.184 10.081-4.224 19.05-4.235 19.143l-.02.163 4.133 19.797c.102.489.347.939.704 1.285 7.418 7.388 11.959 11.663 13.51 14.266" transform="translate(295.918 213.503)"/>
                        </g>
                    </g>
                    <path fill="#FFF" d="M374.94 288.877s6.877 6.578 8.526 6.722c.798.213 2.586.218 4.208.167 1.983-.062 3.821-1.055 4.95-2.687l4.692-6.785s1.45-2.006 0-2.332c-1.45-.327-4.062.17-4.604-.894-.37-.724-.64-1.859-.775-2.508-.063-.305-.305-.54-.611-.593l-10.177-1.78-6.209 10.69z" mask="url(#7wxvpekstb)"/>
                    <path fill="#002855" d="M381.15 278.187l-6.21 10.69s6.877 6.579 8.526 6.722c.544.145 1.549.193 2.648.193.512 0 1.044-.01 1.56-.025 1.984-.062 3.82-1.056 4.95-2.688l4.692-6.786s1.45-2.005 0-2.331c-1.451-.327-4.061.17-4.605-.894-.37-.725-.64-1.858-.774-2.508-.063-.305-.305-.539-.611-.593l-10.177-1.78zm.524 1.127l9.301 1.627c.173.805.449 1.851.828 2.591.632 1.238 2.264 1.275 3.703 1.308.485.01.985.022 1.388.083-.077.225-.241.545-.417.79l-4.693 6.786c-.937 1.356-2.486 2.195-4.143 2.248-.505.015-1.026.025-1.527.025-1.556 0-2.162-.099-2.385-.158l-.066-.02-.088-.009c-.871-.174-4.366-3.093-7.347-5.894l5.446-9.377z" mask="url(#7wxvpekstb)"/>
                    <path fill="#FFF" d="M382.433 260.534c-.963.037-4.321.26-5.093.836-.774.577-1.291 1.555-1.132 2.505.128.76.645 1.387 1.142 1.975 2.707 3.195 5.48 6.446 9.061 8.615.666.404 1.375.773 2.145.883 1.556.22 3.03-.635 4.5-1.19 1.47-.555 3.687-.71 4.905.153l-15.528-13.777z" mask="url(#7wxvpekstb)"/>
                    <path fill="#002855" d="M382.433 260.024c-1.594.065-3.435.096-4.933.696-.905.361-1.595 1.318-1.775 2.261-.244 1.284.48 2.296 1.265 3.229 1.773 2.11 3.578 4.218 5.64 6.055.986.88 2.034 1.7 3.15 2.408 1.11.708 2.301 1.317 3.658 1.202 1.523-.128 2.809-.975 4.25-1.39 1.266-.364 2.867-.492 4.015.267.48.315 1.053-.416.618-.802-4.531-4.022-9.064-8.042-13.597-12.064l-1.93-1.713c-.49-.433-1.214.285-.722.723 4.533 4.02 9.066 8.04 13.597 12.063l1.93 1.712c.207-.266.413-.533.62-.802-1.74-1.147-4.131-.695-5.93.048-1.182.49-2.487 1.156-3.806.902-1.196-.23-2.31-1.065-3.276-1.768-2.045-1.485-3.811-3.327-5.479-5.215-.805-.912-1.638-1.823-2.378-2.788-.4-.522-.742-1.115-.641-1.795.083-.55.442-1.122.895-1.443.62-.44 1.637-.482 2.366-.57.818-.096 1.641-.163 2.463-.195.655-.027.659-1.047 0-1.02" mask="url(#7wxvpekstb)"/>
                    <path fill="#FFF" d="M457.822 286.55c4.763 6.603.196 14.585-4.066 20.914-24.947 37.052-35.513 68.89-40.111 66.31-8.28-4.645-11.39-2.799-9.473-7.716 1.332-3.42 11.643-28.117 15.61-41.988 6.23-21.788 18.644-21.995 15.285-25.202-6.962-6.649-34.974-14.32-46.064-26.983-12.88-14.726-8.7-32.927 3.883-37.769.11.084 59.706 45.186 64.936 52.435" mask="url(#7wxvpekstb)"/>
                    <path fill="#002855" d="M455.978 283.802c-1.289-1.25-2.63-2.445-3.98-3.628-3.859-3.377-7.827-6.63-11.812-9.86-4.828-3.912-9.699-7.774-14.587-11.612-4.809-3.777-9.636-7.529-14.476-11.265-3.89-3.003-7.788-5.995-11.694-8.977-1.999-1.527-4-3.051-6.005-4.57-.106-.081-.215-.193-.342-.238-.362-.136-.822.167-1.153.31-.432.19-.855.394-1.27.616-.77.412-1.51.884-2.208 1.41-2.798 2.1-4.902 4.954-6.212 8.188-3.13 7.72-1.356 16.571 2.963 23.46 4.258 6.793 10.766 11.356 17.668 15.18 6.824 3.78 14.011 6.823 21.06 10.147 2.74 1.29 5.495 2.609 8.06 4.228.919.58 1.827 1.202 2.62 1.947.23.216.337.31.444.515.057.112.1.127.066.332.024-.153-.022.08-.046.135.045-.1-.062.12-.105.186-.092.14-.22.288-.411.482-.482.487-1.027.911-1.554 1.345-1.719 1.41-3.37 2.88-4.843 4.551-2.278 2.583-4.14 5.508-5.63 8.608-1.868 3.883-2.986 7.987-4.28 12.076-2.436 7.697-5.32 15.255-8.258 22.771-2.019 5.167-4.134 10.294-6.182 15.45-.364.917-.801 1.942-.673 2.95.123.96.863 1.532 1.689 1.92 1.39.652 2.88 1.09 4.298 1.678 1.134.47 2.245.996 3.33 1.57.44.232.884.566 1.38.682 1.041.246 1.997-.6 2.65-1.296 1.222-1.304 2.174-2.875 3.083-4.403 3.24-5.437 6.009-11.162 8.92-16.777 4.324-8.342 8.767-16.622 13.511-24.732 2.8-4.787 5.698-9.515 8.71-14.172 2.882-4.458 6.208-8.766 8.227-13.71 1.754-4.297 2.112-9.058-.673-13.006l-2.285-2.491z" mask="url(#7wxvpekstb)"/>
                    <path fill="#002855" d="M454.34 305.658c-2.116 3.273-4.315 6.49-6.399 9.785-2.007 3.174-3.964 6.38-5.875 9.613-6.262 10.588-11.943 21.487-17.595 32.409-1.815 3.507-3.614 7.033-5.622 10.436-.682 1.159-1.391 2.31-2.193 3.39-.48.646-1.123 1.426-1.702 1.814-.308.205-.367.249-.677.304.142-.026-.283-.005-.11.007-.18-.012-.213-.056-.25-.075-1.452-.707-2.847-1.488-4.341-2.112-1.09-.456-2.202-.85-3.307-1.271-.603-.23-1.353-.46-1.817-.932-.375-.382-.354-.886-.25-1.38.235-1.144.78-2.256 1.217-3.336 3.564-8.802 7.103-17.618 10.343-26.545 1.812-4.992 3.383-10.033 4.972-15.096 1.62-5.164 3.956-10.196 7.411-14.4 1.9-2.308 4.138-4.168 6.401-6.094 1.082-.92 2.252-2.149 1.052-3.492-.94-1.053-2.254-1.86-3.445-2.592-1.71-1.05-3.5-1.97-5.3-2.854-4.487-2.204-9.077-4.195-13.6-6.321-4.933-2.32-9.833-4.76-14.441-7.683-4.435-2.813-8.513-6.102-11.585-10.404-3.498-4.897-5.71-10.788-5.548-16.857.134-4.984 1.94-9.962 5.49-13.53 1.661-1.67 3.658-2.977 5.852-3.833-.13-.018-.261-.034-.393-.051 2.003 1.518 4.002 3.04 6 4.565 4.848 3.7 9.684 7.415 14.506 11.149 5.989 4.636 11.958 9.295 17.891 14.002 5.489 4.355 10.956 8.74 16.316 13.252 2.01 1.69 4.006 3.398 5.951 5.162 1.269 1.151 2.556 2.316 3.679 3.613.199.231.302.36.41.508l-3.042 18.849z" mask="url(#7wxvpekstb)"/>
                    <path fill="#FFF" d="M504.164 260.284l-13.306 8.98c-18.877-16.101-13.561-9.51-20.367-27.03l-39.143 21.652c-11.286-8.877-38.388-29.724-38.46-29.765.154-.755 37.582-33.602 64.807-41.337 7.51-2.132 10.581-1.724 17.428-.183 10.01 2.245 8.531 6.5 9.541 15.112 1.153 9.704-1.857 6.643 6.419 31.05.704 2.093 13.326 21.338 13.081 21.521" mask="url(#7wxvpekstb)"/>
                    <path stroke="#002855" stroke-width="1.02" d="M504.164 260.284l-13.306 8.98c-18.877-16.101-13.561-9.51-20.367-27.03l-39.143 21.652c-11.286-8.877-38.388-29.724-38.46-29.765.154-.755 37.582-33.602 64.807-41.337 7.51-2.132 10.581-1.724 17.428-.183 10.01 2.245 8.531 6.5 9.541 15.112 1.153 9.704-1.857 6.643 6.419 31.05.704 2.093 13.326 21.338 13.081 21.521z" mask="url(#7wxvpekstb)"/>
                    <path fill="#FFF" d="M490.86 269.26l23.173 17.349c.305.23.645.407 1.005.53l10.971 3.751c.303.104.637.055.897-.131s.415-.486.415-.806c0-.586.46-1.067 1.045-1.093.231-.01.471-.069.681-.216.442-.307.451-1.407.398-2.182-.033-.487.247-.942.698-1.132l.274-.113c.283-.12.508-.348.621-.635.208-.53.483-1.375.274-1.735-.214-.363.731-.39 1.445-.362.293.012.579-.096.791-.297.214-.202.336-.482.339-.775v-.048c0-1.093-.156-1.795-1.093-1.951-.796-.133-6.49-2.18-8.188-2.794-.678-.245-1.147-1.16-1.006-1.86.072-.348.302-.668.626-.816.449-.207.982-.068 1.425.151 1.01.5 1.716 1.357 2.56 2.069.286.24 1.87 1.366 2.146.733.313-.718.641-4.04-1.7-4.509-2.341-.468-8.195-2.887-14.05-.078l-4.372-5.035-6.538-7.894-12.838 9.88z" mask="url(#7wxvpekstb)"/>
                    <path fill="#002855" d="M491.703 269.255L514.34 286.2c.261.196.552.35.864.457l10.97 3.751c.148.05.31.026.436-.063.126-.09.202-.238.202-.392 0-.86.672-1.563 1.531-1.602.167-.008.305-.05.413-.125.074-.059.266-.504.181-1.73-.049-.704.357-1.362 1.01-1.636l.275-.115c.157-.065.28-.19.343-.35.33-.84.33-1.224.302-1.3-.125-.21-.128-.465-.004-.672.222-.372.741-.493 1.916-.449.154.019.308-.048.42-.157.111-.105.177-.256.179-.409 0-1.29-.252-1.422-.666-1.49-.853-.142-6.552-2.194-8.278-2.819-.906-.327-1.529-1.467-1.333-2.44.105-.516.454-.968.913-1.178.523-.241 1.168-.186 1.865.158.773.381 1.37.942 1.947 1.485.233.22.468.441.715.648.34.288 1.065.724 1.393.796.142-.499.286-1.844-.212-2.796-.256-.488-.637-.777-1.165-.883-.385-.078-.866-.206-1.424-.356-2.83-.763-7.564-2.038-12.304.237l-.351.169-4.627-5.33-6.231-7.523-11.916 9.17zm34.626 22.2c-.163 0-.328-.027-.485-.083l-10.971-3.75c-.415-.141-.8-.344-1.146-.606l-23.711-17.75 13.76-10.59 6.852 8.273 4.112 4.737c4.956-2.212 9.76-.919 12.657-.138.533.143.991.266 1.36.34.826.166 1.47.653 1.868 1.412.72 1.378.439 3.252.2 3.801-.105.243-.306.41-.568.471-.887.213-2.36-1.006-2.374-1.018-.261-.22-.51-.453-.758-.687-.546-.514-1.062-.999-1.7-1.314-.234-.115-.675-.289-.986-.146-.165.077-.298.254-.339.454-.094.469.255 1.125.68 1.279 3.62 1.311 7.527 2.676 8.098 2.771 1.52.252 1.52 1.685 1.52 2.454-.006.48-.186.897-.498 1.193-.312.296-.731.43-1.163.437-.416-.017-.683-.004-.85.012.04.341-.024.874-.374 1.762-.163.412-.49.745-.898.918l-.277.114c-.247.104-.403.356-.384.627.098 1.417-.104 2.28-.616 2.635-.27.188-.589.291-.951.307-.311.014-.556.27-.556.583 0 .483-.235.94-.628 1.22-.258.185-.564.281-.874.281z" mask="url(#7wxvpekstb)"/>
                    <path fill="#FFF" d="M430.805 394.362c-.156 0-.306-.046-.459-.14-7.718-4.732-13.643-8.327-18.18-11.079-14.064-8.534-14.458-8.808-14.065-9.78l.302-.767c1.382-3.535 3.883-9.934 7.757-12.217.13 3.197 2.843 6.783 4.088 8.27 1.544 1.84 3.649 3.84 4.62 3.884h.003c1.591 0 2.68-1.948 3.641-3.668.298-.534.582-1.041.833-1.398l-.015.329c-.06 1.278-.151 3.208.34 5.227 1.273 5.234 5.746 9.162 10.074 12.962l1.247 1.099c1.963 1.743 1.992 4.12 1.42 5.627-.375.988-1.02 1.651-1.606 1.651" mask="url(#7wxvpekstb)"/>
                    <path fill="#002855" d="M406.705 359.531c-4.763 2.046-7.602 9.907-9.028 13.518-.784 1.987-1.278.955 32.402 21.609.24.145.484.214.726.214 2.096 0 3.986-5.097.524-8.17-4.605-4.086-9.807-8.223-11.163-13.8-.812-3.336.03-6.519-.464-6.519-.127 0-.34.208-.69.674-1.026 1.367-2.372 4.968-4.069 4.968l-.053-.001c-1.363-.06-8.827-7.608-8.185-12.493m-.967 1.743c.478 2.953 2.678 5.982 4.12 7.702.343.408 3.396 3.997 4.988 4.067l.097.002c1.709 0 2.842-1.846 3.828-3.598 0 1.091.08 2.37.403 3.697 1.311 5.39 5.847 9.373 10.234 13.226.417.366.833.731 1.245 1.096 1.768 1.57 1.796 3.709 1.281 5.064-.347.911-.868 1.321-1.13 1.321-.02 0-.087 0-.192-.064-7.722-4.735-13.77-8.404-18.185-11.084-9.402-5.705-13.43-8.147-13.934-8.942.02-.058.055-.14.081-.205l.052-.132.252-.642c1.274-3.26 3.519-9.003 6.86-11.508" mask="url(#7wxvpekstb)"/>
                    <path fill="#002855" d="M430.871 394.386c-.188 0-.372-.053-.533-.15l-32.064-19.75c-.471-.29-.625-.913-.342-1.39l1.366-2.293 32.4 19.954c.386.239.656.613.76 1.055.103.442.029.897-.212 1.282l-.507.813c-.188.3-.513.48-.868.48" mask="url(#7wxvpekstb)"/>
                    <path fill="#002855" d="M399.124 370.096l-1.63 2.74c-.428.718-.2 1.647.513 2.085l32.063 19.748c.25.153.528.228.801.228.51 0 1.01-.255 1.3-.72l.507-.812c.647-1.037.328-2.402-.712-3.043l-32.842-20.226zm.347 1.412l31.96 19.684c.27.166.457.427.53.736.072.309.02.627-.148.895l-.507.813c-.094.15-.256.24-.435.24-.095 0-.184-.026-.266-.076l-32.063-19.748c-.236-.146-.313-.457-.17-.696l1.1-1.848z" mask="url(#7wxvpekstb)"/>
                    <path fill="#FFF" d="M482.052 209.156l3.41 10.292 17.216-16.215-1.75-5.5-15.56-3.067-4.942-1.149v5.556c0 3.427.549 6.83 1.626 10.083" mask="url(#7wxvpekstb)"/>
                    <path stroke="#002855" stroke-width="1.02" d="M482.052 209.156l3.41 10.292 17.216-16.215-1.75-5.5-15.56-3.067-4.942-1.149v5.556c0 3.427.549 6.83 1.626 10.083z" mask="url(#7wxvpekstb)"/>
                    <g mask="url(#7wxvpekstb)">
                        <g>
                            <path fill="#FFF" d="M.798 2.337S.369-.005 2.155.129C3.19.206 4.05.967 4.39 1.949l2.833 7.392" transform="translate(463.265 232.89)"/>
                            <path stroke="#002855" stroke-width="1.02" d="M.798 2.337S.369-.005 2.155.129C3.19.206 4.05.967 4.39 1.949l2.833 7.392" transform="translate(463.265 232.89)"/>
                        </g>
                    </g>
                    <path fill="#002855" d="M497.684 191.764v-5.429c0-1.377-.51-2.704-1.459-3.714-.387-.418-.785-.735-1.194-.939-.449-.224-.826-.275-1.132-.153-.51.204-.725.817-.725.827 0 0-.796 3.255 0 5.5.541 1.53 3.01 3.102 4.51 3.908m16.909 7.49v-2.47h-3.184c-.214-.02-.439.01-.51.062 0 .01.01.06.05.163.205.48 1.92 1.46 3.644 2.245m3.806-8.225c.194-.296-.439-1.53-1.327-2.581l-1.888-.674c-1.04-.367-1.755-1.367-1.765-2.48 0-.265-.01-.53-.01-.806h-1.03c-1 0-1.113.807-1.123.96l-1.02-.062c.04-.663.54-1.918 2.142-1.918h1.02c-.03-2.357-.03-4.898.042-6.255.081-1.582-1.531-3.347-2.45-4.214v6.867c.072.316-.01.918-.99 1.837-1.142 1.071-2.51 1.306-2.56 1.316h-5.378c-.306.051-1.173.306-1.418.704-.041.082-.092.204-.01.429.336.959 1.908 1.387 2.48 1.47l.458.07-.275 5.664c-.051 1 .163 1.99.612 2.877.878 1.715 1.786 2.735 2.429 2.735h.02c.398-.02.53-.296.796-1.255.286-1.04.714-2.622 2.745-2.714 2.122-.102 3.857-.092 4.694-.082v-.939l.48-.03c1.367-.092 3.03-.47 3.326-.919m-4.235-21.785c2.837 3.449 7.347 12.265 7.225 13.673-.102 1.092-2.419 3.99-3.347 5.102.683.857 1.867 2.572 1.204 3.582-.602.898-2.623 1.214-3.633 1.316v10.286c.071 1.04-.418 3.183-2.765 3.561-.112.02-.245.03-.388.03-3.061 0-12.224-4.203-13.296-4.703l-.296-.143v-2.888c-4.05-.46-18.918-2.327-19.928-5.327l-.031-.163v-19.255c.01-.133.878-8.867 8.47-8.867 7.142 0 18.57.418 18.693.418.153-.02 5.072-.286 8.092 3.378" mask="url(#7wxvpekstb)"/>
                    <path stroke="#002855" stroke-linejoin="round" stroke-width="1.02" d="M367.757 222.073c-.498 1.402-.88 2.936-1.05 3.465l-7.55 2.762c-1.287.364-1.643.485-2.39.063l-17.726-10.659" mask="url(#7wxvpekstb)"/>
                    <path fill="#002855" d="M370.348 201.659L379.532 201.659 379.532 199.618 370.348 199.618z" mask="url(#7wxvpekstb)"/>
                    <path fill="#FFF" d="M384.34 202.897c0 .845-.687 1.531-1.531 1.531h-1.746c-.846 0-1.531-.686-1.531-1.53v-2.77h4.807v2.77z" mask="url(#7wxvpekstb)"/>
                    <path fill="#002855" d="M380.042 200.638v2.26c0 .562.457 1.02 1.02 1.02h1.747c.563 0 1.02-.458 1.02-1.02v-2.26h-3.787zm2.767 4.3h-1.746c-1.126 0-2.041-.915-2.041-2.04v-3.28h5.827v3.28c0 1.125-.916 2.04-2.04 2.04z" mask="url(#7wxvpekstb)"/>
                </g>
            </g>
        </g>
    </g>
</svg>
