<svg xmlns="http://www.w3.org/2000/svg" xmlns:xlink="http://www.w3.org/1999/xlink" width="624" height="809" viewBox="0 0 624 809">
    <defs>
        <path id="da5v5256ka" d="M0 807L624 807 624 0.693 0 0.693z"/>
    </defs>
    <g fill="none" fill-rule="evenodd">
        <g>
            <g>
                <g>
                    <g>
                        <path fill="#002855" d="M0 617.5h624V1.5H0v616zm1-1h622V2.5H1v614z" transform="translate(-801 -5472) translate(0 5270) translate(105 202) translate(696)"/>
                        <path stroke="#002855" d="M319.933 615.5L319.933 3.472M388.38 615.5L388.38 3.472M456.826 615.5L456.826 3.472M525.273 615.5L525.273 3.472M593.72 613.027L593.72 1M251.486 615.5L251.486 3.472M183.04 615.5L183.04 3.472M114.593 615.5L114.593 3.472M46.147 615.5L46.147 3.472" transform="translate(-801 -5472) translate(0 5270) translate(105 202) translate(696)"/>
                        <path fill="#FFF" d="M115.181 616.5L593.72 616.5 593.72 92.633 115.181 92.633z" transform="translate(-801 -5472) translate(0 5270) translate(105 202) translate(696)"/>
                        <path stroke="#002855" d="M115.181 616.5L593.72 616.5 593.72 92.633 115.181 92.633z" transform="translate(-801 -5472) translate(0 5270) translate(105 202) translate(696)"/>
                        <path fill="#002855" d="M243.144 281.779L243.144 334.399 244.144 334.399 244.144 282.779 309.434 282.779 309.434 326.779 310.434 326.779 310.434 281.779zM376.124 325.779L376.124 288.239 367.334 288.239 367.334 264.189 354.944 264.189 345.124 195.449 335.304 264.189 322.924 264.189 322.924 288.239 314.124 288.239 314.124 325.779 310.434 325.779 310.434 326.779 315.124 326.779 315.124 289.239 323.924 289.239 323.924 265.189 336.174 265.189 345.124 202.519 354.074 265.189 366.334 265.189 366.334 289.239 375.124 289.239 375.124 326.779 389.794 326.779 389.794 334.399 390.794 334.399 390.794 325.779zM593.72 264.189L579.704 264.189 579.704 288.239 570.904 288.239 570.904 325.779 556.244 325.779 556.244 334.399 557.244 334.399 557.244 326.779 571.904 326.779 571.904 289.239 580.704 289.239 580.704 265.189 593.72 265.189" transform="translate(-801 -5472) translate(0 5270) translate(105 202) translate(696)"/>
                        <path fill="#002855" d="M452.964 304.989L452.964 334.399 451.964 334.399 451.964 305.989 447.414 305.989 447.414 270.819 383.804 270.819 383.804 305.989 375.624 305.989 375.624 304.989 382.804 304.989 382.804 269.819 448.414 269.819 448.414 304.989zM571.404 304.989L571.404 305.989 563.224 305.989 563.224 270.819 499.624 270.819 499.624 305.989 495.074 305.989 495.074 334.399 494.074 334.399 494.074 304.989 498.624 304.989 498.624 269.819 564.224 269.819 564.224 304.989z" transform="translate(-801 -5472) translate(0 5270) translate(105 202) translate(696)"/>
                        <path fill="#002855" d="M495.074 300.449L495.074 305.489 494.074 305.489 494.074 301.449 488.934 301.449 477.444 260.289 474.724 260.289 473.514 240.839 472.314 260.289 469.594 260.289 458.104 301.449 452.964 301.449 452.964 305.489 451.964 305.489 451.964 300.449 457.344 300.449 468.834 259.289 471.374 259.289 473.014 232.719 474.014 232.719 475.664 259.289 478.204 259.289 489.694 300.449z" transform="translate(-801 -5472) translate(0 5270) translate(105 202) translate(696)"/>
                        <path stroke="#002855" d="M279.568 282.283L279.568 253.695 253.697 253.695 253.697 232.752 193.333 232.752 193.333 282.283" transform="translate(-801 -5472) translate(0 5270) translate(105 202) translate(696)"/>
                        <path fill="#002855" d="M115.824 350.279L134.234 350.279 134.234 324.269 200.824 278.119 200.824 334.399 201.824 334.399 201.824 276.209 133.234 323.749 133.234 349.279 114.824 349.279M389.074 230.639L391.148 230.199 391.695 232.27zM385.198 224.453L382.758 229.215 380.671 221.639z" transform="translate(-801 -5472) translate(0 5270) translate(105 202) translate(696)"/>
                        <path fill="#002855" d="M384.596 224.527L383.017 229.323 380.096 222.551zM384.313 230.499L390.022 229.436 391.147 230.199 388.846 233.413z" transform="translate(-801 -5472) translate(0 5270) translate(105 202) translate(696)"/>
                        <path fill="#002855" d="M382.41 229.066L385.199 224.453 386.828 232.047zM383.779 235.125L379.264 236.354 382.789 230.606z" transform="translate(-801 -5472) translate(0 5270) translate(105 202) translate(696)"/>
                        <path fill="#002855" d="M388.846 233.413L383.595 234.324 382.409 229.066zM418.885 214.754L421.019 214.584 421.297 216.728zM415.809 208.055L412.746 212.506 411.641 204.648z" transform="translate(-801 -5472) translate(0 5270) translate(105 202) translate(696)"/>
                        <path fill="#002855" d="M415.196 208.051L412.991 212.649 410.946 205.487zM414.135 213.995L419.992 213.674 421.019 214.584 418.296 217.503z" transform="translate(-801 -5472) translate(0 5270) translate(105 202) translate(696)"/>
                        <path fill="#002855" d="M412.416 212.312L415.809 208.055 416.453 215.873zM412.999 218.559L408.317 219.202 412.595 213.904z" transform="translate(-801 -5472) translate(0 5270) translate(105 202) translate(696)"/>
                        <path fill="#002855" d="M418.296 217.503L412.919 217.732 412.416 212.313zM361.045 216.26L362.457 216.147 362.641 217.566zM359.011 211.828L356.985 214.773 356.254 209.575z" transform="translate(-801 -5472) translate(0 5270) translate(105 202) translate(696)"/>
                        <path fill="#002855" d="M358.606 211.826L357.147 214.868 355.795 210.13zM357.903 215.758L361.777 215.545 362.457 216.147 360.655 218.078z" transform="translate(-801 -5472) translate(0 5270) translate(105 202) translate(696)"/>
                        <path fill="#002855" d="M356.767 214.644L359.011 211.828 359.437 216.999zM357.152 218.776L354.055 219.201 356.885 215.697z" transform="translate(-801 -5472) translate(0 5270) translate(105 202) translate(696)"/>
                        <path fill="#002855" d="M360.656 218.078L357.099 218.229 356.767 214.644zM588.956 216.281L590.368 216.168 590.552 217.587zM586.921 211.85L584.895 214.793 584.164 209.596z" transform="translate(-801 -5472) translate(0 5270) translate(105 202) translate(696)"/>
                        <path fill="#002855" d="M586.516 211.847L585.058 214.888 583.705 210.151zM585.814 215.779L589.688 215.567 590.368 216.169 588.566 218.099z" transform="translate(-801 -5472) translate(0 5270) translate(105 202) translate(696)"/>
                        <path fill="#002855" d="M584.677 214.666L586.921 211.85 587.347 217.021zM585.063 218.797L581.966 219.222 584.795 215.718z" transform="translate(-801 -5472) translate(0 5270) translate(105 202) translate(696)"/>
                        <path fill="#002855" d="M588.566 218.099L585.009 218.251 584.676 214.666zM336.133 215.912L337.282 215.82 337.432 216.975zM334.477 212.304L332.828 214.701 332.232 210.47z" transform="translate(-801 -5472) translate(0 5270) translate(105 202) translate(696)"/>
                        <path fill="#002855" d="M334.147 212.302L332.959 214.778 331.858 210.921zM333.575 215.503L336.729 215.33 337.283 215.82 335.816 217.392z" transform="translate(-801 -5472) translate(0 5270) translate(105 202) translate(696)"/>
                        <path fill="#002855" d="M332.649 214.597L334.476 212.304 334.823 216.514zM332.963 217.96L330.442 218.307 332.746 215.454z" transform="translate(-801 -5472) translate(0 5270) translate(105 202) translate(696)"/>
                        <path fill="#002855" d="M335.816 217.392L332.92 217.516 332.649 214.597z" transform="translate(-801 -5472) translate(0 5270) translate(105 202) translate(696)"/>
                        <path fill="#FFF" d="M414.549 671.024L439.57 633.628 505.13 633.628 495.88 671.024z" transform="translate(-801 -5472) translate(0 5270) translate(105 202) translate(696)"/>
                        <path fill="#002855" d="M505.769 633.129h-66.465l-25.69 38.396h82.658l9.497-38.396zm-1.277 1l-9.003 36.396h-80.003l24.352-36.396h64.654z" transform="translate(-801 -5472) translate(0 5270) translate(105 202) translate(696)"/>
                        <g transform="translate(-801 -5472) translate(0 5270) translate(105 202) translate(696) translate(0 .307)">
                            <path fill="#FFF" d="M426.25 636.017c-.514-.937-16.461 16.91-18.718 19.442-.201.226-.385.454-.564.697-.861 1.163-3.227 4.507-2.409 5.052.176.118 2.571-1.368 3.309-1.976 1.327-1.095 2.311-2.366 4.295-4.43 3.124-3.249 6.314-7.892 6.314-7.892s2.179-2.73 4.174-5.18c.511-.628 4.153-4.705 3.599-5.713"/>
                            <path stroke="#002855" d="M426.25 636.017c-.514-.937-16.461 16.91-18.718 19.442-.201.226-.385.454-.564.697-.861 1.163-3.227 4.507-2.409 5.052.176.118 2.571-1.368 3.309-1.976 1.327-1.095 2.311-2.366 4.295-4.43 3.124-3.249 6.314-7.892 6.314-7.892s2.179-2.73 4.174-5.18c.511-.628 4.153-4.705 3.599-5.713zM439 645.693L462 645.693M463 658.693L487 658.693M466 645.693L477 645.693M481 645.693L487 645.693M436 652.693L446 652.693M439 658.693L450 658.693M478 652.693L489 652.693M463 652.693L474 652.693M450 652.693L457 652.693M454 658.693L461 658.693"/>
                            <mask id="dqzql8frjb" fill="#fff">
                                <use xlink:href="#da5v5256ka"/>
                            </mask>
                            <path fill="#002855" d="M0 617.193L624 617.193 624 615.193 0 615.193z" mask="url(#dqzql8frjb)"/>
                            <g mask="url(#dqzql8frjb)">
                                <g>
                                    <path fill="#FFF" d="M.894 254.693S69.997 174.67 80.627.32h290.23s-15.947 227.02-35.083 254.373" transform="translate(12 551)"/>
                                    <path stroke="#002855" stroke-width="4" d="M.894 254.693S69.997 174.67 80.627.32h290.23s-15.947 227.02-35.083 254.373" transform="translate(12 551)"/>
                                </g>
                            </g>
                            <path stroke="#002855" d="M91.977 727.883L308.735 727.883M85.356 743.638L207.664 743.638M218.122 743.638L308.735 743.638M77.949 759.377L241.216 759.377M69.605 775.117L207.665 775.117M193.735 652.019L329.922 652.019M115.181 652.019L186.328 652.019M207.665 667.662L326.783 667.662M111.374 667.662L197.875 667.662M107.161 683.401L323.243 683.401M102.277 699.239L165.843 699.239" mask="url(#dqzql8frjb)"/>
                            <path fill="#FFF" d="M165.255 626.36L120.341 626.36 126.35 583.849 169.812 583.849z" mask="url(#dqzql8frjb)"/>
                            <path stroke="#002855" d="M165.255 626.36L120.341 626.36 126.35 583.849 169.812 583.849z" mask="url(#dqzql8frjb)"/>
                            <path fill="#FFF" d="M150.868 599.435c-.186 4.169-3.197 7.667-6.783 7.667-3.66 0-6.31-3.628-5.868-7.946.426-4.155 3.568-7.288 6.971-7.143 3.34.143 5.86 3.405 5.68 7.422" mask="url(#dqzql8frjb)"/>
                            <path stroke="#002855" d="M150.868 599.435c-.186 4.169-3.197 7.667-6.783 7.667-3.66 0-6.31-3.628-5.868-7.946.426-4.155 3.568-7.288 6.971-7.143 3.34.143 5.86 3.405 5.68 7.422zM120.72 623.236s10.327-13.842 22.386-13.842c12.359 0 22.43 6.42 22.43 14.339" mask="url(#dqzql8frjb)"/>
                            <g mask="url(#dqzql8frjb)">
                                <g>
                                    <path fill="#FFF" d="M.563.721s.813 1.741 2.406 1.741c1.593 0 2.622-1.74 2.622-1.74" transform="translate(141 601)"/>
                                    <path stroke="#002855" d="M.563.721s.813 1.741 2.406 1.741c1.593 0 2.622-1.74 2.622-1.74" transform="translate(141 601)"/>
                                </g>
                            </g>
                            <path fill="#002855" d="M279.013 783.432c-.764.366-1.406.303-.858-.848.26-.553.625-1.119.996-1.6.513-.705 1.09-1.327 1.735-1.869.544-.058 1.042-.284 1.412-.826-.184.526-.331 1.056-.42 1.585-.702 1.148-1.75 3.01-2.865 3.558m-8.073-9.026c.877-1.992 1.8-3.994 2.832-5.924.536-1.04 1.124-2.223 2.102-2.919.698-.506 2.572-1.229 2.807-.022.408 2.12-2.75 4.981-4.135 6.157-1.142.98-2.362 1.871-3.606 2.708m-12.35.34c.316-.91.644-1.812.959-2.722.394-1.093.788-2.186 1.145-3.283.139-.457.86-2.238 1.224-3.526.356.386.712.773 1.059 1.173.345 1.22-1.03 3.377-1.616 4.464-.762 1.421-1.71 2.704-2.77 3.893m26.06 7.096c-.38.225-.772.44-1.165.654-.017-.246-.012-.496.017-.75 1.535-2.407 2.639-5.112 3.707-7.76 1.674-4.194 3.334-8.394 5.009-12.586.32-.769-1.2-2.65-1.582-1.784-2.276 5.033-4.54 10.075-6.824 15.122-.375.851-.8 1.75-1.173 2.66-.061-.78-.853-2.094-1.547-1.625-.447.298-.951.655-1.441 1.081-1.56.144-3.95-1.204-5.362-.439-1.31.698-1.878 2.03-2.313 3.428-.244-.196-.513-.293-.753-.135-.468.303-2.238 3.554-3.208 2.244-.231-.306.776-2.41 1.182-3.339 2.647-1.707 5.334-3.448 7.587-5.605 1.76-1.694 4.214-4.464 3.67-7.159-.357-1.774-1.97-3.207-3.821-3.153-2.824.108-4.127 3.212-5.193 5.375-1.393 2.79-2.645 5.633-3.741 8.54-.375.245-.75.492-1.114.724-.703-1.783-2.991-2.382-5.136-2.479 1.764-2.337 3.294-5.157 3.223-7.918-.053-2.066-1.931-5.233-4.353-3.75-1.101.674-1.651 2.038-2.04 3.213-.737 2.2-1.37 4.447-2.043 6.668-1.43 4.72-2.891 9.46-4.312 14.167-.022.063-.035.114-.057.177-.212.723 1.368 2.448 1.666 1.624l.065-.192c1.536-4.34 3.062-8.666 4.598-13.006.15.644.733 1.314 1.264 1.247 1.445-.179 2.869-.177 4.302.144.26.051 1.19.124 1.288.305.098.18-.241.704-.602 1.173-2.454 1.56-4.944 3.055-7.458 4.496-.826.463.512 2.382 1.349 2.083 2.228-.786 6.339-2.25 7.855-4.748.077-.028.149-.079.22-.129-.221 1.34.06 2.596 1.46 3.422.574.352 1.2.502 1.835.425-.558 1.71-1.116 3.42-1.665 5.115-.444 1.413-1.11 2.956-1.252 4.446-.025.16-.018.36.03.587-.008.013.006.022.01.045.002.06.016.127.036.217.139.813.862 2.081 1.505 1.54.05-.046.076-.087.112-.143l.013.01.018-.029c.264-.377.368-1.05.503-1.413.487-1.326.973-2.652 1.446-3.988.504-1.354.985-2.703 1.466-4.052.162-.462.369-.933.517-1.404.026-.1.14-.339.18-.49.009-.014.017-.028.012-.05l.01-.014c1.069-2.259 1.252-6.984 4.803-6.193.137.03.274.06.415.112-1.2 1.373-2.073 2.997-1.84 4.632.15 1.035.827 2.136 1.74 2.686 1.423.881 2.443-.06 3.424-1.126.377-.402.716-.807 1.05-1.235.143.326.315.633.534.93.24.351.769.985 1.279.71.668-.369 1.345-.752 2.014-1.12.817-.45-.561-2.668-1.42-2.188" mask="url(#dqzql8frjb)"/>
                            <path fill="#DFF0F7" d="M296.603 616.785c0 6.778-5.495 12.273-12.274 12.273-6.778 0-12.274-5.495-12.274-12.273s5.496-12.274 12.274-12.274c6.779 0 12.274 5.496 12.274 12.274" mask="url(#dqzql8frjb)"/>
                            <path fill="#002855" d="M290.519 613.626L293.523 612.037 295.275 614.988zM281.828 605.794L280.159 614.205 273.614 603.445z" mask="url(#dqzql8frjb)"/>
                            <path fill="#002855" d="M280.933 606.172L280.606 614.259 273.128 605.105zM283.119 615.502L291.453 611.356 293.523 612.037 291.387 618.002z" mask="url(#dqzql8frjb)"/>
                            <path fill="#002855" d="M279.557 614.13L281.828 605.794 287.677 616.784zM284.329 622.868L277.91 626.745 280.817 616.338z" mask="url(#dqzql8frjb)"/>
                            <path fill="#002855" d="M291.387 618.002L283.694 621.713 279.557 614.13zM290.184 620.332L290.184 621.605 287.661 622.385 290.184 623.169 290.184 624.449 286.349 623.028 286.349 621.756zM294.322 622.96c0 .54-.386.896-.856.896-.471 0-.85-.36-.85-.884s.373-.892.85-.892c.478 0 .856.366.856.877v.002zm-.41-2.02c-.502-.004-.975.222-1.265.605v-1.878h-1.466v5.247h1.466v-.475c.305.367.777.576 1.274.566.988 0 1.844-.777 1.844-2.036s-.856-2.029-1.852-2.029zM297.896 619.667L297.896 624.916 296.43 624.916 296.43 619.667M301.158 623.506v-.18c-.182-.067-.376-.1-.57-.1-.426 0-.673.194-.673.494 0 .265.215.424.516.424.37.03.694-.225.726-.569.002-.022.003-.046.002-.069zm-2.653.28c0-.806.656-1.222 1.636-1.222.341 0 .68.05 1.003.151v-.064c0-.403-.27-.633-.833-.633-.395 0-.786.072-1.15.216l-.3-.964c.535-.208 1.11-.31 1.69-.302.748 0 1.257.165 1.592.475.334.31.447.69.447 1.237v2.236h-1.45v-.405c-.31.326-.759.508-1.227.494-.799 0-1.408-.429-1.408-1.22zM303.167 622.974c-.005-1.117.963-2.025 2.162-2.029l.077.001c.855 0 1.427.343 1.782.87l-.979.66c-.165-.242-.452-.386-.757-.382-.531 0-.856.39-.856.876 0 .488.339.882.838.882.354 0 .555-.165.787-.41l.995.67c-.385.531-.941.89-1.86.89-1.19.017-2.17-.868-2.189-1.977v-.05M309.199 619.667L309.199 622.327 310.334 621.025 311.993 621.025 310.541 622.586 312.03 624.916 310.417 624.916 309.575 623.598 309.197 624.008 309.197 624.921 307.733 624.921 307.733 619.667M315.522 622.96c0 .54-.385.896-.856.896-.47 0-.849-.36-.849-.884s.373-.892.85-.892c.478 0 .856.366.856.877v.002zm-.409-2.02c-.502-.004-.976.222-1.265.605v-1.878h-1.466v5.247h1.466v-.475c.303.367.776.576 1.272.566.99 0 1.846-.777 1.846-2.036s-.856-2.029-1.853-2.029zM317.63 621.025L319.096 621.025 319.096 624.915 317.635 624.915zM319.915 621.025h1.466v.784c.239-.532.624-.877 1.319-.848v1.438h-.124c-.764 0-1.195.41-1.195 1.309v1.207h-1.466v-3.89zM326.123 622.96c0 .53-.375.898-.844.898-.471 0-.856-.352-.856-.884 0-.533.385-.892.856-.892.47 0 .848.366.848.877h-.004zm-.02-3.293v1.832c-.308-.363-.783-.57-1.28-.56-.987 0-1.837.77-1.837 2.035 0 1.258.856 2.031 1.844 2.03.506.003.98-.223 1.274-.606v.518h1.466v-5.249h-1.466zM328.567 620.326L332.402 621.75 332.402 623.028 328.567 624.452 328.567 623.176 331.09 622.39 328.567 621.606zM366.477 707.497s28.784 47.195 22.209 51.14c-6.575 3.946-30.83-21.624-30.83-21.624l8.62-29.516z" mask="url(#dqzql8frjb)"/>
                            <g mask="url(#dqzql8frjb)">
                                <g>
                                    <path fill="#FFF" d="M27.655 120.693s-7.191-22.651-7.191-33.4c0-10.747-8.083-16.253-8.785-30.767-.155-3.216-9.37-22.73-9.37-22.73s-4.684-7.39 0-10.722C6.994 19.74 45.125 65.42 48.899 65.42c3.774 0-15.587-39.242-15.587-39.242L36.412.43c-.222 1.844 10 9.847 11.61 11.458 6.582 6.594 12.989 13.358 19.173 20.327 1.855 2.09 3.712 4.23 4.943 6.74C74.716 44.21 82.48 63.77 82.598 66.64c.14 3.423 6.166 18.582 1.328 28.97-1.123 2.413-10.991 22.128-12.747 25.083" transform="translate(334 685)"/>
                                    <path stroke="#002855" stroke-width="2" d="M27.655 120.693s-7.191-22.651-7.191-33.4c0-10.747-8.083-16.253-8.785-30.767-.155-3.216-9.37-22.73-9.37-22.73s-4.684-7.39 0-10.722C6.994 19.74 45.125 65.42 48.899 65.42c3.774 0-15.587-39.242-15.587-39.242L36.412.43c-.222 1.844 10 9.847 11.61 11.458 6.582 6.594 12.989 13.358 19.173 20.327 1.855 2.09 3.712 4.23 4.943 6.74C74.716 44.21 82.48 63.77 82.598 66.64c.14 3.423 6.166 18.582 1.328 28.97-1.123 2.413-10.991 22.128-12.747 25.083" transform="translate(334 685)"/>
                                </g>
                            </g>
                            <path fill="#FFF" d="M514.419 498.483L513.586 525.458 494.639 551.32 471.975 526.804 472.888 497.168z" mask="url(#dqzql8frjb)"/>
                            <path stroke="#002855" stroke-width="2" d="M514.419 498.483L513.586 525.458 494.639 551.32 471.975 526.804 472.888 497.168z" mask="url(#dqzql8frjb)"/>
                            <path fill="#FFF" d="M389.612 616.193s2.093-47.991 10.45-54.484c6.76-5.255 47.107-32.297 68.438-46.576 10.551 14.246 17.172 23.01 19.53 26.119.524.693 1.525.792 2.18.219l30.122-26.338s56.176 35.068 63.208 43.378c7.033 8.312 10.18 57.682 10.18 57.682H389.611z" mask="url(#dqzql8frjb)"/>
                            <path stroke="#002855" stroke-width="2" d="M389.612 616.193s2.093-47.991 10.45-54.484c6.76-5.255 47.107-32.297 68.438-46.576 10.551 14.246 17.172 23.01 19.53 26.119.524.693 1.525.792 2.18.219l30.122-26.338s56.176 35.068 63.208 43.378c7.033 8.312 10.18 57.682 10.18 57.682H389.611z" mask="url(#dqzql8frjb)"/>
                            <path stroke="#002855" stroke-width="2" d="M461.72 519.673c4.835 6.526 21.554 28.181 25.54 34.258.514.783 1.607.902 2.285.256l36.779-35.059" mask="url(#dqzql8frjb)"/>
                            <path fill="#002855" d="M450.5 477.623l15.5 10.974s15.323 24.835 25.666 17.439c10.343-7.397 34.533-1.106 38.799-5.8 4.266-4.691 11.945-57.115 5.546-71.005-6.399-13.89-37.841-15.17-41.531-18.156-3.69-2.986-37.98 12.802-40.98 39.675l-3 26.873z" mask="url(#dqzql8frjb)"/>
                            <path stroke="#002855" d="M450.5 477.623l15.5 10.974s15.323 24.835 25.666 17.439c10.343-7.397 34.533-1.106 38.799-5.8 4.266-4.691 11.945-57.115 5.546-71.005-6.399-13.89-37.841-15.17-41.531-18.156-3.69-2.986-37.98 12.802-40.98 39.675l-3 26.873z" mask="url(#dqzql8frjb)"/>
                            <path fill="#FFF" d="M519.749 473.564c0 19.298-11.618 34.94-25.948 34.94s-25.947-15.642-25.947-34.94c0-19.3 11.618-34.942 25.947-34.942 14.33 0 25.948 15.643 25.948 34.942" mask="url(#dqzql8frjb)"/>
                            <path stroke="#002855" d="M519.749 473.564c0 19.298-11.618 34.94-25.948 34.94s-25.947-15.642-25.947-34.94c0-19.3 11.618-34.942 25.947-34.942 14.33 0 25.948 15.643 25.948 34.942z" mask="url(#dqzql8frjb)"/>
                            <path fill="#002855" d="M495.1 512.077c-.218 0-.409-.005-.574-.012-.247-.01-.494-.015-.742-.015-.235 0-.47.005-.707.014-.166.008-.362.012-.584.012-5.054 0-21.797-2.388-28.59-32.621 3.83 4.445 14.306 16.188 18.121 16.188.168 0 .327-.02.475-.06 1.494-.41 2.496-1.168 3.465-1.901 1.65-1.247 3.357-2.537 7.838-2.537 4.477 0 6.19 1.29 7.843 2.54.97.732 1.971 1.488 3.46 1.898.146.04.306.06.474.06 3.805 0 14.182-11.712 17.994-16.171-6.8 30.215-23.448 32.605-28.473 32.605" mask="url(#dqzql8frjb)"/>
                            <path fill="#002855" d="M524.48 477.623s-14.576 17.52-18.9 17.52c-.123 0-.238-.014-.343-.043-3.82-1.05-4.115-4.456-11.435-4.456-7.33 0-7.605 3.406-11.435 4.455-.106.03-.22.045-.343.045-4.333 0-19.024-17.522-19.024-17.522 6.614 32.62 24.505 34.954 29.494 34.954.23 0 .432-.005.605-.013.233-.009.466-.012.699-.012.236 0 .472.003.708.012.171.009.37.014.597.014 4.961 0 22.754-2.337 29.377-34.954m-59.622 3.697c4.695 5.35 13.523 14.824 17.166 14.824.213 0 .417-.028.607-.08 1.587-.436 2.628-1.222 3.635-1.983 1.584-1.197 3.223-2.437 7.536-2.437 4.31 0 5.953 1.241 7.542 2.44 1.007.76 2.047 1.546 3.628 1.98.191.052.395.08.608.08 3.63 0 12.365-9.433 17.033-14.79-6.982 27.966-22.692 30.223-27.51 30.223-.211 0-.397-.005-.556-.012-.25-.01-.499-.014-.749-.014-.247 0-.494.005-.741.014-.16.007-.349.012-.563.012-4.848 0-20.658-2.26-27.636-30.257" mask="url(#dqzql8frjb)"/>
                            <path fill="#FFF" d="M493.8 506.095c-7.04-.099-8.188-8.78-6.135-7.479 2.04 1.287 6.135 1.5 6.135 1.5s4.094-.213 6.147-1.5c2.04-1.3.893 7.38-6.147 7.48" mask="url(#dqzql8frjb)"/>
                            <path fill="#002855" d="M493.264 416.62s-4.99 15.358 2.666 23.465c7.656 8.105 34.96 35.828 36.666 30.713 1.707-5.116 9.385-39.245 0-44.365-9.386-5.12-39.332-9.812-39.332-9.812" mask="url(#dqzql8frjb)"/>
                            <path stroke="#002855" d="M493.264 416.62s-4.99 15.358 2.666 23.465c7.656 8.105 34.96 35.828 36.666 30.713 1.707-5.116 9.385-39.245 0-44.365-9.386-5.12-39.332-9.812-39.332-9.812z" mask="url(#dqzql8frjb)"/>
                            <path stroke="#002855" stroke-width="2" d="M525.384 463.237h-24.2c-.881 0-1.747.49-2.222 1.4-.19.366-.324.798-.324 1.295 0 0 .403 10.634.403 13.805 0 .459.11 1.038-.225 1.333-2.903 2.554-7.15-1.011-7.15-1.011" mask="url(#dqzql8frjb)"/>
                            <path fill="#FFF" d="M471.689 458.288s-6.697-12.05-6.771-5.515c-.075 6.535-1.67 15.573 1.168 17.63 2.839 2.059 4.106 6.509 4.106 6.509l1.497-18.624z" mask="url(#dqzql8frjb)"/>
                            <path fill="#002855" d="M473.8 455.71c.07-.666.327-3.845.023-4.44-1.21-2.377-4.237-2.34-4.311-1.674-.084.756.233 4.281 2.173 7.806 1.432 2.602 1.945-.098 2.115-1.692" mask="url(#dqzql8frjb)"/>
                            <path stroke="#002855" d="M473.8 455.71c.07-.666.327-3.845.023-4.44-1.21-2.377-4.237-2.34-4.311-1.674-.084.756.233 4.281 2.173 7.806 1.432 2.602 1.945-.098 2.115-1.692z" mask="url(#dqzql8frjb)"/>
                            <path stroke="#002855" stroke-linecap="square" d="M115.905 511.23L593.72 309.904M115.905 438.95L593.72 237.625M115.905 432.394L593.72 231.069M115.905 532.38L593.72 331.055" mask="url(#dqzql8frjb)"/>
                        </g>
                    </g>
                </g>
            </g>
        </g>
    </g>
</svg>
