<svg xmlns="http://www.w3.org/2000/svg" xmlns:xlink="http://www.w3.org/1999/xlink" width="570" height="500" viewBox="0 0 577 497">
    <defs>
        <path id="qmqakrkhaa" d="M0.107 0.443L2.28 0.443 2.28 2.693 0.107 2.693z"/>
    </defs>
    <g fill="none" fill-rule="evenodd">
        <g>
            <g>
                <path d="M0 0H577V497H0z" transform="translate(-848 -130) translate(848 130)"/>
                <path fill="#DFF0F7" d="M0 497L577 497 507.181 338 293.516 338 69.819 338z" transform="translate(-848 -130) translate(848 130)"/>
                <path fill="#002855" d="M190.098 146.699l-3.738-6.024c-.949-1.53-2.417-2.643-4.145-3.098-.71-.191-1.36-.263-1.945-.203-.643.066-1.089.275-1.338.626-.414.585-.226 1.415-.219 1.426 0 0 1.376 4.17 3.787 6.104 1.642 1.318 5.411 1.328 7.598 1.169m23.551-3.564l-1.7-2.741-3.464 2.237c-.247.128-.47.319-.513.426.007.01.053.06.168.145.552.389 3.092.272 5.51-.067m-1.523-11.801c.007-.464-1.53-1.39-3.22-1.933l-2.518.579c-1.386.323-2.85-.285-3.628-1.512-.183-.294-.376-.582-.566-.888l-1.12.724c-1.089.703-.656 1.676-.562 1.853l-1.152.649c-.412-.765-.733-2.51 1.01-3.634l1.11-.717c-1.656-2.594-3.405-5.414-4.262-6.97-1-1.812-3.97-2.64-5.566-2.956l4.728 7.62c.296.3.621 1.027.188 2.734-.506 1.992-1.825 3.224-1.873 3.27l-5.85 3.778c-.298.27-1.073 1.152-1.065 1.766.011.119.04.29.284.483 1.027.828 3.031.2 3.71-.111l.548-.244 3.6 6.479c.632 1.145 1.547 2.093 2.647 2.763 2.134 1.286 3.825 1.78 4.525 1.329l.022-.014c.42-.302.373-.701.002-1.952-.406-1.356-1.029-3.412 1.117-4.94 2.238-1.604 4.133-2.811 5.05-3.387l-.646-1.042.5-.371c1.424-1.062 2.974-2.65 2.987-3.356m-19.607-21.202c5.46 1.835 16.437 8.45 17.274 10.1.64 1.283.116 6.126-.129 8.013 1.334.47 3.803 1.542 3.776 3.129-.036 1.419-2.016 3.189-3.045 4.012l7.082 11.415c.794 1.104 1.737 3.826-.556 5.894-.109.1-.246.206-.4.306-3.33 2.15-16.195 3.92-17.704 4.118l-.42.05-1.989-3.205c-4.723 2.336-22.183 10.706-25.347 8.086l-.146-.16-13.258-21.368c-.08-.154-5.15-10.457 3.108-15.79 7.771-5.016 20.492-12.578 20.625-12.664.153-.131 5.321-3.88 11.13-1.936" transform="translate(-848 -130) translate(848 130)"/>
                <path fill="#FFF" d="M153.769 459.968s5.227 4.474 7.278 4.474c2.05 0 11.05 1.06 11.05 1.06l-1.662 13.232-25.877-1.349c-26.123-24.432-22.913-20.739-24.004-22.41 0 0-.511-6.53 2.043-6.53 2.554 0 11.379-12.586 14.713-11.742 3.333.846 16.459 13.276 16.459 13.276v9.99z" transform="translate(-848 -130) translate(848 130)"/>
                <path stroke="#002855" d="M153.769 459.968s5.227 4.474 7.278 4.474c2.05 0 11.05 1.06 11.05 1.06l-1.662 13.232-25.877-1.349c-26.123-24.432-22.913-20.739-24.004-22.41 0 0-.511-6.53 2.043-6.53 2.554 0 11.379-12.586 14.713-11.742 3.333.846 16.459 13.276 16.459 13.276v9.99z" transform="translate(-848 -130) translate(848 130)"/>
                <g>
                    <path fill="#002855" d="M16.701 13.407L2.597.887S-.475.886.512 7.767l24.045 22.06 25.877 1.35.364-3.946-8.919-1.504H25.21l-7.334-7.48s.287-3.692-1.174-4.84" transform="translate(-848 -130) translate(848 130) translate(120 447.557)"/>
                    <path stroke="#002855" d="M16.701 13.407L2.597.887S-.475.886.512 7.767l24.045 22.06 25.877 1.35.364-3.946-8.919-1.504H25.21l-7.334-7.48s.287-3.692-1.174-4.84" transform="translate(-848 -130) translate(848 130) translate(120 447.557)"/>
                </g>
                <g>
                    <path fill="#FFF" d="M64.6 83.263l34.814-28.98c.04-.034.072-.063.109-.1 1.172-1.15 18.91-20.423 25.03-45.249L112.319.837s-25.281 30.05-29.014 36.706C74.532 45.1 21.632 85.406 21.632 85.406s-4.318 3.238-5.938 5.938c-1.62 2.698-2.52 7.017-2.34 15.474.18 8.456-3.777 49.301-3.777 49.301s-3.96 8.817-4.68 11.156C4.18 169.615.76 198.763.76 198.763l14.754 3.24s11.336-23.392 11.876-26.63c.54-3.239 5.038-17.095 5.038-19.074 0-1.979 1.259-16.014 1.259-16.014l10.257 12.775-3.6 21.052 56.32 11.156.18-21.05-17.242-93.976" transform="translate(-848 -130) translate(848 130) translate(153 88.557)"/>
                    <path stroke="#002855" d="M64.6 83.263l34.814-28.98c.04-.034.072-.063.109-.1 1.172-1.15 18.91-20.423 25.03-45.249L112.319.837s-25.281 30.05-29.014 36.706C74.532 45.1 21.632 85.406 21.632 85.406s-4.318 3.238-5.938 5.938c-1.62 2.698-2.52 7.017-2.34 15.474.18 8.456-3.777 49.301-3.777 49.301s-3.96 8.817-4.68 11.156C4.18 169.615.76 198.763.76 198.763l14.754 3.24s11.336-23.392 11.876-26.63c.54-3.239 5.038-17.095 5.038-19.074 0-1.979 1.259-16.014 1.259-16.014l10.257 12.775-3.6 21.052 56.32 11.156.18-21.05-17.242-93.976" transform="translate(-848 -130) translate(848 130) translate(153 88.557)"/>
                </g>
                <path stroke="#002855" d="M177.462 216.978L196.943 241.617" transform="translate(-848 -130) translate(848 130)"/>
                <path fill="#002855" d="M249.664 273.826s-19.982 87.85-23.753 93.128c-3.77 5.278-35.818 82.192-35.818 82.192l-2.89 9.426s-13.7 7.163-19.731-5.278c2.262-18.098 19.73-81.816 30.916-86.07 4.9-47.776-5.043-104.554-5.043-104.554l56.319 11.156z" transform="translate(-848 -130) translate(848 130)"/>
                <path stroke="#002855" stroke-width="2" d="M249.664 273.826s-19.982 87.85-23.753 93.128c-3.77 5.278-35.818 82.192-35.818 82.192l-2.89 9.426s-13.7 7.163-19.731-5.278c2.262-18.098 19.73-81.816 30.916-86.07 4.9-47.776-5.043-104.554-5.043-104.554l56.319 11.156z" transform="translate(-848 -130) translate(848 130)"/>
                <path fill="#002855" d="M137.31 436.704s20.358-48.637 25.26-51.276c4.901-2.64 29.031-28.654 29.031-28.654s-5.562-94.104 1.744-94.104c7.305 0 56.318 11.155 56.318 11.155s-25.702 87.096-39.21 102.932c-11.847 13.885-49.056 63.106-58.039 75.015-1.19 1.58-3.242 2.248-5.137 1.685-8.589-2.55-11.962-4.414-9.968-16.753" transform="translate(-848 -130) translate(848 130)"/>
                <path fill="#FFF" d="M265.318 89.394l3.952-4.443 2.044-12.337 1.936-3.604c-.105-1.684-.224-3.805-.333-6.262-.085-1.94-.243-6.146 1.076-7.205.113-.089.429-.344.749-.264.52.131.746 1.061.769 1.447.096 1.631-.054 12.188-.054 12.188s-.263-14.538 1.589-15.738c2.21-1.433 2.59.384 2.59 1.823 0 1.44-1.301 15.258-1.301 15.258s.438-14.779 3.508-13.05c3.07 1.726-2.453 17.176-2.453 17.176s3.918-13.086 5.04-11.509c1.41 1.98-1.874 12.853-1.874 12.853v9.978l-5.003 11.786-12.235-8.097z" transform="translate(-848 -130) translate(848 130)"/>
                <path stroke="#002855" d="M265.318 89.394l3.952-4.443 2.044-12.337 1.936-3.604c-.105-1.684-.224-3.805-.333-6.262-.085-1.94-.243-6.146 1.076-7.205.113-.089.429-.344.749-.264.52.131.746 1.061.769 1.447.096 1.631-.054 12.188-.054 12.188s-.263-14.538 1.589-15.738c2.21-1.433 2.59.384 2.59 1.823 0 1.44-1.301 15.258-1.301 15.258s.438-14.779 3.508-13.05c3.07 1.726-2.453 17.176-2.453 17.176s3.918-13.086 5.04-11.509c1.41 1.98-1.874 12.853-1.874 12.853v9.978l-5.003 11.786-12.235-8.097z" transform="translate(-848 -130) translate(848 130)"/>
                <path fill="#FFF" d="M153.76 287.32v2.216s-6.987 4.034-7.793 9.178c-2.42 4.134-4.74 9.479-3.53 10.185 1.21.706 2.521 0 2.521 0s0 2.42 1.11 3.127c1.108.705 2.722 0 2.722 0s-.454 2.168.505 3.126c.958.958 2.823-.807 2.823-.807s-1.64 4.035 0 4.84c1.641.808 10.186-13.614 10.186-13.614s-5.95 13.658-2.622 13.658c3.127-1.858 7.79-11.742 7.79-11.742s1.085-8.875.783-9.682c-.303-.806-2.104-4.006.258-7.246l-14.754-3.238" transform="translate(-848 -130) translate(848 130)"/>
                <path stroke="#002855" d="M153.76 287.32v2.216s-6.987 4.034-7.793 9.178c-2.42 4.134-4.74 9.479-3.53 10.185 1.21.706 2.521 0 2.521 0s0 2.42 1.11 3.127c1.108.705 2.722 0 2.722 0s-.454 2.168.505 3.126c.958.958 2.823-.807 2.823-.807s-1.64 4.035 0 4.84c1.641.808 10.186-13.614 10.186-13.614s-5.95 13.658-2.622 13.658c3.127-1.858 7.79-11.742 7.79-11.742s1.085-8.875.783-9.682c-.303-.806-2.104-4.006.258-7.246l-14.754-3.238z" transform="translate(-848 -130) translate(848 130)"/>
                <path stroke="#002855" d="M159.813 309.62c2.18-3.529-1.542-4.452-2.752-3.243-1.211 1.212-4.942 7.969-4.942 7.969l4.942-7.969s.886-2.189-.76-3.103c-2.392-1.33-5.359 5.442-7.69 8.82 0 0 0 2.778.684 3.058" transform="translate(-848 -130) translate(848 130)"/>
                <path stroke="#002855" d="M144.958 308.899c2.88-1.65 3.169-7.1 5.369-8.33 2.042-.426 2.871.919 2.989 2.287.147 1.697-4.705 9.237-4.705 9.237M145.898 298.831s2.442-1.174 3.769 2.287" transform="translate(-848 -130) translate(848 130)"/>
                <path stroke="#000" d="M180.781 470.846h-18 18z" transform="translate(-848 -130) translate(848 130)"/>
                <path fill="#FFF" d="M189.886 450.204c.117-.538.731-.825 1.191-.522 5.103 3.36 3.602 12.397 12.303 14.136 9.217 1.844 11.647.922 15.25 3.437 3.363 2.346-9.186 10.312-10.875 11.363-.125.079-.263.115-.41.115h-39.683c-.127 0-.245-.026-.358-.086-.918-.476-5.328-2.827-5.402-4.102-.084-1.425 0-3.353 1.508-4.192 1.508-.837.916-17.279 4.061-17.06 3.145.22 4.207 6.683 9.765 7.33 5.517.642 10.821-2.027 12.65-10.418" transform="translate(-848 -130) translate(848 130)"/>
                <path stroke="#002855" d="M189.886 450.204c.117-.538.731-.825 1.191-.522 5.103 3.36 3.602 12.397 12.303 14.136 9.217 1.844 11.647.922 15.25 3.437 3.363 2.346-9.186 10.312-10.875 11.363-.125.079-.263.115-.41.115h-39.683c-.127 0-.245-.026-.358-.086-.918-.476-5.328-2.827-5.402-4.102-.084-1.425 0-3.353 1.508-4.192 1.508-.837.916-17.279 4.061-17.06 3.145.22 4.207 6.683 9.765 7.33 5.517.642 10.821-2.027 12.65-10.418z" transform="translate(-848 -130) translate(848 130)"/>
                <path fill="#002855" d="M180.46 470.846c1.995.644 4.337 2.624 4.979 3.588h28.375l-6.245 4.3h-40.098s-8.027-3.27-4.689-7.888h17.678z" transform="translate(-848 -130) translate(848 130)"/>
                <path stroke="#002855" d="M181.456 168.753L181.456 159.95" transform="translate(-848 -130) translate(848 130)"/>
                <path fill="#002855" d="M501.352 273.714s8.015 4.694 6.888 5.187c-.94.412-8.726-2.826-11.29-3.914-.137-.058-.247.122-.133.217 1.784 1.5 6.403 5.52 5.72 6.373-.846 1.057-9.789-3.45-9.789-3.45s3.873 3.521 4.436 4.084c.564.564.422 1.127-1.338 1.197-1.76.071-9.436-4.846-9.436-4.846s6.011-5.81 14.942-4.848" transform="translate(-848 -130) translate(848 130)"/>
                <path stroke="#002855" d="M501.352 273.714s8.015 4.694 6.888 5.187c-.94.412-8.726-2.826-11.29-3.914-.137-.058-.247.122-.133.217 1.784 1.5 6.403 5.52 5.72 6.373-.846 1.057-9.789-3.45-9.789-3.45s3.873 3.521 4.436 4.084c.564.564.422 1.127-1.338 1.197-1.76.071-9.436-4.846-9.436-4.846s6.011-5.81 14.942-4.848z" transform="translate(-848 -130) translate(848 130)"/>
                <path fill="#FFF" d="M431.753 200.894s17.543 35.047 17.735 37.069c.193 2.023 23.58 35.635 23.685 35.828.104.193-.058 3.756 2.479 5.297 2.537 1.54 16.79 9.728 17.369 9.728.578 0 2.215 0 1.06-1.927-1.156-1.926-8.187-5.971-7.224-7.608.963-1.637 4.454-5.474 25.243-6.523 0 0 4.133-1.295 1.48-2.468h-21.344s-8.39-1.11-10.054-3.577c-1.666-2.467-13.787-36.245-25.415-48.671-4.257-6.847-12.108-24.203-12.108-24.203l-12.906 7.055z" transform="translate(-848 -130) translate(848 130)"/>
                <path stroke="#002855" d="M431.753 200.894s17.543 35.047 17.735 37.069c.193 2.023 23.58 35.635 23.685 35.828.104.193-.058 3.756 2.479 5.297 2.537 1.54 16.79 9.728 17.369 9.728.578 0 2.215 0 1.06-1.927-1.156-1.926-8.187-5.971-7.224-7.608.963-1.637 4.454-5.474 25.243-6.523 0 0 4.133-1.295 1.48-2.468h-21.344s-8.39-1.11-10.054-3.577c-1.666-2.467-13.787-36.245-25.415-48.671-4.257-6.847-12.108-24.203-12.108-24.203l-12.906 7.055z" transform="translate(-848 -130) translate(848 130)"/>
                <path fill="#FFF" d="M451.664 329.824l15.833-11.035s8.681-4.594 8.13-6.695c-.55-2.101-12.67-12.845-14.874-11.605-2.203 1.24-26.716 16.39-26.716 16.39l17.627 12.945z" transform="translate(-848 -130) translate(848 130)"/>
                <path stroke="#002855" d="M451.664 329.824l15.833-11.035s8.681-4.594 8.13-6.695c-.55-2.101-12.67-12.845-14.874-11.605-2.203 1.24-26.716 16.39-26.716 16.39l17.627 12.945z" transform="translate(-848 -130) translate(848 130)"/>
                <path fill="#002855" d="M412.531 429.508c3.48-1.369 9.348-3.366 15.27 5.641.555.844.931.24 1.051 1.226 1.166 9.538-10.995 23.54-19.66 27.214-3.674 1.093-7.41.708-9.647-.91-1.65-1.378-1.597-3.777-.656-6.635 3.157-2.747 5.71-8.247 8.207-12.364 1.817-2.997 1.858-5.956 2.525-7.85.205-.586.15-5.236 2.91-6.322" transform="translate(-848 -130) translate(848 130)"/>
                <path stroke="#002855" d="M412.531 429.508c3.48-1.369 9.348-3.366 15.27 5.641.555.844.931.24 1.051 1.226 1.166 9.538-10.995 23.54-19.66 27.214-3.674 1.093-7.41.708-9.647-.91-1.65-1.378-1.597-3.777-.656-6.635 3.157-2.747 5.71-8.247 8.207-12.364 1.817-2.997 1.858-5.956 2.525-7.85.205-.586.15-5.236 2.91-6.322z" transform="translate(-848 -130) translate(848 130)"/>
                <path fill="#FFF" d="M433.759 352.54c.21-1.506 5.22 17.863 4.27 27.931 0 10.432-9.18 55.904-9.18 55.904s-20.13 3.576-20.42-4.107c-.28-7.674.69-102.865 3.7-107.703 2.47-3.967 6.55-1.94 13.09-1.94 6.55 0 8.54 29.914 8.54 29.914" transform="translate(-848 -130) translate(848 130)"/>
                <path stroke="#002855" d="M412.129 324.566c-3.01 4.838-3.98 100.028-3.7 107.703.29 7.683 20.42 4.107 20.42 4.107s9.18-45.472 9.18-55.905c.95-10.067-4.06-29.436-4.27-27.931 0 0-1.99-29.914-8.54-29.914-6.54 0-10.62-2.028-13.09 1.94z" transform="translate(-848 -130) translate(848 130)"/>
                <path stroke="#002855" stroke-linejoin="round" d="M410.33 177.68l-5.065-33.06.053-12.602-18.684-7.236c-5.257 12.18-7.388 10.92-7.663 11.652.232.869 1.763 1.495 1.915 1.835.332.744-3.62 6.368-2.29 8.51.876 1.412 10.315 5.065 10.69 5.21.577.25 3.636 21.588 3.54 23.043 4.07-2.17 11.38 1.738 17.503 2.648z" transform="translate(-848 -130) translate(848 130)"/>
                <path fill="#002855" d="M417.365 148.426c1.314.589 7.562 3.275 10.19 4.399.818.352 1.757-.081 2.027-.934 1.924-6.173-14.192-15.394-2.186-10.354 2.862 1.192 4.987-6.354-5.56-11.897-2.641-5.616-6.648-10.287-19.998-13.576-6.241-1.54-7.95-7.374-17.246-3.773-9.938 3.846-7.567 8.344-7.567 8.344l12.55 5.417s-.944 3.176 1.727 4.329l5.39 2.326c-7.732 17.913-8.72 16.593 1.927 21.123.555.229 1.206.107 1.643-.325 5.083-5.038 10.86 2.923 13.05.905 1.989-1.832-2.777-3.813 4.846-.326 2.474 1.133 3.588-3.745-.793-5.658" transform="translate(-848 -130) translate(848 130)"/>
                <path stroke="#002855" d="M382.463 141.633c-1.641-.708-2.123-1.112-2.492-.722-.293.31-.514 1.116-1.184 2.665-.072.165.06.35.237.32 1.427-.252 5.977-1.168 3.439-2.263zM407.332 157.723L405.587 146.99" transform="translate(-848 -130) translate(848 130)"/>
                <path fill="#002855" d="M387.162 132.134L395.425 135.7 396.218 133.864 387.954 130.298z" transform="translate(-848 -130) translate(848 130)"/>
                <path fill="#FFF" d="M383.138 133.353l1.571.678c.761.328 1.643-.022 1.971-.783l1.076-2.491-4.326-1.867-1.075 2.49c-.328.762.022 1.644.783 1.973" transform="translate(-848 -130) translate(848 130)"/>
                <path fill="#002855" d="M383.692 129.547l-.877 2.033c-.22.506.015 1.095.522 1.314l1.57.678c.507.219 1.096-.016 1.315-.522l.877-2.033-3.407-1.47zm-1.795 1.636l1.273-2.95 5.243 2.263-1.273 2.95c-.437 1.013-1.617 1.48-2.63 1.044l-1.57-.678c-1.012-.437-1.481-1.616-1.043-2.63zM364.738 163.1s12.852 6.665 9.996 22.373c-2.856 15.707-2.413 14.553-.97 16.797 2.531 3.94 11.012 12.046 11.012 12.046l1.033 54.376 57.473-16.348-13.422-26.671v-25.468l1.893.689 12.905-7.055s-11.76-30.702-18.756-30.738c-7.57-1.44-17.379-2.128-17.379-2.128s-6.023 9.292-10.497 11.185c-4.474 1.892-7.744-13.25-7.744-13.25l-12.733-10.153-12.81 14.346z" transform="translate(-848 -130) translate(848 130)"/>
                <path stroke="#002855" d="M364.738 163.1s12.852 6.665 9.996 22.373c-2.856 15.707-2.413 14.553-.97 16.797 2.531 3.94 11.012 12.046 11.012 12.046l1.033 54.376 57.473-16.348-13.422-26.671v-25.468l1.893.689 12.905-7.055s-11.76-30.702-18.756-30.738c-7.57-1.44-17.379-2.128-17.379-2.128s-6.023 9.292-10.497 11.185c-4.474 1.892-7.744-13.25-7.744-13.25l-12.733-10.153-12.81 14.346z" transform="translate(-848 -130) translate(848 130)"/>
                <path fill="#FFF" d="M454.619 363.436s3.71-82.46-11.336-111.092l-57.474 16.348 2.604 99.692s36.52-2.474 36.52-12.781l-1.966-22.57 8.23 19.695 23.422 10.708z" transform="translate(-848 -130) translate(848 130)"/>
                <path stroke="#002855" d="M454.619 363.436s3.71-82.46-11.336-111.092l-57.474 16.348 2.604 99.692s36.52-2.474 36.52-12.781l-1.966-22.57 8.23 19.695 23.422 10.708z" transform="translate(-848 -130) translate(848 130)"/>
                <path fill="#FFF" d="M466.332 305.399c1.553 1.934 3.183 3.325 4.704 5.017.281.313.37.795.223 1.218l-2.939 5.72c-.197.57.048 1.226.536 1.453 34.908 16.249 19.036-.51-3.28-25.941-.315-.36-.856-.488-1.18-.141-15.45 16.589-2.225 7.495 1.935 12.674" transform="translate(-848 -130) translate(848 130)"/>
                <path stroke="#002855" d="M466.332 305.399c1.553 1.934 3.183 3.325 4.704 5.017.281.313.37.795.223 1.218l-2.939 5.72c-.197.57.048 1.226.536 1.453 34.908 16.249 19.036-.51-3.28-25.941-.315-.36-.856-.488-1.18-.141-15.45 16.589-2.225 7.495 1.935 12.674z" transform="translate(-848 -130) translate(848 130)"/>
                <path fill="#FFF" d="M412.531 427.584c3.48-1.369 9.348-3.366 15.27 5.642 5.922 9.007-14.937 27.346-18.61 28.44-3.673 1.092-7.409.708-9.646-.91-5.478-4.574 12.084-20.574 9.305-26.82-.123-.278-.168-.572-.075-.859.316-.967 1.088-4.442 3.756-5.493" transform="translate(-848 -130) translate(848 130)"/>
                <path stroke="#002855" d="M412.531 427.584c3.48-1.369 9.348-3.366 15.27 5.642 5.922 9.007-14.937 27.346-18.61 28.44-3.673 1.092-7.409.708-9.646-.91-5.478-4.574 12.084-20.574 9.305-26.82-.123-.278-.168-.572-.075-.859.316-.967 1.088-4.442 3.756-5.493z" transform="translate(-848 -130) translate(848 130)"/>
                <path fill="#FFF" d="M377.55 148.755l-18.87-15.814c-3.71-5.286-24.389-40.275-29.257-45.277-1.925-1.925 0-5.389 0-5.389s3.032-7.759 3.01-9.41c-.024-1.654.202-16.619.242-19.339.041-2.72-2.557-2.638-2.557 0 0 2.64-.65 10.108-1.015 11.083-.366.974-4.425 7.551-5.359 8.16-.933.61.528-7.876 0-8.93-.528-1.057-2.15-.773-3.004-.083-.852.69-3.53 9.825-3.53 10.15v11.122s25.623 50.1 26.903 52.33c1.281 2.23 20.625 25.743 20.625 25.743l12.811-14.346z" transform="translate(-848 -130) translate(848 130)"/>
                <path stroke="#002855" d="M377.55 148.755l-18.87-15.814c-3.71-5.286-24.389-40.275-29.257-45.277-1.925-1.925 0-5.389 0-5.389s3.032-7.759 3.01-9.41c-.024-1.654.202-16.619.242-19.339.041-2.72-2.557-2.638-2.557 0 0 2.64-.65 10.108-1.015 11.083-.366.974-4.425 7.551-5.359 8.16-.933.61.528-7.876 0-8.93-.528-1.057-2.15-.773-3.004-.083-.852.69-3.53 9.825-3.53 10.15v11.122s25.623 50.1 26.903 52.33c1.281 2.23 20.625 25.743 20.625 25.743l12.811-14.346z" transform="translate(-848 -130) translate(848 130)"/>
                <path fill="#002855" d="M464.052 293.095s.928-1.328 1.866-1.065c.937.262 30.287 29.5 22.737 32.821-.23-7.792-24.603-31.756-24.603-31.756" transform="translate(-848 -130) translate(848 130)"/>
                <path stroke="#002855" d="M464.052 293.095s.928-1.328 1.866-1.065c.937.262 30.287 29.5 22.737 32.821-.23-7.792-24.603-31.756-24.603-31.756z" transform="translate(-848 -130) translate(848 130)"/>
                <path fill="#002855" d="M508.1 405.687c-1.11-.77-2.14-1.68-3.06-2.68-1.02-1.1-2.34-2.59-2.36-4.19 0-.64.24-1.37.76-1.77.73-.55 1.54-.11 2.23.27 1.44.8 2.76 1.84 3.93 3 2.16 2.16 3.83 4.83 4.77 7.74.07.21.14.43.2.65-2.31-.65-4.49-1.65-6.47-3.02m23.35.71c-4.26 2.73-9.44 3.65-14.4 2.86-.19-.8-.43-1.59-.69-2.33-1.22-3.42-3.28-6.55-5.99-8.97-2.16-1.93-6.07-5.09-8.74-2.28-2.68 2.82-.31 6.63 1.82 8.93 2.18 2.36 4.94 4.16 7.91 5.37 1.21.49 2.46.89 3.74 1.17.3 2.23-.04 4.45-1.9 6.05-1.18 1.02-2.63 1.72-4 2.41-1.64.82-3.29 1.59-4.97 2.32-7.73 3.35-15.92 5.63-24.25 6.88-1.43.21-.82 2.38.6 2.17 8.76-1.31 17.31-3.8 25.41-7.38 3.34-1.47 7.56-3 9.89-5.95 1.38-1.75 1.73-3.92 1.54-6.09 5.24.68 10.69-.34 15.17-3.21 1.22-.78.09-2.73-1.14-1.95M342.152 55.077c1.395 2.152 2.966 4.189 4.727 6.056 1.349 1.43 3.08 3.521 5.214 3.619 4.737.218 5.425-7.11 5.886-10.37.16-1.133.333-2.267.616-3.377.148-.578.319-1.156.544-1.709.38-.933.45-1.001 1.31-.439 2.059 1.343 3.773 3.027 5.31 4.932 1.39 1.724 3.066 3.42 5.469 3.252 2.074-.145 3.19-1.777 3.463-3.694.416-2.924.708-5.685 1.849-8.453.287-.695.58-1.492 1.015-2.113.543-.774 1.144-.741 1.946-.336 1.178.595 2.06 1.557 3.306 2.068 1.339.549 1.922-1.626.598-2.169-1.96-.805-3.32-2.967-5.73-2.376-2.13.523-2.965 3.357-3.628 5.166-.832 2.267-1.286 4.631-1.485 7.033-.082.983-.12 2.343-1.3 2.612-1.175.269-2.252-.671-2.975-1.46-1.581-1.724-2.915-3.527-4.765-5-1.286-1.024-3.664-3.279-5.331-1.793-1.494 1.331-1.902 4.197-2.203 6.052-.365 2.257-.527 4.566-1.238 6.752-.32.983-.863 2.527-1.881 3.014-1.271.607-2.525-.922-3.332-1.714-2.062-2.024-3.872-4.265-5.443-6.689-.784-1.211-2.733-.084-1.942 1.136M239.981 438.091c2.667.562 5.38.896 8.106.937 1.984.03 4.567.202 6.04-1.41 2.957-3.24-1.385-8.504-3.318-11.05-.602-.793-1.202-1.588-1.74-2.425-.299-.465-.582-.94-.834-1.433-.138-.266-.776-1.302-.66-1.597.266-.683 3.13-.734 3.787-.78 1.502-.105 2.975-.018 4.47.135 2.174.223 4.52.198 6.07-1.59 1.488-1.715.881-3.753-.405-5.36-1.808-2.262-3.459-4.49-4.546-7.205-.476-1.19-1.397-2.833.175-3.507 1.203-.515 2.59-.354 3.811-.867 1.315-.553.737-2.73-.598-2.169-1.89.795-4.167.372-5.657 2.052-1.484 1.674-.368 4.006.376 5.755.938 2.206 2.171 4.248 3.67 6.12.591.74 1.878 1.792 1.838 2.842-.053 1.388-1.806 1.781-2.889 1.808-1.238.03-2.476-.235-3.713-.294-1.42-.069-2.84.014-4.25.206-1.832.25-4.877.515-4.4 3.095.747 4.04 4.508 7.001 6.407 10.478.531.973 1.175 2.245 1.053 3.391-.152 1.44-1.617 1.497-2.778 1.538-3.165.111-6.32-.187-9.417-.839-1.412-.298-2.016 1.87-.598 2.17M176.499 69.173c2.398-3.091 4.208-6.547 6.939-9.385 2.362-2.454 5.099-4.51 8.091-6.136 6.112-3.32 13.152-4.691 20.055-3.818 1.433.18 1.42-2.071 0-2.25-7.159-.906-14.498.579-20.86 3.948-3.165 1.677-6.103 3.843-8.616 6.397-2.865 2.913-4.717 6.453-7.2 9.653-.877 1.13.704 2.734 1.591 1.59M340.93 413.267c.55-1.53 2.03-3.5 3.89-3.12 1.8.37 3.02 2.7 3.69 4.23 1.44 3.35 1.54 7.75-.34 10.96-.61 1.05-1.3 1.15-2.44 1.04-.79-.06-1.58-.19-2.36-.36-.11-.19-.21-.39-.31-.59-1.81-3.58-3.57-8.15-2.13-12.16m30.69 32.24c-7.58-2.13-15.64-4.39-21.46-9.99-2.12-2.04-3.87-4.41-5.37-6.94 1.41.211 2.89.23 4.01-.55 1.66-1.14 2.4-3.76 2.74-5.63.39-2.17.34-4.41-.18-6.55-.84-3.41-3.58-8.79-7.88-7.91-4.57.94-5.66 6.65-5.14 10.51.32 2.31 1.06 4.58 2.06 6.77-.93-.3-1.84-.66-2.73-1.07-3.39-1.59-6.43-3.859-8.87-6.7-5.87-6.79-7.51-16.53-4.68-24.98.46-1.38-1.72-1.97-2.17-.6-2.94 8.78-1.32 18.83 4.41 26.14 2.73 3.48 6.32 6.31 10.35 8.16 1.63.75 3.34 1.36 5.08 1.8.74 1.33 1.54 2.6 2.36 3.81 3.04 4.5 7 8.05 11.83 10.54 4.75 2.44 9.92 3.92 15.04 5.36 1.4.4 1.99-1.78.6-2.17M301.998 89.73c1.337 4.722 1.239 9.703-.261 14.374-.443 1.382 1.728 1.974 2.17.598 1.617-5.035 1.701-10.483.26-15.57-.394-1.391-2.565-.8-2.169.598M349.937 85.716c1.273 3.717 3.877 6.897 6.986 9.251 2.95 2.233 6.849 3.974 10.626 3.597 1.428-.142 1.442-2.394 0-2.25-3.326.332-6.649-1.18-9.266-3.122-2.707-2.008-5.075-4.86-6.177-8.074-.466-1.362-2.641-.777-2.169.598M453.215 159.34c7.125.061 13.87 4.177 17.227 10.453.683 1.277 2.627.142 1.943-1.136-3.724-6.962-11.283-11.5-19.17-11.567-1.448-.012-1.45 2.238 0 2.25M62.363 417.132c3.552 1.781 6.622 4.112 9.434 6.906 2.15 2.137 5.228 4.916 8.518 3.712 3.298-1.206 4.366-5.545 4.41-8.667.054-3.976-1.338-7.74-2.69-11.417-1.313-3.572-3.34-8.399-1.895-12.21 1.357-3.577 6.021-3.238 8.85-1.913 3.467 1.625 6.29 4.691 10.13 5.5 3.204.677 6.188-.797 7.3-3.925 1.27-3.572-.243-7.11-1.948-10.232-.882-1.614-3.246-4.766-1.93-6.527 1.267-1.699 3.754-2.925 5.626-3.797 1.312-.61.17-2.55-1.136-1.943-1.687.785-3.25 1.756-4.702 2.921-1.404 1.126-2.64 2.376-2.447 4.31.364 3.64 3.39 6.584 4.407 10.033.784 2.654.303 6.742-3.116 7.092-3.772.385-7.2-3.342-10.278-4.984-2.823-1.505-6.105-2.284-9.173-1.025-3.368 1.382-4.404 4.68-4.194 8.092.468 7.602 6.538 14.844 4.634 22.603-.429 1.75-1.472 4.283-3.66 4.12-1.903-.14-3.558-1.809-4.842-3.064-3.069-3-6.306-5.594-10.162-7.528-1.29-.648-2.432 1.293-1.136 1.943M229.935 109.829c.978-1.216 2.035-2.368 3.166-3.444 1.129-1.074 2.29-2.034 3.47-2.882.476-.343.754-.995.404-1.538-.305-.474-1.03-.772-1.54-.404-2.65 1.904-5.043 4.132-7.09 6.676-.369.459-.482 1.15 0 1.592.409.375 1.197.49 1.59 0M253.282 87.564c2.243-1.607 4.55-3.124 6.915-4.545.504-.304.736-1.025.404-1.54-.327-.507-1-.727-1.54-.403-2.365 1.422-4.672 2.938-6.915 4.545-.477.342-.754.996-.403 1.54.305.473 1.027.77 1.54.403M251.958 48.532c-2.107-2.755-5.45-4.376-8.947-3.978-3.547.405-6.803 2.683-10.44 2.279-1.436-.16-1.425 2.09 0 2.25 3.279.365 6.198-1.295 9.29-2.05 3.002-.733 6.225.11 8.154 2.635.372.486.964.73 1.539.403.478-.272.772-1.057.404-1.54M256.588 56.514c1.448 0 1.45-2.25 0-2.25-1.448 0-1.45 2.25 0 2.25M278.153 30.353c-.805-3.585-1.825-7.118-3.054-10.58-.203-.573-.768-.956-1.384-.787-.554.152-.99.81-.786 1.384 1.229 3.463 2.249 6.996 3.055 10.581.317 1.412 2.486.815 2.169-.598M272.503 13.59c-.529-2.136-1.267-4.207-2.175-6.21-.243-.538-1.065-.709-1.539-.404-.556.358-.664.964-.404 1.54.11.24.215.478.318.72-.074-.172.067.161.082.198.05.121.1.243.147.364.186.471.362.946.527 1.424.336.975.627 1.965.874 2.965.142.572.816.97 1.384.786.593-.192.937-.77.786-1.384M294.598 42.596c2.106-.21 3.615-2.058 4.745-3.704 1.278-1.862 2.12-4.022 2.728-6.187 1.382-4.933 1.464-10.231 3.687-14.916.618-1.302-1.322-2.445-1.943-1.136-1.984 4.182-2.408 8.732-3.364 13.202-.434 2.03-.99 4.072-1.911 5.94-.457.929-.991 1.832-1.642 2.638-.526.65-1.398 1.823-2.3 1.913-1.427.142-1.442 2.394 0 2.25M307.38 13.646l2.508-3.928c.318-.496.12-1.263-.404-1.539-.557-.294-1.2-.127-1.539.404l-2.509 3.927c-.317.497-.119 1.263.403 1.54.558.294 1.201.126 1.54-.404" transform="translate(-848 -130) translate(848 130)"/>
                <g transform="translate(-848 -130) translate(848 130) translate(310 .557)">
                    <mask id="7tksigvvjb" fill="#fff">
                        <use xlink:href="#qmqakrkhaa"/>
                    </mask>
                    <path fill="#002855" d="M1.193 2.693c1.448 0 1.45-2.25 0-2.25-1.448 0-1.45 2.25 0 2.25" mask="url(#7tksigvvjb)"/>
                </g>
                <path fill="#002855" d="M326.082 37.287c2.447-4.178 6.355-7.434 10.931-9.035.573-.201.955-.77.786-1.384-.153-.556-.808-.987-1.384-.786-5.133 1.796-9.524 5.372-12.276 10.07-.733 1.252 1.211 2.385 1.943 1.135M342.19 24.888c.701-.45 1.43-.859 2.182-1.218.175-.084.352-.165.53-.243.055-.024.391-.187.115-.05.098-.05.206-.085.31-.126.386-.153.78-.292 1.175-.42.56-.182.98-.789.786-1.385-.18-.558-.784-.98-1.384-.786-1.703.553-3.343 1.316-4.85 2.285-.494.318-.742 1.014-.404 1.54.32.494 1.01.743 1.54.403M351.892 17.196l-.22.38c-.083.129-.127.269-.134.418-.034.15-.027.3.02.449.035.147.102.274.201.383.08.122.185.219.316.289l.27.114c.198.053.398.053.597 0l.268-.114c.17-.1.304-.234.404-.403l.22-.38c.083-.13.127-.27.134-.42.033-.148.027-.298-.02-.447-.035-.146-.102-.274-.202-.383-.079-.122-.184-.22-.315-.29l-.269-.113c-.199-.053-.398-.053-.598 0l-.269.114c-.169.099-.303.234-.403.403M554.087 363.877c3.931-4.77 3.006-11.778-.71-16.403-4.342-5.404-11.126-7.175-17.526-8.815-3.443-.883-8.75-3.07-7.86-7.594.28-1.415-1.889-2.02-2.169-.598-.824 4.187 2.222 7.621 5.86 9.19 3.966 1.71 8.367 2.092 12.353 3.81 3.726 1.605 7.286 4.08 9.113 7.81 1.683 3.437 1.887 7.928-.652 11.01-.914 1.11.67 2.71 1.591 1.59M529.161 324.2c1.448 0 1.45-2.25 0-2.25-1.448 0-1.45 2.25 0 2.25M302.256 82.429c1.448 0 1.45-2.25 0-2.25-1.448 0-1.45 2.25 0 2.25M474.89 174.872c1.447 0 1.45-2.25 0-2.25-1.449 0-1.45 2.25 0 2.25M132.96 200.247c-1.83-6.23.042-13.226 5.316-17.213 1.14-.862.02-2.817-1.135-1.943-6.084 4.6-8.491 12.47-6.35 19.754.408 1.386 2.58.797 2.17-.598M142.39 177.167c1.448 0 1.45-2.25 0-2.25-1.448 0-1.45 2.25 0 2.25M492.806 234.314c8.255 1.557 15.527 6.777 19.6 14.13.7 1.267 2.645.134 1.942-1.135-4.33-7.819-12.155-13.507-20.944-15.164-1.415-.268-2.022 1.901-.598 2.17M487.32 231.809c1.448 0 1.45-2.25 0-2.25-1.448 0-1.45 2.25 0 2.25M268.348 160.803c7.002-3.116 13.506-7.221 19.367-12.157 1.11-.933-.49-2.518-1.59-1.591-5.712 4.81-12.093 8.77-18.913 11.805-1.32.588-.177 2.527 1.136 1.943M260.92 162.765c1.448 0 1.45-2.25 0-2.25-1.448 0-1.45 2.25 0 2.25M337.12 162.964c-2.95-2.21-5.159-5.24-6.837-8.493-1.807-3.502-2.662-7.412-4.563-10.859-.7-1.268-2.643-.134-1.943 1.136 1.06 1.922 1.702 4.008 2.464 6.058.683 1.836 1.467 3.641 2.398 5.366 1.832 3.397 4.248 6.415 7.345 8.735 1.16.87 2.282-1.084 1.136-1.943M322.03 139.652c1.448 0 1.45-2.25 0-2.25-1.448 0-1.45 2.25 0 2.25M107.9 309.653c-2.73-.96-6.172-2.183-7.455-5.031-.767-1.702-.453-3.6.004-5.338.505-1.922 1.2-3.791 1.481-5.767.086-.606-.149-1.201-.786-1.385-.526-.15-1.299.186-1.384.787-.606 4.262-3.273 8.533-1.268 12.815 1.594 3.404 5.496 4.924 8.81 6.089 1.368.48 1.956-1.692.597-2.17M104.031 286.526c-.087-.057-.174-.112-.26-.17-.13-.081-.27-.126-.419-.133-.15-.033-.3-.026-.449.02-.146.035-.274.102-.382.202-.123.079-.219.185-.29.315l-.114.269c-.053.2-.053.399 0 .599l.114.268c.1.169.234.304.404.403.086.057.173.114.26.169.13.083.27.127.418.134.15.033.3.027.45-.02.145-.035.273-.102.382-.202.122-.08.22-.184.29-.315l.113-.268c.053-.2.053-.4 0-.6l-.114-.268c-.1-.17-.234-.303-.403-.403M171.63 76.353c1.93 0 1.933-3 0-3-1.931 0-1.934 3 0 3M240.714 99.597c1.448 0 1.45-2.25 0-2.25-1.448 0-1.45 2.25 0 2.25" transform="translate(-848 -130) translate(848 130)"/>
                <path stroke="#002855" d="M466.723 55.39c0 3.28-2.659 5.938-5.939 5.938-3.28 0-5.94-2.659-5.94-5.939 0-3.28 2.66-5.939 5.94-5.939 3.28 0 5.94 2.66 5.94 5.94zM263.75 200.307c0-2.209 1.791-4 4-4s4 1.791 4 4-1.791 4-4 4-4-1.791-4-4zM81.266 228.61c0-2.21 1.79-4 4-4 2.209 0 4 1.79 4 4 0 2.209-1.791 4-4 4-2.21 0-4-1.791-4-4zM387.69 81.304c0-2.21 1.79-4 4-4 2.209 0 4 1.79 4 4 0 2.209-1.791 4-4 4-2.21 0-4-1.791-4-4zM211.656 17.22c0-2.208 1.791-4 4-4 2.21 0 4 1.792 4 4 0 2.21-1.79 4-4 4-2.209 0-4-1.79-4-4zM122.623 109.033c0 3.28-2.66 5.94-5.94 5.94-3.28 0-5.94-2.66-5.94-5.94 0-3.28 2.66-5.939 5.94-5.939 3.28 0 5.94 2.66 5.94 5.94zM75.693 468.224c0 3.28-2.66 5.939-5.94 5.939-3.28 0-5.94-2.659-5.94-5.939 0-3.28 2.66-5.939 5.94-5.939 3.28 0 5.94 2.659 5.94 5.939z" transform="translate(-848 -130) translate(848 130)"/>
                <path fill="#002855" d="M290.115 251.046c-2.507-2.042-2.458-5.643-1.333-8.432 1.416-3.515 4.166-6.307 5.832-9.695 3.19-6.492 3.302-14.094.479-20.725-.565-1.328-2.504-.183-1.943 1.136 3.09 7.258 1.87 15.298-2.433 21.753-1.985 2.976-4.27 5.926-4.792 9.567-.416 2.904.235 6.061 2.599 7.987 1.113.907 2.715-.676 1.59-1.59M293.101 261.593c1.931 0 1.934-3 0-3-1.93 0-1.933 3 0 3M342.9 252.939c3.057 2.856 5.004 7.223 6.065 11.203 1.09 4.085 1.269 8.379.492 12.537-.264 1.415 1.904 2.022 2.17.598.852-4.561.705-9.245-.492-13.734-1.16-4.348-3.31-9.08-6.643-12.195-1.057-.988-2.652.6-1.591 1.59M350.326 286.74c1.931 0 1.934-3 0-3-1.93 0-1.933 3 0 3" transform="translate(-848 -130) translate(848 130)"/>
            </g>
        </g>
    </g>
</svg>
