<svg xmlns="http://www.w3.org/2000/svg" xmlns:xlink="http://www.w3.org/1999/xlink" width="654" height="432" viewBox="0 0 654 432">
    <defs>
        <path id="e9hhg3aloa" d="M0 431L654 431 654 0 0 0z"/>
    </defs>
    <g fill="none" fill-rule="evenodd">
        <g>
            <g>
                <g transform="translate(-105 -1889) translate(0 1759) translate(105 130)">
                    <path fill="#231F20" d="M483.94 417.901l-.01.011c-.7.1-1.4.21-2.1.31C240.3 453.791 1 387.941 1 370.081c0-174.78 75.64-333.24 259.29-363.34l.01-.01h.01c.69-.12 1.39-.23 2.09-.33l221.54 411.5z"/>
                    <path fill="#DFF0F7" d="M483.94 417.901l-.01.011c-.7.1-1.4.21-2.1.31C240.3 453.791 1 387.941 1 370.081c0-174.78 75.64-333.24 259.29-363.34l.01-.01h.01c.69-.12 1.39-.23 2.09-.33l221.54 411.5z"/>
                    <path fill="#002855" d="M404.723 186.367L403.697 190.541 400.476 189.749 401.502 185.575zM409.399 155.409L417.447 169.191 414.621 170.963 409.457 162.117 406.978 172.196 403.758 171.404 406.236 161.326 397.559 166.767 395.876 163.886zM407.578 176.268L406.871 175.561 404.723 177.709 402.575 175.561 401.868 176.268 404.016 178.416 401.868 180.564 402.575 181.271 404.723 179.123 406.871 181.271 407.578 180.564 405.43 178.416z"/>
                    <path stroke="#002855" d="M407.578 176.268L406.871 175.561 404.723 177.709 402.575 175.561 401.868 176.268 404.016 178.416 401.868 180.564 402.575 181.271 404.723 179.123 406.871 181.271 407.578 180.564 405.43 178.416z"/>
                    <path stroke="#002855" d="M89.243 325.493c0-136.076 69.485-258.022 241.5-258.022 164.605 0 241.5 151.054 241.5 258.022"/>
                    <path stroke="#002855" stroke-width="4" d="M2 370.48C2 176.15 95.51 2 327 2c221.518 0 325 215.72 325 368.48 0 14.818-126.995 41.091-146.118 44.432C256.77 458.433 2 388.918 2 370.48z"/>
                    <path stroke="#002855" stroke-width="2" d="M494.614 197.415c1.26 7.584-1.455 17.784-3.496 20.996M454.268 193.43c7.486.128 19.306-11.765 26.302-12.292M450.31 202.992c12.721-1.048 22.233-16.876 32.726-7.05 1.613 1.51 3.14 3.245 4.017 5.3.952 2.238.731 4.68.185 7.011-.473 2.01-1.199 3.951-1.755 5.94-.724 2.58-1.161 5.238-1.307 7.914-.065 1.201-.075 2.161.33 3.282.404 1.117.904 2.18 1.424 3.246"/>
                    <path stroke="#002855" stroke-width="2" d="M460.451 212.652c17.545-9.43 16.442-.91 8.625 4.275-9.805 6.504-25.797 4.77-12.19-8.958 5.246-4.02 13.923-9.664 20.304-5.255 1.137.785 2.157 1.783 2.785 3.014.942 1.844.92 4.07.325 6.051-.596 1.983-1.72 3.763-2.925 5.446-1.816 2.538-3.846 4.922-6.063 7.12M491.232 168.571c1.532-2.266 3.704-28.478 3.704-28.478M498.428 133.331c9.453-24.39 13.336-70.767 12.64-68.734"/>
                    <path fill="#FFF" d="M493.145 179.76c-1.884-.694-2.836 3.495-6.373 4.58-2.002.615-3.32-.897-1.42-3.165 1.376-1.643 6.763-6.63 6.452-10.775.656-.207 1.183-.75 1.32-1.474.195-1.044-.493-2.05-1.537-2.246-1.045-.196-2.05.492-2.247 1.536-.153.815.236 1.6.908 2.002-.276.5-.706 1.13-1.454 1.935-2.67 2.87-7.686 5.385-8.269 9.849-.633 4.849 4.742 8.873 9.754 4.35 1.736-1.566 5.212-5.727 2.866-6.592"/>
                    <path stroke="#002855" d="M493.145 179.76c-1.884-.694-2.836 3.495-6.373 4.58-2.002.615-3.32-.897-1.42-3.165 1.376-1.643 6.763-6.63 6.452-10.775.656-.207 1.183-.75 1.32-1.474.195-1.044-.493-2.05-1.537-2.246-1.045-.196-2.05.492-2.247 1.536-.153.815.236 1.6.908 2.002-.276.5-.706 1.13-1.454 1.935-2.67 2.87-7.686 5.385-8.269 9.849-.633 4.849 4.742 8.873 9.754 4.35 1.736-1.566 5.212-5.727 2.866-6.592z"/>
                    <path stroke="#002855" stroke-width="2" d="M484.939 182.391c3.623 2.296 7.129 7.367 8.48 11.039"/>
                    <path fill="#FFF" d="M169.172 257.739L133.457 263.142 127.495 223.728 163.21 218.325z"/>
                    <path stroke="#002855" d="M169.172 257.739L133.457 263.142 127.495 223.728 163.21 218.325z"/>
                    <path fill="#FFF" d="M165.481 255.697L129.767 261.099 123.804 221.686 159.519 216.283z"/>
                    <path stroke="#002855" d="M165.481 255.697L129.767 261.099 123.804 221.686 159.519 216.283z"/>
                    <path fill="#002855" d="M132.214 234.341L132.101 233.594 137.741 229.844 137.892 230.846 133.519 233.762 138.567 235.306 138.715 236.288zM143.378 223.648L144.474 223.482 141.894 239.659 140.797 239.825zM147.603 233.938L151.969 230.97 146.929 229.478 146.777 228.476 153.273 230.39 153.386 231.137 147.752 234.92z"/>
                    <path stroke="#002855" d="M132.429 247.424L144.242 245.399M148.994 251.618L160.807 249.593M146.237 245.056L151.75 244.112M153.732 243.771L157.226 243.172M132.84 251.078L138.353 250.133M136.75 253.717L142.263 252.772M154.386 247.384L159.899 246.44M146.857 248.675L152.37 247.73M140.335 249.793L143.829 249.193M144.128 252.452L147.622 251.852"/>
                    <mask id="ztbc8cwr6b" fill="#fff">
                        <use xlink:href="#e9hhg3aloa"/>
                    </mask>
                    <path fill="#FFF" d="M506.166 388.724L573.696 388.724 573.696 279.839 506.166 279.839z" mask="url(#ztbc8cwr6b)"/>
                    <path stroke="#002855" stroke-linecap="round" stroke-linejoin="round" d="M506.166 388.724L573.696 388.724 573.696 279.839 506.166 279.839z" mask="url(#ztbc8cwr6b)"/>
                    <path fill="#FFF" d="M512.901 383.943L580.431 383.943 580.431 275.057 512.901 275.057z" mask="url(#ztbc8cwr6b)"/>
                    <path stroke="#002855" stroke-linecap="round" stroke-linejoin="round" d="M512.901 383.943L580.431 383.943 580.431 275.057 512.901 275.057z" mask="url(#ztbc8cwr6b)"/>
                    <path fill="#002855" d="M550.78 329.496c16.176-12.549 7.544-39.145-13.452-39.145-20.898 0-29.77 26.527-13.325 39.192l-4.165 54.336h35.25c-4.409-55.642-4.39-54.383-4.309-54.383" mask="url(#ztbc8cwr6b)"/>
                    <path stroke="#FFF" stroke-linejoin="round" stroke-width="2" d="M549.246 324.078L551.074 329.612M538.088 324.055L536.904 329.676M543.852 324.526L543.852 330.059M549.246 301.915L551.074 296.381M538.088 301.938L536.904 296.318M543.852 301.468L543.852 295.934" mask="url(#ztbc8cwr6b)"/>
                    <path fill="#FFF" d="M543.865 320.429c-8.244 0-15.246-5.84-16.923-7.354 1.677-1.515 8.679-7.355 16.923-7.355 6.33 0 11.916 3.446 14.79 5.603.064 1.206.028 2.41-.104 3.583-2.852 2.122-8.404 5.523-14.686 5.523" mask="url(#ztbc8cwr6b)"/>
                    <path fill="#FFF" d="M543.865 305.22c-9.751 0-17.656 7.854-17.656 7.854s7.905 7.855 17.656 7.855c6.44 0 12.073-3.425 15.157-5.752.169-1.37.204-2.746.118-4.114-3.056-2.327-8.75-5.843-15.275-5.843m0 1c6.053 0 11.428 3.238 14.3 5.362.045 1.028.014 2.05-.088 3.052-2.85 2.09-8.2 5.295-14.212 5.295-7.505 0-13.983-4.972-16.167-6.855 2.184-1.882 8.662-6.854 16.167-6.854" mask="url(#ztbc8cwr6b)"/>
                    <path fill="#002855" d="M543.343 307.055c3.28 0 5.94 2.66 5.94 5.94 0 3.281-2.66 5.94-5.94 5.94-3.28 0-5.94-2.659-5.94-5.94 0-3.28 2.66-5.94 5.94-5.94M580.43 266.755c3.614 0 6.543 2.928 6.543 6.54 0 3.614-2.93 6.543-6.542 6.543-3.613 0-6.541-2.93-6.541-6.542 0-3.613 2.928-6.541 6.54-6.541" mask="url(#ztbc8cwr6b)"/>
                    <path fill="#FFF" d="M583.286 271.147L582.579 270.44 580.431 272.587 578.283 270.44 577.576 271.147 579.724 273.294 577.576 275.443 578.283 276.15 580.431 274.001 582.579 276.15 583.286 275.443 581.138 273.294z" mask="url(#ztbc8cwr6b)"/>
                    <path fill="#002855" d="M188.947 188.266c-.3.237-.611.466-.955.667-.285.177-.591.344-.91.493l-.33-3.695c1.196-.439 1.973-1.632 1.855-2.957-.141-1.584-1.543-2.774-3.147-2.63-.826.073-1.54.508-2.01 1.112-.566-.512-1.346-.813-2.183-.738-1.584.142-2.752 1.56-2.611 3.144.119 1.326 1.095 2.362 2.33 2.583l.329 3.686c-.37-.098-.732-.216-1.087-.365s-.701-.319-1.04-.52c-2.35-1.356-4.026-3.816-4.266-6.726-.391-4.714 3.143-8.875 7.867-9.266 4.724-.393 8.875 3.142 9.266 7.856.24 2.91-1.005 5.612-3.108 7.356zm-6.296-4.167c-.07.117-.142.204-.245.293-.204.189-.464.313-.763.34-.3.025-.576-.05-.81-.2-.331-.222-.574-.58-.613-1.01-.064-.715.47-1.367 1.187-1.43.429-.038.835.126 1.104.444.189.203.312.453.339.751.027.3-.05.577-.2.811zm2.528 1.772l.276 3.087-2.62.234-.276-3.088c.507-.175.938-.515 1.243-.923.373.349.847.606 1.377.69zm-.153-1.713c-.117-.07-.204-.152-.273-.246-.19-.204-.313-.465-.34-.763-.026-.3.05-.567.2-.802.209-.36.57-.593.988-.63.737-.066 1.378.48 1.442 1.196.038.428-.136.835-.444 1.105-.203.189-.464.311-.762.339-.3.026-.577-.05-.811-.198zm3.483 11.004l-7.765.632-.416-5.113c1.223.433 2.564.615 3.95.501 1.375-.112 2.665-.508 3.814-1.133l.417 5.112zm-5.8-23.106c-5.282.431-9.215 5.07-8.783 10.343.282 3.499 2.418 6.4 5.358 7.845l.542 6.626 9.759-.79-.542-6.629c2.66-1.903 4.29-5.121 4.008-8.62-.43-5.273-5.068-9.206-10.341-8.774z" mask="url(#ztbc8cwr6b)"/>
                    <path stroke="#002855" stroke-linejoin="round" d="M182.386 168.434L181.674 160.465M187.92 169.441L191.288 162.184M177.09 170.328L172.489 163.784" mask="url(#ztbc8cwr6b)"/>
                    <path fill="#FFF" d="M75.373 308.369l4.484 50.207s25.689 29.694 36.11 28.764c10.42-.932 32.57-34.899 32.57-34.899l-4.484-50.207-36.168-5.363-32.513 11.498z" mask="url(#ztbc8cwr6b)"/>
                    <path stroke="#002855" stroke-width="2" d="M75.373 308.369l4.484 50.207s25.689 29.694 36.11 28.764c10.42-.932 32.57-34.899 32.57-34.899l-4.484-50.207-36.168-5.363-32.513 11.498z" mask="url(#ztbc8cwr6b)"/>
                    <g mask="url(#ztbc8cwr6b)">
                        <g>
                            <path fill="#FFF" d="M0.158 20.247L13.108 30.254 31.228 0.3" transform="translate(98 321)"/>
                            <path stroke="#002855" stroke-width="4" d="M0.158 20.247L13.108 30.254 31.228 0.3" transform="translate(98 321)"/>
                        </g>
                    </g>
                    <path fill="#002855" d="M195.466 404.49c.033.066.102.113.192.15 3.205 1.295 5.967 3.472 8.607 5.704.35.295.702.596 1.115.795 1.331.644 3.248.245 4.701.245h8.547l1.821-.003s-9.647-5.303-14.753-6.667c-1.756-.469-3.564-.792-5.384-.852-1.622-.053-3.488-.104-5.002-.203-.007.053.137.793.156.831" mask="url(#ztbc8cwr6b)"/>
                    <path fill="#FFF" d="M201.319 248.022c6.554-.037 19.296-.186 22.042-.219l-1.41 32.645-20.632 2.377v-34.803z" mask="url(#ztbc8cwr6b)"/>
                    <path fill="#002855" d="M223.883 247.298s-15.86.19-23.064.228v35.86l21.613-2.49 1.45-33.598zm-1.044 1.013l-1.37 31.69-19.65 2.264V248.52c6.314-.04 17.54-.168 21.02-.21z" mask="url(#ztbc8cwr6b)"/>
                    <path fill="#FFF" d="M200.437 388.735L208.685 337.646 220.242 312.217 219.935 302.824 238.341 302.824 226.314 356.174 209.537 390.996z" mask="url(#ztbc8cwr6b)"/>
                    <path fill="#002855" d="M238.967 302.324h-19.548l.32 9.793-11.537 25.384-8.332 51.608 9.94 2.47 16.979-35.238 12.178-54.017zm-1.25 1l-11.878 52.686-16.576 34.403-8.26-2.052 8.165-50.568 11.48-25.263.098-.213-.008-.233-.286-8.76h17.265z" mask="url(#ztbc8cwr6b)"/>
                    <path fill="#FFF" d="M222.541 395.184l2.873-43.956 13.12-66.007 10.508 2.251v9.77c-.015.271-1.577 29.842-2.81 38.664-1.174 8.387-10.185 55.525-11.172 60.686l-12.519-1.408z" mask="url(#ztbc8cwr6b)"/>
                    <path fill="#002855" d="M238.143 284.627l-13.228 66.569-2.904 44.432 13.453 1.514s10.011-52.22 11.262-61.166c1.252-8.946 2.816-38.734 2.816-38.734v-10.174l-11.399-2.441zm.783 1.19l9.616 2.06v9.339c-.054 1.033-1.59 29.934-2.806 38.62-1.143 8.172-9.742 53.213-11.08 60.209l-11.585-1.304 2.838-43.415 13.017-65.51z" mask="url(#ztbc8cwr6b)"/>
                    <path fill="#002855" d="M242.272 309.655l1.937-23.638 1.744 23.638 5.232 2.071 11.043-46.633-2.131-51.15c-.054-1.29.969-3.168 1.346-4.384.54-1.744 1.102-3.474 1.738-5.18.514-1.38.478-2.9-.077-4.265-1.268-3.12-3.487-8.362-3.588-8.342 0 0 12.91-1.697 16.734-2.115l.315-12.333h-29.45s-29.062 6.684-30.418 8.638c-1.356 1.955-11.82 37.28-11.82 37.28l12.789.582s.387-9.88 4.262-9.88c3.875 0 3.294 18.184 3.294 18.184s-2.334 17.658-4.07 20.371c-1.734 2.713-2.324 59.227-2.324 59.227l23.444-2.07z" mask="url(#ztbc8cwr6b)"/>
                    <path fill="#FFF" d="M230.327 173.558L241.416 175.041 241.416 178.892 230.327 183.12z" mask="url(#ztbc8cwr6b)"/>
                    <path fill="#002855" d="M229.827 172.987v10.858l12.09-4.609v-4.633l-12.09-1.616zm1 1.143l10.09 1.35v3.067l-10.09 3.847v-8.264z" mask="url(#ztbc8cwr6b)"/>
                    <path fill="#002855" d="M222.271 171.989l26.958 3.563-.475-23.277h3.801v-5.701s-.992-5.7-6.413-6.057c-5.42-.356-16.864 0-16.864 0s-7.007.594-7.007 5.938v25.534z" mask="url(#ztbc8cwr6b)"/>
                    <path stroke="#002855" d="M222.271 171.989l26.958 3.563-.475-23.277h3.801v-5.701s-.992-5.7-6.413-6.057c-5.42-.356-16.864 0-16.864 0s-7.007.594-7.007 5.938v25.534z" mask="url(#ztbc8cwr6b)"/>
                    <path fill="#FFF" d="M208.804 247.963c-2.181-4.253-4.905-15.324-5.205-16.556l1.678-7.646c1.812.082 8.985.405 11.765.535-1.616 7.54 1.048 20.56 1.706 23.559l-9.944.108z" mask="url(#ztbc8cwr6b)"/>
                    <path fill="#002855" d="M204.878 223.243l-1.792 8.17s3.04 12.693 5.418 17.053l10.867-.118s-3.805-16.315-1.706-24.523c-2.433-.116-12.787-.582-12.787-.582m.796 1.037c2.153.097 7.892.356 10.765.488-1.31 7.267.892 18.82 1.691 22.594l-9.019.097c-2.074-4.267-4.6-14.427-4.999-16.058l1.562-7.121" mask="url(#ztbc8cwr6b)"/>
                    <path fill="#FFF" d="M220.68 408.593c-.868-4.944-.155-10.81 1.633-13.471l12.983 1.465c.965 2.373 3.034 5.18 5.9 5.678 8.466 1.472 10.81 4.98 11.417 6.37l-31.934-.042z" mask="url(#ztbc8cwr6b)"/>
                    <path fill="#002855" d="M222.076 394.592c-2.073 2.76-2.845 9.205-1.813 14.5l33.042.044s-.84-5.42-12.023-7.363c-2.786-.485-4.773-3.362-5.63-5.65l-13.576-1.531zm.491 1.062l12.383 1.397c1.06 2.433 3.207 5.193 6.16 5.707 7.037 1.223 9.695 3.853 10.67 5.376l-30.677-.041c-.717-4.588-.096-9.851 1.464-12.44z" mask="url(#ztbc8cwr6b)"/>
                    <path fill="#FFF" d="M220.742 408.793c-4.997-2.23-12.117-5.63-12.911-6.64-.292-.371-1.066-1.356-8.93-1.356-1.41 0-2.633.034-3.284.057-.131-5.342 3.7-10.897 4.609-12.137l10.093 2.472 1.715-.898c.423 2.055 1.739 8.254 2.528 9.833.875 1.75 4.188 4.72 4.794 5.255l1.386 3.414z" mask="url(#ztbc8cwr6b)"/>
                    <path fill="#002855" d="M200.024 388.152s-5.339 6.778-4.883 13.22c0 0 1.658-.076 3.761-.076 3.327 0 7.768.19 8.535 1.166 1.253 1.593 14.232 7.29 14.232 7.29l-1.895-4.67s-3.854-3.36-4.765-5.182c-.91-1.822-2.619-10.36-2.619-10.36l-2.136 1.12-10.23-2.508zm.41 1.13l9.582 2.348.367.09.335-.175.96-.503c.53 2.538 1.685 7.804 2.436 9.305.885 1.77 3.971 4.575 4.822 5.328l.874 2.154c-5.54-2.503-10.95-5.202-11.586-5.986-.395-.502-1.217-1.547-9.322-1.547-1.114 0-2.098.021-2.787.041.106-4.708 3.223-9.509 4.32-11.055z" mask="url(#ztbc8cwr6b)"/>
                    <path fill="#FFF" d="M217.58 410.799c-.138 0-.252-.01-.349-.031-.473-.101-.923-.393-1.401-.701l-.207-.134c-2.656-1.697-5.512-3.121-8.273-4.5-.826-.411-1.663-.83-2.572-1.092-1.207-.35-2.471-.396-3.549-.396-.314 0-.628.005-.94.009l-4.057.06c-.247 0-.306-.026-.318-.032-.001-.002-.067-.07-.115-.44-.114-.886-.149-1.743-.173-2.632.901-.011 2.756-.09 3.902-.137.457-.02.794-.035.893-.037.39-.01.782-.016 1.173-.016 1.281 0 2.958.063 4.56.56 1.234.384 2.409 1.015 3.546 1.625 2.953 1.587 9.701 5.225 9.701 5.225l1.409.76c.452.243.452.243.508.616l.037.238c.037.212.009.518-.179.74-.158.188-.407.283-.74.283-.058 0-.119-.003-.183-.01-.188-.017-1.046-.064-1.21-.064-.237 0-.495.026-.758.054-.237.026-.477.052-.705.052" mask="url(#ztbc8cwr6b)"/>
                    <path fill="#002855" d="M201.594 400.22c-.396 0-.791.006-1.184.016-.368.01-3.924.176-4.993.176-.191 0-.303-.005-.303-.018.025 1.082.049 2.125.189 3.211.104.804.35.908.929.908.164 0 .355-.009.576-.012l3.489-.047c.308-.005.618-.009.928-.009 1.155 0 2.31.056 3.415.377.86.248 1.668.65 2.47 1.051 2.799 1.396 5.606 2.795 8.244 4.481.562.358 1.133.766 1.773.902.142.031.295.042.454.042.48 0 1.013-.106 1.462-.106.158 0 .984.047 1.164.063.079.008.156.012.229.012 1.173 0 1.53-.927 1.412-1.608-.114-.667-.032-.796-.801-1.21l-2.253-1.216c-2.951-1.592-5.904-3.182-8.858-4.769-1.175-.63-2.36-1.265-3.634-1.66-1.525-.474-3.12-.585-4.708-.585zm0 1c1.246 0 2.874.06 4.413.538 1.188.368 2.34.99 3.456 1.587 2.953 1.587 5.905 3.176 8.856 4.768l.879.474 1.375.743c.117.063.19.107.234.135l.017.115c.01.075.023.156.039.248.02.121-.008.261-.07.334-.073.086-.234.105-.357.105-.043 0-.088-.003-.135-.007-.194-.018-1.053-.068-1.258-.068-.274 0-.547.03-.812.057-.236.026-.46.05-.65.05-.101 0-.184-.008-.245-.02-.385-.082-.8-.352-1.238-.636l-.206-.132c-2.677-1.71-5.544-3.14-8.336-4.533-.83-.414-1.688-.843-2.638-1.117-1.268-.366-2.578-.416-3.693-.416-.315 0-.63.004-.942.01l-1.117.013-2.371.033-.288.006-.207.005-.005-.035c-.09-.695-.13-1.378-.154-2.078.985-.026 2.446-.087 3.407-.128.454-.02.788-.033.886-.036.386-.009.773-.016 1.16-.016z" mask="url(#ztbc8cwr6b)"/>
                    <path fill="#FFF" d="M275.806 156.35l-17.665 1.538-.47-5.42 17.663-1.538c.732-.064 1.204 5.356.472 5.42" mask="url(#ztbc8cwr6b)"/>
                    <path stroke="#002855" d="M275.806 156.35l-17.665 1.538-.47-5.42 17.663-1.538c.732-.064 1.204 5.356.472 5.42z" mask="url(#ztbc8cwr6b)"/>
                    <path fill="#FFF" d="M293.123 155.756l-15.704 1.367c-.875.076-1.633-.608-1.63-1.486.006-1.132-.125-2.623-.325-3.737-.156-.864.473-1.67 1.348-1.746l15.703-1.367c.696-.06 1.303 6.908.608 6.969" mask="url(#ztbc8cwr6b)"/>
                    <path stroke="#002855" d="M293.123 155.756l-15.704 1.367c-.875.076-1.633-.608-1.63-1.486.006-1.132-.125-2.623-.325-3.737-.156-.864.473-1.67 1.348-1.746l15.703-1.367c.696-.06 1.303 6.908.608 6.969z" mask="url(#ztbc8cwr6b)"/>
                    <path fill="#FFF" d="M299.89 156.727l-4.779.416c-.868.075-1.627-.6-1.63-1.471-.006-1.894-.267-5-.597-6.865-.129-.726.483-1.654 1.351-1.73l4.778-.416c1.684 3.578 1.832 5.905.876 10.066" mask="url(#ztbc8cwr6b)"/>
                    <path stroke="#002855" d="M299.89 156.727l-4.779.416c-.868.075-1.627-.6-1.63-1.471-.006-1.894-.267-5-.597-6.865-.129-.726.483-1.654 1.351-1.73l4.778-.416c1.684 3.578 1.832 5.905.876 10.066z" mask="url(#ztbc8cwr6b)"/>
                    <path fill="#FFF" d="M220.669 408.619h31.466c.554 0 .67.364.67.67v1.135l-32.105.453-.031-2.258z" mask="url(#ztbc8cwr6b)"/>
                    <path fill="#002855" d="M252.135 408.119h-31.973l.044 3.265 33.1-.467v-1.628c0-.647-.394-1.17-1.17-1.17m0 1c.09 0 .134.017.14.021.007.008.03.056.03.149v.642l-31.113.439-.017-1.251h30.96" mask="url(#ztbc8cwr6b)"/>
                    <path fill="#FFF" d="M277.07 177.13l-.142-.15c-6.574-6.929-13.226-14.955-12.977-16.394.442-2.556-1.534-7.302-1.774-7.866-.37-1.812-.486-3.659-.25-3.97.002.003.008.004.02.004.107 0 .666-.063 2.615-.063 2.245 0 5.172.083 6.242.116.485 3.14 1.924 11.408 3.735 12.29 1.428.695 14.613 12.141 19.645 16.556.318.504 2.73 4.51.99 7.23-1.518 2.37-13.311 3.812-18.41 4.232l.307-11.985z" mask="url(#ztbc8cwr6b)"/>
                    <path fill="#002855" d="M264.561 148.19c-1.413 0-2.57.034-2.864.13-.88.295 0 4.55 0 4.55s2.201 5.085 1.761 7.63c-.44 2.547 13.107 16.824 13.107 16.824l-.316 12.334s17.291-1.296 19.345-4.505c2.054-3.208-1.028-7.83-1.028-7.83s-18-15.795-19.809-16.675c-1.809-.881-3.522-12.327-3.522-12.327s-3.848-.13-6.674-.13m0 1c1.993 0 4.527.066 5.812.104.712 4.526 2.078 11.343 3.946 12.252 1.24.609 12.557 10.36 19.48 16.434.402.653 2.477 4.252.952 6.633-.716 1.12-6.597 3.048-17.474 3.959l.288-11.223.01-.414-.285-.3c-6.149-6.482-12.809-14.444-12.847-15.965.456-2.638-1.414-7.223-1.787-8.101-.263-1.307-.4-2.7-.34-3.328.338-.024.993-.051 2.245-.051" mask="url(#ztbc8cwr6b)"/>
                    <g mask="url(#ztbc8cwr6b)">
                        <g>
                            <path fill="#FFF" d="M.076 15.993s3.378 1.592 3.378-4.96c0-8.192-3.678-8.092-1.69-8.255C3.555 2.63 2.72.274 2.72.274" transform="translate(249 152)"/>
                            <path stroke="#002855" d="M.076 15.993s3.378 1.592 3.378-4.96c0-8.192-3.678-8.092-1.69-8.255C3.555 2.63 2.72.274 2.72.274" transform="translate(249 152)"/>
                        </g>
                    </g>
                    <path stroke="#002855" stroke-width="4" d="M484.939 418.306L261.306 7.129" mask="url(#ztbc8cwr6b)"/>
                    <path fill="#002855" d="M432.635 143.021c-.515 2.813-2.252 5.088-4.573 6.381-1.802 1.013-3.961 1.421-6.154 1.02l-20.57-3.764c-1.681-.307-3.172-1.048-4.374-2.092-2.376-2.07-3.635-5.3-3.027-8.625.843-4.604 4.972-7.782 9.524-7.549l.015-.079c1.159-6.335 7.23-10.52 13.566-9.36 6.325 1.156 10.522 7.22 9.363 13.555l-.014.08c4.349 1.394 7.086 5.83 6.244 10.433" mask="url(#ztbc8cwr6b)"/>
                    <path stroke="#002855" d="M432.635 143.021c-.515 2.813-2.252 5.088-4.573 6.381-1.802 1.013-3.961 1.421-6.154 1.02l-20.57-3.764c-1.681-.307-3.172-1.048-4.374-2.092-2.376-2.07-3.635-5.3-3.027-8.625.843-4.604 4.972-7.782 9.524-7.549l.015-.079c1.159-6.335 7.23-10.52 13.566-9.36 6.325 1.156 10.522 7.22 9.363 13.555l-.014.08c4.349 1.394 7.086 5.83 6.244 10.433z" mask="url(#ztbc8cwr6b)"/>
                    <path fill="#FFF" d="M419.813 139.258c-.192 1.05-1.201 1.748-2.252 1.555-1.051-.192-1.748-1.201-1.556-2.252.193-1.052 1.2-1.748 2.253-1.555 1.05.192 1.747 1.2 1.555 2.252M410.566 137.566c-.192 1.05-1.201 1.748-2.252 1.555-1.051-.192-1.748-1.201-1.556-2.252.193-1.052 1.2-1.748 2.253-1.555 1.05.192 1.747 1.2 1.555 2.252" mask="url(#ztbc8cwr6b)"/>
                    <path stroke="#FFF" d="M411.665 133.743L408.665 131.946M419.409 133.697L416.409 134.867" mask="url(#ztbc8cwr6b)"/>
                    <path fill="#FFF" d="M188.946 188.266c-.3.237-.61.466-.954.667-.286.177-.592.344-.91.493l-.33-3.695c1.195-.439 1.972-1.632 1.854-2.957-.14-1.584-1.543-2.774-3.146-2.63-.827.073-1.54.508-2.009 1.112-.568-.512-1.348-.813-2.185-.738-1.583.142-2.752 1.56-2.61 3.144.118 1.326 1.094 2.362 2.33 2.583l.328 3.686c-.37-.098-.732-.216-1.087-.365-.354-.149-.7-.319-1.04-.52-2.35-1.356-4.026-3.816-4.265-6.726-.392-4.714 3.142-8.875 7.866-9.266 4.724-.393 8.875 3.142 9.266 7.856.24 2.91-1.005 5.612-3.108 7.356M188.508 195.161l-7.764.633-.417-5.113c1.223.433 2.565.615 3.951.501 1.375-.112 2.665-.508 3.813-1.133l.417 5.112z" mask="url(#ztbc8cwr6b)"/>
                </g>
            </g>
        </g>
    </g>
</svg>
