<svg xmlns="http://www.w3.org/2000/svg" xmlns:xlink="http://www.w3.org/1999/xlink" width="624" height="689" viewBox="0 0 624 689">
    <defs>
        <path id="u0jf34xc5a" d="M0.925 0.191L172.103 0.191 172.103 68 0.925 68z"/>
        <path id="f23m8ums6c" d="M0 689L624 689 624 0 0 0z"/>
    </defs>
    <g fill="none" fill-rule="evenodd">
        <g>
            <g>
                <g>
                    <g>
                        <path fill="#FFF" d="M270 113.5L345 113.5 345 7.5 270 7.5z" transform="translate(-801 -9827) translate(0 9625) translate(105 202) translate(696)"/>
                        <path fill="#002855" d="M269.5 114h76V7h-76v107zm1-1h74V8h-74v105z" transform="translate(-801 -9827) translate(0 9625) translate(105 202) translate(696)"/>
                        <path fill="#FFF" d="M293 120.5L368 120.5 368 14.5 293 14.5z" transform="translate(-801 -9827) translate(0 9625) translate(105 202) translate(696)"/>
                        <path fill="#002855" d="M292.5 121h76V14h-76v107zm1-1h74V15h-74v105z" transform="translate(-801 -9827) translate(0 9625) translate(105 202) translate(696)"/>
                        <path fill="#FFF" d="M313 125.5L388 125.5 388 19.5 313 19.5z" transform="translate(-801 -9827) translate(0 9625) translate(105 202) translate(696)"/>
                        <path fill="#002855" d="M312.5 126h76V19h-76v107zm1-1h74V20h-74v105z" transform="translate(-801 -9827) translate(0 9625) translate(105 202) translate(696)"/>
                        <path stroke="#002855" d="M329 35L374 35M329 46L383 46M329 56L383 56M329 67L374 67M329 78L383 78M329 88L383 88M329 100L374 100M329 111L383 111M329 121L383 121" transform="translate(-801 -9827) translate(0 9625) translate(105 202) translate(696)"/>
                        <path fill="#FFF" d="M263 106.5L338.001 106.5 338.001 0.5 263 0.5z" transform="translate(-801 -9827) translate(0 9625) translate(105 202) translate(696)"/>
                        <path fill="#002855" d="M262.5 107h76V0h-76v107zm1-1.001h74V1h-74v104.999z" transform="translate(-801 -9827) translate(0 9625) translate(105 202) translate(696)"/>
                        <path stroke="#002855" d="M275 19L320 19M275 30L329 30M275 40L329 40" transform="translate(-801 -9827) translate(0 9625) translate(105 202) translate(696)"/>
                        <g transform="translate(-801 -9827) translate(0 9625) translate(105 202) translate(696)">
                            <path fill="#FFF" d="M283 53.873V80.19s11.979 16.635 17.441 16.635S319 80.19 319 80.19V53.873l-18.559-4.47L283 53.874z"/>
                            <path stroke="#002855" stroke-width="2" d="M283 53.873V80.19s11.979 16.635 17.441 16.635S319 80.19 319 80.19V53.873l-18.559-4.47L283 53.874z"/>
                            <g>
                                <path fill="#FFF" d="M0.236 9.031L6.492 14.823 17.282 0.12" transform="translate(293 63)"/>
                                <path stroke="#002855" stroke-width="4" d="M0.236 9.031L6.492 14.823 17.282 0.12" transform="translate(293 63)"/>
                            </g>
                            <path fill="#FFF" d="M241.427 688L268.98 622.191 382.047 622.191 409.6 688z"/>
                            <g transform="translate(239 621)">
                                <mask id="jmsk8m0fmb" fill="#fff">
                                    <use xlink:href="#u0jf34xc5a"/>
                                </mask>
                                <path fill="#002855" d="M143.713.191H29.315L.925 68.001h171.178L143.713.19zm-1.331 2l26.716 63.81H3.93L30.646 2.19h111.736z" mask="url(#jmsk8m0fmb)"/>
                            </g>
                            <path fill="#FFF" d="M29.364 607.452L29.364 163.019 622 163.02 622 607.453z"/>
                            <path fill="#002855" d="M27.364 161.02v448.433H624V161.02H27.364zm4 4H620v440.433H31.364V165.02z"/>
                            <path fill="#FFF" d="M455.563 410.733l-14.459 59.675H350.69l-14.49-59.75v-.017c.337-3.508 1.134-6.954 2.39-10.293l57.285-152.816 57.284 152.816c1.257 3.355 2.067 6.847 2.404 10.385"/>
                            <path stroke="#002855" stroke-width="2" d="M455.563 410.733l-14.459 59.675H350.69l-14.49-59.75v-.017c.337-3.508 1.134-6.954 2.39-10.293l57.285-152.816 57.284 152.816c1.257 3.355 2.067 6.847 2.404 10.385z"/>
                            <path fill="#002855" d="M414.902 298.301L395.881 247.532 376.861 298.301z"/>
                            <path stroke="#002855" stroke-width="2" d="M414.902 298.301L395.881 247.532 376.861 298.301z"/>
                            <path fill="#FFF" d="M417.472 362.363c0 12.146-9.846 21.991-21.99 21.991-12.147 0-21.993-9.845-21.993-21.99 0-12.147 9.846-21.992 21.992-21.992 12.145 0 21.991 9.845 21.991 21.991"/>
                            <path stroke="#002855" stroke-width="2" d="M417.472 362.363c0 12.146-9.846 21.991-21.99 21.991-12.147 0-21.993-9.845-21.993-21.99 0-12.147 9.846-21.992 21.992-21.992 12.145 0 21.991 9.845 21.991 21.991z"/>
                            <path fill="#FFF" d="M486.44 495.268h-46.67l1.286-24.461 14.46-59.675.214-.887s25.716-1.792 27.861 23.51c2.13 25.304 2.85 61.513 2.85 61.513"/>
                            <path stroke="#002855" stroke-width="2" d="M486.44 495.268h-46.67l1.286-24.461 14.46-59.675.214-.887s25.716-1.792 27.861 23.51c2.13 25.304 2.85 61.513 2.85 61.513z"/>
                            <path fill="#FFF" d="M351.976 494.744h-46.67s.704-36.209 2.848-61.513c2.13-25.303 27.846-23.51 27.846-23.51l.2.795v.016l14.49 59.751 1.286 24.461z"/>
                            <path stroke="#002855" stroke-width="2" d="M351.976 494.744h-46.67s.704-36.209 2.848-61.513c2.13-25.303 27.846-23.51 27.846-23.51l.2.795v.016l14.49 59.751 1.286 24.461z"/>
                            <path stroke="#002855" d="M305.603 493.834L303.603 493.834"/>
                            <path stroke="#002855" stroke-dasharray="4.009 4.009" d="M299.594 493.834L101.167 493.834"/>
                            <path stroke="#002855" d="M99.163 493.834L97.163 493.834M336.2 409.692L334.2 409.692"/>
                            <path stroke="#002855" stroke-dasharray="3.984 3.984" d="M330.216 409.692L101.154 409.692"/>
                            <path stroke="#002855" d="M99.163 409.692L97.163 409.692M395.481 241.411L393.481 241.411"/>
                            <path stroke="#002855" stroke-dasharray="4.032 4.032" d="M389.449 241.411L101.178 241.411"/>
                            <path stroke="#002855" d="M99.163 241.411L97.163 241.411"/>
                            <path stroke="#002855" stroke-dasharray="4" d="M371.187 469.846s-16.781 29.766 0 39.236c16.78 9.472 14.298 33.368 14.298 33.368s31.93-9.172 29.59-27.956c-1.04-8.346-12.813-12.853 9.553-29.768 3.142-2.375-5.68-14.88-5.68-14.88"/>
                            <path stroke="#002855" d="M105.29 249.065L105.29 402.038"/>
                            <path fill="#002855" d="M100.304 250.524L105.29 241.889 110.277 250.524zM100.304 400.579L105.29 409.215 110.277 400.579z"/>
                            <path stroke="#002855" d="M105.29 488.092L105.29 416.391"/>
                            <path fill="#002855" d="M110.276 486.633L105.29 495.268 100.303 486.633zM110.276 417.85L105.29 409.215 100.303 417.85z"/>
                            <path stroke="#002855" d="M428.656 509.86c20.794 23.198 104.032 103.972 104.032-89.595V343.24"/>
                            <path fill="#002855" d="M425.875 514.202L423.992 504.41 433.414 507.675z"/>
                            <mask id="4uiz9hq1vd" fill="#fff">
                                <use xlink:href="#f23m8ums6c"/>
                            </mask>
                            <path fill="#FFF" d="M499.223 341.806L566.153 341.806 566.153 290.174 499.223 290.174z" mask="url(#4uiz9hq1vd)"/>
                            <path stroke="#002855" d="M499.223 341.806L566.153 341.806 566.153 290.174 499.223 290.174z" mask="url(#4uiz9hq1vd)"/>
                            <path fill="#002855" d="M537.725 326.943c-.329.26-.668.51-1.044.73-.313.193-.648.377-.996.54l-.36-4.043c1.307-.48 2.157-1.786 2.028-3.236-.155-1.733-1.689-3.035-3.443-2.878-.905.08-1.686.557-2.198 1.218-.62-.56-1.475-.89-2.39-.808-1.733.155-3.012 1.708-2.857 3.44.13 1.45 1.197 2.585 2.55 2.827l.36 4.033c-.406-.107-.802-.237-1.19-.4-.389-.163-.768-.348-1.139-.568-2.57-1.484-4.404-4.176-4.667-7.361-.428-5.158 3.44-9.711 8.608-10.14 5.17-.428 9.711 3.439 10.138 8.598.263 3.184-1.099 6.14-3.4 8.048zm-6.889-4.56c-.076.129-.156.224-.268.322-.223.206-.508.342-.835.37-.327.03-.63-.052-.887-.216-.362-.243-.628-.636-.67-1.105-.07-.785.515-1.496 1.3-1.566.468-.042.913.138 1.207.485.207.223.341.497.371.824.028.327-.054.63-.218.887zm1.26 1.185c.407.38.926.664 1.506.755l.302 3.379-2.866.256-.302-3.38 1.36-1.01zm1.338-1.12c-.127-.076-.223-.166-.298-.27-.207-.222-.342-.507-.37-.834-.03-.327.053-.62.217-.876.228-.394.623-.65 1.081-.69.806-.072 1.508.524 1.578 1.309.041.469-.149.914-.485 1.208-.224.207-.508.342-.835.37-.327.03-.63-.053-.888-.216zm3.812 12.04l-8.497.694-.456-5.595c1.34.474 2.807.672 4.323.548 1.505-.124 2.916-.557 4.173-1.241l.457 5.595zm-6.346-25.281c-5.78.472-10.083 5.547-9.612 11.317.31 3.828 2.647 7.003 5.864 8.583l.593 7.253 10.678-.866-.593-7.253c2.912-2.084 4.695-5.605 4.386-9.433-.47-5.77-5.546-10.073-11.316-9.601z" mask="url(#4uiz9hq1vd)"/>
                            <path stroke="#002855" stroke-linejoin="round" d="M530.546 305.243L529.767 296.524M536.602 306.345L540.287 298.405M524.751 307.316L519.717 300.154" mask="url(#4uiz9hq1vd)"/>
                            <path fill="#002855" d="M28.364 631.4L28.364 610.452 623 610.453 623 631.4z" mask="url(#4uiz9hq1vd)"/>
                            <path fill="#002855" d="M27.364 609.452V632.4H624v-22.947H27.364zm2 2l592.636.001V630.4H29.364v-18.948z" mask="url(#4uiz9hq1vd)"/>
                            <path fill="#FFF" d="M9 138.386L81 138.386 81 35.386 9 35.386z" mask="url(#4uiz9hq1vd)"/>
                            <path fill="#002855" d="M7 140.386h76v-107H7v107zm4-4h68v-99H11v99z" mask="url(#4uiz9hq1vd)"/>
                            <path fill="#FFF" d="M2 131.386L74 131.386 74 28.386 2 28.386z" mask="url(#4uiz9hq1vd)"/>
                            <path fill="#002855" d="M0 133.386h76v-107H0v107zm4-4h68v-99H4v99z" mask="url(#4uiz9hq1vd)"/>
                            <path fill="#002855" d="M27.752 101.528c0-5.936 4.76-10.64 10.528-10.64 3.92 0 7.392 2.184 9.184 5.432l-3.92 2.24c-1.008-1.96-3.024-3.192-5.264-3.192-3.304 0-5.992 2.744-5.992 6.16s2.688 6.16 5.992 6.16c2.352 0 4.368-1.344 5.32-3.36l4.032 2.072c-1.736 3.416-5.32 5.768-9.352 5.768-5.768 0-10.528-4.76-10.528-10.64m24.024-.112c0-7.336-5.88-13.216-13.216-13.216-7.336 0-13.216 5.88-13.216 13.216 0 7.336 5.88 13.216 13.216 13.216 7.336 0 13.216-5.88 13.216-13.216m-31.36 0c0-10.08 8.064-18.144 18.144-18.144 10.248 0 18.144 7.896 18.144 18.144 0 10.08-8.064 18.144-18.144 18.144-10.08 0-18.144-8.064-18.144-18.144" mask="url(#4uiz9hq1vd)"/>
                            <path stroke="#002855" stroke-width="2" d="M12 44.386L57 44.386M12 55.386L66 55.386M12 65.386L66 65.386" mask="url(#4uiz9hq1vd)"/>
                            <path fill="#FFF" d="M229.95 205.467L158.946 204.288 160.236 126.188 231.24 127.367z" mask="url(#4uiz9hq1vd)"/>
                            <path stroke="#002855" d="M229.95 205.467L158.946 204.288 160.236 126.188 231.24 127.367z" mask="url(#4uiz9hq1vd)"/>
                            <path fill="#FFF" d="M151.079 200.069L152.402 119.969 225.406 121.181 224.083 201.281z" mask="url(#4uiz9hq1vd)"/>
                            <path fill="#002855" d="M151.418 118.953l-.032 2-1.29 78.1-.034 2 2 .032 71.003 1.18 2 .032.035-2 1.29-78.099.032-2-2-.033-71.004-1.179-2-.033zm1.968 2.033l71.004 1.178-1.29 78.1-71.005-1.179 1.29-78.099z" mask="url(#4uiz9hq1vd)"/>
                            <path fill="#002855" d="M174.06 135.467L177.102 133.952 178.781 136.946zM165.563 127.424L163.688 135.792 157.409 124.875z" mask="url(#4uiz9hq1vd)"/>
                            <path fill="#002855" d="M164.659 127.781L164.135 135.857 156.883 126.522zM166.616 137.161L175.049 133.22 177.101 133.952 174.82 139.863z" mask="url(#4uiz9hq1vd)"/>
                            <path fill="#002855" d="M163.088 135.702L165.563 127.424 171.141 138.555zM167.645 144.554L161.132 148.273 164.294 137.94z" mask="url(#4uiz9hq1vd)"/>
                            <path fill="#002855" d="M174.82 139.863L167.038 143.384 163.088 135.702zM215.9 190.285c-.375.356-.759.44-.658-.33.046-.37.151-.766.275-1.116.165-.505.382-.975.653-1.41.305-.137.55-.36.663-.745-.008.34.007.674.056.997-.19.798-.447 2.075-.99 2.604m-6.383-3.708c.133-1.32.29-2.655.524-3.969.114-.704.232-1.5.667-2.089.31-.424 1.26-1.197 1.623-.542.636 1.151-.654 3.406-1.235 4.35-.477.783-1.016 1.53-1.579 2.25m-7.094 2.527c.011-.587.031-1.172.042-1.758.022-.708.044-1.416.044-2.12-.005-.29.076-1.459.044-2.274.28.157.558.313.835.48.43.641.04 2.152-.094 2.892-.174.968-.48 1.89-.87 2.78m16.255-.805c-.177.201-.364.4-.55.598-.058-.139-.102-.285-.134-.438.436-1.685.566-3.46.684-5.198.18-2.746.35-5.494.528-8.24.041-.507-1.194-1.31-1.253-.736-.37 3.348-.73 6.697-1.102 10.054-.056.564-.133 1.165-.177 1.763-.183-.442-.89-1.053-1.204-.65-.202.257-.427.56-.63.898-.877.38-2.517.048-3.19.76-.629.65-.707 1.53-.695 2.422-.179-.068-.353-.073-.462.064-.215.263-.627 2.482-1.436 1.905-.192-.133-.005-1.542.054-2.158 1.212-1.489 2.441-3.005 3.341-4.68.7-1.315 1.6-3.383.776-4.843-.542-.96-1.747-1.487-2.81-1.107-1.617.596-1.787 2.641-1.996 4.096-.287 1.923-.479 3.85-.563 5.782l-.674.325c-.779-.708-2.103-.612-3.274-.288.582-1.688.936-3.61.374-5.198-.42-1.187-2.107-2.668-3.23-1.353-.512.6-.573 1.494-.576 2.248-.013 1.414.045 2.836.074 4.251.062 3.006.11 6.03.174 9.025l.001.114c.013.46 1.254 1.16 1.272.627l.002-.123.21-8.407c.208.345.672.623.968.484.803-.377 1.63-.644 2.52-.729.161-.019.713-.152.804-.066.091.086-.006.453-.127.794-1.128 1.366-2.289 2.704-3.474 4.014-.392.424.746 1.284 1.175.953 1.156-.888 3.3-2.54 3.67-4.298h.098c.134.794.538 1.445 1.484 1.654.4.096.79.065 1.144-.1 0 1.097-.002 2.193 0 3.28.01.902-.085 1.922.113 2.812.016.098.058.212.13.335-.004.01.006.012.013.024.012.034.033.071.062.12.233.445.892 1.043 1.163.608.02-.037.027-.065.038-.104l.01.003c.001-.01.001-.01.004-.019.081-.269.015-.68.025-.915.032-.86.063-1.72.085-2.585.036-.879.061-1.752.085-2.625.007-.298.038-.61.035-.912-.004-.063.017-.222.012-.317.002-.01.005-.02-.002-.032l.002-.01c.193-1.51-.592-4.284 1.616-4.496.085-.008.17-.017.262-.013-.436 1.022-.636 2.128-.193 3.032.283.571.882 1.082 1.516 1.23.991.241 1.404-.498 1.772-1.3.142-.304.262-.603.376-.914.143.162.301.307.484.438.206.158.632.426.876.17.317-.34.638-.689.955-1.03.39-.414-.828-1.44-1.235-.999" mask="url(#4uiz9hq1vd)"/>
                            <path stroke="#002855" d="M160 157L184 156.927M191 170L214 169.927M188 157L199 156.966M202 157L209 156.979M160 164L171 163.966M166 170L177 169.966M203 164L214 163.966M188 164L199 163.966M175 164L182 163.979M181 170L188 169.979" mask="url(#4uiz9hq1vd)"/>
                        </g>
                    </g>
                </g>
            </g>
        </g>
    </g>
</svg>
