<svg xmlns="http://www.w3.org/2000/svg" xmlns:xlink="http://www.w3.org/1999/xlink" width="624" height="848" viewBox="0 0 624 848">
    <defs>
        <path id="p70oxypdda" d="M0 848L624 848 624 0 0 0z"/>
    </defs>
    <g fill="none" fill-rule="evenodd">
        <g>
            <g>
                <g>
                    <path fill="#FFF" d="M32 819.303L592 819.303 592 629.46 32 629.46z" transform="translate(-801 -11062) translate(0 10860) translate(801 202)"/>
                    <path stroke="#002855" stroke-linecap="square" stroke-width="2" d="M592 817.303L592 819.303 590 819.303" transform="translate(-801 -11062) translate(0 10860) translate(801 202)"/>
                    <path stroke="#002855" stroke-dasharray="4 4" stroke-linecap="square" stroke-width="2" d="M586 819.303L36 819.303" transform="translate(-801 -11062) translate(0 10860) translate(801 202)"/>
                    <path stroke="#002855" stroke-linecap="square" stroke-width="2" d="M34 819.303L32 819.303 32 817.303" transform="translate(-801 -11062) translate(0 10860) translate(801 202)"/>
                    <path stroke="#002855" stroke-dasharray="3.954 3.954" stroke-linecap="square" stroke-width="2" d="M32 813.348L32 633.437" transform="translate(-801 -11062) translate(0 10860) translate(801 202)"/>
                    <path stroke="#002855" stroke-linecap="square" stroke-width="2" d="M32 631.46L32 629.46 34 629.46" transform="translate(-801 -11062) translate(0 10860) translate(801 202)"/>
                    <path stroke="#002855" stroke-dasharray="4 4" stroke-linecap="square" stroke-width="2" d="M38 629.46L588 629.46" transform="translate(-801 -11062) translate(0 10860) translate(801 202)"/>
                    <path stroke="#002855" stroke-linecap="square" stroke-width="2" d="M590 629.46L592 629.46 592 631.46" transform="translate(-801 -11062) translate(0 10860) translate(801 202)"/>
                    <path stroke="#002855" stroke-dasharray="3.954 3.954" stroke-linecap="square" stroke-width="2" d="M592 635.414L592 815.325" transform="translate(-801 -11062) translate(0 10860) translate(801 202)"/>
                    <path fill="#002855" d="M0 848h624V2.214H0V848zm1-1h622V3.214H1V847z" transform="translate(-801 -11062) translate(0 10860) translate(801 202)"/>
                    <path fill="#FFF" d="M80.82 531.41L569.18 531.41 569.18 165.53 80.82 165.53z" transform="translate(-801 -11062) translate(0 10860) translate(801 202)"/>
                    <path stroke="#002855" stroke-width="4" d="M80.82 531.41L569.18 531.41 569.18 165.53 80.82 165.53z" transform="translate(-801 -11062) translate(0 10860) translate(801 202)"/>
                    <path fill="#FFF" d="M80.818 208.938L569.183 208.938 569.183 165.528 80.818 165.528z" transform="translate(-801 -11062) translate(0 10860) translate(801 202)"/>
                    <path stroke="#002855" stroke-width="4" d="M80.818 208.938L569.183 208.938 569.183 165.528 80.818 165.528z" transform="translate(-801 -11062) translate(0 10860) translate(801 202)"/>
                    <g transform="translate(-801 -11062) translate(0 10860) translate(801 202)">
                        <path fill="#002855" d="M113.5 187.5c0 6.075-4.925 11-11 11s-11-4.925-11-11 4.925-11 11-11 11 4.925 11 11"/>
                        <path stroke="#002855" d="M113.5 187.5c0 6.075-4.925 11-11 11s-11-4.925-11-11 4.925-11 11-11 11 4.925 11 11z"/>
                        <path fill="#002855" d="M146.5 187.5c0 6.075-4.925 11-11 11s-11-4.925-11-11 4.925-11 11-11 11 4.925 11 11"/>
                        <path stroke="#002855" d="M146.5 187.5c0 6.075-4.925 11-11 11s-11-4.925-11-11 4.925-11 11-11 11 4.925 11 11z"/>
                        <path fill="#002855" d="M180.5 187.5c0 6.075-4.925 11-11 11s-11-4.925-11-11 4.925-11 11-11 11 4.925 11 11"/>
                        <path stroke="#002855" d="M180.5 187.5c0 6.075-4.925 11-11 11s-11-4.925-11-11 4.925-11 11-11 11 4.925 11 11z"/>
                        <g>
                            <path fill="#FFF" d="M.228 176.289S77.957 70.911 119.516 85.531c41.559 14.619 124.769 205.177 202.334 12.953C373.344-29.13 431.822-29.086 461.29 82.862c11.79 44.789 15.768 110.892 15.768 110.892v41.311" transform="translate(83 292)"/>
                            <path stroke="#002855" stroke-linecap="square" stroke-width="2" d="M.228 176.289S77.957 70.911 119.516 85.531c41.559 14.619 124.769 205.177 202.334 12.953C373.344-29.13 431.822-29.086 461.29 82.862c11.79 44.789 15.768 110.892 15.768 110.892v41.311" transform="translate(83 292)"/>
                        </g>
                        <mask id="wjl3tyqh4b" fill="#fff">
                            <use xlink:href="#p70oxypdda"/>
                        </mask>
                        <path fill="#002855" d="M559.881 531.414L569.183 531.414 569.183 210.489 559.881 210.489z" mask="url(#wjl3tyqh4b)"/>
                        <path stroke="#002855" d="M559.881 531.414L569.183 531.414 569.183 210.489 559.881 210.489z" mask="url(#wjl3tyqh4b)"/>
                        <path fill="#FFF" d="M559.881 405.379L569.183 405.379 569.183 230.726 559.881 230.726z" mask="url(#wjl3tyqh4b)"/>
                        <path stroke="#002855" d="M559.881 405.379L569.183 405.379 569.183 230.726 559.881 230.726z" mask="url(#wjl3tyqh4b)"/>
                        <path fill="#002855" d="M326.636 486.128h-6.237l-3.108 29.622c-.007.074-.007.149 0 .223l3.007 28.666c.057.543.516.956 1.062.956h4.315c.546 0 1.004-.413 1.062-.956l3.006-28.666c.008-.074.008-.15 0-.223l-3.107-29.622z" mask="url(#wjl3tyqh4b)"/>
                        <path stroke="#002855" d="M326.636 486.128h-6.237l-3.108 29.622c-.007.074-.007.149 0 .223l3.007 28.666c.057.543.516.956 1.062.956h4.315c.546 0 1.004-.413 1.062-.956l3.006-28.666c.008-.074.008-.15 0-.223l-3.107-29.622z" mask="url(#wjl3tyqh4b)"/>
                        <path fill="#002855" d="M317.765 482.183L320.641 486.128 326.393 486.128 329.269 482.183z" mask="url(#wjl3tyqh4b)"/>
                        <path stroke="#002855" d="M317.765 482.183L320.641 486.128 326.393 486.128 329.269 482.183z" mask="url(#wjl3tyqh4b)"/>
                        <path fill="#002855" d="M221.06 611.846L323.477 619.979 418.674 611.816 323.508 668.992z" mask="url(#wjl3tyqh4b)"/>
                        <path fill="#002855" d="M420.781 611.133l-97.264 8.348-104.703-8.315 104.703 58.405 97.264-58.438zm-4.214 1.365l-93.069 55.917-100.193-55.888 100.133 7.95.082.008.082-.008 92.965-7.98z" mask="url(#wjl3tyqh4b)"/>
                        <path fill="#002855" d="M339.23 655.67l38.656-27.512s34.004-18.435 41.182-17.118c7.18 1.318 28.495 24.214 8.264 38.045-20.23 13.83-130.368 43.058-130.368 43.058s-9.942-8.151-4.068-12.761c5.873-4.61 46.334-23.711 46.334-23.711" mask="url(#wjl3tyqh4b)"/>
                        <path stroke="#002855" d="M339.23 655.67l38.656-27.512s34.004-18.435 41.182-17.118c7.18 1.318 28.495 24.214 8.264 38.045-20.23 13.83-130.368 43.058-130.368 43.058s-9.942-8.151-4.068-12.761c5.873-4.61 46.334-23.711 46.334-23.711z" mask="url(#wjl3tyqh4b)"/>
                        <path fill="#002855" d="M333.846 646.698l42.811-23.71s34.248-13.173 41.493-11.855c7.244 1.317 25.027 15.147 4.61 28.978-20.417 13.831-125.796 52.031-125.796 52.031s-15.807-17.124-9.88-21.734c5.928-4.61 46.762-23.71 46.762-23.71" mask="url(#wjl3tyqh4b)"/>
                        <path stroke="#002855" d="M333.846 646.698l42.811-23.71s34.248-13.173 41.493-11.855c7.244 1.317 25.027 15.147 4.61 28.978-20.417 13.831-125.796 52.031-125.796 52.031s-15.807-17.124-9.88-21.734c5.928-4.61 46.762-23.71 46.762-23.71z" mask="url(#wjl3tyqh4b)"/>
                        <path stroke="#FFF" d="M308.661 658.66l25.185-11.962 49.491-23.155s1.136-.78-1.486-1.076" mask="url(#wjl3tyqh4b)"/>
                        <path fill="#FFF" d="M296.542 667.227c.429-.34.416-1.014-.057-1.29-5.234-3.077-12.632 2.226-18-4.769-5.687-7.41-5.931-9.98-9.753-12.09-3.567-1.97-5.166 12.715-5.363 14.682-.015.145.013.284.078.416l17.407 35.381c.056.113.132.207.234.281.828.611 4.858 3.51 6.029 3.018 1.307-.55 2.988-1.47 3.074-3.183.085-1.712 15.005-8.396 13.431-11.106-1.575-2.707-7.806-.818-10.82-5.49-2.992-4.638-2.938-10.538 3.74-15.85" mask="url(#wjl3tyqh4b)"/>
                        <path stroke="#002855" d="M296.542 667.227c.429-.34.416-1.014-.057-1.29-5.234-3.077-12.632 2.226-18-4.769-5.687-7.41-5.931-9.98-9.753-12.09-3.567-1.97-5.166 12.715-5.363 14.682-.015.145.013.284.078.416l17.407 35.381c.056.113.132.207.234.281.828.611 4.858 3.51 6.029 3.018 1.307-.55 2.988-1.47 3.074-3.183.085-1.712 15.005-8.396 13.431-11.106-1.575-2.707-7.806-.818-10.82-5.49-2.992-4.638-2.938-10.538 3.74-15.85z" mask="url(#wjl3tyqh4b)"/>
                        <path fill="#002855" d="M282.273 684.687c-1.45-1.497-4.242-2.717-5.383-2.866l-12.447-25.3-1.095 7.454 17.59 35.752s6.437 5.724 9.09.722l-7.755-15.762z" mask="url(#wjl3tyqh4b)"/>
                        <path fill="#002855" d="M300.386 655.67l-38.656-27.512s-34.004-18.435-41.182-17.118c-7.179 1.318-28.495 24.214-8.264 38.045 20.231 13.83 130.37 43.058 130.37 43.058s9.941-8.151 4.067-12.761c-5.873-4.61-46.335-23.711-46.335-23.711" mask="url(#wjl3tyqh4b)"/>
                        <path stroke="#002855" d="M300.386 655.67l-38.656-27.512s-34.004-18.435-41.182-17.118c-7.179 1.318-28.495 24.214-8.264 38.045 20.231 13.83 130.37 43.058 130.37 43.058s9.941-8.151 4.067-12.761c-5.873-4.61-46.335-23.711-46.335-23.711z" mask="url(#wjl3tyqh4b)"/>
                        <path fill="#002855" d="M305.77 646.698l-42.81-23.71s-34.248-13.173-41.492-11.855c-7.245 1.317-25.028 15.147-4.611 28.978 20.417 13.831 125.797 52.031 125.797 52.031s15.805-17.124 9.879-21.734c-5.929-4.61-46.762-23.71-46.762-23.71" mask="url(#wjl3tyqh4b)"/>
                        <path stroke="#002855" d="M305.77 646.698l-42.81-23.71s-34.248-13.173-41.492-11.855c-7.245 1.317-25.028 15.147-4.611 28.978 20.417 13.831 125.797 52.031 125.797 52.031s15.805-17.124 9.879-21.734c-5.929-4.61-46.762-23.71-46.762-23.71z" mask="url(#wjl3tyqh4b)"/>
                        <path stroke="#FFF" d="M329.749 658.086l-23.979-11.388-49.49-23.155s-1.136-.781 1.486-1.076" mask="url(#wjl3tyqh4b)"/>
                        <path fill="#FFF" d="M343.075 667.227c-.428-.34-.416-1.014.057-1.29 5.234-3.077 12.632 2.226 18-4.769 5.687-7.41 5.93-9.98 9.754-12.09 3.566-1.97 5.165 12.715 5.362 14.682.015.145-.013.284-.077.416l-17.408 35.381c-.056.113-.132.207-.233.281-.83.611-4.86 3.51-6.03 3.018-1.307-.55-2.988-1.47-3.074-3.183-.085-1.712-15.005-8.396-13.43-11.106 1.574-2.707 7.805-.818 10.819-5.49 2.993-4.638 2.938-10.538-3.74-15.85" mask="url(#wjl3tyqh4b)"/>
                        <path stroke="#002855" d="M343.075 667.227c-.428-.34-.416-1.014.057-1.29 5.234-3.077 12.632 2.226 18-4.769 5.687-7.41 5.93-9.98 9.754-12.09 3.566-1.97 5.165 12.715 5.362 14.682.015.145-.013.284-.077.416l-17.408 35.381c-.056.113-.132.207-.233.281-.83.611-4.86 3.51-6.03 3.018-1.307-.55-2.988-1.47-3.074-3.183-.085-1.712-15.005-8.396-13.43-11.106 1.574-2.707 7.805-.818 10.819-5.49 2.993-4.638 2.938-10.538-3.74-15.85z" mask="url(#wjl3tyqh4b)"/>
                        <g mask="url(#wjl3tyqh4b)">
                            <g>
                                <path fill="#FFF" d="M23.762 11.558c-.055.113-.132.207-.233.28-.828.612-4.859 3.51-6.029 3.018-1.307-.55-2.989-1.47-3.074-3.183C14.34 9.96-.579 3.277.996.568" transform="translate(335 688)"/>
                                <path stroke="#002855" d="M23.762 11.558c-.055.113-.132.207-.233.28-.828.612-4.859 3.51-6.029 3.018-1.307-.55-2.989-1.47-3.074-3.183C14.34 9.96-.579 3.277.996.568" transform="translate(335 688)"/>
                            </g>
                        </g>
                        <path fill="#002855" d="M357.344 684.687c1.449-1.497 4.242-2.717 5.383-2.866l12.448-25.3 1.094 7.454-17.59 35.752s-6.436 5.724-9.09.722l7.755-15.762z" mask="url(#wjl3tyqh4b)"/>
                        <path stroke="#FFF" d="M291.766 619.48L355.268 619.48M306.232 629.46L323.517 619.481M323.517 619.48L340.802 629.459" mask="url(#wjl3tyqh4b)"/>
                        <g mask="url(#wjl3tyqh4b)">
                            <g>
                                <path fill="#FFF" d="M28.742 27.915L25.975 0.662 4.593 0.662 0.292 27.915" transform="translate(309 454)"/>
                                <path stroke="#002855" d="M28.742 27.915L25.975 0.662 4.593 0.662 0.292 27.915" transform="translate(309 454)"/>
                            </g>
                        </g>
                        <path fill="#002855" d="M325.645 448.353l-1.519-8.308c-.385-2.108-1.527-3.983-3.245-5.24-.703-.522-1.394-.885-2.068-1.074-.742-.207-1.327-.17-1.756.111-.714.469-.867 1.47-.864 1.487 0 0-.293 5.224 1.538 8.418 1.247 2.176 5.42 3.83 7.914 4.606m27.68 6.31l-.69-3.78-4.83.974c-.33.033-.661.148-.755.248.003.017.033.091.123.234.443.673 3.325 1.647 6.152 2.325m3.44-13.745c.211-.511-1.092-2.21-2.728-3.546l-3.043-.457c-1.677-.245-3.037-1.558-3.363-3.257-.074-.406-.164-.808-.241-1.23l-1.559.314c-1.512.303-1.457 1.572-1.429 1.81l-1.56.216c-.124-1.026.281-3.1 2.704-3.589l1.543-.31c-.706-3.599-1.417-7.486-1.688-9.586-.319-2.445-3.251-4.656-4.882-5.704l1.92 10.51c.197.463.242 1.41-.982 3.114-1.429 1.988-3.431 2.762-3.506 2.794l-8.132 1.637c-.448.173-1.689.827-1.948 1.51-.039.139-.082.341.105.66.777 1.365 3.273 1.543 4.16 1.493l.715-.03 1.167 8.752c.203 1.546.804 2.995 1.731 4.216 1.807 2.356 3.465 3.642 4.438 3.447l.031-.007c.595-.152.719-.614.852-2.163.141-1.68.346-4.231 3.392-4.99 3.181-.804 5.807-1.316 7.076-1.556l-.263-1.435.717-.195c2.042-.555 4.451-1.64 4.773-2.418m-12.498-32.053c5.255 4.416 14.542 16.535 14.751 18.726.15 1.703-2.542 6.844-3.635 8.829 1.274 1.103 3.543 3.368 2.823 5.115-.659 1.558-3.626 2.657-5.125 3.122l2.876 15.741c.4 1.572.259 5-3.185 6.293-.164.065-.362.121-.578.164-4.629.933-19.663-2.71-21.423-3.149l-.487-.128-.808-4.42c-6.255.531-29.26 2.202-31.627-2.082l-.092-.241-5.386-29.469c-.022-.206-1.154-13.839 10.327-16.151 10.802-2.175 28.202-5.017 28.387-5.053.226-.079 7.59-1.983 13.182 2.703" mask="url(#wjl3tyqh4b)"/>
                        <path stroke="#002855" d="M312.875 482.203L334.16 482.203" mask="url(#wjl3tyqh4b)"/>
                        <g mask="url(#wjl3tyqh4b)">
                            <g>
                                <path fill="#FFF" d="M3.87 73.969s7.459 27.154 11.165 29.378c2.987 1.792 70.588 8.7 70.588 8.7s21.47 17.084 23.382 16.628c1.684-.402-4.578-6.44-6.755-8.018-.2-.145-.096-.46.15-.46l10.956.904c.578 0 .946-.6.709-1.127-.378-.84-.958-1.275-2.863-1.972-1.927-.704-5.56-.767-7.476-.747-.206.003-.25-.286-.054-.35 3.726-1.216 14.762-5.103 13.635-8.144-.55-1.482-11.077 3.064-14.058 4.387-.102.045-.184-.094-.095-.162 2.237-1.73 9.16-7.552 8.702-13.096-.041-.497-.578-.821-1.013-.58-1.901 1.058-4.53 4.737-4.53 4.737s-6.24 6.389-10.947 4.497c-4.707-1.891 9.63-5.845 9.63-5.845s7.119-3.8 3.795-3.67c-3.324.13-14.663.327-14.663.327s-5.532-2.665-6.54-3.213c0 0-12.791-2.557-18.005-3.886-2.876-.732-38.204-9.95-38.204-9.95s-.065-21.89-4.701-36.727C19.898 23.883 7.034 5.943.755.156" transform="translate(369 484)"/>
                                <path stroke="#002855" d="M3.87 73.969s7.459 27.154 11.165 29.378c2.987 1.792 70.588 8.7 70.588 8.7s21.47 17.084 23.382 16.628c1.684-.402-4.578-6.44-6.755-8.018-.2-.145-.096-.46.15-.46l10.956.904c.578 0 .946-.6.709-1.127-.378-.84-.958-1.275-2.863-1.972-1.927-.704-5.56-.767-7.476-.747-.206.003-.25-.286-.054-.35 3.726-1.216 14.762-5.103 13.635-8.144-.55-1.482-11.077 3.064-14.058 4.387-.102.045-.184-.094-.095-.162 2.237-1.73 9.16-7.552 8.702-13.096-.041-.497-.578-.821-1.013-.58-1.901 1.058-4.53 4.737-4.53 4.737s-6.24 6.389-10.947 4.497c-4.707-1.891 9.63-5.845 9.63-5.845s7.119-3.8 3.795-3.67c-3.324.13-14.663.327-14.663.327s-5.532-2.665-6.54-3.213c0 0-12.791-2.557-18.005-3.886-2.876-.732-38.204-9.95-38.204-9.95s-.065-21.89-4.701-36.727C19.898 23.883 7.034 5.943.755.156" transform="translate(369 484)"/>
                            </g>
                        </g>
                        <g mask="url(#wjl3tyqh4b)">
                            <g>
                                <path fill="#FFF" d="M44.722 134.73l7.689-85.84S50.1 6.5 46.755 3.154C43.409-.192 11.16 1.203 11.16 1.203l3.649 23.982L.517 62.468v76.012" transform="translate(323 481)"/>
                                <path stroke="#002855" d="M44.722 134.73l7.689-85.84S50.1 6.5 46.755 3.154C43.409-.192 11.16 1.203 11.16 1.203l3.649 23.982L.517 62.468v76.012" transform="translate(323 481)"/>
                            </g>
                        </g>
                        <g mask="url(#wjl3tyqh4b)">
                            <g>
                                <path fill="#FFF" d="M114.164 73.969s-7.458 27.154-11.164 29.378c-2.987 1.792-70.588 8.7-70.588 8.7S10.94 129.13 9.03 128.675c-1.683-.402 4.578-6.44 6.755-8.018.199-.145.096-.46-.15-.46l-10.956.904c-.578 0-.946-.6-.71-1.127.379-.84.959-1.275 2.864-1.972 1.927-.704 5.56-.767 7.476-.747.206.003.25-.286.054-.35C10.637 115.689-.4 111.802.728 108.76c.549-1.482 11.078 3.064 14.058 4.387.103.045.184-.094.095-.162-2.237-1.73-9.161-7.552-8.702-13.096.04-.497.578-.821 1.013-.58 1.9 1.058 4.529 4.737 4.529 4.737s6.24 6.389 10.948 4.497c4.708-1.891-9.63-5.845-9.63-5.845s-7.118-3.8-3.795-3.67c3.324.13 14.663.327 14.663.327s5.532-2.665 6.54-3.213c0 0 12.79-2.557 18.005-3.886 2.876-.732 38.204-9.95 38.204-9.95s.065-21.89 4.7-36.727C98.137 23.883 111.002 5.943 117.28.156" transform="translate(160 484)"/>
                                <path stroke="#002855" d="M114.164 73.969s-7.458 27.154-11.164 29.378c-2.987 1.792-70.588 8.7-70.588 8.7S10.94 129.13 9.03 128.675c-1.683-.402 4.578-6.44 6.755-8.018.199-.145.096-.46-.15-.46l-10.956.904c-.578 0-.946-.6-.71-1.127.379-.84.959-1.275 2.864-1.972 1.927-.704 5.56-.767 7.476-.747.206.003.25-.286.054-.35C10.637 115.689-.4 111.802.728 108.76c.549-1.482 11.078 3.064 14.058 4.387.103.045.184-.094.095-.162-2.237-1.73-9.161-7.552-8.702-13.096.04-.497.578-.821 1.013-.58 1.9 1.058 4.529 4.737 4.529 4.737s6.24 6.389 10.948 4.497c4.708-1.891-9.63-5.845-9.63-5.845s-7.118-3.8-3.795-3.67c3.324.13 14.663.327 14.663.327s5.532-2.665 6.54-3.213c0 0 12.79-2.557 18.005-3.886 2.876-.732 38.204-9.95 38.204-9.95s.065-21.89 4.7-36.727C98.137 23.883 111.002 5.943 117.28.156" transform="translate(160 484)"/>
                            </g>
                        </g>
                        <g mask="url(#wjl3tyqh4b)">
                            <g>
                                <path fill="#FFF" d="M8.334 134.972L.623 48.89S2.933 6.5 6.279 3.156C9.626-.191 41.875 1.203 41.875 1.203l-3.65 23.983 14.292 37.283v76.012" transform="translate(271 481)"/>
                                <path stroke="#002855" d="M8.334 134.972L.623 48.89S2.933 6.5 6.279 3.156C9.626-.191 41.875 1.203 41.875 1.203l-3.65 23.983 14.292 37.283v76.012" transform="translate(271 481)"/>
                            </g>
                        </g>
                        <path fill="#FFF" d="M319.802 582.708c0 1.36-1.103 2.464-2.463 2.464-1.361 0-2.464-1.103-2.464-2.464 0-1.36 1.103-2.463 2.464-2.463 1.36 0 2.463 1.103 2.463 2.463" mask="url(#wjl3tyqh4b)"/>
                        <path stroke="#002855" d="M319.802 582.708c0 1.36-1.103 2.464-2.463 2.464-1.361 0-2.464-1.103-2.464-2.464 0-1.36 1.103-2.463 2.464-2.463 1.36 0 2.463 1.103 2.463 2.463z" mask="url(#wjl3tyqh4b)"/>
                        <path fill="#FFF" d="M319.802 594.813c0 1.36-1.103 2.463-2.463 2.463-1.361 0-2.464-1.103-2.464-2.463s1.103-2.464 2.464-2.464c1.36 0 2.463 1.104 2.463 2.464" mask="url(#wjl3tyqh4b)"/>
                        <path stroke="#002855" d="M319.802 594.813c0 1.36-1.103 2.463-2.463 2.463-1.361 0-2.464-1.103-2.464-2.463s1.103-2.464 2.464-2.464c1.36 0 2.463 1.104 2.463 2.464z" mask="url(#wjl3tyqh4b)"/>
                        <path fill="#FFF" d="M332.212 582.708c0 1.36-1.103 2.464-2.463 2.464s-2.464-1.103-2.464-2.464c0-1.36 1.103-2.463 2.464-2.463 1.36 0 2.463 1.103 2.463 2.463" mask="url(#wjl3tyqh4b)"/>
                        <path stroke="#002855" d="M332.212 582.708c0 1.36-1.103 2.464-2.463 2.464s-2.464-1.103-2.464-2.464c0-1.36 1.103-2.463 2.464-2.463 1.36 0 2.463 1.103 2.463 2.463z" mask="url(#wjl3tyqh4b)"/>
                        <path fill="#FFF" d="M332.212 594.813c0 1.36-1.103 2.463-2.463 2.463s-2.464-1.103-2.464-2.463 1.103-2.464 2.464-2.464c1.36 0 2.463 1.104 2.463 2.464" mask="url(#wjl3tyqh4b)"/>
                        <path stroke="#002855" d="M332.212 594.813c0 1.36-1.103 2.463-2.463 2.463s-2.464-1.103-2.464-2.463 1.103-2.464 2.464-2.464c1.36 0 2.463 1.104 2.463 2.464z" mask="url(#wjl3tyqh4b)"/>
                        <path fill="#FFF" d="M98.5 291.5L180.5 291.5 180.5 237.5 98.5 237.5z" mask="url(#wjl3tyqh4b)"/>
                        <path stroke="#002855" d="M180.5 289.5L180.5 291.5 178.5 291.5" mask="url(#wjl3tyqh4b)"/>
                        <path stroke="#002855" stroke-dasharray="4.105 4.105" d="M174.394 291.5L102.552 291.5" mask="url(#wjl3tyqh4b)"/>
                        <path stroke="#002855" d="M100.5 291.5L98.5 291.5 98.5 289.5" mask="url(#wjl3tyqh4b)"/>
                        <path stroke="#002855" stroke-dasharray="3.846 3.846" d="M98.5 285.654L98.5 241.423" mask="url(#wjl3tyqh4b)"/>
                        <path stroke="#002855" d="M98.5 239.5L98.5 237.5 100.5 237.5" mask="url(#wjl3tyqh4b)"/>
                        <path stroke="#002855" stroke-dasharray="4.105 4.105" d="M104.606 237.5L176.447 237.5" mask="url(#wjl3tyqh4b)"/>
                        <path stroke="#002855" d="M178.5 237.5L180.5 237.5 180.5 239.5" mask="url(#wjl3tyqh4b)"/>
                        <path stroke="#002855" stroke-dasharray="3.846 3.846" d="M180.5 243.346L180.5 287.577" mask="url(#wjl3tyqh4b)"/>
                        <path fill="#FFF" d="M195.5 291.5L277.5 291.5 277.5 237.5 195.5 237.5z" mask="url(#wjl3tyqh4b)"/>
                        <path stroke="#002855" d="M195.5 291.5L277.5 291.5 277.5 237.5 195.5 237.5z" mask="url(#wjl3tyqh4b)"/>
                        <path fill="#FFF" d="M293.5 291.5L375.5 291.5 375.5 237.5 293.5 237.5z" mask="url(#wjl3tyqh4b)"/>
                        <path stroke="#002855" d="M293.5 291.5L375.5 291.5 375.5 237.5 293.5 237.5zM293.5 291.5L375.5 237.5M375.5 291.5L293.5 237.5M195.5 291.5L277.5 237.5M277.5 291.5L195.5 237.5" mask="url(#wjl3tyqh4b)"/>
                        <path fill="#FFF" d="M124.751 284.247L43.812 271.099 52.469 217.798 133.409 230.945z" mask="url(#wjl3tyqh4b)"/>
                        <path stroke="#002855" stroke-width="4" d="M124.751 284.247L43.812 271.099 52.469 217.798 133.409 230.945z" mask="url(#wjl3tyqh4b)"/>
                        <path fill="#FFF" d="M52.491 272.509L75.852 239.006 83.182 256.833 92.236 254.161 105.149 281.062z" mask="url(#wjl3tyqh4b)"/>
                        <path stroke="#002855" stroke-width="2" d="M52.491 272.509L75.852 239.006 83.182 256.833 92.236 254.161 105.149 281.062z" mask="url(#wjl3tyqh4b)"/>
                        <path fill="#FFF" d="M119.694 241.397c0 4.017-3.256 7.272-7.272 7.272-4.017 0-7.273-3.255-7.273-7.272s3.256-7.272 7.273-7.272c4.016 0 7.272 3.255 7.272 7.272" mask="url(#wjl3tyqh4b)"/>
                        <path stroke="#002855" stroke-width="2" d="M119.694 241.397c0 4.017-3.256 7.272-7.272 7.272-4.017 0-7.273-3.255-7.273-7.272s3.256-7.272 7.273-7.272c4.016 0 7.272 3.255 7.272 7.272z" mask="url(#wjl3tyqh4b)"/>
                        <path stroke="#002855" d="M67.571 195.435L8 184.146M67.695 208.938L22.495 200.373M67.571 290.393L8 279.104M67.695 303.896L22.495 295.33" mask="url(#wjl3tyqh4b)"/>
                        <path fill="#002855" d="M139.676 504.572l4.445-1.187c.132.66.726 1.143 1.606 1.143.88 0 1.452-.418 1.518-.924.132-.77-1.144-.946-2.53-1.343-1.893-.549-4.357-1.715-3.851-4.862.418-2.684 3.125-4.774 6.602-4.774 2.882 0 4.664 1.54 4.994 3.85l-4.18 1.144c-.177-.66-.573-1.1-1.387-1.1-.924 0-1.452.506-1.518 1.012-.11.727 1.012.97 2.354 1.364 1.717.506 4.599 1.431 4.07 4.71-.461 2.97-3.123 4.905-6.732 4.905-2.926 0-5.016-1.605-5.391-3.938M161.48 502.856c.198-1.21-.418-2.068-1.474-2.068s-2.004.858-2.202 2.068c-.197 1.21.486 2.024 1.541 2.024 1.056 0 1.936-.814 2.135-2.024zm-7.041-5.457h4.246l-.198 1.166c.837-.836 1.915-1.386 3.147-1.386 2.684 0 4.598 2.443 4.093 5.677-.507 3.234-2.62 5.654-5.853 5.654-1.232 0-2.157-.55-2.751-1.364l-1.034 6.646h-4.248l2.597-16.393zM168.43 497.4h4.225l-.199 1.32c1.144-1.167 2.421-1.563 4.181-1.563l-.638 4.05c-.462-.089-.77-.112-1.166-.112-1.518 0-2.904.792-3.235 2.971l-.66 4.225h-4.224l1.716-10.892zM178.55 493.857c.198-1.188 1.386-2.2 2.64-2.2 1.233 0 2.112 1.012 1.915 2.2-.2 1.275-1.387 2.288-2.62 2.288-1.253 0-2.133-1.013-1.935-2.288zm-.396 3.542h4.224l-1.738 10.892h-4.225l1.739-10.892zM184.6 497.4h4.225l-.177 1.1c.793-.748 1.827-1.32 3.103-1.32 2.508 0 4.423 2.156 3.916 5.411l-.901 5.7h-4.247l.836-5.326c.198-1.297-.176-2.265-1.342-2.265-1.166 0-1.892.968-2.091 2.265l-.836 5.326h-4.224L184.6 497.4zM198.635 503.868l.462-2.838h-2.068l.572-3.63h2.068l.507-3.169h4.158l-.506 3.168h2.926l-.572 3.631h-2.926l-.33 2.09c-.176 1.144.462 1.694 1.562 1.694.396 0 .792-.044 1.166-.11l-.55 3.301c-.88.286-1.826.396-2.552.396-2.927 0-4.357-1.848-3.917-4.533M217.203 497.773c-.704.33-1.519.506-2.42.506l.593-3.85c1.211 0 2.223-.375 2.597-1.54h4.466l-2.442 15.402h-4.444l1.65-10.518zM428.247 504.572l4.445-1.187c.132.66.726 1.143 1.606 1.143.88 0 1.452-.418 1.518-.924.132-.77-1.144-.946-2.53-1.343-1.893-.549-4.357-1.715-3.85-4.862.417-2.684 3.124-4.774 6.601-4.774 2.882 0 4.664 1.54 4.994 3.85l-4.18 1.144c-.177-.66-.573-1.1-1.387-1.1-.924 0-1.452.506-1.518 1.012-.11.727 1.012.97 2.354 1.364 1.717.506 4.6 1.431 4.071 4.71-.462 2.97-3.124 4.905-6.733 4.905-2.926 0-5.016-1.605-5.39-3.938M450.05 502.856c.199-1.21-.417-2.068-1.473-2.068s-2.003.858-2.201 2.068c-.198 1.21.485 2.024 1.54 2.024 1.057 0 1.937-.814 2.135-2.024zm-7.04-5.457h4.247l-.2 1.166c.838-.836 1.916-1.386 3.148-1.386 2.684 0 4.598 2.443 4.093 5.677-.507 3.234-2.62 5.654-5.853 5.654-1.232 0-2.157-.55-2.751-1.364l-1.034 6.646h-4.247l2.597-16.393zM457.002 497.4h4.224l-.199 1.32c1.144-1.167 2.422-1.563 4.182-1.563l-.639 4.05c-.462-.089-.77-.112-1.166-.112-1.517 0-2.904.792-3.234 2.971l-.66 4.225h-4.224l1.716-10.892zM467.121 493.857c.198-1.188 1.386-2.2 2.64-2.2 1.233 0 2.112 1.012 1.915 2.2-.199 1.275-1.387 2.288-2.619 2.288-1.254 0-2.134-1.013-1.936-2.288zm-.396 3.542h4.224l-1.738 10.892h-4.225l1.74-10.892zM473.17 497.4h4.226l-.177 1.1c.793-.748 1.827-1.32 3.103-1.32 2.508 0 4.423 2.156 3.916 5.411l-.901 5.7h-4.247l.836-5.326c.198-1.297-.176-2.265-1.342-2.265-1.166 0-1.892.968-2.091 2.265l-.836 5.326h-4.224l1.738-10.892zM487.206 503.868l.462-2.838H485.6l.572-3.63h2.068l.507-3.169h4.158l-.506 3.168h2.926l-.572 3.631h-2.926l-.33 2.09c-.176 1.144.462 1.694 1.562 1.694.396 0 .792-.044 1.166-.11l-.55 3.301c-.88.286-1.826.396-2.552.396-2.927 0-4.357-1.848-3.917-4.533M502.408 504.902l4.775-3.542c2.398-1.782 3.322-2.575 3.454-3.433.132-.836-.374-1.254-1.056-1.254s-1.43.308-1.694 1.364l-4.137-.506c.99-3.234 3.477-4.862 6.557-4.862 3.124 0 5.17 1.65 4.665 4.818-.352 2.2-1.96 3.851-4.577 5.787l-1.694 1.254h5.193l-.572 3.74-11.464.023.55-3.389zM480.816 278.187l-.92 5.842c2.26-.061 4.02-1.161 4.34-3.102.32-1.979-1.52-2.38-3.42-2.74m-.4-1.021l.9-5.72c-2.201.08-3.741 1.46-4.001 3.06-.28 1.901 1.32 2.341 3.1 2.66m4.842 3.801c-.4 2.501-2.721 3.902-5.502 3.982l-.18 1.099h-.54l.18-1.099c-2.38-.12-4.18-1.361-4.441-3.501l1.02-.281c.24 1.821 1.6 2.761 3.562 2.862l.92-5.942c-.8-.16-1.581-.34-2.181-.66-1.02-.5-2.02-1.341-1.78-2.94.36-2.261 2.46-3.881 5.14-3.942l.18-1.1h.54l-.18 1.121c2.24.119 3.682 1.42 4.002 3.32l-1 .3c-.24-1.561-1.301-2.62-3.141-2.721l-.9 5.802c.94.18 1.88.36 2.58.74 1.12.54 1.96 1.38 1.72 2.96M492.856 278.187l-.92 5.842c2.26-.061 4.021-1.161 4.34-3.102.321-1.979-1.52-2.38-3.42-2.74m-.4-1.021l.9-5.72c-2.201.08-3.741 1.46-4.001 3.06-.28 1.901 1.32 2.341 3.101 2.66m4.841 3.801c-.4 2.501-2.721 3.902-5.502 3.982l-.179 1.099h-.541l.18-1.099c-2.38-.12-4.18-1.361-4.441-3.501l1.021-.281c.24 1.821 1.6 2.761 3.561 2.862l.92-5.942c-.8-.16-1.581-.34-2.181-.66-1.02-.5-2.02-1.341-1.78-2.94.36-2.261 2.46-3.881 5.141-3.942l.18-1.1h.54l-.18 1.121c2.24.119 3.681 1.42 4.001 3.32l-1 .3c-.24-1.561-1.301-2.62-3.141-2.721l-.9 5.802c.94.18 1.881.36 2.58.74 1.121.54 1.961 1.38 1.721 2.96M195.049 361.135l-.921 5.842c2.26-.06 4.022-1.16 4.34-3.102.32-1.979-1.52-2.38-3.42-2.74m-.4-1.02l.9-5.72c-2.2.08-3.74 1.46-4 3.06-.28 1.9 1.32 2.34 3.1 2.66m4.84 3.8c-.4 2.501-2.72 3.902-5.5 3.982l-.18 1.1h-.54l.18-1.1c-2.38-.12-4.18-1.36-4.441-3.5l1.02-.282c.24 1.821 1.6 2.761 3.56 2.862l.922-5.942c-.801-.16-1.581-.34-2.181-.66-1.02-.5-2.02-1.34-1.78-2.94.359-2.26 2.46-3.88 5.14-3.942l.18-1.1h.54l-.18 1.121c2.24.12 3.68 1.42 4.002 3.32l-1 .3c-.241-1.56-1.301-2.62-3.141-2.72l-.9 5.801c.94.18 1.88.36 2.58.74 1.12.54 1.96 1.38 1.72 2.96M0 39L624 39 624 0 0 0z" mask="url(#wjl3tyqh4b)"/>
                        <path fill="#FFF" d="M585 31L607 31 607 9 585 9zM545 31L567 31 567 9 545 9zM504 31L526 31 526 9 504 9z" mask="url(#wjl3tyqh4b)"/>
                    </g>
                </g>
            </g>
        </g>
    </g>
</svg>
