<?xml version="1.0" encoding="UTF-8"?>
<svg width="170px" height="40px" viewBox="0 0 170 40" version="1.1" xmlns="http://www.w3.org/2000/svg" xmlns:xlink="http://www.w3.org/1999/xlink">
    <title>D6C3F30E-DD61-41E3-9BA8-41DF8B26633D</title>
    <g id="00a_desktop" stroke="none" stroke-width="1" fill="none" fill-rule="evenodd">
        <g id="00a_home" transform="translate(-862.000000, -948.000000)">
            <g id="Services-and-Expertise" transform="translate(0.000000, 647.000000)">
                <g id="Cards/Case-Study/Flipp/Regular" transform="translate(840.000000, 271.000000)">
                    <g id="g12" transform="translate(107.000000, 50.000000) scale(-1, 1) rotate(-180.000000) translate(-107.000000, -50.000000) translate(22.000000, 30.000000)">
                        <rect id="bounds" x="0" y="0" width="170" height="40"></rect>
                        <path d="M94.154129,14.5407663 C94.154129,14.2230203 94.1265529,13.895198 94.0404821,13.608502 C93.6858926,12.4151574 92.4694806,11.4066126 90.9486175,11.4066126 C89.6803959,11.4066126 88.6731723,12.1379717 88.6731723,13.6847826 C88.6731723,16.0506398 91.2363559,16.704841 94.154129,16.6893585 L94.154129,14.5407663 Z M98.7317599,18.6632838 C98.7317599,22.5667529 97.0911218,26 91.5469351,26 C88.7001913,26 86.4406232,25.1873504 85.2074985,24.4639165 L86.1102672,21.3269889 C87.2367087,22.0492057 89.0333327,22.6473358 90.7324655,22.6473358 C93.5449481,22.6545251 94.0062209,21.0299052 94.0062209,19.9880461 L94.0062209,19.7414859 C87.8743013,19.7508829 84,17.5946769 84,13.1988515 C84,10.515135 85.9732224,8 89.4040779,8 C91.513231,8 93.2789363,8.85567237 94.3349056,10.2264295 L94.4393605,10.2264295 C94.4393605,10.2264295 95.139626,7.24959194 99,8.38808256 C98.7969397,9.62696913 98.7317599,10.9476556 98.7317599,12.5385648 L98.7317599,18.6632838" id="path14" fill="#FFFFFF" fill-rule="nonzero"></path>
                        <path d="M0,31 C0,31 4.12351614,14.437051 4.7815457,11.7486623 C5.54968172,8.6105693 6.93384054,7.45608205 10.924168,8.234893 L13.4994265,18.5044278 C14.1519794,21.055047 14.5899107,22.8734249 15.0094909,25.4678313 L15.083182,25.4678313 C15.3780036,22.8476247 15.7978992,21.0470372 16.3349837,18.495097 C16.3349837,18.495097 17.3830023,13.83367 17.9197427,11.3852678 C18.4580315,8.93751195 19.9555655,7.39503851 23.8642307,8.234893 L30,31 L25.0463556,31 L22.9514079,21.1577137 C22.3882305,18.2928833 21.8776977,16.0541707 21.4835509,13.4332896 L21.4133294,13.4332896 C21.0550246,16.0288202 20.5997171,18.1781597 20.0269054,20.9692151 L17.8458223,31 L12.6848107,31 L10.351815,21.2219331 C9.69109017,18.2506137 9.07260146,15.8516197 8.67945826,13.319662 L8.60877793,13.319662 C8.20602909,15.7038449 7.66951809,18.7190639 7.0889645,21.5951924 C7.0889645,21.5951924 5.70291323,28.5891739 5.21669566,31 L0,31" id="path16" fill="#FFFFFF" fill-rule="nonzero"></path>
                        <path d="M39.1544161,14.5407663 C39.1544161,14.2230203 39.1273956,13.895198 39.0407629,13.608502 C38.6861536,12.4151574 37.4696739,11.4066126 35.948726,11.4066126 C34.6807124,11.4066126 33.6734326,12.1379717 33.6734326,13.6847826 C33.6734326,16.0506398 36.2364805,16.704841 39.1544161,16.6893585 L39.1544161,14.5407663 Z M43.7314663,18.6632838 C43.7314663,22.5667529 42.0910155,26 36.5473555,26 C33.699896,26 31.4396449,25.1873504 30.2075657,24.4639165 L31.1092705,21.3269889 C32.236889,22.0492057 34.0319418,22.6473358 35.7320049,22.6473358 C38.5465941,22.6545251 39.0070569,21.0299052 39.0070569,19.9880461 L39.0070569,19.7414859 C32.87396,19.7508829 29,17.5946769 29,13.1988515 C29,10.515135 30.9722181,8 34.4013148,8 C36.5122567,8 38.2775033,8.85567237 39.3354814,10.2264295 L39.4391064,10.2264295 C39.4391064,10.2264295 40.1399681,7.24959194 44,8.38808256 C43.797207,9.62696913 43.7314663,10.9476556 43.7314663,12.5385648 L43.7314663,18.6632838" id="path18" fill="#FFFFFF" fill-rule="nonzero"></path>
                        <polyline id="path20" fill="#FFFFFF" fill-rule="nonzero" points="52 12.8832433 52 31 47 31 47 8 52 8 52 12.8832433"></polyline>
                        <path d="M114,32 C114,29.7355412 114,14.5895401 114,14.5895401 C114,12.1895693 114.456998,10.5077454 115.434343,9.48037683 C116.28823,8.58181906 117.694582,8 119.379964,8 C120.812834,8 122.222721,8.26895547 122.88715,8.51364056 L122.824685,12.2584179 C122.330267,12.138348 121.761598,12.0421988 120.983729,12.0421988 C119.33282,12.0421988 118.779178,13.0877774 118.779178,15.2428301 L118.779178,21.9035206 L123,21.9035206 L123,26.4190356 L118.779178,26.4190356 L118.779178,32 L114,32" id="path22" fill="#FFFFFF" fill-rule="nonzero"></path>
                        <path d="M101,25.6027874 L101,8 L105.760141,8 L105.760141,17.0132636 C105.760141,17.4998642 105.788756,17.9238354 105.863379,18.3125431 C106.215452,20.2008 107.61617,21.4076541 109.626213,21.4076541 C110.178028,21.4076541 110.572743,21.346066 111,21.2822216 L111,25.8909408 C110.641755,25.9655176 110.396847,26 109.951074,26 C108.174718,26 106.153734,24.8174456 105.305392,22.2826153 L105.176065,22.2826153 L105.176065,25.6027874 L101,25.6027874" id="path24" fill="#FFFFFF" fill-rule="nonzero"></path>
                        <path d="M55,25.6027874 L55,8 L59.7334926,8 L59.7334926,18.3232754 C59.7334926,18.8071568 59.7884567,19.3188382 59.955639,19.7640426 C60.3478304,20.8034315 61.3045484,22.0191954 62.8323773,22.0191954 C64.742378,22.0191954 65.6361164,20.387242 65.6361164,18.032316 L65.6361164,8 L70.3647424,8 L70.3647424,18.4478112 C70.3647424,18.9101122 70.4274358,19.466285 70.5619832,19.8747796 C70.9507394,21.0569869 71.9821741,22.0191954 73.402365,22.0191954 C75.3387028,22.0191954 76.268225,20.4160545 76.268225,17.6449389 C76.268225,17.6449389 76.268225,10.2089256 76.268225,8 L81,8 L81,18.367362 C81,23.8349005 78.2529425,26 75.1514815,26 C73.7779527,26 72.6938441,25.6519363 71.7136518,25.044011 C70.8897636,24.5330239 70.152043,23.8072163 69.5073605,22.8515744 L69.4375103,22.8515744 C68.6891977,24.7485098 66.9294892,26 64.636744,26 C61.6901556,26 60.366438,24.4910781 59.5634476,23.2109201 L59.4933112,23.2109201 L59.4933112,25.6027874 L55,25.6027874" id="path26" fill="#FFFFFF" fill-rule="nonzero"></path>
                        <path d="M148.495283,27 C149.352201,27 150.057652,27.4696845 150.15304,28.0781137 L151,38.180965 C151,39.1797051 149.892034,40 148.497904,40 C147.106394,40 146,39.1797051 146,38.180965 L146.845126,28.0781137 C146.938417,27.4696845 147.644654,27 148.498428,27 L148.495283,27" id="path28" fill="#FAB41D" fill-rule="nonzero"></path>
                        <path d="M142.680678,23.0198749 C143.13252,23.7953314 143.097551,24.6678125 142.622029,25.0547319 L134.357263,30.8261735 C133.498736,31.3213032 132.209569,30.7252833 131.478252,29.4627847 C130.744732,28.2019311 130.874695,26.7928676 131.732946,26.2983958 L140.883223,22.0559072 C141.456217,21.8437636 142.234894,22.250066 142.683982,23.0253306 L142.680678,23.0198749" id="path30" fill="#FAB41D" fill-rule="nonzero"></path>
                        <path d="M153.314446,23.0253306 C153.765209,22.250066 154.541448,21.8437636 155.114472,22.0559072 L164.266604,26.2983958 C165.12848,26.7928676 165.252116,28.2019311 164.523514,29.4627847 C163.788854,30.7252833 162.498243,31.3213032 161.641324,30.8261735 L153.375851,25.0547319 C152.903058,24.6678125 152.868087,23.7953314 153.31775,23.0198749 L153.314446,23.0253306" id="path32" fill="#FAB41D" fill-rule="nonzero"></path>
                        <path d="M148.495283,13 C149.352201,13 150.057652,12.5324627 150.15304,11.9244013 L151,1.81950742 C151,0.818841987 149.892034,0 148.497904,0 C147.106394,0 146,0.818841987 146,1.81950742 L146.845126,11.9244013 C146.938417,12.5324627 147.644654,13 148.498428,13 L148.495283,13" id="path34" fill="#FAB41D" fill-rule="nonzero"></path>
                        <path d="M153.314446,16.9771543 C153.765209,17.7539975 154.541448,18.1574449 155.114472,17.942697 L164.266604,13.7044981 C165.12848,13.208072 165.252116,11.7981175 164.523514,10.535761 C163.788854,9.27713356 162.498243,8.67917378 161.641324,9.17272092 L153.375851,14.9405047 C152.903058,15.3319972 152.868087,16.2038208 153.31775,16.9787447 L153.314446,16.9771543" id="path36" fill="#FAB41D" fill-rule="nonzero"></path>
                        <path d="M142.680678,16.9787447 C143.13252,16.2038208 143.097551,15.3319972 142.622029,14.9405047 L134.357263,9.17272092 C133.498736,8.67917378 132.209569,9.27713356 131.478252,10.535761 C130.744732,11.7981175 130.874695,13.208072 131.732946,13.7044981 L140.883223,17.942697 C141.456217,18.1574449 142.234894,17.7539975 142.684533,16.9771543 L142.680678,16.9787447" id="path38" fill="#FAB41D" fill-rule="nonzero"></path>
                        <path d="M168.236523,9.56551902 L168.430426,9.56551902 C168.642111,9.56551902 168.826701,9.63145372 168.826701,9.81836425 C168.826701,9.96852335 168.735253,10.0720122 168.458086,10.0720122 C168.347728,10.0720122 168.283376,10.0625806 168.236523,10.0530631 L168.236523,9.56551902 Z M168.236523,8.68454548 L167.950889,8.68454548 L167.950889,10.2494912 C168.107254,10.2775851 168.273215,10.2965341 168.486029,10.2965341 C168.744567,10.2965341 168.873553,10.2494912 168.974598,10.175243 C169.067739,10.1096236 169.130962,9.98744374 169.130962,9.84645816 C169.130962,9.64948542 168.993791,9.52787891 168.826701,9.47177708 L168.826701,9.45285669 C168.965848,9.3969842 169.039515,9.27480435 169.085803,9.07760227 C169.130962,8.83470458 169.159752,8.74076198 169.196726,8.68454548 L168.901214,8.68454548 C168.854925,8.74076198 168.818515,8.88120288 168.780977,9.096752 C168.744567,9.26540148 168.642111,9.3404237 168.421112,9.3404237 L168.236523,9.3404237 L168.236523,8.68454548 Z M168.495343,10.7379526 C167.830652,10.7379526 167.32289,10.1846458 167.32289,9.5098472 C167.32289,8.81501018 167.830652,8.2725683 168.513689,8.2725683 C169.178944,8.26204742 169.667513,8.81501018 169.667513,9.49989966 C169.667513,10.1846458 169.178944,10.7379526 168.504939,10.7379526 L168.495343,10.7379526 Z M168.513689,11 C169.344341,11 170,10.3437778 170,9.5098472 C170,8.65622223 169.344341,8 168.504939,8 C167.664691,8 167,8.65622223 167,9.5098472 C167,10.3437778 167.664691,11 168.504939,11 L168.513689,11" id="path40" fill="#FAB41D" fill-rule="nonzero"></path>
                    </g>
                </g>
            </g>
        </g>
    </g>
</svg>