<svg xmlns="http://www.w3.org/2000/svg" xmlns:xlink="http://www.w3.org/1999/xlink" width="625" height="644" viewBox="0 0 625 644">
    <defs>
        <path id="dwc685qkca" d="M0 644L624 644 624 0 0 0z"/>
    </defs>
    <g fill="none" fill-rule="evenodd">
        <g>
            <g>
                <g>
                    <path fill="#FFF" d="M73.447 74.986L73.447 569.015 623.5 610.372 623.5 33.628z" transform="translate(-801 -7294) translate(0 7092) translate(801 202)"/>
                    <path fill="#002855" d="M72.948 74.521v494.957L624 610.91V33.09L72.948 74.52zm1 494.03V75.45L623 34.167v575.666L73.948 568.551z" transform="translate(-801 -7294) translate(0 7092) translate(801 202)"/>
                    <g transform="translate(-801 -7294) translate(0 7092) translate(801 202)">
                        <path stroke="#002855" stroke-linecap="square" d="M72.947 368.76s78.789-106.781 122.48-92.396c44.84 14.764 138.258 219.584 229.998 11.267 63.567-144.345 138.5-147.906 177.419-19.811 15.797 51.99 20.504 74.64 20.504 74.64"/>
                        <path stroke="#002855" stroke-linecap="square" d="M72.947 282.358s78.789 106.95 122.48 92.66c44.84-14.666 138.258-219.284 229.998-10.77 63.567 144.484 138.5 148.206 177.419 20.195 15.797-51.956 20.504-77.28 20.504-77.28M72.947 146.774L273.714 135.723M72.947 166.821L252.967 158.046M72.947 126.727L144.086 122.363"/>
                        <path fill="#FFF" d="M405.795 377.797c3.78-7.378 10.075-3.583 20.24-3.553 10.24.03 13.372 56.415 13.372 56.415.331-2.83 8.253 33.967 6.747 52.923 0 19.709-14.442 104.37-14.442 104.37s-31.143 3.945-31.58-10.343c-.436-14.274 1.055-190.853 5.663-199.812"/>
                        <path stroke="#002855" d="M405.795 377.797c-4.608 8.959-6.099 185.538-5.663 199.812.437 14.288 31.58 10.343 31.58 10.343s14.442-84.661 14.442-104.37c1.506-18.956-6.416-55.753-6.747-52.923 0 0-3.132-56.385-13.372-56.415-10.165-.03-16.46-3.825-20.24 3.553z"/>
                        <path fill="#002855" d="M523.766 343.397s13.255 7.712 11.384 8.543c-1.558.694-14.406-4.606-18.609-6.375-.223-.094-.403.204-.217.361 2.922 2.46 10.52 9.084 9.392 10.51-1.392 1.757-16.034-5.635-16.034-5.635s6.321 5.788 7.243 6.716c.923.93.692 1.863-2.189 1.986-2.874.125-15.334-7.925-15.334-7.925s9.75-9.641 24.364-8.181"/>
                        <path stroke="#002855" d="M523.766 343.397s13.255 7.712 11.384 8.543c-1.558.694-14.406-4.606-18.609-6.375-.223-.094-.403.204-.217.361 2.922 2.46 10.52 9.084 9.392 10.51-1.392 1.757-16.034-5.635-16.034-5.635s6.321 5.788 7.243 6.716c.923.93.692 1.863-2.189 1.986-2.874.125-15.334-7.925-15.334-7.925s9.75-9.641 24.364-8.181z"/>
                        <path fill="#FFF" d="M413.954 228.517s25.826 54.612 27.114 58.126c1.108 3.023 36.954 56.962 37.119 57.275.166.312-.092 6.126 3.948 8.617 4.052 2.498 27.05 15.906 27.992 15.906.942 0 3.613.002 1.727-3.18-1.884-3.179-13.285-9.807-11.73-12.506 1.559-2.702 7.22-9.063 41.448-11.11 0 0 6.91-2.234 2.47-4.148l-35.192.381s-13.582-1.676-16.262-5.69c-2.674-4.007-21.974-58.647-40.226-78.06-6.617-10.74-18.735-37.983-18.735-37.983l-19.673 12.372z"/>
                        <path stroke="#002855" d="M413.954 228.517s25.826 54.612 27.114 58.126c1.108 3.023 36.954 56.962 37.119 57.275.166.312-.092 6.126 3.948 8.617 4.052 2.498 27.05 15.906 27.992 15.906.942 0 3.613.002 1.727-3.18-1.884-3.179-13.285-9.807-11.73-12.506 1.559-2.702 7.22-9.063 41.448-11.11 0 0 6.91-2.234 2.47-4.148l-35.192.381s-13.582-1.676-16.262-5.69c-2.674-4.007-21.974-58.647-40.226-78.06-6.617-10.74-18.735-37.983-18.735-37.983l-19.673 12.372z"/>
                        <path fill="#002855" d="M373.61 588.605c5.108-1.697 13.773-4.082 22.577 10.905.828 1.41 1.389.508 1.569 2.083 1.743 15.247-16.317 35.454-29.031 39.832-5.35 1.118-10.767-.077-14-2.948-2.38-2.397-2.303-6.115-.947-10.409 4.56-3.795 8.263-11.985 11.893-18.048 2.649-4.424 2.709-9.041 3.682-11.91.3-.888.218-8.163 4.257-9.505"/>
                        <path stroke="#002855" d="M373.61 588.605c5.108-1.697 13.773-4.082 22.577 10.905.828 1.41 1.389.508 1.569 2.083 1.743 15.247-16.317 35.454-29.031 39.832-5.35 1.118-10.767-.077-14-2.948-2.38-2.397-2.303-6.115-.947-10.409 4.56-3.795 8.263-11.985 11.893-18.048 2.649-4.424 2.709-9.041 3.682-11.91.3-.888.218-8.163 4.257-9.505z"/>
                        <path fill="#FFF" d="M405.74 513.688c0 16.537-11.943 87.544-11.943 87.544s-25.835 3.186-26.195-8.844c-.36-12.017.886-160.646 4.713-168.105 3.146-6.15 8.36-2.863 16.782-2.67 8.475.18 11.07 47.579 11.07 47.579.27-2.375 6.818 28.603 5.572 44.496"/>
                        <path stroke="#002855" d="M372.315 424.283c-3.827 7.46-5.072 156.088-4.713 168.104.36 12.03 26.195 8.845 26.195 8.845s11.942-71.008 11.942-87.544c1.246-15.893-5.303-46.872-5.572-44.497 0 0-2.594-47.398-11.07-47.578-8.423-.193-13.636-3.479-16.782 2.67z"/>
                        <path stroke="#002855" stroke-linejoin="round" d="M381.952 193.785l-7.448-51.265.077-19.744-27.103-8.583c-7.521 19.575-10.556 17.916-10.95 19.083.33 1.309 2.512 2.073 2.728 2.577.473 1.106-5.15 10.29-3.261 13.426 1.248 2.07 14.755 6.563 15.292 6.743.832.316 5.247 33.124 5.108 35.396 5.896-3.795 16.556 1.56 25.557 2.367z"/>
                        <g fill="#002855">
                            <path d="M59.17 54.847c-.074-.016-.128-.039-.155-.05.068.03.372.143.844.315-.217-.094-.453-.179-.69-.265" transform="translate(333 92)"/>
                            <path d="M59.927 55.142c2.768 1.034 11.042 4.09 14.7 5.445 1.235.452 2.644-.354 3.049-1.738C80.573 48.786 56.433 36.39 74.38 42.69c4.314 1.508 7.529-10.78-8.345-18.05-3.94-8.481-9.898-15.231-29.554-18.315C27.4 4.913 24.936-3.897 11.546 3.148-2.606 10.62.763 17.184.763 17.184l17.94 6.539s-1.372 5.08 2.488 6.488l7.794 2.866C17.814 61.939 16.397 60.01 31.794 65.739c.817.304 1.759.02 2.387-.69 7.452-8.514 15.932 3.26 19.169-.18 2.962-3.14-4.085-5.651 7.2-1.118 3.59 1.437 5.252-5.913-.623-8.61m-.912-.344c.027.012.08.035.155.05.236.087.472.172.689.266-.472-.172-.776-.287-.844-.316" transform="translate(333 92)"/>
                        </g>
                        <path stroke="#002855" d="M341.506 140.842c-2.34-.88-3.028-1.44-3.554-.79-.417.514-.732 1.788-1.685 4.264-.102.263.085.532.338.461 2.03-.569 8.53-2.57 4.901-3.935zM377.537 162.793L374.976 146.19"/>
                        <path fill="#002855" d="M348.235 125.508L360.157 129.906 361.306 126.937 349.373 122.55z"/>
                        <path fill="#FFF" d="M341.837 127.717l3.517 1.304c.738.274 1.596-.176 1.916-1.005l1.818-4.725-6.2-2.281-1.81 4.715c-.317.827.023 1.719.759 1.992"/>
                        <path fill="#002855" d="M343.262 121.99l-1.254 3.265c-.312.812.022 1.692.746 1.96l2.247.832c.726.27 1.571-.175 1.885-.989l1.258-3.27-4.882-1.799zm-2.565 2.78l1.82-4.74 7.516 2.763-1.83 4.752c-.628 1.63-2.319 2.515-3.769 1.977l-2.247-.833c-1.445-.537-2.114-2.294-1.49-3.919zM318.446 230.905s12.334-28.383 12.07-21.607c-.954 24.595-3.408 22.58-1.371 25.92 3.584 5.878 15.67 17.809 15.67 17.809l1.479 84.134 85.22-27.19-20.42-41.928v-40.465l2.86.939 19.673-12.372s-17.94-47.823-28.493-47.06c-11.324-1.394-25.844-1.334-25.844-1.334s-8.834 15.226-15.356 18.655c-6.49 3.41-11.21-19.764-11.21-19.764l-22.267 9.178c-3.206 1.32-3.85 1.657-8.932 5.517-5.061 3.844-18.292 31.776-18.292 31.776l15.213 17.792z"/>
                        <path stroke="#002855" d="M318.446 230.905s12.334-28.383 12.07-21.607c-.954 24.595-3.408 22.58-1.371 25.92 3.584 5.878 15.67 17.809 15.67 17.809l1.479 84.134 85.22-27.19-20.42-41.928v-40.465l2.86.939 19.673-12.372s-17.94-47.823-28.493-47.06c-11.324-1.394-25.844-1.334-25.844-1.334s-8.834 15.226-15.356 18.655c-6.49 3.41-11.21-19.764-11.21-19.764l-22.267 9.178c-3.206 1.32-3.85 1.657-8.932 5.517-5.061 3.844-18.292 31.776-18.292 31.776l15.213 17.792z"/>
                        <path fill="#FFF" d="M449.019 488.725s5.782-132.991-17.504-178.753l-85.221 27.19 3.74 154.565s53.646-1.223 53.646-17.552l-2.95-35.84 12.384 31.668 35.905 18.722z"/>
                        <path stroke="#002855" d="M449.019 488.725s5.782-132.991-17.504-178.753l-85.221 27.19 3.74 154.565s53.646-1.223 53.646-17.552l-2.95-35.84 12.384 31.668 35.905 18.722z"/>
                        <path fill="#FFF" d="M372.503 585.497c4.829-1.726 13.017-4.16 21.333 10.762 8.37 15.021-20.873 40.91-25.952 42.07-5.058 1.154-10.183-.002-13.242-2.85-7.46-7.888 16.61-30.387 12.773-40.506-.171-.449-.233-.914-.104-1.35.435-1.47 1.502-6.807 5.192-8.126"/>
                        <path stroke="#002855" d="M372.503 585.497c4.829-1.726 13.017-4.16 21.333 10.762 8.37 15.021-20.873 40.91-25.952 42.07-5.058 1.154-10.183-.002-13.242-2.85-7.46-7.888 16.61-30.387 12.773-40.506-.171-.449-.233-.914-.104-1.35.435-1.47 1.502-6.807 5.192-8.126z"/>
                        <path fill="#002855" d="M407.357 573.071c6.156-2.055 16.607-4.958 27.24 12.817 1 1.674 1.678.595 1.896 2.471 2.107 18.145-19.7 42.263-35.017 47.502-6.436 1.342-12.95-.063-16.833-3.462-2.858-2.838-2.766-7.25-1.137-12.349 5.48-4.523 9.93-14.263 14.295-21.484 3.187-5.27 3.26-10.757 4.43-14.17.362-1.056.263-9.7 5.126-11.325"/>
                        <path stroke="#002855" d="M407.357 573.071c6.156-2.055 16.607-4.958 27.24 12.817 1 1.674 1.678.595 1.896 2.471 2.107 18.145-19.7 42.263-35.017 47.502-6.436 1.342-12.95-.063-16.833-3.462-2.858-2.838-2.766-7.25-1.137-12.349 5.48-4.523 9.93-14.263 14.295-21.484 3.187-5.27 3.26-10.757 4.43-14.17.362-1.056.263-9.7 5.126-11.325z"/>
                        <path fill="#FFF" d="M318.446 230.907c-3.785 4.654-33.017 43.643-36.535 44.186-.405.066-3.912.413-13.368-13.282-4.66-6.738-10.468-15.306-14.781-22.255-2.87-4.63-5.911-9.393-7.998-14.57-1.958-1.444-7.35-5.408-7.545-5.556-.24-.176-5.58-7.447-5.64-8.565-.062-1.107.575-2.672 1.629-2.562 1.046.111 6.557 5.985 6.592 4.837.036-1.138-2.705-8.228-3.23-9.076-.532-.846-5.7-5.427-7.634-6.84-1.932-1.412-.644-3.715 1.325-2.227 1.98 1.5 12.93 9.752 14.172 10.624 1.002.708 5.424 7.74 5.424 7.75l1.51 2.861c3.685 4.492 19.198 23.378 23.676 28.12 2.195 2.327 4.296 3.606 4.296 3.606l22.897-34.848 15.21 17.797z"/>
                        <path stroke="#002855" d="M318.446 230.907c-3.785 4.654-33.017 43.643-36.535 44.186-.405.066-3.912.413-13.368-13.282-4.66-6.738-10.468-15.306-14.781-22.255-2.87-4.63-5.911-9.393-7.998-14.57-1.958-1.444-7.35-5.408-7.545-5.556-.24-.176-5.58-7.447-5.64-8.565-.062-1.107.575-2.672 1.629-2.562 1.046.111 6.557 5.985 6.592 4.837.036-1.138-2.705-8.228-3.23-9.076-.532-.846-5.7-5.427-7.634-6.84-1.932-1.412-.644-3.715 1.325-2.227 1.98 1.5 12.93 9.752 14.172 10.624 1.002.708 5.424 7.74 5.424 7.75l1.51 2.861c3.685 4.492 19.198 23.378 23.676 28.12 2.195 2.327 4.296 3.606 4.296 3.606l22.897-34.848 15.21 17.797z"/>
                        <path fill="#FFF" d="M406.024 569.387c5.817-2.09 15.691-5.05 25.732 12.646 10.12 17.836-25.177 48.759-31.292 50.153-6.086 1.387-12.246.028-15.92-3.343-8.954-9.334 19.976-36.163 15.355-48.161-.205-.531-.28-1.084-.125-1.603.524-1.751 1.807-8.097 6.25-9.692"/>
                        <path stroke="#002855" d="M406.024 569.387c5.817-2.09 15.691-5.05 25.732 12.646 10.12 17.836-25.177 48.759-31.292 50.153-6.086 1.387-12.246.028-15.92-3.343-8.954-9.334 19.976-36.163 15.355-48.161-.205-.531-.28-1.084-.125-1.603.524-1.751 1.807-8.097 6.25-9.692z"/>
                        <mask id="u7ie4cbg4b" fill="#fff">
                            <use xlink:href="#dwc685qkca"/>
                        </mask>
                        <path fill="#FFF" d="M206.726 214.913L241.726 214.913 241.726 189.913 206.726 189.913z" mask="url(#u7ie4cbg4b)"/>
                        <path stroke="#002855" d="M206.726 214.913L241.726 214.913 241.726 189.913 206.726 189.913z" mask="url(#u7ie4cbg4b)"/>
                        <path fill="#002855" d="M220.726 191.913L227.726 191.913 227.726 184.913 220.726 184.913z" mask="url(#u7ie4cbg4b)"/>
                        <path stroke="#002855" d="M220.726 191.913L227.726 191.913 227.726 184.913 220.726 184.913z" mask="url(#u7ie4cbg4b)"/>
                        <path stroke="#002855" stroke-width="2" d="M236.726 199.75L223.726 199.75M222.726 206.75L210.726 206.75M221.726 199.75L210.726 199.75M236.726 206.75L229.726 206.75M227.726 206.75L223.726 206.75" mask="url(#u7ie4cbg4b)"/>
                        <g mask="url(#u7ie4cbg4b)">
                            <g>
                                <path fill="#002855" d="M8.59 6.439c-1.343-.515-4.434-1.93-4.568-1.983C3.858 4.394.192 1.799.15 1.4.108 1.005.545.446 1.269.486c.718.039 5.859 4.207 7.322 3.939" transform="translate(233 208)"/>
                                <path stroke="#002855" d="M8.59 6.439c-1.343-.515-4.434-1.93-4.568-1.983C3.858 4.394.192 1.799.15 1.4.108 1.005.545.446 1.269.486c.718.039 5.859 4.207 7.322 3.939" transform="translate(233 208)"/>
                            </g>
                        </g>
                        <g mask="url(#u7ie4cbg4b)">
                            <g>
                                <path fill="#FFF" d="M13.764 16.986c-1.958-1.444-7.35-5.407-7.545-5.556C5.98 11.255.64 3.984.58 2.866.515 1.758 1.153.194 2.206.303c1.046.11 7.52 6.61 7.52 6.61" transform="translate(232 208)"/>
                                <path stroke="#002855" stroke-linecap="round" d="M13.764 16.986c-1.958-1.444-7.35-5.407-7.545-5.556C5.98 11.255.64 3.984.58 2.866.515 1.758 1.153.194 2.206.303c1.046.11 7.52 6.61 7.52 6.61" transform="translate(232 208)"/>
                            </g>
                        </g>
                        <path fill="#FFF" d="M0.5 217.5L179.5 217.5 179.5 153.5 0.5 153.5z" mask="url(#u7ie4cbg4b)"/>
                        <path fill="#002855" d="M0 218h180v-65H0v65zm1-1h178v-63H1v63z" mask="url(#u7ie4cbg4b)"/>
                        <path fill="#FFF" d="M64 183.163L99 183.163 99 158.163 64 158.163z" mask="url(#u7ie4cbg4b)"/>
                        <path stroke="#002855" d="M64 183.163L99 183.163 99 158.163 64 158.163z" mask="url(#u7ie4cbg4b)"/>
                        <path fill="#002855" d="M78 160.163L85 160.163 85 153.163 78 153.163z" mask="url(#u7ie4cbg4b)"/>
                        <path stroke="#002855" d="M78 160.163L85 160.163 85 153.163 78 153.163z" mask="url(#u7ie4cbg4b)"/>
                        <path stroke="#002855" stroke-width="2" d="M94 168L81 168M80 175L68 175M79 168L68 168M94 175L87 175M85 175L81 175" mask="url(#u7ie4cbg4b)"/>
                        <path fill="#FFF" d="M97.664 221.453L132.664 221.453 132.664 196.453 97.664 196.453z" mask="url(#u7ie4cbg4b)"/>
                        <path stroke="#002855" d="M97.664 221.453L132.664 221.453 132.664 196.453 97.664 196.453z" mask="url(#u7ie4cbg4b)"/>
                        <path fill="#002855" d="M111.664 198.453L118.664 198.453 118.664 191.453 111.664 191.453z" mask="url(#u7ie4cbg4b)"/>
                        <path stroke="#002855" d="M111.664 198.453L118.664 198.453 118.664 191.453 111.664 191.453z" mask="url(#u7ie4cbg4b)"/>
                        <path stroke="#002855" stroke-width="2" d="M127.664 206.291L114.664 206.291M113.664 213.291L101.664 213.291M112.664 206.291L101.664 206.291M127.664 213.291L120.664 213.291M118.664 213.291L114.664 213.291" mask="url(#u7ie4cbg4b)"/>
                        <path fill="#002855" d="M11 204h36v-36H11v36zm1-1h34v-34H12v34z" mask="url(#u7ie4cbg4b)"/>
                        <path stroke="#002855" d="M11.769 203.589s7.206-7.353 17.295-7.353c10.089 0 17.296 7.353 17.296 7.353M34.565 185.5c0 3.038-2.462 5.5-5.5 5.5-3.039 0-5.5-2.462-5.5-5.5s2.461-5.5 5.5-5.5c3.037 0 5.5 2.462 5.5 5.5z" mask="url(#u7ie4cbg4b)"/>
                        <path fill="#FFF" d="M0.5 387.261L179.5 387.261 179.5 323.261 0.5 323.261z" mask="url(#u7ie4cbg4b)"/>
                        <path fill="#002855" d="M0 387.761h180v-65H0v65zm1-1h178v-63H1v63z" mask="url(#u7ie4cbg4b)"/>
                        <path fill="#FFF" d="M87.75 392.173L122.75 392.173 122.75 367.173 87.75 367.173z" mask="url(#u7ie4cbg4b)"/>
                        <path stroke="#002855" d="M87.75 392.173L122.75 392.173 122.75 367.173 87.75 367.173z" mask="url(#u7ie4cbg4b)"/>
                        <path fill="#002855" d="M101.75 369.173L108.75 369.173 108.75 362.173 101.75 362.173z" mask="url(#u7ie4cbg4b)"/>
                        <path stroke="#002855" d="M101.75 369.173L108.75 369.173 108.75 362.173 101.75 362.173z" mask="url(#u7ie4cbg4b)"/>
                        <path stroke="#002855" stroke-width="2" d="M117.75 377.011L104.75 377.011M103.75 384.011L91.75 384.011M102.75 377.011L91.75 377.011M117.75 384.011L110.75 384.011M108.75 384.011L104.75 384.011" mask="url(#u7ie4cbg4b)"/>
                        <path fill="#FFF" d="M63.25 356.423L98.25 356.423 98.25 331.423 63.25 331.423z" mask="url(#u7ie4cbg4b)"/>
                        <path stroke="#002855" d="M63.25 356.423L98.25 356.423 98.25 331.423 63.25 331.423z" mask="url(#u7ie4cbg4b)"/>
                        <path fill="#002855" d="M77.25 333.423L84.25 333.423 84.25 326.423 77.25 326.423z" mask="url(#u7ie4cbg4b)"/>
                        <path stroke="#002855" d="M77.25 333.423L84.25 333.423 84.25 326.423 77.25 326.423z" mask="url(#u7ie4cbg4b)"/>
                        <path stroke="#002855" stroke-width="2" d="M93.25 341.261L80.25 341.261M79.25 348.261L67.25 348.261M78.25 341.261L67.25 341.261M93.25 348.261L86.25 348.261M84.25 348.261L80.25 348.261" mask="url(#u7ie4cbg4b)"/>
                        <path fill="#002855" d="M11 373.761h36v-36H11v36zm1-1h34v-34H12v34z" mask="url(#u7ie4cbg4b)"/>
                        <g mask="url(#u7ie4cbg4b)">
                            <g>
                                <path fill="#002855" d="M.769 7.35S7.975-.003 18.064-.003C28.153-.003 35.36 7.35 35.36 7.35" transform="translate(11 366)"/>
                                <path stroke="#002855" d="M.769 7.35S7.975-.003 18.064-.003C28.153-.003 35.36 7.35 35.36 7.35" transform="translate(11 366)"/>
                            </g>
                        </g>
                        <path stroke="#002855" d="M34.565 355.26c0 3.038-2.462 5.5-5.5 5.5-3.039 0-5.5-2.462-5.5-5.5 0-3.037 2.461-5.5 5.5-5.5 3.037 0 5.5 2.463 5.5 5.5z" mask="url(#u7ie4cbg4b)"/>
                        <path fill="#002855" d="M30.386 349.69h-2.44c-.483 0-.876-.393-.876-.878 0-.484.393-.877.877-.877h2.439c.485 0 .877.393.877.877 0 .485-.392.878-.877.878" mask="url(#u7ie4cbg4b)"/>
                        <path stroke="#002855" d="M30.386 349.69h-2.44c-.483 0-.876-.393-.876-.878 0-.484.393-.877.877-.877h2.439c.485 0 .877.393.877.877 0 .485-.392.878-.877.878z" mask="url(#u7ie4cbg4b)"/>
                        <path fill="#002855" d="M29.473 347.935h-.612c-.485 0-.878-.392-.878-.877 0-.484.393-.877.878-.877h.612c.484 0 .877.393.877.877 0 .485-.393.877-.877.877" mask="url(#u7ie4cbg4b)"/>
                        <path stroke="#002855" d="M29.473 347.935h-.612c-.485 0-.878-.392-.878-.877 0-.484.393-.877.878-.877h.612c.484 0 .877.393.877.877 0 .485-.393.877-.877.877z" mask="url(#u7ie4cbg4b)"/>
                        <path fill="#FFF" d="M129.934 367.761L164.934 367.761 164.934 342.761 129.934 342.761z" mask="url(#u7ie4cbg4b)"/>
                        <path stroke="#002855" d="M129.934 367.761L164.934 367.761 164.934 342.761 129.934 342.761z" mask="url(#u7ie4cbg4b)"/>
                        <path fill="#002855" d="M143.934 344.761L150.934 344.761 150.934 337.761 143.934 337.761z" mask="url(#u7ie4cbg4b)"/>
                        <path stroke="#002855" d="M143.934 344.761L150.934 344.761 150.934 337.761 143.934 337.761z" mask="url(#u7ie4cbg4b)"/>
                        <path stroke="#002855" stroke-width="2" d="M159.934 352.598L146.934 352.598M145.934 359.598L133.934 359.598M144.934 352.598L133.934 352.598M159.934 359.598L152.934 359.598M150.934 359.598L146.934 359.598" mask="url(#u7ie4cbg4b)"/>
                        <path fill="#FFF" d="M33.25 304.586L212.25 304.586 212.25 240.586 33.25 240.586z" mask="url(#u7ie4cbg4b)"/>
                        <path fill="#002855" d="M32.75 305.086h180v-65h-180v65zm1-1h178v-63h-178v63z" mask="url(#u7ie4cbg4b)"/>
                        <path fill="#FFF" d="M149.75 290.293L184.75 290.293 184.75 265.293 149.75 265.293z" mask="url(#u7ie4cbg4b)"/>
                        <path stroke="#002855" d="M149.75 290.293L184.75 290.293 184.75 265.293 149.75 265.293z" mask="url(#u7ie4cbg4b)"/>
                        <path fill="#002855" d="M163.75 266.293L170.75 266.293 170.75 259.293 163.75 259.293z" mask="url(#u7ie4cbg4b)"/>
                        <path stroke="#002855" d="M163.75 266.293L170.75 266.293 170.75 259.293 163.75 259.293z" mask="url(#u7ie4cbg4b)"/>
                        <path fill="#002855" d="M172.901 273.541L171.502 272.142 167.25 276.394 162.998 272.142 161.598 273.541 165.85 277.793 161.598 282.044 162.998 283.444 167.25 279.192 171.502 283.444 172.901 282.044 168.649 277.793z" mask="url(#u7ie4cbg4b)"/>
                        <path stroke="#002855" d="M172.901 273.541L171.502 272.142 167.25 276.394 162.998 272.142 161.598 273.541 165.85 277.793 161.598 282.044 162.998 283.444 167.25 279.192 171.502 283.444 172.901 282.044 168.649 277.793z" mask="url(#u7ie4cbg4b)"/>
                        <path fill="#002855" d="M43.75 291.086h36v-36h-36v36zm1-1h34v-34h-34v34z" mask="url(#u7ie4cbg4b)"/>
                        <path stroke="#002855" d="M44.519 290.675s7.206-7.352 17.295-7.352c10.089 0 17.296 7.352 17.296 7.352" mask="url(#u7ie4cbg4b)"/>
                        <path fill="#002855" d="M67.314 272.586c0 3.038-2.461 5.5-5.5 5.5-3.038 0-5.5-2.462-5.5-5.5s2.462-5.5 5.5-5.5c3.039 0 5.5 2.462 5.5 5.5" mask="url(#u7ie4cbg4b)"/>
                        <path stroke="#002855" d="M67.314 272.586c0 3.038-2.461 5.5-5.5 5.5-3.038 0-5.5-2.462-5.5-5.5s2.462-5.5 5.5-5.5c3.039 0 5.5 2.462 5.5 5.5z" mask="url(#u7ie4cbg4b)"/>
                        <path fill="#FFF" d="M99.934 279.515L134.934 279.515 134.934 254.515 99.934 254.515z" mask="url(#u7ie4cbg4b)"/>
                        <path stroke="#002855" d="M99.934 279.515L134.934 279.515 134.934 254.515 99.934 254.515z" mask="url(#u7ie4cbg4b)"/>
                        <path fill="#002855" d="M113.934 256.515L120.934 256.515 120.934 249.515 113.934 249.515z" mask="url(#u7ie4cbg4b)"/>
                        <path stroke="#002855" d="M113.934 256.515L120.934 256.515 120.934 249.515 113.934 249.515z" mask="url(#u7ie4cbg4b)"/>
                        <path stroke="#002855" stroke-width="2" d="M129.934 264.353L116.934 264.353M115.934 271.353L103.934 271.353M114.934 264.353L103.934 264.353M129.934 271.353L122.934 271.353M120.934 271.353L116.934 271.353" mask="url(#u7ie4cbg4b)"/>
                        <path fill="#FFF" d="M33.25 474.347L212.25 474.347 212.25 410.347 33.25 410.347z" mask="url(#u7ie4cbg4b)"/>
                        <path fill="#002855" d="M32.75 474.847h180v-65h-180v65zm1-1h178v-63h-178v63z" mask="url(#u7ie4cbg4b)"/>
                        <path fill="#FFF" d="M88.75 442.847L123.75 442.847 123.75 417.847 88.75 417.847z" mask="url(#u7ie4cbg4b)"/>
                        <path stroke="#002855" d="M88.75 442.847L123.75 442.847 123.75 417.847 88.75 417.847z" mask="url(#u7ie4cbg4b)"/>
                        <path fill="#002855" d="M102.75 419.847L109.75 419.847 109.75 412.847 102.75 412.847z" mask="url(#u7ie4cbg4b)"/>
                        <path stroke="#002855" d="M102.75 419.847L109.75 419.847 109.75 412.847 102.75 412.847z" mask="url(#u7ie4cbg4b)"/>
                        <path stroke="#002855" stroke-width="2" d="M118.75 427.685L105.75 427.685M104.75 434.685L92.75 434.685M103.75 427.685L92.75 427.685M118.75 434.685L111.75 434.685M109.75 434.685L105.75 434.685" mask="url(#u7ie4cbg4b)"/>
                        <path fill="#FFF" d="M130.238 471.584L165.238 471.584 165.238 446.584 130.238 446.584z" mask="url(#u7ie4cbg4b)"/>
                        <path stroke="#002855" d="M130.238 471.584L165.238 471.584 165.238 446.584 130.238 446.584z" mask="url(#u7ie4cbg4b)"/>
                        <path fill="#002855" d="M144.238 447.584L151.238 447.584 151.238 440.584 144.238 440.584z" mask="url(#u7ie4cbg4b)"/>
                        <path stroke="#002855" d="M144.238 447.584L151.238 447.584 151.238 440.584 144.238 440.584z" mask="url(#u7ie4cbg4b)"/>
                        <path stroke="#002855" stroke-width="4" d="M141.638 460.199L146.115 464.345 153.838 453.822" mask="url(#u7ie4cbg4b)"/>
                        <path fill="#FFF" d="M171.726 443.847L206.726 443.847 206.726 418.847 171.726 418.847z" mask="url(#u7ie4cbg4b)"/>
                        <path stroke="#002855" d="M171.726 443.847L206.726 443.847 206.726 418.847 171.726 418.847z" mask="url(#u7ie4cbg4b)"/>
                        <path fill="#002855" d="M185.726 419.847L192.726 419.847 192.726 412.847 185.726 412.847z" mask="url(#u7ie4cbg4b)"/>
                        <path stroke="#002855" d="M185.726 419.847L192.726 419.847 192.726 412.847 185.726 412.847z" mask="url(#u7ie4cbg4b)"/>
                        <path stroke="#002855" stroke-width="4" d="M183.126 432.463L187.604 436.609 195.326 426.086" mask="url(#u7ie4cbg4b)"/>
                        <path fill="#002855" d="M43.75 460.847h36v-36h-36v36zm1-1h34v-34h-34v34z" mask="url(#u7ie4cbg4b)"/>
                        <g mask="url(#u7ie4cbg4b)">
                            <g>
                                <path fill="#002855" d="M.519 7.436S7.725.083 17.814.083c10.089 0 17.296 7.353 17.296 7.353" transform="translate(44 453)"/>
                                <path stroke="#002855" d="M.519 7.436S7.725.083 17.814.083c10.089 0 17.296 7.353 17.296 7.353" transform="translate(44 453)"/>
                            </g>
                        </g>
                        <path fill="#002855" d="M67.314 442.347c0 3.038-2.461 5.5-5.5 5.5-3.038 0-5.5-2.462-5.5-5.5 0-3.037 2.462-5.5 5.5-5.5 3.039 0 5.5 2.463 5.5 5.5" mask="url(#u7ie4cbg4b)"/>
                        <path stroke="#002855" d="M67.314 442.347c0 3.038-2.461 5.5-5.5 5.5-3.038 0-5.5-2.462-5.5-5.5 0-3.037 2.462-5.5 5.5-5.5 3.039 0 5.5 2.463 5.5 5.5z" mask="url(#u7ie4cbg4b)"/>
                    </g>
                </g>
            </g>
        </g>
    </g>
</svg>
