<svg xmlns="http://www.w3.org/2000/svg" width="500px" height="300px" viewBox="0 0 720 364">
    <g fill="none" fill-rule="evenodd" opacity=".33">
        <g>
            <g>
                <g>
                    <g>
                        <g>
                            <path d="M0 0H720V362.288H0z" transform="translate(225 -2768) translate(0 2750) translate(0 8) matrix(1 0 0 -1 -225 373.82) rotate(180 360 181.144)"/>
                            <path stroke="#399CCB" stroke-linecap="round" stroke-width="2.5" d="M0 250.71c0 73.392 117.097 70.64 351.29-8.256M720 287.147c0-73.39-117.097-70.638-351.29 8.257M720 345.67c0-73.39-117.097-70.638-351.29 8.257M0 75.14c0 73.391 117.097 70.64 351.29-8.256M0 16.617C0 90.008 117.097 87.256 351.29 8.36M720 111.577c0-73.39-117.097-70.639-351.29 8.257M720 53.054c0-73.391-117.097-70.64-351.29 8.256M0 309.234c0 73.391 117.097 70.639 351.29-8.256M0 133.664c0 73.39 117.097 70.639 351.29-8.257M720 170.1c0-73.39-117.097-70.638-351.29 8.257M0 192.187c0 73.391 117.097 70.64 351.29-8.256M720 228.624c0-73.391-117.097-70.639-351.29 8.256" transform="translate(225 -2768) translate(0 2750) translate(0 8) matrix(1 0 0 -1 -225 373.82) rotate(180 360 181.144)"/>
                        </g>
                    </g>
                </g>
            </g>
        </g>
    </g>
</svg>
