<svg xmlns="http://www.w3.org/2000/svg" width="118" height="62" viewBox="0 0 118 62">
    <g fill="none" fill-rule="evenodd" opacity=".33">
        <g>
            <g>
                <g>
                    <g>
                        <g>
                            <path d="M0 0H118V62H0z" transform="translate(-98 -1478) translate(0 647) translate(98 759) translate(0 72) rotate(180 59 31)"/>
                            <path stroke="#399CCB" stroke-linecap="round" stroke-width="2.5" d="M0 42.905c0 12.56 19.19 12.089 57.573-1.413M118 49.14c0-12.559-19.19-12.088-57.573 1.414M118 59.156c0-12.56-19.19-12.088-57.573 1.413M0 12.86c0 12.559 19.19 12.088 57.573-1.414M0 2.844c0 12.56 19.19 12.088 57.573-1.413M118 19.095c0-12.56-19.19-12.089-57.573 1.413M118 9.08c0-12.56-19.19-12.09-57.573 1.412M0 52.92c0 12.56 19.19 12.09 57.573-1.412M0 22.875c0 12.56 19.19 12.088 57.573-1.413M118 29.11c0-12.56-19.19-12.089-57.573 1.413M0 32.89c0 12.56 19.19 12.089 57.573-1.413M118 39.125c0-12.56-19.19-12.088-57.573 1.413" transform="translate(-98 -1478) translate(0 647) translate(98 759) translate(0 72) rotate(180 59 31)"/>
                        </g>
                    </g>
                </g>
            </g>
        </g>
    </g>
</svg>
