<svg xmlns="http://www.w3.org/2000/svg" width="22" height="22" viewBox="0 0 22 22">
    <g fill="none" fill-rule="evenodd">
        <g>
            <g>
                <g>
                    <g>
                        <path d="M0 0H22V22H0z" transform="translate(-1197 -88) translate(0 66) translate(1197 17) translate(0 5)"/>
                        <path fill="#001845" d="M16.4 15c.331 0 .6.269.6.6v1.3c0 .331-.269.6-.6.6H5.6c-.331 0-.6-.269-.6-.6v-1.3c0-.331.269-.6.6-.6h10.8zm3-5.5c.331 0 .6.269.6.6v1.3c0 .331-.269.6-.6.6H2.6c-.331 0-.6-.269-.6-.6v-1.3c0-.331.269-.6.6-.6h16.8zm2-5.5c.331 0 .6.269.6.6v1.3c0 .331-.269.6-.6.6H.6c-.331 0-.6-.269-.6-.6V4.6c0-.331.269-.6.6-.6h20.8z" transform="translate(-1197 -88) translate(0 66) translate(1197 17) translate(0 5)"/>
                    </g>
                </g>
            </g>
        </g>
    </g>
</svg>
