<?xml version="1.0" encoding="UTF-8" standalone="no"?> <svg xmlns="http://www.w3.org/2000/svg" width="35" height="35" viewBox="0 0 40.5 42.17">
  <defs>
    <style>
      .a {
        fill: #5e6478;
      }
    </style>
  </defs>
  <title>30 Update, reset_2</title>
  <path class="a" d="M39.07,26.66l-3.82-1.15a2,2,0,0,0-2.43,1A13,13,0,1,1,26.69,9.48l-2.28,2.28a2,2,0,0,0,1.41,3.42H37a2,2,0,0,0,2-2V2A2,2,0,0,0,35.58.59l-3,3.05A21,21,0,1,0,21,42.17,20.95,20.95,0,0,0,40.35,29.32,2,2,0,0,0,39.07,26.66Z"/>
</svg>
