<svg xmlns="http://www.w3.org/2000/svg" width="43" height="43" viewBox="0 0 43 43">
    <g fill="none" fill-rule="evenodd">
        <g>
            <g>
                <g>
                    <g transform="translate(-289 -1335) translate(0 437) translate(22 876) translate(267 22)">
                        <path d="M0 0H43V43H0z"/>
                        <circle cx="1.5" cy="1.5" r="1.5" fill="#001845" transform="matrix(1 0 0 -1 0 3)"/>
                        <circle cx="11.5" cy="1.5" r="1.5" fill="#001845" transform="matrix(1 0 0 -1 0 3)"/>
                        <circle cx="1.5" cy="11.5" r="1.5" fill="#3FACE0" transform="matrix(1 0 0 -1 0 23)"/>
                        <circle cx="11.5" cy="11.5" r="1.5" fill="#3FACE0" transform="matrix(1 0 0 -1 0 23)"/>
                        <circle cx="1.5" cy="21.5" r="1.5" fill="#001845" transform="matrix(1 0 0 -1 0 43)"/>
                        <circle cx="11.5" cy="21.5" r="1.5" fill="#001845" transform="matrix(1 0 0 -1 0 43)"/>
                        <circle cx="21.5" cy="1.5" r="1.5" fill="#001845" transform="matrix(1 0 0 -1 0 3)"/>
                        <circle cx="41.5" cy="1.5" r="1.5" fill="#001845" transform="matrix(1 0 0 -1 0 3)"/>
                        <circle cx="21.5" cy="11.5" r="1.5" fill="#3FACE0" transform="matrix(1 0 0 -1 0 23)"/>
                        <circle cx="41.5" cy="11.5" r="1.5" fill="#001845" transform="matrix(1 0 0 -1 0 23)"/>
                        <circle cx="21.5" cy="21.5" r="1.5" fill="#001845" transform="matrix(1 0 0 -1 0 43)"/>
                        <circle cx="41.5" cy="21.5" r="1.5" fill="#001845" transform="matrix(1 0 0 -1 0 43)"/>
                        <circle cx="20.5" cy="31.5" r="1.5" fill="#001845" transform="matrix(1 0 0 -1 0 63)"/>
                        <circle cx="40.5" cy="31.5" r="1.5" fill="#001845" transform="matrix(1 0 0 -1 0 63)"/>
                        <circle cx="20.5" cy="41.5" r="1.5" fill="#001845" transform="matrix(1 0 0 -1 0 83)"/>
                        <circle cx="40.5" cy="41.5" r="1.5" fill="#001845" transform="matrix(1 0 0 -1 0 83)"/>
                        <circle cx="30.5" cy="41.5" r="1.5" fill="#3FACE0" transform="matrix(1 0 0 -1 0 83)"/>
                        <circle cx="31.5" cy="1.5" r="1.5" fill="#001845" transform="matrix(1 0 0 -1 0 3)"/>
                        <circle cx="31.5" cy="11.5" r="1.5" fill="#3FACE0" transform="matrix(1 0 0 -1 0 23)"/>
                        <circle cx="31.5" cy="21.5" r="1.5" fill="#3FACE0" transform="matrix(1 0 0 -1 0 43)"/>
                        <circle cx="30.5" cy="31.5" r="1.5" fill="#3FACE0" transform="matrix(1 0 0 -1 0 63)"/>
                    </g>
                </g>
            </g>
        </g>
    </g>
</svg>
