<svg xmlns="http://www.w3.org/2000/svg" width="82" height="86" viewBox="0 0 82 86">
    <g fill="none" fill-rule="evenodd">
        <g>
            <g>
                <g>
                    <g transform="translate(-15 -409) translate(0 132) translate(15 277) rotate(180 41 43)">
                        <path d="M0 0H82V86H0z"/>
                        <ellipse cx="6.674" cy="3" fill="#001845" rx="2.86" ry="3" transform="matrix(1 0 0 -1 0 6)"/>
                        <ellipse cx="24.791" cy="3" fill="#001845" rx="2.86" ry="3" transform="matrix(1 0 0 -1 0 6)"/>
                        <ellipse cx="6.674" cy="23" fill="#3FACE0" rx="2.86" ry="3" transform="matrix(1 0 0 -1 0 46)"/>
                        <ellipse cx="24.791" cy="23" fill="#3FACE0" rx="2.86" ry="3" transform="matrix(1 0 0 -1 0 46)"/>
                        <ellipse cx="6.674" cy="43" fill="#001845" rx="2.86" ry="3" transform="matrix(1 0 0 -1 0 86)"/>
                        <ellipse cx="24.791" cy="43" fill="#001845" rx="2.86" ry="3" transform="matrix(1 0 0 -1 0 86)"/>
                        <ellipse cx="42.907" cy="3" fill="#001845" rx="2.86" ry="3" transform="matrix(1 0 0 -1 0 6)"/>
                        <ellipse cx="79.14" cy="3" fill="#001845" rx="2.86" ry="3" transform="matrix(1 0 0 -1 0 6)"/>
                        <ellipse cx="42.907" cy="23" fill="#3FACE0" rx="2.86" ry="3" transform="matrix(1 0 0 -1 0 46)"/>
                        <ellipse cx="79.14" cy="23" fill="#001845" rx="2.86" ry="3" transform="matrix(1 0 0 -1 0 46)"/>
                        <ellipse cx="42.907" cy="43" fill="#001845" rx="2.86" ry="3" transform="matrix(1 0 0 -1 0 86)"/>
                        <ellipse cx="79.14" cy="43" fill="#001845" rx="2.86" ry="3" transform="matrix(1 0 0 -1 0 86)"/>
                        <ellipse cx="42.907" cy="63" fill="#001845" rx="2.86" ry="3" transform="matrix(1 0 0 -1 0 126)"/>
                        <ellipse cx="79.14" cy="63" fill="#001845" rx="2.86" ry="3" transform="matrix(1 0 0 -1 0 126)"/>
                        <ellipse cx="42.907" cy="83" fill="#001845" rx="2.86" ry="3" transform="matrix(1 0 0 -1 0 166)"/>
                        <ellipse cx="79.14" cy="83" fill="#001845" rx="2.86" ry="3" transform="matrix(1 0 0 -1 0 166)"/>
                        <ellipse cx="61.023" cy="83" fill="#3FACE0" rx="2.86" ry="3" transform="matrix(1 0 0 -1 0 166)"/>
                        <ellipse cx="61.023" cy="3" fill="#001845" rx="2.86" ry="3" transform="matrix(1 0 0 -1 0 6)"/>
                        <ellipse cx="61.023" cy="23" fill="#3FACE0" rx="2.86" ry="3" transform="matrix(1 0 0 -1 0 46)"/>
                        <ellipse cx="61.023" cy="43" fill="#3FACE0" rx="2.86" ry="3" transform="matrix(1 0 0 -1 0 86)"/>
                        <ellipse cx="61.023" cy="63" fill="#3FACE0" rx="2.86" ry="3" transform="matrix(1 0 0 -1 0 126)"/>
                    </g>
                </g>
            </g>
        </g>
    </g>
</svg>
