<svg xmlns="http://www.w3.org/2000/svg" width="626" height="690" viewBox="0 0 626 690">
    <g fill="none" fill-rule="evenodd">
        <g>
            <g>
                <g>
                    <path fill="#FFF" d="M544.26 406.723L548.921 444.683 404.547 461.722 400.049 425.112z" transform="translate(-800 -2716) translate(0 2515) translate(801 202)"/>
                    <path stroke="#002855" d="M400.049 425.111L544.26 406.722 548.921 444.682 404.548 461.721z" transform="translate(-800 -2716) translate(0 2515) translate(801 202)"/>
                    <path fill="#002855" d="M583.479 583.988L591.067 645.768 445.227 650.897 440.729 614.287z" transform="translate(-800 -2716) translate(0 2515) translate(801 202)"/>
                    <path stroke="#002855" d="M440.728 614.287L583.479 583.988 591.067 645.768 445.228 650.897z" transform="translate(-800 -2716) translate(0 2515) translate(801 202)"/>
                    <path fill="#FFF" d="M149.538 585.664L157.278 648.694 11.365 653.203 6.867 616.593z" transform="translate(-800 -2716) translate(0 2515) translate(801 202)"/>
                    <path stroke="#002855" d="M6.867 616.593L149.538 585.664 157.278 648.695 11.365 653.203z" transform="translate(-800 -2716) translate(0 2515) translate(801 202)"/>
                    <path fill="#002855" d="M196.481 458.088L202.811 509.658 57.599 519.897 53.102 483.286z" transform="translate(-800 -2716) translate(0 2515) translate(801 202)"/>
                    <path stroke="#002855" d="M53.102 483.286L196.481 458.088 202.812 509.658 57.6 519.896z" transform="translate(-800 -2716) translate(0 2515) translate(801 202)"/>
                    <g>
                        <path fill="#002855" d="M314.35 411.791l-117.308 26.405-73.222-76.813s2.058-14.76 9.54-14.173c7.483.588 62.354 40.054 63.682 53.486 16.547-16.547 40.698-41.733 53.686-39.313 11.935 11.933 63.623 50.408 63.623 50.408" transform="translate(-800 -2716) translate(0 2515) translate(801 202) translate(0 .147)"/>
                        <path fill="#FFF" d="M117.586 367.857s-4.2 5.449-4.094 7.497c.045.888-1.205 4.647-2.637 8.62-1.7 4.717-7.95 5.678-10.997 1.696l-.159-.208.021-25.911c23.06-27.341 19.537-23.945 21.151-25.121 0 0 6.495-.844 6.626 1.705.131 2.55 13.152 10.72 12.48 14.092-.674 3.372-12.415 17.118-12.415 17.118l-9.976.512z" transform="translate(-800 -2716) translate(0 2515) translate(801 202) translate(0 .147)"/>
                        <path stroke="#002855" d="M117.586 367.857s-4.2 5.449-4.094 7.497c.045.888-1.205 4.647-2.637 8.62-1.7 4.717-7.95 5.678-10.997 1.696l-.159-.208.021-25.911c23.06-27.341 19.537-23.945 21.151-25.121 0 0 6.495-.844 6.626 1.705.131 2.55 13.152 10.72 12.48 14.092-.674 3.372-12.415 17.118-12.415 17.118l-9.976.512z" transform="translate(-800 -2716) translate(0 2515) translate(801 202) translate(0 .147)"/>
                        <g>
                            <path fill="#002855" d="M16.717 16.864l11.78-14.73S28.34-.931 21.517.408L.72 25.552.7 51.462l1.41 1.04c1.004.739 2.43.119 2.575-1.118l1.017-8.744-.854-16.648 7.095-7.708s3.7.098 4.774-1.42" transform="translate(-800 -2716) translate(0 2515) translate(801 202) translate(0 .147) translate(99 334)"/>
                            <path stroke="#002855" d="M16.717 16.864l11.78-14.73S28.34-.931 21.517.408L.72 25.552.7 51.462l1.41 1.04c1.004.739 2.43.119 2.575-1.118l1.017-8.744-.854-16.648 7.095-7.708s3.7.098 4.774-1.42" transform="translate(-800 -2716) translate(0 2515) translate(801 202) translate(0 .147) translate(99 334)"/>
                        </g>
                        <path fill="#FFF" d="M206.959 686.353L130.102 402.307 486.332 520.522 542.537 686.353z" transform="translate(-800 -2716) translate(0 2515) translate(801 202) translate(0 .147)"/>
                        <path fill="#002855" d="M129.377 401.54l77.2 285.312h336.656l-56.507-166.727L129.377 401.54zm1.451 1.534l355.111 117.843 55.9 164.935H207.342l-76.514-282.778zM51.242 686.353L129.372 403.436 205.924 686.353z" transform="translate(-800 -2716) translate(0 2515) translate(801 202) translate(0 .147)"/>
                        <path fill="#002855" d="M129.377 401.54L50.585 686.851h155.992l-77.2-285.313zm-.01 3.791l75.904 280.521H51.898l77.469-280.52z" transform="translate(-800 -2716) translate(0 2515) translate(801 202) translate(0 .147)"/>
                        <path fill="#002855" d="M55.07 683.889L129.598 412.745 202.62 683.889z" transform="translate(-800 -2716) translate(0 2515) translate(801 202) translate(0 .147)"/>
                        <path fill="#FFF" d="M129.613 407.033l-76.51 278.355h151.475l-74.965-278.355zm-.03 11.427l71.08 263.928H57.038l72.545-263.928z" transform="translate(-800 -2716) translate(0 2515) translate(801 202) translate(0 .147)"/>
                        <g>
                            <path fill="#FFF" d="M334.975 74.361L0.028 0.309" transform="translate(-800 -2716) translate(0 2515) translate(801 202) translate(0 .147) translate(173 518)"/>
                            <path stroke="#002855" stroke-linejoin="round" d="M334.975 74.361L0.028 0.309" transform="translate(-800 -2716) translate(0 2515) translate(801 202) translate(0 .147) translate(173 518)"/>
                        </g>
                        <g>
                            <path fill="#FFF" d="M329.592 16.191L0.042 0.491" transform="translate(-800 -2716) translate(0 2515) translate(801 202) translate(0 .147) translate(197 634)"/>
                            <path stroke="#002855" stroke-linejoin="round" d="M329.592 16.191L0.042 0.491" transform="translate(-800 -2716) translate(0 2515) translate(801 202) translate(0 .147) translate(197 634)"/>
                        </g>
                        <g>
                            <path fill="#FFF" d="M333.897 45.276L0.822 0.66" transform="translate(-800 -2716) translate(0 2515) translate(801 202) translate(0 .147) translate(182 576)"/>
                            <path stroke="#002855" stroke-linejoin="round" d="M333.897 45.276L0.822 0.66" transform="translate(-800 -2716) translate(0 2515) translate(801 202) translate(0 .147) translate(182 576)"/>
                        </g>
                        <g>
                            <path fill="#FFF" d="M0.045 0.577L54.777 202.852" transform="translate(-800 -2716) translate(0 2515) translate(801 202) translate(0 .147) translate(229 484)"/>
                            <path stroke="#002855" stroke-linejoin="round" d="M0.045 0.577L54.777 202.852" transform="translate(-800 -2716) translate(0 2515) translate(801 202) translate(0 .147) translate(229 484)"/>
                        </g>
                        <g>
                            <path fill="#FFF" d="M0.041 0.126L52.51 188.853" transform="translate(-800 -2716) translate(0 2515) translate(801 202) translate(0 .147) translate(276 498)"/>
                            <path stroke="#002855" stroke-linejoin="round" d="M0.041 0.126L52.51 188.853" transform="translate(-800 -2716) translate(0 2515) translate(801 202) translate(0 .147) translate(276 498)"/>
                        </g>
                        <g>
                            <path fill="#FFF" d="M0.453 0.429L50.242 174.853" transform="translate(-800 -2716) translate(0 2515) translate(801 202) translate(0 .147) translate(323 512)"/>
                            <path stroke="#002855" stroke-linejoin="round" d="M0.453 0.429L50.242 174.853" transform="translate(-800 -2716) translate(0 2515) translate(801 202) translate(0 .147) translate(323 512)"/>
                        </g>
                        <g>
                            <path fill="#FFF" d="M0.435 0.534L47.975 162.853" transform="translate(-800 -2716) translate(0 2515) translate(801 202) translate(0 .147) translate(370 524)"/>
                            <path stroke="#002855" stroke-linejoin="round" d="M0.435 0.534L47.975 162.853" transform="translate(-800 -2716) translate(0 2515) translate(801 202) translate(0 .147) translate(370 524)"/>
                        </g>
                        <g>
                            <path fill="#FFF" d="M0.975 0.901L45.707 149.853" transform="translate(-800 -2716) translate(0 2515) translate(801 202) translate(0 .147) translate(417 537)"/>
                            <path stroke="#002855" stroke-linejoin="round" d="M0.975 0.901L45.707 149.853" transform="translate(-800 -2716) translate(0 2515) translate(801 202) translate(0 .147) translate(417 537)"/>
                        </g>
                        <g>
                            <path fill="#FFF" d="M0.393 0.225L42.44 136.853" transform="translate(-800 -2716) translate(0 2515) translate(801 202) translate(0 .147) translate(465 550)"/>
                            <path stroke="#002855" stroke-linejoin="round" d="M0.393 0.225L42.44 136.853" transform="translate(-800 -2716) translate(0 2515) translate(801 202) translate(0 .147) translate(465 550)"/>
                        </g>
                        <path fill="#002855" d="M148.607 457.295L134.086 403.627 483.014 519.388 494.564 553.466z" transform="translate(-800 -2716) translate(0 2515) translate(801 202) translate(0 .147)"/>
                        <path fill="#002855" d="M133.36 402.86l14.84 54.84 347.141 96.502-11.933-35.21-37.36-12.396L133.36 402.86zm1.451 1.534l310.92 103.152 36.89 12.238 11.166 32.947-344.77-95.841-14.206-52.496z" transform="translate(-800 -2716) translate(0 2515) translate(801 202) translate(0 .147)"/>
                        <path fill="#FFF" d="M452.4 508.7c.272-6.645 3.977-11.908 8.505-11.908 4.707 0 8.523 5.684 8.523 12.697 0 1.649-.21 3.223-.594 4.668-1.248 4.702-4.328 8.029-7.929 8.029v9.44c8.207 0 14.86-9.911 14.86-22.137s-6.653-22.137-14.86-22.137c-7.558 0-13.798 8.407-14.736 19.285l6.23 2.063z" transform="translate(-800 -2716) translate(0 2515) translate(801 202) translate(0 .147)"/>
                        <path stroke="#002855" d="M452.4 508.7c.272-6.645 3.977-11.908 8.505-11.908 4.707 0 8.523 5.684 8.523 12.697 0 1.649-.21 3.223-.594 4.668-1.248 4.702-4.328 8.029-7.929 8.029v9.44c8.207 0 14.86-9.911 14.86-22.137s-6.653-22.137-14.86-22.137c-7.558 0-13.798 8.407-14.736 19.285l6.23 2.063z" transform="translate(-800 -2716) translate(0 2515) translate(801 202) translate(0 .147)"/>
                        <path fill="#FFF" d="M378.234 484.104c.318-7.074 4.627-12.678 9.897-12.678 5.477 0 9.916 6.053 9.916 13.518 0 1.755-.246 3.43-.691 4.97-1.453 5.006-5.036 8.547-9.225 8.547v10.05c9.548 0 17.288-10.551 17.288-23.567s-7.74-23.568-17.288-23.568c-8.793 0-16.033 8.743-17.126 20.325l7.229 2.403z" transform="translate(-800 -2716) translate(0 2515) translate(801 202) translate(0 .147)"/>
                        <path stroke="#002855" d="M378.234 484.104c.318-7.074 4.627-12.678 9.897-12.678 5.477 0 9.916 6.053 9.916 13.518 0 1.755-.246 3.43-.691 4.97-1.453 5.006-5.036 8.547-9.225 8.547v10.05c9.548 0 17.288-10.551 17.288-23.567s-7.74-23.568-17.288-23.568c-8.793 0-16.033 8.743-17.126 20.325l7.229 2.403z" transform="translate(-800 -2716) translate(0 2515) translate(801 202) translate(0 .147)"/>
                        <path fill="#FFF" d="M276.98 450.436c.354-7.873 5.15-14.108 11.015-14.108 6.094 0 11.035 6.735 11.035 15.044 0 1.952-.273 3.817-.77 5.529-1.616 5.572-5.603 9.514-10.265 9.514v11.184c10.625 0 19.239-11.743 19.239-26.227 0-14.486-8.614-26.23-19.239-26.23-9.786 0-17.843 9.73-19.059 22.62l8.044 2.674z" transform="translate(-800 -2716) translate(0 2515) translate(801 202) translate(0 .147)"/>
                        <path stroke="#002855" d="M276.98 450.436c.354-7.873 5.15-14.108 11.015-14.108 6.094 0 11.035 6.735 11.035 15.044 0 1.952-.273 3.817-.77 5.529-1.616 5.572-5.603 9.514-10.265 9.514v11.184c10.625 0 19.239-11.743 19.239-26.227 0-14.486-8.614-26.23-19.239-26.23-9.786 0-17.843 9.73-19.059 22.62l8.044 2.674z" transform="translate(-800 -2716) translate(0 2515) translate(801 202) translate(0 .147)"/>
                        <path fill="#FFF" d="M167.786 414.28c.376-8.717 5.458-15.45 11.683-15.45 6.468 0 11.712 7.459 11.712 16.66 0 2.162-.29 4.228-.816 6.123-1.716 6.17-5.948 10.535-10.896 10.535v12.386c11.277 0 20.421-13.004 20.421-29.044 0-16.041-9.144-29.045-20.42-29.045-10.388 0-18.939 10.774-20.23 25.048l8.546 2.788z" transform="translate(-800 -2716) translate(0 2515) translate(801 202) translate(0 .147)"/>
                        <path stroke="#002855" d="M167.786 414.28c.376-8.717 5.458-15.45 11.683-15.45 6.468 0 11.712 7.459 11.712 16.66 0 2.162-.29 4.228-.816 6.123-1.716 6.17-5.948 10.535-10.896 10.535v12.386c11.277 0 20.421-13.004 20.421-29.044 0-16.041-9.144-29.045-20.42-29.045-10.388 0-18.939 10.774-20.23 25.048l8.546 2.788z" transform="translate(-800 -2716) translate(0 2515) translate(801 202) translate(0 .147)"/>
                        <g>
                            <path fill="#FFF" d="M0.105 15.446L9.579 22.766 22.835 0.853" transform="translate(-800 -2716) translate(0 2515) translate(801 202) translate(0 .147) translate(414 614)"/>
                            <path stroke="#002855" stroke-width="4" d="M0.105 15.446L9.579 22.766 22.835 0.853" transform="translate(-800 -2716) translate(0 2515) translate(801 202) translate(0 .147) translate(414 614)"/>
                        </g>
                        <g>
                            <path fill="#FFF" d="M0.87 12.646L8.735 18.538 19.811 0.811" transform="translate(-800 -2716) translate(0 2515) translate(801 202) translate(0 .147) translate(460 621)"/>
                            <path stroke="#002855" stroke-width="4" d="M0.87 12.646L8.735 18.538 19.811 0.811" transform="translate(-800 -2716) translate(0 2515) translate(801 202) translate(0 .147) translate(460 621)"/>
                        </g>
                        <g>
                            <path fill="#FFF" d="M0.364 16.365L10.881 24.491 25.596 0.166" transform="translate(-800 -2716) translate(0 2515) translate(801 202) translate(0 .147) translate(366 610)"/>
                            <path stroke="#002855" stroke-width="4" d="M0.364 16.365L10.881 24.491 25.596 0.166" transform="translate(-800 -2716) translate(0 2515) translate(801 202) translate(0 .147) translate(366 610)"/>
                        </g>
                        <g>
                            <path fill="#FFF" d="M-0.004 19.203L12.148 28.595 29.153 0.484" transform="translate(-800 -2716) translate(0 2515) translate(801 202) translate(0 .147) translate(316 604)"/>
                            <path stroke="#002855" stroke-width="4" d="M-0.004 19.203L12.148 28.595 29.153 0.484" transform="translate(-800 -2716) translate(0 2515) translate(801 202) translate(0 .147) translate(316 604)"/>
                        </g>
                        <g>
                            <path fill="#FFF" d="M0.684 22.062L13.017 33.477 29.562 0.228" transform="translate(-800 -2716) translate(0 2515) translate(801 202) translate(0 .147) translate(271 598)"/>
                            <path stroke="#002855" stroke-width="4" d="M0.684 22.062L13.017 33.477 29.562 0.228" transform="translate(-800 -2716) translate(0 2515) translate(801 202) translate(0 .147) translate(271 598)"/>
                        </g>
                        <path stroke="#002855" d="M236.4 190.645L154.692 200.678M239.387 203.621L194.678 209.112M583.707 179.477L428.012 198.594M587.938 192.301L502.743 202.761M89.055 398.232L7.347 408.264M92.042 411.208L47.333 416.697" transform="translate(-800 -2716) translate(0 2515) translate(801 202) translate(0 .147)"/>
                        <path fill="#002855" d="M250.728 361.383s6.561 24.623 28.528 41.477c23.52 18.044 27.978 22.283 112.277 48.222 27.018 37.011 141.61 76.602 141.61 76.602s10.504-22.992 18.737-22.992c8.233 0-127.562-86.053-127.562-86.053l-74.859-38.863-98.731-18.393z" transform="translate(-800 -2716) translate(0 2515) translate(801 202) translate(0 .147)"/>
                        <path fill="#FFF" d="M532.282 489.52c-.658-.522-.638-1.557.087-1.982 8.036-4.723 19.395 3.418 27.637-7.321 8.731-11.376 9.106-15.323 14.974-18.562 5.477-3.024 7.93 19.52 8.233 22.54.023.224-.019.438-.119.64l-26.727 54.323c-.085.173-.202.317-.357.43-1.27.938-7.46 5.39-9.257 4.633-2.007-.845-4.589-2.258-4.72-4.887-.13-2.628-23.038-12.891-20.62-17.05 2.417-4.158 11.983-1.257 16.611-8.43 4.595-7.12 4.511-16.18-5.742-24.333" transform="translate(-800 -2716) translate(0 2515) translate(801 202) translate(0 .147)"/>
                        <path stroke="#002855" d="M532.282 489.52c-.658-.522-.638-1.557.087-1.982 8.036-4.723 19.395 3.418 27.637-7.321 8.731-11.376 9.106-15.323 14.974-18.562 5.477-3.024 7.93 19.52 8.233 22.54.023.224-.019.438-.119.64l-26.727 54.323c-.085.173-.202.317-.357.43-1.27.938-7.46 5.39-9.257 4.633-2.007-.845-4.589-2.258-4.72-4.887-.13-2.628-23.038-12.891-20.62-17.05 2.417-4.158 11.983-1.257 16.611-8.43 4.595-7.12 4.511-16.18-5.742-24.333z" transform="translate(-800 -2716) translate(0 2515) translate(801 202) translate(0 .147)"/>
                        <path fill="#002855" d="M554.19 516.327c2.225-2.298 6.512-4.17 8.265-4.4l19.11-38.845 1.68 11.445-27.006 54.892s-9.882 8.787-13.956 1.106l11.907-24.198z" transform="translate(-800 -2716) translate(0 2515) translate(801 202) translate(0 .147)"/>
                        <g>
                            <path fill="#FFF" d="M256.975 136.032c15.09 0 47.418-.606 47.418-.606l-50.162-34.464-32.528 9.005-33.243 46.809-102.538-18.392 41.163-61.756 11.574-33.95L85.922 30.12s-59.897 2.865-73.894 5.289C-1.97 37.834-1.242 13.353 2.273 12.982 6.395 12.547 84.71.859 84.71.859s40.003-2.425 61.523 6.667c21.52 9.092 50.01 61.948 50.01 61.948s35.735-14.44 48.175-11.522c12.44 2.916 104.577 55.319 116.7 105.493-46.353 0-104.144-9.835-104.144-9.835" transform="translate(-800 -2716) translate(0 2515) translate(801 202) translate(0 .147) translate(161 223)"/>
                            <path stroke="#002855" d="M256.975 136.032c15.09 0 47.418-.606 47.418-.606l-50.162-34.464-32.528 9.005-33.243 46.809-102.538-18.392 41.163-61.756 11.574-33.95L85.922 30.12s-59.897 2.865-73.894 5.289C-1.97 37.834-1.242 13.353 2.273 12.982 6.395 12.547 84.71.859 84.71.859s40.003-2.425 61.523 6.667c21.52 9.092 50.01 61.948 50.01 61.948s35.735-14.44 48.175-11.522c12.44 2.916 104.577 55.319 116.7 105.493-46.353 0-104.144-9.835-104.144-9.835" transform="translate(-800 -2716) translate(0 2515) translate(801 202) translate(0 .147) translate(161 223)"/>
                        </g>
                        <path stroke="#002855" d="M417.975 376.61s-7.765-14.548 0-17.578" transform="translate(-800 -2716) translate(0 2515) translate(801 202) translate(0 .147)"/>
                        <path fill="#FFF" d="M386.093 254.533L371.005 287.449 357.243 292.474 339.985 264.44 348.809 247.025 384.626 249.383z" transform="translate(-800 -2716) translate(0 2515) translate(801 202) translate(0 .147)"/>
                        <path stroke="#002855" d="M386.093 254.533L371.005 287.449 357.243 292.474 339.985 264.44 348.809 247.025 384.626 249.383z" transform="translate(-800 -2716) translate(0 2515) translate(801 202) translate(0 .147)"/>
                        <path fill="#FFF" d="M375.688 328.454L375.688 383.969 261.599 363.409 261.599 329.769z" transform="translate(-800 -2716) translate(0 2515) translate(801 202) translate(0 .147)"/>
                        <path stroke="#002855" stroke-width="2" d="M375.688 328.454L375.688 383.969 261.599 363.409 261.599 329.769z" transform="translate(-800 -2716) translate(0 2515) translate(801 202) translate(0 .147)"/>
                        <path fill="#002855" d="M373.207 245.997l-1.72-9.409c-.437-2.388-1.73-4.51-3.675-5.934-.798-.592-1.58-1.003-2.343-1.216-.84-.234-1.502-.192-1.988.126-.81.53-.983 1.664-.98 1.682 0 0-.33 5.917 1.744 9.533 1.41 2.466 6.137 4.338 8.962 5.218m31.33 7.15l-.784-4.28-5.452 1.097c-.373.038-.748.17-.853.282.002.018.036.103.139.266.5.76 3.747 1.867 6.95 2.634m3.913-15.568c.238-.58-1.238-2.5-3.09-4.017l-3.447-.516c-1.899-.277-3.439-1.764-3.809-3.689-.083-.46-.185-.916-.272-1.393l-1.765.355c-1.714.345-1.65 1.781-1.618 2.05l-1.767.246c-.142-1.164.317-3.512 3.061-4.064l1.748-.352c-.8-4.075-1.604-8.479-1.911-10.856-.361-2.769-3.683-5.273-5.53-6.459l2.175 11.902c.224.524.273 1.595-1.113 3.525-1.618 2.251-3.882 3.147-3.966 3.183l-9.21 1.855c-.507.194-1.915.918-2.208 1.691-.045.156-.094.386.118.747.88 1.546 3.707 1.747 4.712 1.691l.808-.034 1.322 9.91c.23 1.751.91 3.393 1.96 4.777 2.046 2.668 3.925 4.123 5.026 3.902l.036-.007c.675-.173.815-.696.965-2.45.16-1.903.392-4.792 3.841-5.65 3.602-.91 6.576-1.49 8.012-1.762l-.297-1.627.812-.219c2.313-.63 5.041-1.859 5.406-2.739m-14.154-36.298c5.952 5 16.469 18.724 16.704 21.207.171 1.927-2.877 7.75-4.115 9.997 1.442 1.25 4.012 3.813 3.196 5.792-.746 1.764-4.106 3.01-5.803 3.535l3.257 17.827c.452 1.78.293 5.663-3.608 7.127-.185.074-.409.137-.654.186-5.243 1.056-22.267-3.07-24.26-3.566l-.553-.146-.914-5.005c-7.084.601-33.137 2.493-35.817-2.358l-.105-.273-6.099-33.373c-.024-.233-1.305-15.67 11.695-18.29 12.233-2.464 31.939-5.68 32.149-5.723.255-.088 8.594-2.245 14.928 3.063" transform="translate(-800 -2716) translate(0 2515) translate(801 202) translate(0 .147)"/>
                        <g>
                            <path fill="#FFF" d="M75.975 15.032l-23.77-2.185S42.354 2.036 37.799.754c-4.556-1.284-26.204 0-26.204 0s-6.652.063-6.187 2.44c.465 2.377 17.32 1.099 17.32 1.099S.642 5.92.642 8.36c0 2.442 20.397 1.744 20.397 1.744s-17.84.233-17.84 3.72 16.972 1.207 16.972 1.207-13.136 1.35-13.136 3.442c0 1.513 12.41 3.056 18.809 4.687 2.697.688 5.442 1.126 8.218 1.32 5.754.402 14.992 2.678 17.612 2.596 3.719-.116 24.3 5.533 24.3 5.533" transform="translate(-800 -2716) translate(0 2515) translate(801 202) translate(0 .147) translate(342 344)"/>
                            <path stroke="#002855" d="M75.975 15.032l-23.77-2.185S42.354 2.036 37.799.754c-4.556-1.284-26.204 0-26.204 0s-6.652.063-6.187 2.44c.465 2.377 17.32 1.099 17.32 1.099S.642 5.92.642 8.36c0 2.442 20.397 1.744 20.397 1.744s-17.84.233-17.84 3.72 16.972 1.207 16.972 1.207-13.136 1.35-13.136 3.442c0 1.513 12.41 3.056 18.809 4.687 2.697.688 5.442 1.126 8.218 1.32 5.754.402 14.992 2.678 17.612 2.596 3.719-.116 24.3 5.533 24.3 5.533" transform="translate(-800 -2716) translate(0 2515) translate(801 202) translate(0 .147) translate(342 344)"/>
                        </g>
                        <path stroke="#002855" d="M417.975 376.61s-7.765-14.548 0-17.578" transform="translate(-800 -2716) translate(0 2515) translate(801 202) translate(0 .147)"/>
                        <g>
                            <path fill="#FFF" d="M96.273.981L50.395 9.095s-29.407 6.162-30.966 6.694C17.38 16.487-1.3 23.903.557 27.362c1.899 3.536 16.035-4.183 16.035-4.183S-.364 31.702 1.074 34.4c1.139 2.134 19.039-4.96 19.039-4.96S.26 35.927 2.2 39.263c1.644 2.828 20.009-5.297 20.009-5.297S5.909 39.24 8.545 42.836c2.638 3.596 19.658-5.993 19.658-5.993S39.71 31.57 43.306 31.81c3.595.24 4.794 2.636 1.198 4.554-3.596 1.918-1.438 5.035.24 5.035s21.056-15.41 25.65-16.78c3.679-1.098 35.633-1.209 35.633-1.209" transform="translate(-800 -2716) translate(0 2515) translate(801 202) translate(0 .147) translate(67 235)"/>
                            <path stroke="#002855" d="M96.273.981L50.395 9.095s-29.407 6.162-30.966 6.694C17.38 16.487-1.3 23.903.557 27.362c1.899 3.536 16.035-4.183 16.035-4.183S-.364 31.702 1.074 34.4c1.139 2.134 19.039-4.96 19.039-4.96S.26 35.927 2.2 39.263c1.644 2.828 20.009-5.297 20.009-5.297S5.909 39.24 8.545 42.836c2.638 3.596 19.658-5.993 19.658-5.993S39.71 31.57 43.306 31.81c3.595.24 4.794 2.636 1.198 4.554-3.596 1.918-1.438 5.035.24 5.035s21.056-15.41 25.65-16.78c3.679-1.098 35.633-1.209 35.633-1.209" transform="translate(-800 -2716) translate(0 2515) translate(801 202) translate(0 .147) translate(67 235)"/>
                        </g>
                        <g>
                            <path fill="#FFF" d="M12.027 23.41C-1.97 25.833-1.242 1.351 2.273.98" transform="translate(-800 -2716) translate(0 2515) translate(801 202) translate(0 .147) translate(161 235)"/>
                            <path stroke="#002855" d="M12.027 23.41C-1.97 25.833-1.242 1.351 2.273.98" transform="translate(-800 -2716) translate(0 2515) translate(801 202) translate(0 .147) translate(161 235)"/>
                        </g>
                        <path fill="#002855" d="M271.504 352.801c1.444.117 2.74-.833 3.171-3.866.433-3.052-.725-4.088-2.192-4.094l-1.303.02-1.096 7.826 1.42.114zm-2.73-12.79l4.556-.222c2.776-.12 5.722 3.057 4.807 9.292-.904 6.164-3.823 9.104-7.05 8.688l-4.673-.603 2.36-17.156zM289.53 349.595c.444-2.75-.7-4.89-2.62-4.896-1.84-.004-3.497 2.012-3.902 4.618-.402 2.592.625 4.694 2.427 4.843 1.88.156 3.652-1.828 4.094-4.565m-10.325-.44c.821-5.467 4.202-10.056 8.622-10.256 4.16-.188 7.273 4.698 6.255 10.89-1.006 6.12-4.687 10.642-9.496 10.01-3.733-.49-6.193-5.235-5.38-10.645M297.921 338.76L303.353 338.528 308.035 351.906 310.374 338.227 316.623 337.959 312.088 363.054 305.91 362.258 301.36 348.652 299.264 361.402 294.323 360.764zM320.506 337.792L340.569 336.933 339.044 344.424 326.363 344.42 325.745 347.759 338.038 348.021 336.598 355.144 324.484 354.373 323.838 357.725 336.152 358.774 334.686 365.967 315.764 363.528z" transform="translate(-800 -2716) translate(0 2515) translate(801 202) translate(0 .147)"/>
                        <path fill="#FFF" d="M360.419 0.573L364.909 37.183 137.859 65.063 133.359 28.453z" transform="translate(-800 -2716) translate(0 2515) translate(801 202) translate(0 .147)"/>
                        <path stroke="#002855" stroke-width="2" d="M133.359 28.453L360.419 0.573 364.909 37.183 137.859 65.063z" transform="translate(-800 -2716) translate(0 2515) translate(801 202) translate(0 .147)"/>
                        <path fill="#002855" d="M150.687 37.936L152.968 37.656 155.78 48.601 159.629 36.838 161.645 36.591 164.964 47.452 168.389 35.763 170.874 35.457 166.147 50.512 163.906 50.787 160.666 40.226 156.837 51.655 154.495 51.943zM183.442 41.152c.098-2.907-1.972-4.948-4.803-4.6-2.812.345-5.06 2.916-5.158 5.823-.098 2.907 1.972 4.948 4.784 4.603 2.83-.347 5.079-2.92 5.177-5.826m-12.222 1.5c.154-4.133 3.235-7.84 7.513-8.365 3.91-.481 7.125 2.454 6.97 6.587-.154 4.134-3.113 7.826-7.492 8.364-3.932.483-7.145-2.452-6.991-6.586M193.565 34.678l-3.28.403-.166 5.045 3.258-.4c1.57-.193 2.671-1.321 2.733-2.838.041-1.515-.998-2.4-2.546-2.21m1.75 6.505l2.958 5.386-2.424.297-2.619-5.158-3.178.39-.194 5.503-2.24.276.49-14.534 5.643-.693c2.484-.305 4.714 1.013 4.599 3.943-.063 2.178-1.25 3.792-3.034 4.59M200.879 31.774L203.14 31.496 202.926 37.664 205.37 37.363 210.004 30.653 212.938 30.293 207.352 38.175 212.53 44.817 209.943 45.135 205.511 39.518 202.863 39.843 202.651 46.031 200.389 46.308zM220.109 29.413L222.37 29.136 221.881 43.669 219.62 43.947zM225.283 28.777L227.666 28.485 234.703 38.642 235.06 27.576 237.322 27.299 236.832 41.833 234.429 42.129 227.414 31.989 227.054 43.034 224.793 43.312zM250.919 32.95c1.609-.198 2.722-1.41 2.77-3.028.073-1.601-.974-2.548-2.583-2.351l-3.178.39-.167 5.376 3.158-.387zm-5.164-6.686l5.54-.68c2.507-.308 4.668 1.122 4.575 4.07-.11 2.99-2.147 4.916-4.877 5.25l-3.3.406-.187 5.213-2.24.276.489-14.535zM263.578 26.081l-3.28.402-.165 5.046 3.258-.4c1.569-.193 2.672-1.32 2.733-2.838.04-1.515-.998-2.4-2.546-2.21m1.75 6.505l2.957 5.385-2.424.298-2.618-5.158-3.178.39-.194 5.503-2.24.275.489-14.534 5.644-.693c2.484-.305 4.714 1.014 4.598 3.944-.063 2.178-1.25 3.792-3.034 4.59M282.299 29.014c.098-2.907-1.972-4.948-4.804-4.6-2.81.345-5.06 2.915-5.157 5.822-.098 2.908 1.973 4.948 4.784 4.604 2.83-.348 5.079-2.92 5.177-5.827m-12.222 1.5c.155-4.133 3.235-7.84 7.513-8.365 3.91-.48 7.125 2.454 6.97 6.587-.154 4.135-3.112 7.827-7.492 8.364-3.931.484-7.144-2.451-6.991-6.585M300.445 26.52l-.027.954-.069 2.469c-1.028 2.918-3.427 4.764-6.89 5.188-4.054.498-7.165-2.45-7.01-6.583.153-4.133 3.254-7.843 7.532-8.368 2.851-.35 5.096.925 6.214 3.124l-2.05 1.327c-.767-1.54-2.242-2.433-4.259-2.186-2.81.345-5.036 2.934-5.137 5.82-.1 2.887 1.97 4.928 4.781 4.583 2.16-.265 3.705-1.323 4.503-3.241l.012-.58-3.545.435.017-2.214 5.928-.728zM308.107 20.614l-3.28.403-.165 5.045 3.259-.4c1.568-.193 2.67-1.321 2.732-2.838.04-1.515-.997-2.4-2.546-2.21m1.75 6.505l2.957 5.386-2.424.297-2.618-5.158-3.178.39-.193 5.503-2.241.276.49-14.535 5.643-.693c2.485-.305 4.714 1.014 4.598 3.944-.063 2.178-1.25 3.792-3.034 4.59M315.422 17.71L325.159 16.514 325.099 18.548 317.623 19.466 317.479 23.682 324.792 22.784 324.726 24.777 317.414 25.674 317.275 29.93 324.73 29.015 324.67 31.048 314.933 32.244zM326.235 27.3l2.186-.889c.41 1.48 1.77 2.12 3.4 1.92 1.628-.2 2.834-1.156 2.864-2.44.05-1.62-1.764-1.728-3.575-2.003-1.983-.314-4.44-.963-4.348-3.746.084-2.346 2.237-4.347 5.13-4.702 2.526-.31 4.277.818 4.878 3.02l-2.046.85c-.435-1.353-1.345-2.027-2.893-1.837-1.65.202-2.71 1.325-2.76 2.448-.062 1.517 1.625 1.785 3.29 2.036 2.234.346 4.75.782 4.645 3.648-.092 2.616-2.247 4.431-5.282 4.804-2.587.318-4.85-.769-5.489-3.109M338.254 25.824l2.186-.889c.41 1.48 1.77 2.12 3.4 1.92 1.63-.2 2.834-1.156 2.864-2.44.05-1.619-1.764-1.728-3.575-2.002-1.982-.315-4.44-.964-4.348-3.746.084-2.347 2.237-4.348 5.13-4.703 2.526-.31 4.277.818 4.878 3.02l-2.046.85c-.435-1.353-1.345-2.027-2.893-1.837-1.65.203-2.71 1.326-2.76 2.448-.062 1.517 1.625 1.786 3.29 2.036 2.234.346 4.75.782 4.645 3.648-.092 2.617-2.247 4.432-5.282 4.804-2.587.318-4.85-.769-5.489-3.109" transform="translate(-800 -2716) translate(0 2515) translate(801 202) translate(0 .147)"/>
                        <path fill="#FFF" d="M95.699 155.774L100.192 192.383 5.473 204.015 0.976 167.405z" transform="translate(-800 -2716) translate(0 2515) translate(801 202) translate(0 .147)"/>
                        <path stroke="#002855" stroke-width="2" d="M0.977 167.405L95.7 155.774 100.192 192.384 5.474 204.015z" transform="translate(-800 -2716) translate(0 2515) translate(801 202) translate(0 .147)"/>
                        <path fill="#002855" d="M24.068 178.3L19.24 178.893 19.323 176.877 31.179 175.421 31.095 177.437 26.309 178.025 25.881 190.546 23.641 190.821zM43.787 181.11c.1-2.908-1.972-4.949-4.803-4.6-2.81.344-5.059 2.915-5.157 5.822-.099 2.907 1.972 4.948 4.783 4.603 2.831-.347 5.08-2.919 5.177-5.826m-12.222 1.5c.155-4.132 3.235-7.84 7.513-8.365 3.911-.48 7.125 2.454 6.971 6.587-.154 4.134-3.113 7.826-7.492 8.364-3.932.483-7.145-2.452-6.992-6.586M58.938 184.253c2.75-.337 4.887-2.296 5.014-5.64.106-3.342-2.011-4.757-4.741-4.422l-2.971.385-.338 10.05 3.036-.373zm-4.883-11.642l5.314-.673c3.545-.435 6.974 1.73 6.824 6.4-.171 4.673-3.176 7.647-7.128 8.133l-5.5.675.49-14.535zM79.965 176.667c.098-2.907-1.972-4.948-4.804-4.6-2.81.345-5.059 2.916-5.157 5.823-.098 2.907 1.973 4.948 4.784 4.603 2.831-.347 5.08-2.919 5.177-5.826m-12.222 1.5c.155-4.133 3.235-7.84 7.513-8.365 3.911-.48 7.125 2.454 6.97 6.587-.154 4.134-3.112 7.826-7.492 8.364-3.93.483-7.144-2.452-6.99-6.586" transform="translate(-800 -2716) translate(0 2515) translate(801 202) translate(0 .147)"/>
                        <path fill="#FFF" d="M619.259 56.176L623.749 92.786 396.699 120.666 392.199 84.056z" transform="translate(-800 -2716) translate(0 2515) translate(801 202) translate(0 .147)"/>
                        <path stroke="#002855" d="M392.199 84.055L619.259 56.175 623.749 92.785 396.699 120.665z" transform="translate(-800 -2716) translate(0 2515) translate(801 202) translate(0 .147)"/>
                        <path fill="#002855" d="M613.878 247.021L621.664 310.417 495.196 319.805 488.896 268.513z" transform="translate(-800 -2716) translate(0 2515) translate(801 202) translate(0 .147)"/>
                        <path stroke="#002855" d="M488.896 268.514L613.878 247.022 621.664 310.418 495.197 319.805z" transform="translate(-800 -2716) translate(0 2515) translate(801 202) translate(0 .147)"/>
                    </g>
                </g>
            </g>
        </g>
    </g>
</svg>
