<svg xmlns="http://www.w3.org/2000/svg" width="684" height="469" viewBox="0 0 684 469">
    <g fill="none" fill-rule="evenodd">
        <g>
            <g>
                <g>
                    <path stroke="#002855" stroke-width="3" d="M0 358.5L684 358.5" transform="translate(-756 -8642) translate(0 8440) translate(756 202)"/>
                    <path fill="#FFF" fill-rule="nonzero" stroke="#002855" d="M.5 468v-21.24c0-78.38 23.33-86.55 61.91-109.27 7.23-4.26 13.67-6.99 18.28-6.99h103.43c.82 0 1.62.17 2.38.5 12.91 5.54 60.98 13.67 75.94 48.45 18.63 43.32 14.47 88.61 14.47 88.61" transform="translate(-756 -8642) translate(0 8440) translate(756 202)"/>
                    <g fill-rule="nonzero" stroke="#002855">
                        <path fill="#FFF" d="M118.03 155.39s14.83 8.9 14.83-27.73c0-45.81-16.15-45.25-7.41-46.16 7.86-.82 4.19-14 4.19-14s-40.66-20.74-38.58-6.66c2.09 14.08 26.97 94.55 26.97 94.55z" transform="translate(-756 -8642) translate(0 8440) translate(756 202) translate(65 157)"/>
                        <path fill="#002855" d="M.5 177.73l118 19.92-2.08-130.15h17.08V35.63s-4.36-31.87-28.16-33.87c-23.8-2-74.06 0-74.06 0S.51 5.08.51 34.96C.51 64.84.5 177.73.5 177.73z" transform="translate(-756 -8642) translate(0 8440) translate(756 202) translate(65 157)"/>
                    </g>
                    <g>
                        <path fill="#002855" fill-rule="nonzero" d="M0 19H386V303H0z" transform="translate(-756 -8642) translate(0 8440) translate(756 202) translate(251)"/>
                        <path fill="#FFF" fill-rule="nonzero" stroke="#002855" d="M10.5 30.5H376.5V262.5H10.5zM134.5 303.5H251.5V377.5H134.5z" transform="translate(-756 -8642) translate(0 8440) translate(756 202) translate(251)"/>
                        <path fill="#002855" fill-rule="nonzero" stroke="#002855" d="M134.5 368.5H251.5V377.5H134.5z" transform="translate(-756 -8642) translate(0 8440) translate(756 202) translate(251)"/>
                        <path fill="#002855" fill-rule="nonzero" d="M163 0H221V26H163z" transform="translate(-756 -8642) translate(0 8440) translate(756 202) translate(251)"/>
                        <g fill-rule="nonzero" stroke="#002855" transform="translate(-756 -8642) translate(0 8440) translate(756 202) translate(251) translate(180 1)">
                            <circle cx="12" cy="12" r="11.5" fill="#FFF"/>
                            <circle cx="12" cy="12" r="5.5" fill="#002855"/>
                        </g>
                        <g stroke="#002855">
                            <path d="M172.5 214L172.5 0M0 107.5L345 107.5" transform="translate(-756 -8642) translate(0 8440) translate(756 202) translate(251) translate(21 39)"/>
                        </g>
                        <path fill="#FFF" fill-rule="nonzero" d="M204.31 281.25L201.44 280.43 199.92 284.65 191.25 288.83 191.96 290.14 184.71 294.51 187.98 282.85 186.58 280.28 186.77 279.56 185.94 278.2 179.32 270.09 181.17 270.34 179.87 268.22 189.14 270.87 194.06 280.11 200 277.15 202.33 277.92z" transform="translate(-756 -8642) translate(0 8440) translate(756 202) translate(251)"/>
                    </g>
                    <g fill-rule="nonzero">
                        <g fill="#002855">
                            <path d="M0.5 66.5L0.5 3.16 216.5 0.51 216.5 66.5z" transform="translate(-756 -8642) translate(0 8440) translate(756 202) translate(20 402)"/>
                            <path d="M216 1.01V66H1V3.66l215-2.65M217 0L0 2.67V67h217V0z" transform="translate(-756 -8642) translate(0 8440) translate(756 202) translate(20 402)"/>
                        </g>
                        <path fill="#FFF" stroke="#002855" d="M2.5 6.97L2.5 66.5 203.5 66.5 203.5 4.5z" transform="translate(-756 -8642) translate(0 8440) translate(756 202) translate(20 402)"/>
                        <g>
                            <path fill="#FFF" d="M0.5 0.5H30.5V30.5H0.5z" transform="translate(-756 -8642) translate(0 8440) translate(756 202) translate(20 402) translate(85 36)"/>
                            <path fill="#002855" d="M30 1v29H1V1h29m1-1H0v31h31V0z" transform="translate(-756 -8642) translate(0 8440) translate(756 202) translate(20 402) translate(85 36)"/>
                        </g>
                        <g>
                            <path fill="#FFF" d="M0.5 0.5H30.5V30.5H0.5z" transform="translate(-756 -8642) translate(0 8440) translate(756 202) translate(20 402) translate(78 36)"/>
                            <path fill="#002855" d="M30 1v29H1V1h29m1-1H0v31h31V0z" transform="translate(-756 -8642) translate(0 8440) translate(756 202) translate(20 402) translate(78 36)"/>
                        </g>
                    </g>
                    <g fill-rule="nonzero" stroke="#002855">
                        <path fill="#FFF" d="M118.03 155.39s14.83 8.9 14.83-27.73c0-45.81-16.15-45.25-7.41-46.16 7.86-.82 4.19-14 4.19-14s-40.66-20.74-38.58-6.66c2.09 14.08 26.97 94.55 26.97 94.55z" transform="translate(-756 -8642) translate(0 8440) translate(756 202) translate(65 157)"/>
                        <path fill="#002855" d="M.5 177.73l118 19.92-2.08-130.15h17.08V35.63s-4.36-31.87-28.16-33.87c-23.8-2-74.06 0-74.06 0S.51 5.08.51 34.96C.51 64.84.5 177.73.5 177.73z" transform="translate(-756 -8642) translate(0 8440) translate(756 202) translate(65 157)"/>
                    </g>
                    <g transform="translate(-756 -8642) translate(0 8440) translate(756 202) translate(489 60)">
                        <path fill="#FFF" fill-rule="nonzero" stroke="#002855" d="M51.19 36.99L50.85 48.31 43.08 59.17 33.79 48.88 34.17 36.43z"/>
                        <path fill="#FFF" fill-rule="nonzero" stroke="#002855" d="M.03 86.4s.86-20.15 4.28-22.87c2.77-2.21 19.31-13.56 28.05-19.55 4.32 5.98 7.04 9.66 8.01 10.96.22.29.63.33.89.09l12.35-11.06s23.03 14.72 25.91 18.21c2.88 3.49 4.17 24.21 4.17 24.21H.03v.01z"/>
                        <path stroke="#002855" d="M29.59 45.88c1.98 2.74 8.83 11.83 10.47 14.38.21.33.66.38.94.11l15.08-14.72"/>
                        <path fill="#002855" fill-rule="nonzero" stroke="#002855" d="M24.99 28.23l6.35 4.61s6.28 10.42 10.52 7.32c4.24-3.1 14.16-.46 15.9-2.43 1.75-1.97 4.9-23.98 2.27-29.81C57.41 2.09 44.52 1.55 43.01.3 41.5-.95 27.44 5.67 26.21 16.95c-1.23 11.28-1.22 11.28-1.22 11.28z"/>
                        <ellipse cx="42.74" cy="26.53" fill="#FFF" fill-rule="nonzero" stroke="#002855" rx="10.64" ry="14.67"/>
                        <g fill="#002855" fill-rule="nonzero">
                            <path d="M12.2 14.4c-1.95 0-8.26-.92-11.15-12.28C3.11 4.5 6.44 8.08 7.91 8.08c.1 0 .19-.01.28-.04.67-.19 1.1-.52 1.52-.85.67-.52 1.3-1 3.03-1 1.73 0 2.36.49 3.03 1 .42.32.85.66 1.52.85.09.02.18.04.28.04 1.47 0 4.76-3.56 6.8-5.94-2.89 11.34-9.16 12.26-11.1 12.26 0 0-.43-.01-.53-.01-.1 0-.54.01-.54.01z" transform="translate(30 28)"/>
                            <path d="M2.15 4.12c2.11 2.3 4.45 4.46 5.76 4.46.14 0 .28-.02.41-.06.76-.21 1.26-.6 1.69-.93.62-.48 1.16-.9 2.72-.9 1.56 0 2.1.42 2.73.9.44.34.93.72 1.69.93.13.04.27.06.41.06 1.3 0 3.61-2.14 5.69-4.43-2.98 8.97-8.27 9.74-9.99 9.74h-.2c-.11 0-.22-.01-.33-.01-.11 0-.22 0-.33.01h-.21c-1.72.01-7.05-.76-10.04-9.77M25.31.23s-5.97 7.35-7.75 7.35c-.05 0-.1-.01-.14-.02-1.57-.44-1.69-1.87-4.69-1.87-3 0-3.12 1.43-4.69 1.87-.04.01-.09.02-.14.02C6.12 7.58.1.23.1.23 2.81 13.92 10.14 14.9 12.19 14.9c.09 0 .18 0 .25-.01.1 0 .19-.01.29-.01.1 0 .19 0 .29.01.07 0 .15.01.24.01 2.05 0 9.34-.98 12.05-14.67z" transform="translate(30 28)"/>
                        </g>
                        <path fill="#FFF" fill-rule="nonzero" d="M42.74 40.18c-2.89-.04-3.36-3.69-2.51-3.14.84.54 2.51.63 2.51.63s1.68-.09 2.52-.63c.83-.54.36 3.1-2.52 3.14z"/>
                        <path fill="#002855" fill-rule="nonzero" stroke="#002855" d="M42.52 2.62s-2.05 6.45 1.09 9.85c3.14 3.4 14.33 15.04 15.03 12.89.7-2.15 3.85-16.47 0-18.62-3.85-2.15-16.12-4.12-16.12-4.12z"/>
                        <path stroke="#002855" d="M55.68 22.19h-9.92c-.36 0-.72.21-.91.59-.08.15-.13.33-.13.54 0 0 .16 4.46.16 5.8 0 .19.05.44-.09.56-1.19 1.07-2.93-.42-2.93-.42"/>
                        <path fill="#FFF" fill-rule="nonzero" d="M33.67 20.11s-2.75-5.06-2.78-2.31c-.03 2.74-.68 6.54.48 7.4 1.16.86 1.68 2.73 1.68 2.73l.62-7.82z"/>
                        <path fill="#002855" fill-rule="nonzero" stroke="#002855" d="M34.54 19.03c.03-.28.13-1.61.01-1.86-.5-1-1.74-.98-1.77-.7-.03.32.1 1.8.89 3.28.59 1.09.8-.05.87-.72z"/>
                    </g>
                    <g transform="translate(-756 -8642) translate(0 8440) translate(756 202) translate(315 158)">
                        <path fill="#FFF" fill-rule="nonzero" stroke="#002855" d="M51.65 36.84L51.31 48.17 43.54 59.02 34.25 48.73 34.62 36.29z"/>
                        <path fill="#002855" fill-rule="nonzero" stroke="#002855" d="M33.52 27.79l6.79 4.16s-2.23 11.17 2.01 8.07c4.24-3.1 14.16-.46 15.9-2.43 1.75-1.97 4.9-23.98 2.27-29.81C57.87 1.95 44.98 1.41 43.47.16c-1.51-1.25-15.57 5.37-16.8 16.65-1.23 11.28 6.85 10.98 6.85 10.98z"/>
                        <ellipse cx="43.2" cy="26.38" fill="#FFF" fill-rule="nonzero" stroke="#002855" rx="10.64" ry="14.67"/>
                        <path fill="#002855" fill-rule="nonzero" stroke="#002855" d="M40.56 3.59s-2.05 6.45 1.09 9.85c3.14 3.4 14.33 15.04 15.03 12.89.7-2.15 3.85-16.47 0-18.62-3.85-2.15-16.12-4.12-16.12-4.12z"/>
                        <path stroke="#002855" d="M56.14 22.05h-9.92c-.36 0-.72.21-.91.59-.08.15-.13.33-.13.54 0 0 .16 4.46.16 5.8 0 .19.05.44-.09.56-1.19 1.07-2.93-.42-2.93-.42"/>
                        <path fill="#FFF" fill-rule="nonzero" d="M34.13 19.97s-2.75-5.06-2.78-2.31c-.03 2.74-.68 6.54.48 7.4 1.16.86 1.68 2.73 1.68 2.73l.62-7.82z"/>
                        <path fill="#002855" fill-rule="nonzero" stroke="#002855" d="M35 18.89c.03-.28.13-1.61.01-1.86-.5-1-1.74-.98-1.77-.7-.03.32.1 1.8.89 3.28.59 1.08.8-.05.87-.72z"/>
                        <path fill="#FFF" fill-rule="nonzero" stroke="#002855" d="M84.69 104.62s-1.83-39.4-4.71-42.84c-2.88-3.44-25.91-17.94-25.91-17.94L41.72 54.73c-.27.24-.68.2-.89-.09-.97-1.29-3.68-4.91-8.01-10.8-8.74 5.91-25.28 17.09-28.05 19.27C1.35 65.8.49 104.63.49 104.63h15.57l5.63-30.89-.7 30.89h45.5l-.7-30.89 5.63 30.89h13.27v-.01z"/>
                    </g>
                    <path fill="#002855" fill-rule="nonzero" d="M537.83 159.85c-.01.4-.12.63-.3.74-.39.23-1.12-.03-2-.3-.68-.21-1.45-.42-2.24-.44-2.32-.05-3.91 1.67-3.88-.16.01-.47.13-.91.37-1.31 1.32-.02 2.11-.01 2.53.01 1.32-.24 3.34-.55 4.8-.45.47.55.74 1.21.72 1.91z" transform="translate(-756 -8642) translate(0 8440) translate(756 202)"/>
                    <path fill="#FFF" fill-rule="nonzero" stroke="#002855" d="M537.83 159.85c-.01.4-.12.63-.3.74-.39.23-1.12-.03-2-.3-.68-.21-1.45-.42-2.24-.44-2.32-.05-3.91 1.67-3.88-.16.01-.47.13-.91.37-1.31.67-1.17 2.17-1.97 3.91-1.93 1.43.02 2.69.61 3.43 1.49.46.55.73 1.21.71 1.91z" transform="translate(-756 -8642) translate(0 8440) translate(756 202)"/>
                    <path fill="#002855" fill-rule="nonzero" d="M537.47 160.59c-.46.23-1.33-.03-2.38-.3.77.02 1.57.11 2.38.3z" transform="translate(-756 -8642) translate(0 8440) translate(756 202)"/>
                    <g fill-rule="nonzero">
                        <path fill="#002855" stroke="#002855" d="M36.76 14.56c-.31 1.34-.75 2.67-1 4.02-.47 2.6-.23 5.27.11 7.89.32 2.5.76 5.06 2.07 7.2 1.3 2.11 3.33 3.61 5.14 5.29 1.8 1.68 3.49 3.77 3.68 6.24 2.52-2.27 5.2-4.5 8.41-5.51 1.55-.49 3.18-.67 4.7-1.25 4.16-1.57 6.94-6.25 6.37-10.72-.27-2.1-1.19-4.15-.97-6.26.3-2.84 2.64-5.6 1.57-8.24-.71-1.75-2.61-2.57-4.23-3.51C58.46 7.3 56.86 2.08 52.18.89c-4.19-1.06-9.19.15-12.53 2.91-1 .83-1.91 1.83-2.33 3.07-.56 1.69-.12 3.54-.2 5.32-.04.81-.18 1.59-.36 2.37z" transform="translate(-756 -8642) translate(0 8440) translate(756 202) translate(312 49)"/>
                        <path fill="#FFF" stroke="#002855" d="M54.27 44.71l-6.85 17.62-6.11-19.49 1.56-12.58c1.05 1.26 2.36 2.26 3.88 2.94 1.22.55 2.61.55 3.81-.04 1.17-.57 2.27-1.33 3.24-2.28l.47 13.83z" transform="translate(-756 -8642) translate(0 8440) translate(756 202) translate(312 49)"/>
                        <path fill="#FFF" stroke="#002855" d="M58.29 19.32c0 6.73-3.29 11.68-7.73 13.83-1.2.58-2.6.58-3.81.04-3.75-1.68-6.16-5.27-7.04-9.98-.18.06-.35.1-.54.1-1.18 0-2.14-1.28-2.14-2.87 0-1.58.96-2.87 2.14-2.87.06 0 .12 0 .19.01.39-7.06 4-12.53 9.32-12.53 5.64 0 9.61 6.59 9.61 14.27z" transform="translate(-756 -8642) translate(0 8440) translate(756 202) translate(312 49)"/>
                        <path fill="#FFF" stroke="#002855" d="M54.27 16.31h-3.61c-.31 0-.61.17-.78.5-.07.13-.11.28-.11.46v4.5c0 .16-.03.32-.08.47-.08.22-.22.49-.44.49h-1.12" transform="translate(-756 -8642) translate(0 8440) translate(756 202) translate(312 49)"/>
                        <path fill="#FFF" stroke="#002855" stroke-width="2" d="M45.32 26.2s.95 2.07 2.81 2.07 3.07-2.07 3.07-2.07" transform="translate(-756 -8642) translate(0 8440) translate(756 202) translate(312 49)"/>
                        <path fill="#002855" stroke="#002855" d="M49.92 5.17s-4.61 5.84 3.49 11.14c8.1 5.3.39 14.57.39 14.57s9.8 3.16 9.8 0-5.93-26.17-9.33-25.82c-3.4.35-4.35.11-4.35.11z" transform="translate(-756 -8642) translate(0 8440) translate(756 202) translate(312 49)"/>
                        <g>
                            <g fill="#002855">
                                <path d="M11.96 61.26L9.74 19.71l-6.59 9.78-1.49-17.55 5.89-8.51.02-.04c.05-.08 1.3-2.19 4.63-2.19.21 0 .43.01.66.03 3.72.29 8.77.58 10.5.68l7.95 17.51 7.48-13.25 9.5 1.67c.22.04 5.06.93 6.95 7.17 1.79 5.93 7.81 29.66 9.24 39.94-3.09-2.59-8.55-3.28-10.61-3.46l-1.61-8.36-1.98.19v17.96H11.96v-.02z" transform="translate(-756 -8642) translate(0 8440) translate(756 202) translate(312 49) translate(0 9) translate(16 26)"/>
                                <path d="M12.21 2.19c.19 0 .38.01.58.02 3.36.26 7.8.53 9.91.65l6.88 15.17 1.63 3.59 1.94-3.43 6.16-10.92 8.84 1.55c.04.01 4.41.76 6.14 6.47 1.04 3.45 3.48 12.81 5.59 21.9 1.5 6.47 2.61 11.82 3.26 15.66-2.86-1.51-6.38-2.08-8.43-2.3l-1.47-7.62-3.96.38v16.96H12.91L10.9 22.65l-.32-5.96-3.34 4.95-3.33 4.95-1.22-14.36 5.66-8.17.04-.05.05-.09c.04-.09 1.07-1.73 3.77-1.73m0-2C8.19.19 6.7 2.9 6.7 2.9L.63 11.66 2.39 32.4l6.51-9.65 2.11 39.52h40.26V43.3l1.76 9.12s11.66.49 12.6 6.22c.01.04.04.07.07.07.04 0 .07-.02.07-.07.22-6.5-7.57-37.28-9.58-43.94-2.11-6.97-7.74-7.87-7.74-7.87l-10.2-1.79-6.86 12.16L24.01.93S17.5.57 12.93.21c-.24-.01-.48-.02-.72-.02z" transform="translate(-756 -8642) translate(0 8440) translate(756 202) translate(312 49) translate(0 9) translate(16 26)"/>
                            </g>
                            <path fill="#FFF" stroke="#002855" d="M19.06 88.26h57.33c5.4 0 5.29-3.21 5.29-3.21s-.1-7.26-12.65-6.64c-11.92.22-49.6 8.16-49.97 9.85zM16.07 37.75c.91 6.18 1.8 12.37 2.11 18.66.05 1.03.09 2.09-.29 3.05-.73 1.86-2.94 2.81-4.9 2.52-1.95-.29-3.64-1.58-4.92-3.11-.58-.69-1.11-1.46-1.36-2.34-.18-.65-.2-1.33-.21-2-.26-10.58-.34-21.18-.78-31.75-.11-2.65-1.91-5.03-3.05-7.4-.28-.58-2.82-5.17-2.05-5.7.6-.41 2.09.87 2.98 1.72.15.14.39-.02.31-.21C3 8.97.9 3.46 2.55 4.64c1.57 1.13 2.79 3.9 2.79 3.9S.98-1.04 3.07.38C5.16 1.8 6.91 5.4 6.91 5.4S4.29-1.33 6.56.24c1.09.75 1.76 2.22 2.33 3.38.74 1.5 1.36 3.05 1.93 4.62.23.61.44 1.23.65 1.85.45 1.32.55 2.71 1.25 3.96.15.27.35.55.64.66.32.12.68-.01.97-.2.99-.67 1.79-1.67 2.57-2.57.1-.11 1.35-1.61 1.49-1.4.89 1.31-1.21 6.35-1.76 7.72-.34.85-1.51 2.03-2.15 2.63-.27.25-.41.61-.38.98.42 5.31 1.2 10.59 1.97 15.88z" transform="translate(-756 -8642) translate(0 8440) translate(756 202) translate(312 49) translate(0 9)"/>
                        </g>
                    </g>
                    <g>
                        <g fill-rule="nonzero">
                            <path fill="#002855" d="M36.94 54.68L2.46 49.12s9.58-22.49 13.62-26.84c-1.09-.42-2.17-1.06-3.2-1.91-1.04-.86-1.92-1.85-2.64-2.92-1.3-1.93-3.18-3.4-5.4-4.1C.62 12.04.36 11.42.36 11.42S-.27 2.49 7.5 2.39c.47 0 .9-.01 1.28-.01-.24.4-.36.84-.37 1.31-.03 1.83 1.56.11 3.88.16.79.02 1.56.23 2.24.44.88.27 1.62.53 2 .3.19-.11.29-.34.3-.74.02-.7-.25-1.36-.72-1.91.58.04 1.07.14 1.4.33.55.32 1.02.78 1.39 1.35.51.77 1.21 1.94 1.73 3.1.39.85 2.86 2.53 3.44 2.88 8.38 5.12 12.87 45.08 12.87 45.08z" transform="translate(-756 -8642) translate(0 8440) translate(756 202) translate(454 153) translate(67)"/>
                            <path fill="#002855" d="M16.83 3.85c-.01.4-.12.63-.3.74-.39.23-1.12-.03-2-.3-.68-.21-1.45-.42-2.24-.44-2.32-.05-3.91 1.67-3.88-.16.01-.47.13-.91.37-1.31 1.32-.02 2.11-.01 2.53.01 1.32-.24 3.34-.55 4.8-.45.47.55.74 1.21.72 1.91z" transform="translate(-756 -8642) translate(0 8440) translate(756 202) translate(454 153) translate(67)"/>
                            <path fill="#FFF" stroke="#002855" d="M16.83 3.85c-.01.4-.12.63-.3.74-.39.23-1.12-.03-2-.3-.68-.21-1.45-.42-2.24-.44-2.32-.05-3.91 1.67-3.88-.16.01-.47.13-.91.37-1.31.67-1.17 2.17-1.97 3.91-1.93 1.43.02 2.69.61 3.43 1.49.46.55.73 1.21.71 1.91z" transform="translate(-756 -8642) translate(0 8440) translate(756 202) translate(454 153) translate(67)"/>
                        </g>
                        <path fill="#FFF" fill-rule="nonzero" stroke="#002855" d="M70.83 33.22L68.79 50.12 71.87 60.48 81.09 54.69 80.63 31.59" transform="translate(-756 -8642) translate(0 8440) translate(756 202) translate(454 153)"/>
                        <path fill="#FFF" fill-rule="nonzero" stroke="#002855" d="M87.26 17.48c.83 7.61-5.78 13.89-10.18 17-1.79 1.26-2.79 1.52-4.36.48-3.12-2.08-6.28-8.13-6.83-13.19-.83-7.61 2.83-14.25 8.17-14.83 5.35-.59 12.36 2.93 13.2 10.54z" transform="translate(-756 -8642) translate(0 8440) translate(756 202) translate(454 153)"/>
                        <path fill="#FFF" fill-rule="nonzero" stroke="#002855" d="M79.62 18.73h-3.61c-.31 0-.61.17-.78.5-.07.13-.11.28-.11.46v4.5c0 .16-.03.32-.08.47-.08.22-.22.49-.44.49h-1.12" transform="translate(-756 -8642) translate(0 8440) translate(756 202) translate(454 153)"/>
                        <path fill="#FFF" fill-rule="nonzero" stroke="#002855" stroke-width="2" d="M71.87 28.72s.95 2.07 2.81 2.07 3.07-2.07 3.07-2.07" transform="translate(-756 -8642) translate(0 8440) translate(756 202) translate(454 153)"/>
                        <path fill="#002855" fill-rule="nonzero" d="M83.08 22.27c-1.09-.42-2.17-1.06-3.2-1.91-1.04-.86-1.92-1.85-2.64-2.92-1.3-1.93-3.18-3.4-5.4-4.1-4.22-1.31-4.48-1.93-4.48-1.93s-.63-8.93 7.14-9.03c.47 0 .9-.01 1.28-.01-.24.4-.36.84-.37 1.31-.03 1.83 1.56.11 3.88.16.79.02 1.56.23 2.24.44.88.27 1.62.53 2 .3.19-.11.29-.34.3-.74.02-.7-.25-1.36-.72-1.91.58.04 1.07.14 1.4.33.55.32 1.02.78 1.39 1.35.51.77 1.21 1.94 1.73 3.1.39.85 2.97 2.39 3.44 2.88 6.64 6.97 3.15 12.36-7.99 12.68z" transform="translate(-756 -8642) translate(0 8440) translate(756 202) translate(454 153)"/>
                        <path fill="#FFF" fill-rule="nonzero" stroke="#002855" d="M44.74 54.03s1.73-9.32 4.06-10.61c2.45-1.36 18.85-4.18 18.85-4.18h12.3l16.87 3.78c2.75.62 5.01 2.58 5.95 5.23.71 2.01 1.32 4.4 1.18 6.42-.3 4.46.02 37.06.02 37.06l-7.96-.05-3.26-27.38-10.41 32.13-28.96-1.83 3.35-35.95.2-6-2.64 4.28-9.55-2.9z" transform="translate(-756 -8642) translate(0 8440) translate(756 202) translate(454 153)"/>
                        <path fill="#FFF" fill-rule="nonzero" stroke="#002855" d="M96 91.69L96.04 109.5 103.96 109.5 103.96 91.74zM82.32 96.44L83.77 109.5 44.95 109.5 53.36 94.61zM54.28 56.94l-8.86 27.43c-.27.84-1.12 1.34-1.99 1.18-4.45-.86-17.41-3.41-20.77-4.81" transform="translate(-756 -8642) translate(0 8440) translate(756 202) translate(454 153)"/>
                        <path fill="#FFF" fill-rule="nonzero" stroke="#002855" d="M25.63 76.32l11.56 2.27c1.03.05 1.93-.68 2.09-1.69l5.48-23.01" transform="translate(-756 -8642) translate(0 8440) translate(756 202) translate(454 153)"/>
                        <path fill="#FFF" fill-rule="nonzero" stroke="#002855" stroke-width="2" d="M4.118 57.016H26.427V87.265H4.118z" transform="translate(-756 -8642) translate(0 8440) translate(756 202) translate(454 153) rotate(-14.821 15.273 72.14)"/>
                        <path stroke="#002855" stroke-linecap="square" d="M5.02 74.81s1.74-5.49 3.56-5.3c1.87.2 7.79 8.29 8.83-1.81.72-7 3.51-7.9 6.48-2.65 1.2 2.13 1.67 3.08 1.67 3.08M12.23 88.61L10.29 81.28M15.26 87.77L12.51 77.38M21 86.29L18.26 75.9M17.97 87L15.54 77.83" transform="translate(-756 -8642) translate(0 8440) translate(756 202) translate(454 153)"/>
                    </g>
                    <path fill="#FFF" fill-rule="nonzero" stroke="#002855" d="M355.35 193.26s.95 2.07 2.81 2.07 3.07-2.07 3.07-2.07" transform="translate(-756 -8642) translate(0 8440) translate(756 202)"/>
                </g>
            </g>
        </g>
    </g>
</svg>
