<svg xmlns="http://www.w3.org/2000/svg" width="723" height="505" viewBox="0 0 723 505">
    <g fill="none" fill-rule="evenodd">
        <g>
            <g>
                <g>
                    <g>
                        <path d="M0 0H722V503H0z" transform="translate(-719 -1673) translate(0 1471) translate(105 202) translate(614)"/>
                        <path fill="#FFF" d="M376.498 180.533L418.566 127.024 472.444 69.87 521.154 120.427 539.605 125.201 600.863 217.916 479.735 345.458z" transform="translate(-719 -1673) translate(0 1471) translate(105 202) translate(614)"/>
                        <path stroke="#002855" stroke-width="2" d="M376.498 180.533L418.566 127.024 472.444 69.87 521.154 120.427 539.605 125.201 600.863 217.916 479.735 345.458z" transform="translate(-719 -1673) translate(0 1471) translate(105 202) translate(614)"/>
                        <g>
                            <g stroke="#002855" stroke-width="2">
                                <path d="M0.839 69.887L0.839 0.933" transform="translate(-719 -1673) translate(0 1471) translate(105 202) translate(614) translate(0 .067) translate(472)"/>
                            </g>
                            <path fill="#002855" d="M507.92 71.17c-10.517 0-32.137-13.82-34.58-15.406V1.774c3.684 1.986 19.735 10.349 28.61 10.349 1.49 0 2.725-.241 3.677-.716 4.7-2.351 17.24-4.192 28.548-4.192 6.733 0 12.145.627 15.69 1.813v56.98c-2.177-.314-10.154-1.382-18.205-1.382-10.174 0-16.664 1.651-19.293 4.91-.874 1.084-2.37 1.633-4.447 1.633" transform="translate(-719 -1673) translate(0 1471) translate(105 202) translate(614) translate(0 .067)"/>
                            <path fill="#002855" d="M472.84.933v55.102s23.7 15.634 35.08 15.634c2.114 0 3.804-.54 4.836-1.819 2.995-3.712 11.027-4.724 18.905-4.724 9.463 0 18.703 1.462 18.703 1.462V8.673c-3.857-1.378-9.805-1.959-16.189-1.959-11.274 0-23.906 1.812-28.772 4.245-.922.461-2.098.663-3.453.663-9.84 0-29.11-10.689-29.11-10.689m1 1.676c4.76 2.52 19.624 10.013 28.11 10.013 1.567 0 2.88-.258 3.9-.769 4.642-2.32 17.083-4.139 28.325-4.139 6.371 0 11.72.594 15.19 1.678v56.041c-2.792-.387-10.217-1.307-17.704-1.307-10.332 0-16.954 1.714-19.683 5.096-.775.96-2.14 1.447-4.058 1.447-10.106 0-30.773-13.046-34.08-15.177V2.61" transform="translate(-719 -1673) translate(0 1471) translate(105 202) translate(614) translate(0 .067)"/>
                            <path fill="#FFF" d="M519.33 30.57L516.81 30.03 511.11 35.35 503.64 23.94 503.64 23.31 490.81 20.86 493.21 23.95 490.17 23.89 502.52 36.04 502.44 37.53 504.77 40.81 503.71 58.42 511.06 49.64 509.98 48.09 518.29 39.94 518.94 34.05 521.93 34.47z" transform="translate(-719 -1673) translate(0 1471) translate(105 202) translate(614) translate(0 .067)"/>
                            <path stroke="#002855" stroke-width="2" d="M545.845 217.849L508.195 189.995 496.989 151.879 496.989 123.292 472.633 69.803" transform="translate(-719 -1673) translate(0 1471) translate(105 202) translate(614) translate(0 .067)"/>
                            <path fill="#FFF" d="M42.929 451.38c15.204 0 28.697 5.348 37.149 13.611 2.998-25.752 25.034-45.748 51.779-45.748 18.373 0 34.533 9.444 43.82 23.704 12.216-21.187 36.797-35.656 65.132-35.656 37.995 0 69.247 26.012 72.97 59.34 10.766-5.106 23.606-7.814 37.259-7.225 31.093 1.349 56.429 19.317 62.435 42.29 9.469-13.09 24.924-21.615 42.392-21.615 9.357 0 18.142 2.448 25.739 6.745 2.877-10.392 8.937-19.472 17.07-26.151l-45.808-158.209-93.728-149.065-44.99-28.643-73.337 86.495-51.776 30.786-88.564 91.625-28.046 8.063L.875 470.983c7.37-11.576 23.424-19.603 42.054-19.603" transform="translate(-719 -1673) translate(0 1471) translate(105 202) translate(614) translate(0 .067)"/>
                            <path stroke="#002855" stroke-width="2" d="M42.929 451.38c15.204 0 28.697 5.348 37.149 13.611 2.998-25.752 25.034-45.748 51.779-45.748 18.373 0 34.533 9.444 43.82 23.704 12.216-21.187 36.797-35.656 65.132-35.656 37.995 0 69.247 26.012 72.97 59.34 10.766-5.106 23.606-7.814 37.259-7.225 31.093 1.349 56.429 19.317 62.435 42.29 9.469-13.09 24.924-21.615 42.392-21.615 9.357 0 18.142 2.448 25.739 6.745 2.877-10.392 8.937-19.472 17.07-26.151l-45.808-158.209-93.728-149.065-44.99-28.643-73.337 86.495-51.776 30.786-88.564 91.625-28.046 8.063L.875 470.983c7.37-11.576 23.424-19.603 42.054-19.603z" transform="translate(-719 -1673) translate(0 1471) translate(105 202) translate(614) translate(0 .067)"/>
                            <g>
                                <path fill="#FFF" d="M418.875 254.907s-10.593-12.364-29.757-12.364c-10.605 0-25.443 4.33-28.16 10.765-12.346-8.484-27.761-13.52-44.484-13.52-16.834 0-32.34 5.096-44.706 13.68-9.448-13.121-24.934-21.665-42.422-21.665-24.018 0-44.222 16.099-50.29 38.024-7.596-4.297-16.391-6.745-25.748-6.745-16.965 0-32.028 8.054-41.557 20.516h-1.157c-6.52-22.445-31.534-39.874-62.133-41.203-13.654-.59-26.503 2.119-37.27 7.226-1.127-10.123-4.81-19.557-10.434-27.812v-.01L243.122.789H351.49l67.385 7.335" transform="translate(-719 -1673) translate(0 1471) translate(105 202) translate(614) translate(0 .067) translate(303 217)"/>
                                <path stroke="#002855" stroke-width="2" d="M418.875 254.907s-10.593-12.364-29.757-12.364c-10.605 0-25.443 4.33-28.16 10.765-12.346-8.484-27.761-13.52-44.484-13.52-16.834 0-32.34 5.096-44.706 13.68-9.448-13.121-24.934-21.665-42.422-21.665-24.018 0-44.222 16.099-50.29 38.024-7.596-4.297-16.391-6.745-25.748-6.745-16.965 0-32.028 8.054-41.557 20.516h-1.157c-6.52-22.445-31.534-39.874-62.133-41.203-13.654-.59-26.503 2.119-37.27 7.226-1.127-10.123-4.81-19.557-10.434-27.812v-.01L243.122.789H351.49l67.385 7.335" transform="translate(-719 -1673) translate(0 1471) translate(105 202) translate(614) translate(0 .067) translate(303 217)"/>
                            </g>
                            <g>
                                <path fill="#FFF" d="M229.002 0.849L152.246 73.416 120.655 80.746 93.202 159.177 71.799 181.167 0.209 146.716" transform="translate(-719 -1673) translate(0 1471) translate(105 202) translate(614) translate(0 .067) translate(425 217)"/>
                                <path stroke="#002855" stroke-width="2" d="M229.002 0.849L152.246 73.416 120.655 80.746 93.202 159.177 71.799 181.167 0.209 146.716" transform="translate(-719 -1673) translate(0 1471) translate(105 202) translate(614) translate(0 .067) translate(425 217)"/>
                            </g>
                            <g>
                                <path fill="#FFF" d="M0.147 0.758L16.739 112.907 0.147 126.765 8.443 158.353 45.138 196.469 51.427 239.716 62.498 248.108" transform="translate(-719 -1673) translate(0 1471) translate(105 202) translate(614) translate(0 .067) translate(314 124)"/>
                                <path stroke="#002855" stroke-width="2" d="M0.147 0.758L16.739 112.907 0.147 126.765 8.443 158.353 45.138 196.469 51.427 239.716 62.498 248.108" transform="translate(-719 -1673) translate(0 1471) translate(105 202) translate(614) translate(0 .067) translate(314 124)"/>
                            </g>
                            <path stroke="#002855" stroke-width="2" d="M464.097 480.728L455.861 410.628 425.209 363.716 308.93 448.806" transform="translate(-719 -1673) translate(0 1471) translate(105 202) translate(614) translate(0 .067)"/>
                        </g>
                    </g>
                </g>
            </g>
        </g>
    </g>
</svg>
