<svg xmlns="http://www.w3.org/2000/svg" xmlns:xlink="http://www.w3.org/1999/xlink" width="684" height="469" viewBox="0 0 684 469">
    <defs>
        <path id="fe3e53qwqa" d="M0 469L684 469 684 0 0 0z"/>
    </defs>
    <g fill="none" fill-rule="evenodd">
        <g>
            <g>
                <g>
                    <g transform="translate(-756 -4250) translate(0 4048) translate(105 202) translate(651)">
                        <path fill="#002855" d="M251.864 107.452c-.414 1.772-.994 3.521-1.32 5.314-.622 3.43-.305 6.96.14 10.417.424 3.3.997 6.684 2.734 9.503 1.714 2.783 4.401 4.763 6.782 6.981 2.38 2.218 4.604 4.973 4.861 8.245 3.323-2.993 6.866-5.942 11.11-7.272 2.044-.64 4.202-.887 6.208-1.644 5.487-2.072 9.16-8.257 8.405-14.158-.355-2.778-1.573-5.479-1.279-8.264.397-3.754 3.485-7.396 2.07-10.887-.936-2.305-3.453-3.395-5.583-4.632-5.482-3.186-7.589-10.079-13.778-11.649-5.537-1.405-12.132.205-16.546 3.85-1.32 1.09-2.528 2.417-3.074 4.055-.743 2.233-.16 4.674-.262 7.03-.046 1.052-.229 2.086-.468 3.111"/>
                        <path stroke="#002855" d="M251.864 107.452c-.414 1.772-.994 3.521-1.32 5.314-.622 3.43-.305 6.96.14 10.417.424 3.3.997 6.684 2.734 9.503 1.714 2.783 4.401 4.763 6.782 6.981 2.38 2.218 4.604 4.973 4.861 8.245 3.323-2.993 6.866-5.942 11.11-7.272 2.044-.64 4.202-.887 6.208-1.644 5.487-2.072 9.16-8.257 8.405-14.158-.355-2.778-1.573-5.479-1.279-8.264.397-3.754 3.485-7.396 2.07-10.887-.936-2.305-3.453-3.395-5.583-4.632-5.482-3.186-7.589-10.079-13.778-11.649-5.537-1.405-12.132.205-16.546 3.85-1.32 1.09-2.528 2.417-3.074 4.055-.743 2.233-.16 4.674-.262 7.03-.046 1.052-.229 2.086-.468 3.111z"/>
                        <path fill="#FFF" d="M274.986 147.26l-9.05 23.27-8.063-25.735 2.054-16.613c1.39 1.664 3.12 2.983 5.128 3.878 1.606.722 3.444.722 5.035-.047 1.544-.753 2.996-1.76 4.278-3.015l.618 18.262z"/>
                        <path stroke="#002855" d="M274.986 147.26l-9.05 23.27-8.063-25.735 2.054-16.613c1.39 1.664 3.12 2.983 5.128 3.878 1.606.722 3.444.722 5.035-.047 1.544-.753 2.996-1.76 4.278-3.015l.618 18.262z"/>
                        <path fill="#FFF" d="M280.3 113.743c0 8.887-4.34 15.419-10.21 18.26-1.59.77-3.429.77-5.035.049-4.958-2.214-8.14-6.956-9.298-13.175-.232.079-.463.126-.71.126-1.56 0-2.827-1.696-2.827-3.784s1.267-3.785 2.827-3.785c.077 0 .154 0 .247.017.51-9.328 5.282-16.551 12.31-16.551 7.444 0 12.695 8.699 12.695 18.843"/>
                        <path stroke="#002855" d="M280.3 113.743c0 8.887-4.34 15.419-10.21 18.26-1.59.77-3.429.77-5.035.049-4.958-2.214-8.14-6.956-9.298-13.175-.232.079-.463.126-.71.126-1.56 0-2.827-1.696-2.827-3.784s1.267-3.785 2.827-3.785c.077 0 .154 0 .247.017.51-9.328 5.282-16.551 12.31-16.551 7.444 0 12.695 8.699 12.695 18.843z"/>
                        <g>
                            <path fill="#FFF" d="M8.986.758H4.22c-.406 0-.806.229-1.025.656-.088.172-.149.374-.149.607v5.948c0 .215-.034.428-.104.625-.104.292-.292.65-.584.65H.884" transform="translate(266 109)"/>
                            <path stroke="#002855" d="M8.986.758H4.22c-.406 0-.806.229-1.025.656-.088.172-.149.374-.149.607v5.948c0 .215-.034.428-.104.625-.104.292-.292.65-.584.65H.884" transform="translate(266 109)"/>
                        </g>
                        <g>
                            <path fill="#FFF" d="M.169.822s1.255 2.734 3.715 2.734S7.934.822 7.934.822" transform="translate(263 122)"/>
                            <path stroke="#002855" stroke-width="2" d="M.169.822s1.255 2.734 3.715 2.734S7.934.822 7.934.822" transform="translate(263 122)"/>
                        </g>
                        <path fill="#002855" d="M269.25 95.051s-6.094 7.708 4.603 14.707c10.697 6.997.515 19.24.515 19.24s12.944 4.174 12.944 0-7.826-34.554-12.326-34.098c-4.5.456-5.736.151-5.736.151"/>
                        <path stroke="#002855" d="M269.25 95.051s-6.094 7.708 4.603 14.707c10.697 6.997.515 19.24.515 19.24s12.944 4.174 12.944 0-7.826-34.554-12.326-34.098c-4.5.456-5.736.151-5.736.151z"/>
                        <path fill="#002855" d="M238.997 216.66l-2.786-52.181-8.59 12.746-2.322-27.381 8.009-11.566s2.207-4.013 8.243-3.54c6.037.472 14.627.944 14.627.944l9.752 21.479 9.054-16.05 13.467 2.36s7.429 1.18 10.215 10.386c2.66 8.79 12.943 49.433 12.652 58.015-.004.123-.173.129-.193.008-1.238-7.566-16.638-8.22-16.638-8.22l-2.322-12.037v25.037h-53.168z"/>
                        <path stroke="#002855" stroke-width="2" d="M238.997 216.66l-2.786-52.181-8.59 12.746-2.322-27.381 8.009-11.566s2.207-4.013 8.243-3.54c6.037.472 14.627.944 14.627.944l9.752 21.479 9.054-16.05 13.467 2.36s7.429 1.18 10.215 10.386c2.66 8.79 12.943 49.433 12.652 58.015-.004.123-.173.129-.193.008-1.238-7.566-16.638-8.22-16.638-8.22l-2.322-12.037v25.037h-53.168z"/>
                        <path fill="#FFF" d="M229.684 218.85s69.309-2.19 74.513-2.19c7.127 0 6.99-4.235 6.99-4.235s-.126-9.584-16.7-8.764c-15.746.28-64.311 12.958-64.803 15.19"/>
                        <path stroke="#002855" d="M229.684 218.85s69.309-2.19 74.513-2.19c7.127 0 6.99-4.235 6.99-4.235s-.126-9.584-16.7-8.764c-15.746.28-64.311 12.958-64.803 15.19z"/>
                        <path fill="#FFF" d="M224.551 149.957c1.195 8.163 2.384 16.335 2.785 24.636.065 1.357.112 2.763-.385 4.025-.969 2.459-3.886 3.715-6.464 3.332-2.579-.383-4.803-2.091-6.498-4.104-.77-.917-1.47-1.932-1.793-3.093-.238-.856-.262-1.756-.283-2.645-.344-13.97-.45-27.97-1.032-41.931-.145-3.497-2.517-6.644-4.022-9.77-.365-.759-3.727-6.829-2.706-7.533.788-.544 2.764 1.15 3.933 2.273.198.19.51-.025.404-.281-1.208-2.934-3.976-10.205-1.802-8.644 2.076 1.491 3.687 5.154 3.687 5.154s-5.76-12.651-2.996-10.777c2.766 1.874 5.07 6.629 5.07 6.629s-3.457-8.882-.46-6.819c1.437.991 2.322 2.932 3.072 4.458.971 1.977 1.793 4.03 2.554 6.099.3.81.583 1.625.861 2.443.595 1.745.721 3.575 1.65 5.224.204.363.463.731.85.871.425.154.904-.009 1.278-.264 1.307-.891 2.36-2.204 3.398-3.389.13-.148 1.778-2.129 1.968-1.85 1.171 1.725-1.6 8.379-2.322 10.188-.445 1.118-1.994 2.68-2.839 3.478-.353.334-.539.811-.502 1.299.545 7.039 1.572 14.012 2.594 20.991"/>
                        <path stroke="#002855" d="M224.551 149.957c1.195 8.163 2.384 16.335 2.785 24.636.065 1.357.112 2.763-.385 4.025-.969 2.459-3.886 3.715-6.464 3.332-2.579-.383-4.803-2.091-6.498-4.104-.77-.917-1.47-1.932-1.793-3.093-.238-.856-.262-1.756-.283-2.645-.344-13.97-.45-27.97-1.032-41.931-.145-3.497-2.517-6.644-4.022-9.77-.365-.759-3.727-6.829-2.706-7.533.788-.544 2.764 1.15 3.933 2.273.198.19.51-.025.404-.281-1.208-2.934-3.976-10.205-1.802-8.644 2.076 1.491 3.687 5.154 3.687 5.154s-5.76-12.651-2.996-10.777c2.766 1.874 5.07 6.629 5.07 6.629s-3.457-8.882-.46-6.819c1.437.991 2.322 2.932 3.072 4.458.971 1.977 1.793 4.03 2.554 6.099.3.81.583 1.625.861 2.443.595 1.745.721 3.575 1.65 5.224.204.363.463.731.85.871.425.154.904-.009 1.278-.264 1.307-.891 2.36-2.204 3.398-3.389.13-.148 1.778-2.129 1.968-1.85 1.171 1.725-1.6 8.379-2.322 10.188-.445 1.118-1.994 2.68-2.839 3.478-.353.334-.539.811-.502 1.299.545 7.039 1.572 14.012 2.594 20.991z"/>
                        <path fill="#FFF" d="M119.001 468.5L174.023 396.635 347.329 396.635 402.349 468.5z"/>
                        <path fill="#002855" d="M347.575 396.135h-173.8L117.988 469h285.374l-55.787-72.865zm-.494 1L401.337 468H120.013l54.256-70.865h172.812z"/>
                        <path fill="#FFF" d="M146.49 461.481L190.763 403.653 330.586 403.653 374.86 461.481z"/>
                        <path fill="#002855" d="M330.834 403.153H190.517l-45.039 58.828h230.395l-45.039-58.828zm-.494 1l43.508 56.828H147.502l43.509-56.828H330.34z"/>
                        <path stroke="#002855" d="M511.165 385.784L511.165 0M570.3 385.784L570.3 0M629.435 385.784L629.435 0"/>
                        <mask id="gtpwpy3pwb" fill="#fff">
                            <use xlink:href="#fe3e53qwqa"/>
                        </mask>
                        <path fill="#FFF" d="M128.098 334.102L354.792 334.102 354.792 230.005 128.098 230.005z" mask="url(#gtpwpy3pwb)"/>
                        <path fill="#002855" d="M127.598 334.602h227.694V229.505H127.598v105.097zm1-.999h225.694V230.506H128.598v103.097z" mask="url(#gtpwpy3pwb)"/>
                        <path fill="#FFF" d="M98.571 228.505L113.34 217.183 364.856 217.183 379.625 228.505z" mask="url(#gtpwpy3pwb)"/>
                        <path fill="#002855" d="M365.196 216.183H113.001l-17.378 13.322h286.95l-17.377-13.322zm-.679 2l12.16 9.322H101.52l12.16-9.322h250.838z" mask="url(#gtpwpy3pwb)"/>
                        <path fill="#FFF" d="M96.124 248.06L382.074 248.06 382.074 230.005 96.124 230.005z" mask="url(#gtpwpy3pwb)"/>
                        <path fill="#002855" d="M95.623 248.56h286.95v-19.055H95.623v19.055zm1-.999h284.95v-17.055H96.623v17.055z" mask="url(#gtpwpy3pwb)"/>
                        <path fill="#002855" d="M21.436 385.785h346.649V26.161H21.436v359.624zm1-1.001h344.649V27.16H22.436v357.624zM476.634 196.607L497.29 196.607 497.29 173.789 476.634 173.789z" mask="url(#gtpwpy3pwb)"/>
                        <path stroke="#002855" d="M476.634 196.607L497.29 196.607 497.29 173.789 476.634 173.789z" mask="url(#gtpwpy3pwb)"/>
                        <path fill="#FFF" d="M175.923 384.785L196.832 384.785 196.832 27.161 175.923 27.161z" mask="url(#gtpwpy3pwb)"/>
                        <path fill="#002855" d="M174.923 385.785h22.909V26.161h-22.909v359.624zm2-2.001h18.909V28.16h-18.909v355.624z" mask="url(#gtpwpy3pwb)"/>
                        <path fill="#002855" d="M0 385.784h684V0H0v385.784zm1-1h682V1H1v383.784z" mask="url(#gtpwpy3pwb)"/>
                        <path fill="#FFF" d="M328.935 384.921L328.935 27.024 488.915 3.377 488.915 408.569z" mask="url(#gtpwpy3pwb)"/>
                        <path fill="#002855" d="M489.915 2.218L327.935 26.16v359.623l161.98 23.944V2.218zm-2 2.317V407.41l-157.98-23.351V27.887l157.98-23.352z" mask="url(#gtpwpy3pwb)"/>
                        <path fill="#FFF" d="M328.935 384.921L328.935 27.024 488.915 3.377 488.915 408.569z" mask="url(#gtpwpy3pwb)"/>
                        <path fill="#002855" d="M489.915 2.218L327.935 26.16v359.623l161.98 23.944V2.218zm-2 2.317V407.41l-157.98-23.351V27.887l157.98-23.352z" mask="url(#gtpwpy3pwb)"/>
                        <path stroke="#002855" d="M429.602 385.784L429.602 0M362.925 385.784L362.925 0M21.436 385.784L21.436 0" mask="url(#gtpwpy3pwb)"/>
                        <path fill="#FFF" d="M342.695 40.797v330.075l121.633 16.245V24.527l-121.633 16.27zm-13.76 344.124V27.024l159.98-23.648V408.57l-159.98-23.648z" mask="url(#gtpwpy3pwb)"/>
                        <path fill="#002855" d="M463.328 385.975l-119.633-15.978V41.673l119.633-16.004v360.306zM489.915 2.218L327.935 26.16v359.624l161.98 23.943V2.218zM465.328 388.26V23.384l-2.265.303L343.431 39.69l-1.736.233v331.824l1.736.233 119.632 15.977 2.265.303zM487.915 4.536V407.41l-157.98-23.352V27.887l157.98-23.351z" mask="url(#gtpwpy3pwb)"/>
                        <path fill="#002855" d="M481.63 407.491L481.63 4.453 488.915 3.376 488.915 408.568z" mask="url(#gtpwpy3pwb)"/>
                        <path fill="#002855" d="M489.915 2.218L480.63 3.59v404.764l9.285 1.373V2.218zm-2 2.317V407.41l-5.285-.781V5.317l5.285-.782z" mask="url(#gtpwpy3pwb)"/>
                        <path stroke="#002855" stroke-linecap="square" d="M343.695 322.492L463.328 224.299M343.695 249.273L463.328 143.947M343.695 242.633L463.328 136.66M343.695 343.919L463.328 247.812" mask="url(#gtpwpy3pwb)"/>
                        <path fill="#002855" d="M428.28 117.15L421.27 116.84 419.5 127.98 401.49 142.86 403.59 145.63 389.2 159.84 391.85 130.36 387.78 125.05 387.929 123.26 385.53 120.43 368.25 105.3 372.259 104.81 368.71 100.63 389.77 101.29 404.32 120.38 416.64 109.76 422.33 110.22z" mask="url(#gtpwpy3pwb)"/>
                        <path fill="#FFF" d="M38.258 368.893h123.69V42.781H38.258v326.112zm-15.821 15.892h153.346V27.161H22.437v357.624z" mask="url(#gtpwpy3pwb)"/>
                        <path fill="#002855" d="M39.258 367.893h121.69V43.781H39.258v324.112zm-17.822 17.892h155.346V26.161H21.436v359.624zm15.822-15.892h125.69V41.781H37.258v328.112zm-13.822 13.891h151.346V28.16H23.436v355.624z" mask="url(#gtpwpy3pwb)"/>
                        <path stroke="#002855" stroke-linecap="square" d="M39.258 320.997L160.948 222.458M39.258 248.718L160.948 150.178M39.258 242.162L160.948 143.622M39.258 342.148L160.948 243.609" mask="url(#gtpwpy3pwb)"/>
                        <path fill="#002855" d="M127.6 123.94L120.71 123.22 118.96 133.45 100.87 146.47 103 149.17 88.24 162.06 90.99 134.15 86.76 128.85 86.92 127.14 84.47 124.36 66.13 108.54 70.43 108.37 66.63 104.05 88.83 106.37 103.75 125.46 116.12 116.32 121.75 117.14zM169.917 210.864L190.573 210.864 190.573 188.038 169.917 188.038z" mask="url(#gtpwpy3pwb)"/>
                        <path stroke="#002855" d="M169.917 210.864L190.573 210.864 190.573 188.038 169.917 188.038z" mask="url(#gtpwpy3pwb)"/>
                    </g>
                </g>
            </g>
        </g>
    </g>
</svg>
