<svg xmlns="http://www.w3.org/2000/svg" width="63" height="66" viewBox="0 0 63 66">
    <g fill="none" fill-rule="evenodd">
        <g>
            <g>
                <g>
                    <g transform="translate(-4 -269) translate(0 132) translate(4 137) rotate(180 31.5 33)">
                        <path d="M0 0H63V66H0z"/>
                        <ellipse cx="5.128" cy="2.302" fill="#001845" rx="2.198" ry="2.302" transform="matrix(1 0 0 -1 0 4.605)"/>
                        <ellipse cx="19.047" cy="2.302" fill="#001845" rx="2.198" ry="2.302" transform="matrix(1 0 0 -1 0 4.605)"/>
                        <ellipse cx="5.128" cy="17.651" fill="#3FACE0" rx="2.198" ry="2.302" transform="matrix(1 0 0 -1 0 35.302)"/>
                        <ellipse cx="19.047" cy="17.651" fill="#3FACE0" rx="2.198" ry="2.302" transform="matrix(1 0 0 -1 0 35.302)"/>
                        <ellipse cx="5.128" cy="33" fill="#001845" rx="2.198" ry="2.302" transform="matrix(1 0 0 -1 0 66)"/>
                        <ellipse cx="19.047" cy="33" fill="#001845" rx="2.198" ry="2.302" transform="matrix(1 0 0 -1 0 66)"/>
                        <ellipse cx="32.965" cy="2.302" fill="#001845" rx="2.198" ry="2.302" transform="matrix(1 0 0 -1 0 4.605)"/>
                        <ellipse cx="60.802" cy="2.302" fill="#001845" rx="2.198" ry="2.302" transform="matrix(1 0 0 -1 0 4.605)"/>
                        <ellipse cx="32.965" cy="17.651" fill="#3FACE0" rx="2.198" ry="2.302" transform="matrix(1 0 0 -1 0 35.302)"/>
                        <ellipse cx="60.802" cy="17.651" fill="#001845" rx="2.198" ry="2.302" transform="matrix(1 0 0 -1 0 35.302)"/>
                        <ellipse cx="32.965" cy="33" fill="#001845" rx="2.198" ry="2.302" transform="matrix(1 0 0 -1 0 66)"/>
                        <ellipse cx="60.802" cy="33" fill="#001845" rx="2.198" ry="2.302" transform="matrix(1 0 0 -1 0 66)"/>
                        <ellipse cx="32.965" cy="48.349" fill="#001845" rx="2.198" ry="2.302" transform="matrix(1 0 0 -1 0 96.698)"/>
                        <ellipse cx="60.802" cy="48.349" fill="#001845" rx="2.198" ry="2.302" transform="matrix(1 0 0 -1 0 96.698)"/>
                        <ellipse cx="32.965" cy="63.698" fill="#001845" rx="2.198" ry="2.302" transform="matrix(1 0 0 -1 0 127.395)"/>
                        <ellipse cx="60.802" cy="63.698" fill="#001845" rx="2.198" ry="2.302" transform="matrix(1 0 0 -1 0 127.395)"/>
                        <ellipse cx="46.884" cy="63.698" fill="#3FACE0" rx="2.198" ry="2.302" transform="matrix(1 0 0 -1 0 127.395)"/>
                        <ellipse cx="46.884" cy="2.302" fill="#001845" rx="2.198" ry="2.302" transform="matrix(1 0 0 -1 0 4.605)"/>
                        <ellipse cx="46.884" cy="17.651" fill="#3FACE0" rx="2.198" ry="2.302" transform="matrix(1 0 0 -1 0 35.302)"/>
                        <ellipse cx="46.884" cy="33" fill="#3FACE0" rx="2.198" ry="2.302" transform="matrix(1 0 0 -1 0 66)"/>
                        <ellipse cx="46.884" cy="48.349" fill="#3FACE0" rx="2.198" ry="2.302" transform="matrix(1 0 0 -1 0 96.698)"/>
                    </g>
                </g>
            </g>
        </g>
    </g>
</svg>
