<svg xmlns="http://www.w3.org/2000/svg" width="48" height="48" viewBox="0 0 48 48">
    <g fill="none" fill-rule="evenodd">
        <g>
            <g>
                <g>
                    <path d="M0 0H48V48H0z" transform="translate(-924 -459) translate(0 337) translate(924 122)"/>
                    <path fill="#979DAC" fill-rule="nonzero" d="M37.5 11.996c0-.048-.003-.096-.008-.144-.002-.022-.006-.044-.01-.067-.003-.026-.006-.052-.011-.078l-.018-.075c-.006-.022-.011-.045-.018-.067-.007-.025-.016-.048-.025-.072-.008-.023-.015-.045-.024-.067l-.03-.065c-.011-.023-.021-.046-.033-.068l-.035-.06-.04-.066-.046-.062c-.014-.019-.027-.038-.042-.056-.028-.034-.058-.067-.089-.098l-.01-.012-.014-.012c-.03-.03-.063-.06-.096-.087-.018-.015-.037-.028-.056-.041-.02-.016-.04-.032-.062-.046-.021-.015-.044-.027-.066-.04l-.06-.036c-.022-.012-.044-.021-.066-.032l-.067-.031c-.021-.009-.043-.016-.064-.023-.025-.01-.05-.019-.075-.026-.02-.007-.042-.011-.062-.016-.027-.007-.053-.015-.08-.02-.023-.005-.046-.007-.07-.01-.025-.004-.05-.01-.076-.012-.038-.003-.076-.005-.114-.005L36 10.5H16.5c-.828 0-1.5.672-1.5 1.5s.672 1.5 1.5 1.5h15.879l-21.44 21.44c-.585.585-.586 1.535 0 2.12.586.586 1.536.587 2.122 0L34.5 15.622V31.5c0 .828.672 1.5 1.5 1.5s1.5-.672 1.5-1.5V11.996z" transform="translate(-924 -459) translate(0 337) translate(924 122)"/>
                </g>
            </g>
        </g>
    </g>
</svg>
