<svg xmlns="http://www.w3.org/2000/svg" width="460" height="350" viewBox="0 0 497 377">
    <g fill="none" fill-rule="evenodd" opacity=".33">
        <g>
            <g>
                <g>
                    <g>
                        <path d="M0 0H497V377H0z" transform="translate(144 -1575) translate(0 1575) matrix(-1 0 0 1 353 0) rotate(180 248.5 188.5)"/>
                        <path stroke="#399CCB" stroke-linecap="round" stroke-width="2.5" d="M0 260.892c0 76.371 80.83 73.507 242.488-8.592M497 298.808c0-76.371-80.83-73.507-242.488 8.592M497 359.708c0-76.371-80.83-73.507-242.488 8.592M0 78.192c0 76.371 80.83 73.507 242.488-8.592M0 17.292C0 93.663 80.83 90.799 242.488 8.7M497 116.108c0-76.371-80.83-73.507-242.488 8.592M497 55.208c0-76.371-80.83-73.507-242.488 8.592M0 321.792c0 76.371 80.83 73.507 242.488-8.592M0 139.092c0 76.371 80.83 73.507 242.488-8.592M497 177.008c0-76.371-80.83-73.507-242.488 8.592M0 199.992c0 76.371 80.83 73.507 242.488-8.592M497 237.908c0-76.371-80.83-73.507-242.488 8.592" transform="translate(144 -1575) translate(0 1575) matrix(-1 0 0 1 353 0) rotate(180 248.5 188.5)"/>
                    </g>
                </g>
            </g>
        </g>
    </g>
</svg>
