<svg xmlns="http://www.w3.org/2000/svg" width="240" height="120" viewBox="0 0 248 130">
    <g fill="none" fill-rule="evenodd" opacity=".33">
        <g>
            <g>
                <g>
                    <g>
                        <path d="M0 0H248V130H0z" transform="translate(-68 -566) translate(0 516) translate(68 50) rotate(180 124 65)"/>
                        <path stroke="#399CCB" stroke-linecap="round" stroke-width="2.5" d="M0 89.963C0 116.298 40.333 115.31 121 87M248 103.037c0-26.335-40.333-25.347-121 2.963M248 124.037c0-26.335-40.333-25.347-121 2.963M0 26.963C0 53.298 40.333 52.31 121 24M0 5.963C0 32.298 40.333 31.31 121 3M248 40.037C248 13.702 207.667 14.69 127 43M248 19.037C248-7.298 207.667-6.31 127 22M0 110.963C0 137.298 40.333 136.31 121 108M0 47.963C0 74.298 40.333 73.31 121 45M248 61.037C248 34.702 207.667 35.69 127 64M0 68.963C0 95.298 40.333 94.31 121 66M248 82.037C248 55.702 207.667 56.69 127 85" transform="translate(-68 -566) translate(0 516) translate(68 50) rotate(180 124 65)"/>
                    </g>
                </g>
            </g>
        </g>
    </g>
</svg>
