<svg xmlns="http://www.w3.org/2000/svg" width="510" height="342" viewBox="0 0 510 342">
    <g fill="none" fill-rule="evenodd">
        <g>
            <g>
                <g>
                    <path d="M0 0H510V342H0z" transform="translate(-825 -948) translate(0 768) translate(825 180)"/>
                    <g>
                        <path fill="#DFEFF6" d="M.35 42.467c27.414-27 63.416-43.558 102.418-41.9 22.533.957 44.45 7.688 65.366 16.125 20.34 8.203 40.725 18.639 54.123 36.003" transform="translate(-825 -948) translate(0 768) translate(825 180) translate(78 288.382)"/>
                        <path stroke="#002854" d="M.35 42.467c27.414-27 63.416-43.558 102.418-41.9 22.533.957 44.45 7.688 65.366 16.125 20.34 8.203 40.725 18.639 54.123 36.003" transform="translate(-825 -948) translate(0 768) translate(825 180) translate(78 288.382)"/>
                    </g>
                    <path stroke="#002854" d="M78.35 330.849c27.414-27 63.416-43.558 102.418-41.9 22.533.957 44.45 7.688 65.366 16.125 20.34 8.203 40.725 18.639 54.123 36.003" transform="translate(-825 -948) translate(0 768) translate(825 180)"/>
                    <path fill="#002854" d="M181.865 299.23c0 4.248-13 4.248-13 0V152.416h13V299.23z" transform="translate(-825 -948) translate(0 768) translate(825 180)"/>
                    <path fill="#FFF" d="M208.95 234.331c-18.335 0-33.254-14.918-33.254-33.255v-43.744l66.667.162v43.747c.156 8.711-3.14 16.947-9.28 23.2-6.264 6.378-14.66 9.89-23.642 9.89h-.49z" transform="translate(-825 -948) translate(0 768) translate(825 180)"/>
                    <path fill="#002854" d="M175.196 156.831v44.245c0 18.643 15.112 33.755 33.754 33.755h.492c18.641 0 33.754-15.112 33.421-33.59v-44.246l-67.667-.164zm1 1.002l65.667.16v43.266c.154 8.567-3.09 16.676-9.137 22.832-6.169 6.281-14.438 9.74-23.284 9.74h-.492c-18.06 0-32.754-14.693-32.754-32.755v-43.243z" transform="translate(-825 -948) translate(0 768) translate(825 180)"/>
                    <path stroke="#002854" stroke-width="2" d="M187.032 168.345v33.035c0 12.115 9.822 21.938 21.937 21.938h.125c12.116 0 21.938-9.823 21.938-21.938v-33.035" transform="translate(-825 -948) translate(0 768) translate(825 180)"/>
                    <path fill="#002854" d="M242.863 103.75v55.198h-68l-24-10.994v-42.225c0-14.651 9.35-27.124 22.41-31.781h.03S190.55 69.982 209.239 70c18.589.018 33.624 15.16 33.624 33.75" transform="translate(-825 -948) translate(0 768) translate(825 180)"/>
                    <path fill="#FFF" d="M179.653 153.433L237.925 154.17 210.202 144.433 179.653 144.028z" transform="translate(-825 -948) translate(0 768) translate(825 180)"/>
                    <path fill="#FFF" d="M209.196 71.378c-17.899 0-32.409 14.616-32.409 32.645v52.809h64.82v-52.81c0-18.028-14.512-32.644-32.41-32.644m0 .977c17.334 0 31.438 14.206 31.438 31.668v51.83h-62.878v-51.83c0-17.462 14.104-31.668 31.44-31.668" transform="translate(-825 -948) translate(0 768) translate(825 180)"/>
                    <path stroke="#002854" stroke-width=".25" d="M209.196 71.378c-17.899 0-32.409 14.616-32.409 32.645v52.809h64.82v-52.81c0-18.028-14.512-32.644-32.41-32.644zm0 .977c17.335 0 31.44 14.206 31.44 31.668v51.83h-62.879v-51.83c0-17.462 14.104-31.668 31.44-31.668h0z" transform="translate(-825 -948) translate(0 768) translate(825 180)"/>
                    <path fill="#FFF" d="M209.196 71.378c-17.899 0-32.409 14.616-32.409 32.645v52.809h64.82v-52.81c0-18.028-14.512-32.644-32.41-32.644m0 .977c17.334 0 31.438 14.206 31.438 31.668v51.83h-62.878v-51.83c0-17.462 14.104-31.668 31.44-31.668M282.769 89.452l13.124 60.494 136.765-32.19-15.366-59.867s-56.355-25.556-81.415-19.8c-25.06 5.754-53.108 51.363-53.108 51.363" transform="translate(-825 -948) translate(0 768) translate(825 180)"/>
                    <path stroke="#002854" stroke-width="2" d="M282.769 89.452l13.124 60.494 136.765-32.19-15.366-59.867s-56.355-25.556-81.415-19.8c-25.06 5.754-53.108 51.363-53.108 51.363z" transform="translate(-825 -948) translate(0 768) translate(825 180)"/>
                    <path fill="#FFF" d="M391.121 87.521L322.183 104.566 303.429 28.741 372.366 11.695z" transform="translate(-825 -948) translate(0 768) translate(825 180)"/>
                    <path stroke="#002855" d="M391.121 87.521L322.183 104.566 303.429 28.741 372.366 11.695z" transform="translate(-825 -948) translate(0 768) translate(825 180)"/>
                    <path fill="#FFF" d="M294.263 24.736L365.142 7.211 384.378 84.977 313.498 102.503z" transform="translate(-825 -948) translate(0 768) translate(825 180)"/>
                    <path fill="#002855" d="M365.873 6l-1.94.48-68.939 17.045-1.942.48.48 1.941 18.755 75.826.481 1.941 1.941-.48 68.937-17.046 1.943-.48-.48-1.94L366.351 7.94 365.873 6zm-1.462 2.421l18.756 75.825-68.939 17.045-18.754-75.825 68.937-17.045z" transform="translate(-825 -948) translate(0 768) translate(825 180)"/>
                    <path fill="#002855" d="M319.167 34.17L321.72 31.926 324.109 34.39zM308.895 28.571L309.226 37.14 300.36 28.196z" transform="translate(-825 -948) translate(0 768) translate(825 180)"/>
                    <path fill="#002855" d="M308.112 29.148L309.674 37.089 300.273 29.922zM312.406 37.714L319.55 31.745 321.719 31.926 321.029 38.224z" transform="translate(-825 -948) translate(0 768) translate(825 180)"/>
                    <path fill="#002855" d="M308.622 37.207L308.894 28.571 317.137 37.902zM315.294 44.596L309.951 49.859 310.361 39.06z" transform="translate(-825 -948) translate(0 768) translate(825 180)"/>
                    <path fill="#002855" d="M321.029 38.224L314.409 43.621 308.623 37.206zM373.652 76.444c-.27.44-.62.62-.72-.15-.05-.37-.05-.78-.02-1.15.03-.53.12-1.04.27-1.53.26-.21.44-.49.45-.89.08.33.18.65.31.95.02.82.1 2.12-.29 2.77m-7.12-1.95c-.21-1.31-.4-2.64-.51-3.97-.07-.71-.16-1.51.11-2.19.19-.49.91-1.48 1.43-.94.91.95.24 3.46-.08 4.52-.26.88-.59 1.74-.95 2.58m-6.21 4.26c-.14-.57-.27-1.14-.41-1.71-.16-.69-.32-1.38-.5-2.06-.08-.28-.3-1.43-.54-2.21.31.08.62.16.93.25.58.51.59 2.07.65 2.82.08.98.02 1.95-.13 2.91m15.69-4.99c-.12.24-.25.48-.38.72-.09-.12-.17-.25-.24-.39-.01-1.74-.34-3.49-.67-5.2-.53-2.7-1.07-5.4-1.6-8.1-.09-.5-1.49-.96-1.4-.39.5 3.33 1.01 6.66 1.51 10 .09.56.17 1.16.28 1.75-.29-.38-1.13-.79-1.33-.32-.13.3-.27.65-.38 1.03-.75.59-2.42.69-2.89 1.55-.44.79-.29 1.66-.05 2.52-.19-.02-.36.02-.43.18-.14.31.03 2.56-.9 2.21-.22-.08-.4-1.49-.5-2.1.79-1.75 1.59-3.53 2.03-5.38.34-1.45.68-3.68-.49-4.88-.77-.79-2.07-.99-3-.35-1.41.99-1.05 3.01-.88 4.47.21 1.89.51 3.76.91 5.61-.11.25-.22.5-.33.74-.95-.68-2.32-.23-3.45.43.13-1.78-.02-3.73-.97-5.12-.71-1.04-2.72-2.04-3.47-.48-.34.71-.17 1.59.02 2.32.35 1.37.77 2.73 1.16 4.09.83 2.89 1.65 5.8 2.48 8.68l.03.11c.13.44 1.51.8 1.39.28l-.03-.12-1.95-8.18c.29.28.81.43 1.06.22.68-.57 1.41-1.04 2.25-1.35.15-.06.65-.33.76-.27.11.06.11.44.08.8-.74 1.61-1.52 3.2-2.33 4.77-.27.51 1.05 1.05 1.38.62.88-1.14 2.5-3.25 2.45-5.03.03-.04.05-.09.07-.14.33.76.89 1.31 1.88 1.27.41-.01.78-.14 1.08-.39.28 1.06.56 2.12.84 3.17.24.87.41 1.88.83 2.69.04.09.11.19.21.29 0 .01.01.01.02.02.02.03.05.06.09.1.34.37 1.13.78 1.28.29.01-.04.01-.07.01-.11h.01v-.02c.01-.28-.16-.66-.21-.89-.19-.84-.38-1.68-.58-2.52-.19-.86-.39-1.71-.59-2.56-.07-.29-.12-.6-.2-.89-.02-.06-.04-.22-.07-.31 0-.01 0-.02-.01-.03v-.01c-.2-1.51-1.67-3.99.41-4.76.08-.03.16-.06.25-.08-.16 1.1-.07 2.22.59 2.98.42.48 1.13.82 1.78.8 1.02-.02 1.23-.84 1.38-1.71.06-.33.1-.65.13-.98.18.12.37.22.58.3.24.1.72.25.89-.06.22-.41.44-.83.66-1.24.27-.5-1.17-1.18-1.45-.65" transform="translate(-825 -948) translate(0 768) translate(825 180)"/>
                    <path stroke="#002855" d="M311.087 58.211L333.789 52.121M344.194 63.406L366.896 57.316M337.624 51.092L348.219 48.249M352.029 47.228L358.744 45.427M312.552 65.271L323.147 62.429M320.663 69.718L331.258 66.876M353.958 54.164L364.553 51.322M339.49 58.045L350.084 55.203M326.956 61.407L333.671 59.606M334.843 65.914L341.558 64.113" transform="translate(-825 -948) translate(0 768) translate(825 180)"/>
                    <path fill="#FFF" d="M282.769 89.452c22.393 4.69 70.873 8.17 70.873 8.17l63.65-39.733 15.366 59.867-136.765 32.19-13.124-60.494z" transform="translate(-825 -948) translate(0 768) translate(825 180)"/>
                    <path stroke="#002854" stroke-width="2" d="M282.769 89.452c22.393 4.69 70.873 8.17 70.873 8.17l63.65-39.733 15.366 59.867-136.765 32.19-13.124-60.494z" transform="translate(-825 -948) translate(0 768) translate(825 180)"/>
                    <path stroke="#002854" stroke-linejoin="round" stroke-width="2" d="M223.163 55.495L230.008 34.775M181.387 55.583L176.956 34.54M202.97 53.82L202.97 33.1" transform="translate(-825 -948) translate(0 768) translate(825 180)"/>
                </g>
            </g>
        </g>
    </g>
</svg>
