<svg xmlns="http://www.w3.org/2000/svg" xmlns:xlink="http://www.w3.org/1999/xlink" width="557" height="347" viewBox="0 0 557 347">
    <defs>
        <path id="2yyndgyzta" d="M0 346L557 346 557 0 0 0z"/>
    </defs>
    <g fill="none" fill-rule="evenodd">
        <g>
            <g>
                <g transform="translate(-782 -2843) translate(0 2801) translate(782 42)">
                    <path fill="#DFEFF6" d="M2.154 297.129c0-155.646 79.556-295.13 276.5-295.13 188.461 0 276.5 172.778 276.5 295.13 0 11.869-108.044 32.91-124.313 35.587C218.905 367.574 2.154 311.898 2.154 297.129"/>
                    <path stroke="#002855" stroke-width="4" d="M2 297.129C2 141.483 81.556 1.999 278.5 1.999 466.96 2 555 174.778 555 297.13c0 11.869-108.043 32.91-124.313 35.587C218.75 367.574 2 311.898 2 297.129z"/>
                    <path fill="#FFF" d="M97.624 291.18c0-121.165 51.293-228.074 180.876-228.074 124.034 0 180.875 132.638 180.875 228.075 0 41.759-361.751 41.759-361.751 0"/>
                    <path stroke="#002855" d="M97.624 291.18c0-121.165 51.293-228.074 180.876-228.074 124.034 0 180.875 132.638 180.875 228.075 0 41.759-361.751 41.759-361.751 0z"/>
                    <mask id="7ytn2ou78b" fill="#fff">
                        <use xlink:href="#2yyndgyzta"/>
                    </mask>
                    <path fill="#002855" d="M260.809 168.766h35v-5h-35v5zm0 12h35v-5h-35v5zm0 12h35v-5h-35v5zm0 12h35v-5h-35v5zm0 12h35v-5h-35v5zm0 13h35v-5h-35v5zm0 12h35v-5h-35v5zm0 12h15v-5h-15v5zm0 12h15v-5h-15v5zm49-71v-37h-9v-24h-12.601l-9.6-65.561-9.6 65.561h-12.199v24h-9v37h-4v84h70v-84h-4z" mask="url(#7ytn2ou78b)"/>
                    <path fill="#FFF" d="M282.808 250.232v27.78s12.646 17.558 18.41 17.558c5.767 0 19.59-17.559 19.59-17.559v-27.779l-19.59-4.718-18.41 4.718z" mask="url(#7ytn2ou78b)"/>
                    <path stroke="#002855" stroke-width="2" d="M282.808 250.232v27.78s12.646 17.558 18.41 17.558c5.767 0 19.59-17.559 19.59-17.559v-27.779l-19.59-4.718-18.41 4.718z" mask="url(#7ytn2ou78b)"/>
                    <path fill="#002855" d="M308.343 269.004L311.339 267.401 313.105 270.345zM299.615 261.213L297.985 269.632 291.389 258.903z" mask="url(#7ytn2ou78b)"/>
                    <path fill="#002855" d="M298.722 261.596L298.433 269.684 290.912 260.565zM300.951 270.915L309.266 266.729 311.339 267.401 309.231 273.376z" mask="url(#7ytn2ou78b)"/>
                    <path fill="#002855" d="M297.383 269.56L299.615 261.213 305.516 272.176zM302.196 278.274L295.795 282.182 298.654 271.76z" mask="url(#7ytn2ou78b)"/>
                    <path fill="#002855" d="M309.231 273.376L301.555 277.123 297.382 269.56zM120.184 279.307L121.184 279.307 121.184 274.307 120.184 274.307zM120.184 270.238L121.184 270.238 121.184 265.238 120.184 265.238zM120.184 261.17L121.184 261.17 121.184 256.17 120.184 256.17zM130.424 260.202c-.663 0-.981-.574-.981-1.52 0-.948.325-1.522.98-1.522.665 0 .976.574.976 1.521s-.311 1.521-.975 1.521m0 .968c1.237 0 1.978-.989 1.978-2.489 0-1.506-.741-2.488-1.978-2.488-1.244 0-1.977.982-1.977 2.488 0 1.5.733 2.49 1.977 2.49M130.123 270.238h1.022V265.4h-1.022c-.035.491-.429.664-.81.664v.892c.278.007.588-.049.81-.222v3.505zM130.123 279.307h1.022v-4.84h-1.022c-.035.492-.429.665-.81.665v.892c.278.007.588-.05.81-.222v3.505zM139.757 261.17h1.022v-4.84h-1.022c-.035.492-.43.665-.81.665v.892c.278.007.588-.05.81-.222v3.505zM140.057 269.27c-.663 0-.981-.573-.981-1.52 0-.947.325-1.522.98-1.522.665 0 .976.575.976 1.522 0 .947-.311 1.52-.975 1.52m0 .969c1.237 0 1.978-.99 1.978-2.49 0-1.506-.741-2.488-1.978-2.488-1.244 0-1.977.982-1.977 2.488 0 1.5.733 2.49 1.977 2.49M139.757 279.307h1.022v-4.84h-1.022c-.035.492-.43.665-.81.665v.892c.278.007.588-.05.81-.222v3.505zM150.59 279.307L151.59 279.307 151.59 274.307 150.59 274.307zM150.59 270.238L151.59 270.238 151.59 265.238 150.59 265.238zM150.59 261.17L151.59 261.17 151.59 256.17 150.59 256.17zM160.83 260.202c-.663 0-.981-.574-.981-1.52 0-.948.325-1.522.981-1.522.664 0 .975.574.975 1.521s-.311 1.521-.975 1.521m0 .968c1.237 0 1.978-.989 1.978-2.489 0-1.506-.741-2.488-1.978-2.488-1.244 0-1.977.982-1.977 2.488 0 1.5.733 2.49 1.977 2.49M160.53 270.238h1.021V265.4h-1.022c-.035.491-.429.664-.81.664v.892c.278.007.588-.049.81-.222v3.505zM160.53 279.307h1.021v-4.84h-1.022c-.035.492-.429.665-.81.665v.892c.278.007.588-.05.81-.222v3.505zM170.163 261.17h1.022v-4.84h-1.022c-.035.492-.429.665-.81.665v.892c.278.007.588-.05.81-.222v3.505zM170.463 269.27c-.663 0-.981-.573-.981-1.52 0-.947.325-1.522.98-1.522.665 0 .976.575.976 1.522 0 .947-.311 1.52-.975 1.52m0 .969c1.237 0 1.978-.99 1.978-2.49 0-1.506-.741-2.488-1.978-2.488-1.244 0-1.977.982-1.977 2.488 0 1.5.733 2.49 1.977 2.49M170.163 279.307h1.022v-4.84h-1.022c-.035.492-.429.665-.81.665v.892c.278.007.588-.05.81-.222v3.505zM180.996 279.307L181.996 279.307 181.996 274.307 180.996 274.307zM180.996 270.238L181.996 270.238 181.996 265.238 180.996 265.238zM180.996 261.17L181.996 261.17 181.996 256.17 180.996 256.17zM191.236 260.202c-.663 0-.98-.574-.98-1.52 0-.948.324-1.522.98-1.522.664 0 .975.574.975 1.521s-.31 1.521-.975 1.521m0 .968c1.237 0 1.978-.989 1.978-2.489 0-1.506-.74-2.488-1.978-2.488-1.244 0-1.977.982-1.977 2.488 0 1.5.733 2.49 1.977 2.49M190.935 270.238h1.023V265.4h-1.023c-.035.491-.429.664-.81.664v.892c.279.007.589-.049.81-.222v3.505zM190.935 279.307h1.023v-4.84h-1.023c-.035.492-.429.665-.81.665v.892c.279.007.589-.05.81-.222v3.505zM200.569 261.17h1.022v-4.84h-1.022c-.035.492-.43.665-.81.665v.892c.278.007.588-.05.81-.222v3.505zM200.869 269.27c-.663 0-.981-.573-.981-1.52 0-.947.325-1.522.98-1.522.665 0 .976.575.976 1.522 0 .947-.311 1.52-.975 1.52m0 .969c1.237 0 1.978-.99 1.978-2.49 0-1.506-.741-2.488-1.978-2.488-1.244 0-1.977.982-1.977 2.488 0 1.5.733 2.49 1.977 2.49M200.569 279.307h1.022v-4.84h-1.022c-.035.492-.43.665-.81.665v.892c.278.007.588-.05.81-.222v3.505zM211.402 279.307L212.402 279.307 212.402 274.307 211.402 274.307zM211.402 270.238L212.402 270.238 212.402 265.238 211.402 265.238zM211.402 261.17L212.402 261.17 212.402 256.17 211.402 256.17zM221.642 260.202c-.663 0-.981-.574-.981-1.52 0-.948.325-1.522.981-1.522.664 0 .975.574.975 1.521s-.311 1.521-.975 1.521m0 .968c1.237 0 1.978-.989 1.978-2.489 0-1.506-.741-2.488-1.978-2.488-1.244 0-1.977.982-1.977 2.488 0 1.5.733 2.49 1.977 2.49M221.341 270.238h1.022V265.4h-1.022c-.035.491-.429.664-.81.664v.892c.278.007.588-.049.81-.222v3.505zM221.341 279.307h1.022v-4.84h-1.022c-.035.492-.429.665-.81.665v.892c.278.007.588-.05.81-.222v3.505zM230.975 261.17h1.022v-4.84h-1.022c-.035.492-.429.665-.81.665v.892c.278.007.588-.05.81-.222v3.505zM231.275 269.27c-.663 0-.981-.573-.981-1.52 0-.947.325-1.522.98-1.522.665 0 .976.575.976 1.522 0 .947-.311 1.52-.975 1.52m0 .969c1.237 0 1.978-.99 1.978-2.49 0-1.506-.741-2.488-1.978-2.488-1.244 0-1.977.982-1.977 2.488 0 1.5.733 2.49 1.977 2.49M230.975 279.307h1.022v-4.84h-1.022c-.035.492-.429.665-.81.665v.892c.278.007.588-.05.81-.222v3.505zM161.184 308.522L162.184 308.522 162.184 303.522 161.184 303.522zM161.184 299.453L162.184 299.453 162.184 294.453 161.184 294.453zM161.184 290.385L162.184 290.385 162.184 285.385 161.184 285.385zM171.424 289.417c-.663 0-.981-.574-.981-1.521s.325-1.521.98-1.521c.665 0 .976.574.976 1.521s-.311 1.521-.975 1.521m0 .968c1.237 0 1.978-.989 1.978-2.489 0-1.506-.741-2.488-1.978-2.488-1.244 0-1.977.982-1.977 2.488 0 1.5.733 2.489 1.977 2.489M171.123 299.453h1.022v-4.839h-1.022c-.035.491-.429.664-.81.664v.892c.278.007.588-.049.81-.222v3.505zM171.123 308.522h1.022v-4.839h-1.022c-.035.492-.429.665-.81.665v.892c.278.007.588-.05.81-.223v3.505zM180.757 290.385h1.022v-4.84h-1.022c-.035.492-.43.665-.81.665v.892c.278.007.588-.05.81-.222v3.505zM181.057 298.485c-.663 0-.981-.574-.981-1.52 0-.948.325-1.522.98-1.522.665 0 .976.574.976 1.521s-.311 1.521-.975 1.521m0 .968c1.237 0 1.978-.989 1.978-2.489 0-1.506-.741-2.488-1.978-2.488-1.244 0-1.977.982-1.977 2.488 0 1.5.733 2.49 1.977 2.49M180.757 308.522h1.022v-4.839h-1.022c-.035.492-.43.665-.81.665v.892c.278.007.588-.05.81-.223v3.505zM191.59 308.522L192.59 308.522 192.59 303.522 191.59 303.522zM191.59 299.453L192.59 299.453 192.59 294.453 191.59 294.453zM191.59 290.385L192.59 290.385 192.59 285.385 191.59 285.385zM201.83 289.417c-.663 0-.981-.574-.981-1.521s.325-1.521.981-1.521c.664 0 .975.574.975 1.521s-.311 1.521-.975 1.521m0 .968c1.237 0 1.978-.989 1.978-2.489 0-1.506-.741-2.488-1.978-2.488-1.244 0-1.977.982-1.977 2.488 0 1.5.733 2.489 1.977 2.489M201.53 299.453h1.021v-4.839h-1.022c-.035.491-.429.664-.81.664v.892c.278.007.588-.049.81-.222v3.505zM201.53 308.522h1.021v-4.839h-1.022c-.035.492-.429.665-.81.665v.892c.278.007.588-.05.81-.223v3.505zM211.163 290.385h1.022v-4.84h-1.022c-.035.492-.429.665-.81.665v.892c.278.007.588-.05.81-.222v3.505zM211.463 298.485c-.663 0-.981-.574-.981-1.52 0-.948.325-1.522.98-1.522.665 0 .976.574.976 1.521s-.311 1.521-.975 1.521m0 .968c1.237 0 1.978-.989 1.978-2.489 0-1.506-.741-2.488-1.978-2.488-1.244 0-1.977.982-1.977 2.488 0 1.5.733 2.49 1.977 2.49M211.163 308.522h1.022v-4.839h-1.022c-.035.492-.429.665-.81.665v.892c.278.007.588-.05.81-.223v3.505zM221.996 308.522L222.996 308.522 222.996 303.522 221.996 303.522zM221.996 299.453L222.996 299.453 222.996 294.453 221.996 294.453zM221.996 290.385L222.996 290.385 222.996 285.385 221.996 285.385zM232.236 289.417c-.663 0-.98-.574-.98-1.521s.324-1.521.98-1.521c.664 0 .975.574.975 1.521s-.31 1.521-.975 1.521m0 .968c1.237 0 1.978-.989 1.978-2.489 0-1.506-.74-2.488-1.978-2.488-1.244 0-1.977.982-1.977 2.488 0 1.5.733 2.489 1.977 2.489M231.935 299.453h1.023v-4.839h-1.023c-.035.491-.429.664-.81.664v.892c.279.007.589-.049.81-.222v3.505zM231.935 308.522h1.023v-4.839h-1.023c-.035.492-.429.665-.81.665v.892c.279.007.589-.05.81-.223v3.505zM241.569 290.385h1.022v-4.84h-1.022c-.035.492-.43.665-.81.665v.892c.278.007.588-.05.81-.222v3.505zM241.869 298.485c-.663 0-.981-.574-.981-1.52 0-.948.325-1.522.98-1.522.665 0 .976.574.976 1.521s-.311 1.521-.975 1.521m0 .968c1.237 0 1.978-.989 1.978-2.489 0-1.506-.741-2.488-1.978-2.488-1.244 0-1.977.982-1.977 2.488 0 1.5.733 2.49 1.977 2.49M241.569 308.522h1.022v-4.839h-1.022c-.035.492-.43.665-.81.665v.892c.278.007.588-.05.81-.223v3.505zM252.402 308.522L253.402 308.522 253.402 303.522 252.402 303.522zM252.402 299.453L253.402 299.453 253.402 294.453 252.402 294.453zM252.402 290.385L253.402 290.385 253.402 285.385 252.402 285.385zM262.642 289.417c-.663 0-.981-.574-.981-1.521s.325-1.521.981-1.521c.664 0 .975.574.975 1.521s-.311 1.521-.975 1.521m0 .968c1.237 0 1.978-.989 1.978-2.489 0-1.506-.741-2.488-1.978-2.488-1.244 0-1.977.982-1.977 2.488 0 1.5.733 2.489 1.977 2.489M262.341 299.453h1.022v-4.839h-1.022c-.035.491-.429.664-.81.664v.892c.278.007.588-.049.81-.222v3.505zM262.341 308.522h1.022v-4.839h-1.022c-.035.492-.429.665-.81.665v.892c.278.007.588-.05.81-.223v3.505zM271.975 290.385h1.022v-4.84h-1.022c-.035.492-.429.665-.81.665v.892c.278.007.588-.05.81-.222v3.505zM272.275 298.485c-.663 0-.981-.574-.981-1.52 0-.948.325-1.522.98-1.522.665 0 .976.574.976 1.521s-.311 1.521-.975 1.521m0 .968c1.237 0 1.978-.989 1.978-2.489 0-1.506-.741-2.488-1.978-2.488-1.244 0-1.977.982-1.977 2.488 0 1.5.733 2.49 1.977 2.49M271.975 308.522h1.022v-4.839h-1.022c-.035.492-.429.665-.81.665v.892c.278.007.588-.05.81-.223v3.505zM311.231 149.353L312.231 149.353 312.231 144.353 311.231 144.353zM311.231 140.285L312.231 140.285 312.231 135.285 311.231 135.285zM311.231 131.216L312.231 131.216 312.231 126.216 311.231 126.216zM321.472 130.249c-.663 0-.981-.575-.981-1.522 0-.947.325-1.52.98-1.52.665 0 .976.574.976 1.52 0 .947-.311 1.522-.975 1.522m0 .968c1.237 0 1.978-.99 1.978-2.49 0-1.505-.741-2.487-1.978-2.487-1.244 0-1.977.982-1.977 2.487 0 1.5.733 2.49 1.977 2.49M321.17 140.285h1.023v-4.84h-1.022c-.035.492-.43.665-.81.665v.892c.278.007.588-.05.81-.222v3.505zM321.17 149.353h1.023v-4.839h-1.022c-.035.491-.43.664-.81.664v.892c.278.007.588-.049.81-.222v3.505zM330.805 131.216h1.022v-4.839h-1.022c-.035.491-.43.664-.81.664v.892c.278.007.588-.049.81-.222v3.505zM331.104 139.317c-.663 0-.98-.574-.98-1.521s.324-1.521.98-1.521c.664 0 .975.574.975 1.52 0 .948-.31 1.522-.975 1.522m0 .968c1.237 0 1.978-.99 1.978-2.49 0-1.505-.74-2.487-1.978-2.487-1.244 0-1.977.982-1.977 2.488 0 1.5.733 2.489 1.977 2.489M330.805 149.353h1.022v-4.839h-1.022c-.035.491-.43.664-.81.664v.892c.278.007.588-.049.81-.222v3.505zM342.864 149.353L343.864 149.353 343.864 144.353 342.864 144.353zM342.864 140.285L343.864 140.285 343.864 135.285 342.864 135.285zM342.864 131.216L343.864 131.216 343.864 126.216 342.864 126.216zM353.104 130.249c-.663 0-.98-.575-.98-1.522 0-.947.324-1.52.98-1.52.664 0 .975.574.975 1.52 0 .947-.31 1.522-.975 1.522m0 .968c1.237 0 1.978-.99 1.978-2.49 0-1.505-.74-2.487-1.978-2.487-1.244 0-1.977.982-1.977 2.487 0 1.5.733 2.49 1.977 2.49M352.804 140.285h1.022v-4.84h-1.022c-.035.492-.43.665-.81.665v.892c.278.007.588-.05.81-.222v3.505zM352.804 149.353h1.022v-4.839h-1.022c-.035.491-.43.664-.81.664v.892c.278.007.588-.049.81-.222v3.505zM362.437 131.216h1.022v-4.839h-1.022c-.035.491-.429.664-.81.664v.892c.278.007.588-.049.81-.222v3.505zM362.737 139.317c-.663 0-.98-.574-.98-1.521s.324-1.521.98-1.521c.664 0 .975.574.975 1.52 0 .948-.31 1.522-.975 1.522m0 .968c1.237 0 1.978-.99 1.978-2.49 0-1.505-.74-2.487-1.978-2.487-1.244 0-1.977.982-1.977 2.488 0 1.5.733 2.489 1.977 2.489M362.437 149.353h1.022v-4.839h-1.022c-.035.491-.429.664-.81.664v.892c.278.007.588-.049.81-.222v3.505zM374.497 149.353L375.497 149.353 375.497 144.353 374.497 144.353zM374.497 140.285L375.497 140.285 375.497 135.285 374.497 135.285zM374.497 131.216L375.497 131.216 375.497 126.216 374.497 126.216zM384.737 130.249c-.663 0-.98-.575-.98-1.522 0-.947.324-1.52.98-1.52.664 0 .975.574.975 1.52 0 .947-.31 1.522-.975 1.522m0 .968c1.237 0 1.978-.99 1.978-2.49 0-1.505-.74-2.487-1.978-2.487-1.244 0-1.977.982-1.977 2.487 0 1.5.733 2.49 1.977 2.49M384.437 140.285h1.022v-4.84h-1.022c-.036.492-.43.665-.81.665v.892c.277.007.587-.05.81-.222v3.505zM384.437 149.353h1.022v-4.839h-1.022c-.036.491-.43.664-.81.664v.892c.277.007.587-.049.81-.222v3.505zM394.07 131.216h1.022v-4.839h-1.022c-.035.491-.429.664-.81.664v.892c.278.007.588-.049.81-.222v3.505zM394.37 139.317c-.663 0-.98-.574-.98-1.521s.324-1.521.98-1.521c.664 0 .975.574.975 1.52 0 .948-.31 1.522-.975 1.522m0 .968c1.237 0 1.978-.99 1.978-2.49 0-1.505-.74-2.487-1.978-2.487-1.244 0-1.977.982-1.977 2.488 0 1.5.733 2.489 1.977 2.489M394.07 149.353h1.022v-4.839h-1.022c-.035.491-.429.664-.81.664v.892c.278.007.588-.049.81-.222v3.505zM320.632 178.568L321.632 178.568 321.632 173.568 320.632 173.568zM320.632 169.5L321.632 169.5 321.632 164.5 320.632 164.5zM320.632 160.432L321.632 160.432 321.632 155.432 320.632 155.432zM330.872 159.464c-.663 0-.981-.574-.981-1.521s.325-1.521.981-1.521c.664 0 .975.574.975 1.52 0 .948-.311 1.522-.975 1.522m0 .968c1.237 0 1.978-.99 1.978-2.49 0-1.505-.741-2.487-1.978-2.487-1.244 0-1.977.982-1.977 2.488 0 1.5.733 2.489 1.977 2.489M330.571 169.5h1.022v-4.839h-1.022c-.035.491-.429.664-.81.664v.892c.278.007.588-.049.81-.222v3.505zM330.571 178.568h1.022v-4.839h-1.022c-.035.491-.429.664-.81.664v.892c.278.007.588-.049.81-.222v3.505zM340.205 160.432h1.022v-4.84h-1.022c-.035.492-.429.665-.81.665v.892c.278.007.588-.05.81-.222v3.505zM340.505 168.532c-.663 0-.981-.574-.981-1.52 0-.948.325-1.522.98-1.522.665 0 .976.574.976 1.521s-.311 1.521-.975 1.521m0 .968c1.237 0 1.978-.989 1.978-2.489 0-1.506-.741-2.488-1.978-2.488-1.244 0-1.977.982-1.977 2.488 0 1.5.733 2.49 1.977 2.49M340.205 178.568h1.022v-4.839h-1.022c-.035.491-.429.664-.81.664v.892c.278.007.588-.049.81-.222v3.505zM351.774 178.568L352.774 178.568 352.774 173.568 351.774 173.568zM351.774 169.5L352.774 169.5 352.774 164.5 351.774 164.5zM351.774 160.432L352.774 160.432 352.774 155.432 351.774 155.432zM362.015 159.464c-.663 0-.981-.574-.981-1.521s.325-1.521.98-1.521c.665 0 .976.574.976 1.52 0 .948-.311 1.522-.975 1.522m0 .968c1.237 0 1.978-.99 1.978-2.49 0-1.505-.741-2.487-1.978-2.487-1.244 0-1.977.982-1.977 2.488 0 1.5.733 2.489 1.977 2.489M361.714 169.5h1.022v-4.839h-1.022c-.035.491-.43.664-.81.664v.892c.278.007.588-.049.81-.222v3.505zM361.714 178.568h1.022v-4.839h-1.022c-.035.491-.43.664-.81.664v.892c.278.007.588-.049.81-.222v3.505zM371.348 160.432h1.022v-4.84h-1.022c-.035.492-.43.665-.81.665v.892c.278.007.588-.05.81-.222v3.505zM371.647 168.532c-.663 0-.98-.574-.98-1.52 0-.948.324-1.522.98-1.522.664 0 .975.574.975 1.521s-.31 1.521-.975 1.521m0 .968c1.237 0 1.978-.989 1.978-2.489 0-1.506-.74-2.488-1.978-2.488-1.244 0-1.977.982-1.977 2.488 0 1.5.733 2.49 1.977 2.49M371.348 178.568h1.022v-4.839h-1.022c-.035.491-.43.664-.81.664v.892c.278.007.588-.049.81-.222v3.505zM382.918 178.568L383.918 178.568 383.918 173.568 382.918 173.568zM382.918 169.5L383.918 169.5 383.918 164.5 382.918 164.5zM382.918 160.432L383.918 160.432 383.918 155.432 382.918 155.432zM393.158 159.464c-.663 0-.98-.574-.98-1.521s.324-1.521.98-1.521c.664 0 .975.574.975 1.52 0 .948-.31 1.522-.975 1.522m0 .968c1.237 0 1.978-.99 1.978-2.49 0-1.505-.74-2.487-1.978-2.487-1.244 0-1.977.982-1.977 2.488 0 1.5.733 2.489 1.977 2.489M392.857 169.5h1.022v-4.839h-1.022c-.035.491-.429.664-.81.664v.892c.278.007.588-.049.81-.222v3.505zM392.857 178.568h1.022v-4.839h-1.022c-.035.491-.429.664-.81.664v.892c.278.007.588-.049.81-.222v3.505zM402.491 160.432h1.022v-4.84h-1.022c-.035.492-.429.665-.81.665v.892c.278.007.588-.05.81-.222v3.505zM402.791 168.532c-.663 0-.981-.574-.981-1.52 0-.948.325-1.522.981-1.522.664 0 .975.574.975 1.521s-.311 1.521-.975 1.521m0 .968c1.237 0 1.978-.989 1.978-2.489 0-1.506-.741-2.488-1.978-2.488-1.244 0-1.977.982-1.977 2.488 0 1.5.733 2.49 1.977 2.49M402.491 178.568h1.022v-4.839h-1.022c-.035.491-.429.664-.81.664v.892c.278.007.588-.049.81-.222v3.505z" mask="url(#7ytn2ou78b)"/>
                </g>
            </g>
        </g>
    </g>
</svg>
