<svg xmlns="http://www.w3.org/2000/svg" width="76" height="76" viewBox="0 0 76 76">
    <g fill="none" fill-rule="evenodd">
        <g>
            <g>
                <g>
                    <g transform="translate(-1163 -1813) translate(0 1235) translate(1065 286) translate(98 292)">
                        <path d="M0 0H76V76H0z"/>
                        <circle cx="38" cy="38" r="38" fill="#3FACE0" opacity=".091"/>
                        <path fill="#3FACE0" fill-rule="nonzero" d="M44.178 19.425c.432.106.69.522.577.927-.03.105-.071.187-.115.26l-.09.143c-.089.142-.167.298-.167.602 0 .74 2.324.944 3.113.944.175 0 .334-.024.492-.078l.12-.047c.54-.237 1.15.14 1.15.687l.161 15.931c0 .8 2.298.817 2.298 0l.427-15.99c0-.593.684-.94 1.205-.667l.077.045.198.119c6.278 3.838 9.64 12.93 9.489 19.987l1.505 1.548c.273.16.41.448.377.73-.579 12.836-51.532 12.836-51.994-.061-.01-.28.146-.53.383-.667l2.801-1.55c-.079-7.212 2.219-16.258 8.753-20.07.261-.152.388.237.518.611l.025.07c-.031-.05-.054-.073-.055-.036l.347 15.931c0 .808 2.623.813 2.623 0V23.277c0-.42 1.766-1.521 2.214-1.521.125 0 .264.04.4.087l.265.087c1.068.199 1.684 0 1.358-.975-.029-.085-.067-.169-.114-.248l-.076-.114c-.332-.447-.067-1.056.486-1.175 3.68-.907 7.567-.903 11.249.007zm-5.179 21.76c-2.767 0-4.999 2.233-4.999 5 0 2.764 2.234 5 5 5 2.76 0 5-2.24 5-5 0-2.763-2.235-5-5-5z" opacity=".557"/>
                        <path fill="#001845" fill-rule="nonzero" d="M34.314 16.34c2.931-.486 5.971-.45 8.908.105l.173.04c.725.212 1.2.922 1.104 1.65-.122 1.15 1.605 2.668 3.38 2.845l.164.017.366.12.161.104c.441.285.714.775.714 1.31l.092 16.159c.075.42.471.555.647.553.175-.003.547-.134.659-.553l.023-15.76c0-.372.126-.734.357-1.025.567-.714 1.605-.833 2.33-.257 6.48 5.255 10.414 12.626 10.245 20.155v.053l4.024 2.496c.838.52 1.293 1.473 1.168 2.503l-.03.193c-1.456 6.02-8.501 10.134-18.707 11.967-18.938 3.401-40.144-1.754-42.067-12.56l-.023-.219L8 46.167l.005-.177c.05-.561.36-1.07.843-1.369l4.463-2.765-.005-.104-.001-.459c.043-7.483 3.899-14.507 10.25-19.646l.146-.104.028-.018.148-.082c.222-.107.467-.163.715-.163.91 0 1.649.738 1.649 1.649l.074 15.76c.114.382.418.554.638.554.22 0 .517-.172.657-.553l.051-16.158c0-.821.637-1.502 1.406-1.552l.184-.023c1.709-.258 3.316-1.712 3.198-2.821l-.017-.166.021-.189.095-.377c.194-.495.632-.86 1.166-.957zm7.23 2.87c-1.863-.256-3.761-.279-5.614-.068l-.585.074c-.463 2.013-2.326 3.72-4.512 4.432l-.172.053.001 13.89c0 2.771-.848 4.431-3.265 4.641l-.224.016-.22.004c-2.56.002-3.56-1.588-3.706-4.426l-.005-.431-.001-11.442-.14.139c-4.169 4.205-6.641 9.39-6.79 14.8l-.006.407v.429l.006.084c.02.87-.347 1.707-1.045 2.318l-.167.137c-.104.072-.21.14-.317.207l-3.61 2.236.073.222c2.783 7.796 21.144 12.056 37.791 9.222l.525-.092c8.846-1.588 14.812-4.95 16.18-9.195l.044-.15-3.762-2.33c-.731-.462-1.224-1.216-1.356-2.128l-.024-.213-.005-.232c.126-5.684-2.43-11.303-6.831-15.751l-.103-.102.001 11.63c0 2.796-.85 4.455-3.285 4.64l-.226.013-.22.002c-2.54-.026-3.536-1.614-3.684-4.423-.003-.141-.005-.283-.005-.425l-.001-13.69-.2-.063c-2.092-.687-3.899-2.31-4.43-4.253l-.043-.172zM38.472 39.5c3.31 0 6 2.69 6 6 0 3.313-2.687 6-6 6-3.31 0-6-2.69-6-6 0-3.307 2.694-6 6-6zm0 3c-1.652 0-3 1.347-3 3 0 1.655 1.346 3 3 3 1.657 0 3-1.344 3-3 0-1.654-1.345-3-3-3z"/>
                    </g>
                </g>
            </g>
        </g>
    </g>
</svg>
