<?xml version="1.0" encoding="utf-8"?>
<!-- Generator: Adobe Illustrator 23.0.4, SVG Export Plug-In . SVG Version: 6.00 Build 0)  -->
<svg width="200px" height="159px" version="1.1" id="Layer_1" xmlns="http://www.w3.org/2000/svg" xmlns:xlink="http://www.w3.org/1999/xlink" x="0px" y="0px"
	 viewBox="0 0 200 159" style="enable-background:new 0 0 200 159;" xml:space="preserve">
<style type="text/css">
	.st0{fill:#00A3B4;}
	.st1{fill:#FFFFFF;}
</style>
<g>
	<g id="text__x2B__tm">
		<g>
			<path class="st0" d="M6.768,140.31c-1.633-0.606-2.926-1.449-3.879-2.532c-0.955-1.082-1.431-2.32-1.431-3.714
				c0-1.577,0.917-2.422,2.752-2.532c0.66,4.182,3.357,6.274,8.089,6.274c2.237,0,3.971-0.357,5.2-1.073
				c1.229-0.715,1.844-1.769,1.844-3.165c0-0.953-0.239-1.742-0.715-2.366c-0.477-0.623-1.275-1.155-2.394-1.596
				c-1.12-0.44-2.688-0.861-4.705-1.266c-3.486-0.771-6.008-1.751-7.567-2.944c-1.56-1.192-2.339-2.944-2.339-5.255
				c0-1.431,0.431-2.705,1.293-3.825c0.862-1.118,2.064-1.999,3.604-2.641c1.541-0.642,3.265-0.963,5.173-0.963
				c1.834,0,3.54,0.267,5.118,0.798c1.577,0.532,2.843,1.303,3.797,2.311c0.954,1.01,1.431,2.156,1.431,3.439
				c0,0.734-0.275,1.321-0.826,1.761c-0.55,0.44-1.321,0.679-2.311,0.715c-0.147-1.761-0.844-3.146-2.091-4.155
				c-1.247-1.009-2.953-1.513-5.118-1.513c-1.871,0-3.366,0.367-4.485,1.1c-1.12,0.734-1.678,1.725-1.678,2.972
				c0,1.247,0.513,2.211,1.541,2.889c1.026,0.679,2.752,1.275,5.173,1.788c3.852,0.771,6.64,1.808,8.365,3.11
				c1.724,1.303,2.587,3.128,2.587,5.476c0,2.458-0.973,4.375-2.917,5.75c-1.945,1.376-4.659,2.064-8.145,2.064
				C10.189,141.217,8.4,140.915,6.768,140.31z"/>
			<path class="st0" d="M29.908,116.343c0-2.421,1.302-3.632,3.907-3.632v3.136l-1.101,1.376l0.165,0.22
				c2.531-3.155,5.576-4.733,9.135-4.733c3.192,0,5.769,0.863,7.732,2.586c1.962,1.725,2.944,4.017,2.944,6.879v9.63
				c0,2.862-1,5.145-2.999,6.851c-2,1.706-4.614,2.559-7.842,2.559c-3.376,0-6.329-1.394-8.86-4.182l-0.11,0.275
				c0.293,0.367,0.66,0.789,1.1,1.266v10.236c0,2.275-1.358,3.412-4.072,3.412V116.343z M46.72,136.045
				c1.302-1.064,1.954-2.512,1.954-4.348v-9.41c0-1.907-0.643-3.384-1.926-4.43c-1.284-1.045-3.101-1.568-5.448-1.568
				c-2.055,0-3.788,0.55-5.2,1.651c-1.413,1.101-2.119,2.459-2.119,4.072v9.961c0,1.615,0.678,2.963,2.036,4.045
				c1.357,1.082,3.136,1.623,5.338,1.623C43.629,137.64,45.417,137.109,46.72,136.045z"/>
			<path class="st0" d="M65.072,139.952c-1.725-0.844-3.064-2.017-4.017-3.522c-0.955-1.503-1.431-3.21-1.431-5.118v-8.475
				c0-1.871,0.513-3.586,1.541-5.146c1.027-1.559,2.403-2.778,4.127-3.659c1.724-0.881,3.613-1.321,5.668-1.321
				c2.054,0,3.943,0.431,5.668,1.293c1.724,0.863,3.082,2.064,4.073,3.605c0.991,1.54,1.486,3.265,1.486,5.173v3.632
				c0,0.477-0.192,0.899-0.578,1.266c-0.385,0.367-0.835,0.55-1.348,0.55H63.586v2.972c0,1.981,0.642,3.568,1.926,4.76
				c1.284,1.192,3.1,1.788,5.448,1.788c2.384,0,4.21-0.531,5.476-1.595c1.266-1.064,1.899-2.513,1.899-4.348
				c0.88-0.073,1.651,0.147,2.311,0.66c0.66,0.514,0.991,1.155,0.991,1.926c0,1.175-0.495,2.293-1.486,3.357
				c-0.991,1.065-2.311,1.908-3.962,2.532c-1.651,0.623-3.394,0.935-5.228,0.935C68.759,141.217,66.796,140.795,65.072,139.952z
				 M78.39,124.928v-2.146c0-1.944-0.679-3.531-2.036-4.76c-1.358-1.229-3.156-1.843-5.393-1.843c-2.201,0-3.981,0.615-5.338,1.843
				c-1.358,1.229-2.036,2.816-2.036,4.76v2.146H78.39z"/>
			<path class="st0" d="M93.743,140.007c-1.725-0.807-3.064-1.926-4.017-3.357c-0.955-1.431-1.431-3.063-1.431-4.898v-9.355
				c0-1.872,0.476-3.54,1.431-5.008c0.954-1.467,2.284-2.614,3.99-3.439c1.706-0.826,3.641-1.238,5.806-1.238
				c2.054,0,3.888,0.302,5.503,0.908c1.614,0.606,2.87,1.44,3.769,2.504c0.899,1.064,1.348,2.293,1.348,3.687
				c0,0.844-0.302,1.513-0.908,2.009c-0.606,0.496-1.386,0.726-2.339,0.688c0-1.834-0.679-3.329-2.036-4.485
				c-1.358-1.155-3.119-1.733-5.283-1.733c-2.128,0-3.871,0.569-5.229,1.706c-1.358,1.137-2.036,2.623-2.036,4.458v9.19
				c0,1.761,0.688,3.202,2.064,4.32c1.376,1.119,3.146,1.678,5.311,1.678c2.164,0,3.935-0.568,5.311-1.706
				c1.376-1.137,2.064-2.623,2.064-4.458c0.953-0.073,1.733,0.138,2.338,0.633c0.605,0.495,0.908,1.165,0.908,2.009
				c0,1.395-0.449,2.623-1.348,3.687c-0.899,1.065-2.165,1.898-3.798,2.504c-1.632,0.605-3.476,0.908-5.531,0.908
				C97.431,141.217,95.467,140.814,93.743,140.007z"/>
			<path class="st0" d="M120.461,139.154c-1.229-1.376-1.843-3.237-1.843-5.586v-17.004h-4.953c0-1.063,0.256-1.889,0.771-2.476
				c0.513-0.586,1.229-0.881,2.146-0.881h2.091v-5.503c0-2.164,1.321-3.247,3.962-3.247v8.75h7.319c0,2.238-1.027,3.357-3.081,3.357
				h-4.182v16.84c0,1.54,0.283,2.633,0.853,3.274c0.568,0.642,1.568,0.963,2.999,0.963c1.284,0,2.457-0.33,3.522-0.99
				c0.366,0.367,0.55,0.918,0.55,1.651c0,0.77-0.422,1.45-1.266,2.036c-0.844,0.586-1.963,0.88-3.357,0.88
				C123.534,141.217,121.69,140.529,120.461,139.154z"/>
			<path class="st0" d="M139.887,140.144c-1.56-0.715-2.816-1.761-3.77-3.137c-0.955-1.376-1.431-3.035-1.431-4.98
				c0-1.944,0.513-3.623,1.541-5.036c1.026-1.412,2.394-2.485,4.1-3.219c1.706-0.734,3.568-1.101,5.586-1.101
				c1.687,0,3.182,0.257,4.485,0.771c1.302,0.515,2.522,1.266,3.66,2.256l0.275-0.331c-0.771-0.696-1.376-1.192-1.816-1.486v-0.715
				c0-1.394-0.505-2.504-1.513-3.33c-1.009-0.825-2.43-1.238-4.264-1.238c-1.615,0-3.046,0.294-4.293,0.881
				c-1.247,0.587-2.256,1.45-3.027,2.586c-0.88-0.22-1.623-0.633-2.228-1.238c-0.606-0.605-0.908-1.274-0.908-2.009
				c0-1.137,0.495-2.174,1.486-3.11c0.99-0.935,2.338-1.669,4.045-2.201c1.706-0.531,3.585-0.798,5.641-0.798
				c3.998,0,7.08,0.917,9.245,2.752c2.164,1.835,3.247,4.33,3.247,7.484v13.372c0,1.725-0.56,2.972-1.678,3.742
				c-1.12,0.771-2.889,1.155-5.31,1.155v-2.146c0.55-0.513,0.99-0.971,1.321-1.376l-0.275-0.275
				c-1.211,1.247-2.476,2.193-3.797,2.834c-1.321,0.642-3.082,0.963-5.283,0.963C143.124,141.217,141.445,140.86,139.887,140.144z
				 M151.14,134.834c0.991-0.66,1.486-1.614,1.486-2.862c0-1.211-0.505-2.164-1.513-2.862c-1.009-0.697-2.375-1.046-4.1-1.046
				c-1.54,0-2.761,0.349-3.659,1.046c-0.9,0.697-1.348,1.651-1.348,2.862c0,1.247,0.449,2.201,1.348,2.862
				c0.898,0.66,2.119,0.99,3.659,0.99C148.774,135.824,150.15,135.495,151.14,134.834z"/>
			<path class="st0" d="M175.299,120.911c-1.358,1.137-2.036,2.568-2.036,4.293v11.612c0,1.577-0.615,2.706-1.844,3.384
				c-1.229,0.678-3.128,1.018-5.695,1.018v-22.783c0-1.834,0.605-3.247,1.816-4.237c1.211-0.991,3.008-1.486,5.393-1.486v3.247
				c-0.55,0.587-1.01,1.211-1.376,1.871l0.386,0.22c2.311-3.558,5.191-5.338,8.64-5.338c1.651,0,2.898,0.44,3.742,1.321
				c0.843,0.881,1.266,2,1.266,3.357c0,1.028-0.275,1.926-0.826,2.696c-1.028-0.586-2.404-0.881-4.127-0.881
				C178.435,119.205,176.656,119.774,175.299,120.911z"/>
		</g>
		<g>
			<path class="st0" d="M186.969,112.614h4.772v0.891h-1.874v5.003h-1.032v-5.003h-1.865V112.614z"/>
			<path class="st0" d="M192.409,112.614h1.453l1.626,4.614h0.016l1.585-4.614h1.436v5.894h-0.983v-4.549h-0.016l-1.634,4.549h-0.85
				l-1.634-4.549h-0.016v4.549h-0.983V112.614z"/>
		</g>
	</g>
	<path class="st1" d="M136.002,54.095l-18.346-10.592l18.346-10.592c0.426-0.246,0.688-0.7,0.688-1.191
		c0-0.491-0.262-0.946-0.688-1.191L95.182,6.961c-0.426-0.246-0.95-0.246-1.376,0l-40.82,23.567c-0.426,0.246-0.688,0.7-0.688,1.191
		v23.567c0,0.491,0.262,0.946,0.688,1.191l17.726,10.234L52.987,76.947c-0.426,0.246-0.688,0.7-0.688,1.191
		c0,0.491,0.262,0.946,0.688,1.191l40.82,23.568c0.213,0.123,0.45,0.184,0.688,0.184c0.237,0,0.475-0.061,0.688-0.184l40.82-23.568
		c0.426-0.246,0.688-0.7,0.688-1.191V55.287C136.69,54.795,136.428,54.341,136.002,54.095z M94.494,9.741l38.068,21.979
		L94.494,53.698L56.426,31.72L94.494,9.741z M55.05,34.102l16.283,9.401L55.05,52.904V34.102z M74.085,45.092l19.722,11.386
		c0.213,0.123,0.45,0.184,0.688,0.184c0.237,0,0.475-0.061,0.688-0.184l19.722-11.386l17.658,10.195L94.494,77.265L56.426,55.287
		L74.085,45.092z M73.464,68.301l19.654,11.348v19.674L56.426,78.138L73.464,68.301z M95.87,99.322V79.648l38.068-21.978v19.674
		L95.87,99.322z"/>
</g>
</svg>
