<svg xmlns="http://www.w3.org/2000/svg" width="159" height="118" viewBox="0 0 159 118">
    <g fill="none" fill-rule="evenodd">
        <g>
            <g>
                <g>
                    <g>
                        <path d="M0 0H159V118H0z" transform="translate(-127 -948) translate(0 647) translate(105 271) translate(22 30)"/>
                        <g fill="#00A3B4" fill-rule="nonzero">
                            <g>
                                <path d="M4.614 29.048c-1.306-.485-2.34-1.16-3.103-2.026-.764-.865-1.145-1.856-1.145-2.97 0-1.262.734-1.938 2.202-2.026.528 3.345 2.686 5.019 6.471 5.019 1.79 0 3.177-.286 4.16-.859.983-.572 1.475-1.415 1.475-2.532 0-.762-.19-1.393-.572-1.892-.381-.499-1.02-.924-1.915-1.277-.896-.352-2.15-.689-3.764-1.013-2.789-.617-4.806-1.4-6.053-2.355-1.248-.954-1.872-2.355-1.872-4.204 0-1.145.345-2.164 1.035-3.06.69-.895 1.651-1.6 2.883-2.113 1.233-.514 2.612-.77 4.138-.77 1.468 0 2.832.213 4.095.638 1.261.426 2.274 1.042 3.037 1.849.764.808 1.145 1.725 1.145 2.751 0 .587-.22 1.057-.66 1.409-.44.352-1.057.543-1.85.572-.117-1.409-.675-2.517-1.672-3.324-.998-.807-2.363-1.21-4.095-1.21-1.496 0-2.692.293-3.588.88-.896.587-1.342 1.38-1.342 2.377 0 .998.41 1.769 1.233 2.311.82.543 2.201 1.02 4.138 1.43 3.082.617 5.312 1.447 6.692 2.489 1.38 1.042 2.07 2.502 2.07 4.38 0 1.967-.779 3.5-2.334 4.6-1.556 1.101-3.727 1.652-6.516 1.652-1.556 0-2.987-.242-4.293-.726zM23.126 9.874c0-1.936 1.042-2.905 3.126-2.905v2.509l-.88 1.1.131.176c2.025-2.524 4.461-3.786 7.308-3.786 2.554 0 4.615.69 6.186 2.069 1.57 1.38 2.355 3.213 2.355 5.503v7.704c0 2.29-.8 4.116-2.4 5.48-1.6 1.366-3.69 2.048-6.273 2.048-2.7 0-5.063-1.115-7.088-3.346l-.088.22c.235.294.528.632.88 1.013v8.189c0 1.82-1.086 2.73-3.257 2.73V9.874zm13.45 15.762c1.042-.851 1.563-2.01 1.563-3.478V14.63c0-1.526-.514-2.708-1.54-3.544-1.028-.836-2.481-1.255-4.359-1.255-1.644 0-3.03.44-4.16 1.321-1.13.88-1.695 1.967-1.695 3.258v7.968c0 1.292.542 2.37 1.629 3.236 1.085.866 2.508 1.299 4.27 1.299 1.82-.001 3.25-.426 4.292-1.277zM51.258 28.762c-1.38-.676-2.452-1.614-3.214-2.818-.764-1.202-1.145-2.568-1.145-4.094v-6.78c0-1.497.41-2.87 1.233-4.117.822-1.247 1.922-2.223 3.302-2.927 1.379-.705 2.89-1.057 4.534-1.057 1.643 0 3.154.345 4.534 1.034 1.38.69 2.466 1.651 3.259 2.884.793 1.232 1.189 2.612 1.189 4.139v2.905c0 .382-.154.72-.463 1.013-.308.294-.668.44-1.078.44h-13.34v2.378c0 1.584.513 2.854 1.54 3.808 1.028.953 2.48 1.43 4.359 1.43 1.907 0 3.368-.425 4.38-1.276 1.014-.851 1.52-2.01 1.52-3.478.704-.059 1.32.117 1.849.528.528.41.793.924.793 1.54 0 .94-.396 1.835-1.19 2.686-.792.852-1.848 1.526-3.169 2.026-1.32.498-2.715.748-4.182.748-1.762 0-3.332-.338-4.711-1.012zm10.654-12.02v-1.716c0-1.556-.543-2.825-1.629-3.808-1.086-.984-2.525-1.475-4.314-1.475-1.761 0-3.185.492-4.27 1.475-1.087.983-1.63 2.252-1.63 3.808v1.716h11.843zM74.194 28.806c-1.38-.646-2.45-1.541-3.213-2.686-.764-1.145-1.145-2.45-1.145-3.918v-7.484c0-1.498.38-2.832 1.145-4.007.763-1.173 1.827-2.091 3.192-2.751 1.365-.66 2.913-.99 4.645-.99 1.643 0 3.11.241 4.402.726 1.291.485 2.296 1.152 3.015 2.003.72.851 1.079 1.835 1.079 2.95 0 .675-.242 1.21-.727 1.607s-1.109.58-1.871.55c0-1.467-.543-2.663-1.629-3.588-1.086-.924-2.495-1.386-4.226-1.386-1.703 0-3.097.455-4.183 1.365-1.087.91-1.63 2.098-1.63 3.566v7.352c0 1.409.551 2.562 1.652 3.456 1.1.895 2.517 1.343 4.249 1.343 1.731 0 3.148-.455 4.249-1.365 1.1-.91 1.65-2.099 1.65-3.567.763-.058 1.387.11 1.871.507.484.396.727.932.727 1.607 0 1.116-.36 2.098-1.079 2.95-.719.852-1.732 1.518-3.038 2.003-1.306.484-2.781.726-4.425.726-1.76-.001-3.33-.324-4.71-.97zM95.569 28.123c-.983-1.1-1.475-2.59-1.475-4.469V10.051h-3.962c0-.85.205-1.511.617-1.98.41-.47.983-.705 1.717-.705h1.672V2.963c0-1.731 1.057-2.597 3.17-2.597v7h5.855c0 1.79-.821 2.685-2.465 2.685h-3.345v13.472c0 1.232.226 2.107.682 2.62.455.513 1.255.77 2.4.77 1.027 0 1.965-.264 2.817-.792.293.293.44.734.44 1.32 0 .617-.338 1.16-1.013 1.63-.675.468-1.57.703-2.685.703-1.967 0-3.442-.55-4.425-1.65zM111.11 28.915c-1.248-.572-2.253-1.409-3.016-2.51-.764-1.1-1.145-2.427-1.145-3.983s.41-2.899 1.233-4.03c.82-1.129 1.915-1.987 3.28-2.574 1.364-.588 2.854-.881 4.468-.881 1.35 0 2.546.205 3.588.617 1.042.412 2.018 1.012 2.928 1.804l.22-.264c-.616-.557-1.1-.954-1.452-1.19v-.571c0-1.115-.404-2.003-1.21-2.664-.808-.66-1.945-.99-3.412-.99-1.292 0-2.437.235-3.434.704-.998.47-1.805 1.16-2.422 2.069-.704-.176-1.298-.506-1.782-.99-.485-.484-.727-1.02-.727-1.608 0-.91.396-1.739 1.189-2.488.792-.748 1.87-1.335 3.236-1.76 1.365-.425 2.868-.639 4.513-.639 3.198 0 5.664.734 7.396 2.202 1.731 1.468 2.597 3.464 2.597 5.987v10.698c0 1.38-.448 2.377-1.342 2.993-.896.617-2.311.924-4.248.924v-1.717c.44-.41.792-.776 1.057-1.1l-.22-.22c-.969.997-1.981 1.754-3.038 2.267-1.057.513-2.465.77-4.226.77-1.442.003-2.785-.283-4.031-.856zm9.002-4.248c.793-.528 1.189-1.291 1.189-2.29 0-.968-.404-1.73-1.21-2.289-.808-.558-1.9-.837-3.28-.837-1.233 0-2.21.28-2.928.837-.72.558-1.078 1.32-1.078 2.29 0 .997.359 1.76 1.078 2.29.719.527 1.695.791 2.927.791 1.41 0 2.51-.263 3.302-.792zM139.44 13.529c-1.087.91-1.63 2.054-1.63 3.434v9.29c0 1.261-.492 2.165-1.475 2.707-.983.542-2.502.814-4.556.814V11.548c0-1.467.484-2.598 1.453-3.39.969-.792 2.406-1.188 4.314-1.188v2.597c-.44.47-.808.969-1.1 1.497l.308.176c1.85-2.846 4.153-4.27 6.912-4.27 1.321 0 2.319.352 2.994 1.056.674.705 1.013 1.6 1.013 2.686 0 .822-.22 1.54-.661 2.157-.822-.469-1.923-.705-3.302-.705-1.762 0-3.185.455-4.27 1.365z" transform="translate(-127 -948) translate(0 647) translate(105 271) translate(22 30) translate(0 78.4)"/>
                            </g>
                            <g>
                                <path d="M.775.491L4.593.491 4.593 1.204 3.094 1.204 3.094 5.206 2.268 5.206 2.268 1.204.776 1.204.776.491zM5.127.491L6.29.491 7.59 4.182 7.603 4.182 8.871.491 10.02.491 10.02 5.206 9.234 5.206 9.234 1.567 9.221 1.567 7.914 5.206 7.234 5.206 5.926 1.567 5.914 1.567 5.914 5.206 5.127 5.206 5.127.491z" transform="translate(-127 -948) translate(0 647) translate(105 271) translate(22 30) translate(0 78.4) translate(148 6.4)"/>
                            </g>
                        </g>
                        <path fill="#FFF" fill-rule="nonzero" d="M108.002 38.476l-14.677-8.474 14.677-8.473c.34-.197.55-.56.55-.953 0-.393-.21-.757-.55-.953L75.346.77c-.341-.197-.76-.197-1.101 0L41.589 19.622c-.341.197-.55.56-.55.953V39.43c0 .393.209.757.55.953l14.18 8.187-14.18 8.189c-.34.196-.55.56-.55.952 0 .393.21.757.55.953l32.657 18.855c.17.098.36.147.55.147.19 0 .38-.049.55-.147l32.656-18.855c.341-.197.55-.56.55-.953V39.43c0-.394-.21-.757-.55-.954zM74.795 2.993l30.455 17.583-30.455 17.582-30.454-17.582L74.795 2.993zM43.24 22.482l13.026 7.52-13.026 7.521V22.482zm15.228 8.792l15.778 9.108c.17.099.36.148.55.148.19 0 .38-.05.55-.148l15.778-9.108 14.126 8.156-30.455 17.582L44.341 39.43l14.127-8.156zm-.497 18.567l15.723 9.078v15.74L44.341 57.71l13.63-7.87zm17.925 24.817v-15.74l30.454-17.582v15.74L75.896 74.657z" transform="translate(-127 -948) translate(0 647) translate(105 271) translate(22 30)"/>
                    </g>
                </g>
            </g>
        </g>
    </g>
</svg>
