<svg xmlns="http://www.w3.org/2000/svg" width="115" height="50" viewBox="0 0 153 55">
    <g fill="none" fill-rule="evenodd">
        <g>
            <g>
                <g>
                    <g>
                        <path d="M0 0H153V55H0z" transform="translate(-642 -860) translate(0 516) translate(620 314) translate(22 30)"/>
                        <path fill="#000" fill-rule="nonzero" d="M32.191 34.832c-.29-.223-.403-.389-.145-.835l1.038-1.722c.095-.16.257-.272.444-.309.187-.037.382.006.534.117 1.178.874 2.473 1.722 4.344 1.722 1.5 0 2.623-.944 2.623-2.142 0-1.416-1.237-2.386-3.656-3.33-2.718-1.058-5.435-2.723-5.435-6 0-2.475 1.898-5.333 6.477-5.333 2.07.038 4.08.686 5.757 1.858.297.215.372.615.172.917l-1.091 1.583c-.185.36-.635.51-1.01.336-1.237-.752-2.42-1.53-4-1.53-1.581 0-2.537.874-2.537 1.945 0 1.311 1.07 2.186 3.397 3.112 2.795 1.084 6.02 2.692 6.02 6.276 0 2.863-2.563 5.503-6.622 5.503-3.606 0-5.476-1.473-6.31-2.168zM52.962 20.43h-4.258c-.292 0-.53-.243-.53-.544v-2.342c0-.3.238-.544.53-.544h12.153c.142-.002.28.054.38.156.102.102.159.242.159.388v2.342c0 .3-.237.544-.53.544h-4.254v16.026c-.01.296-.242.532-.53.544h-2.586c-.288-.01-.52-.247-.53-.544l-.004-16.026zM62.475 36.267l9.007-18.96c.083-.191.279-.313.492-.306h.287c.216-.015.416.11.492.306l8.921 18.96c.09.16.082.356-.021.508-.103.153-.284.239-.47.223h-2.52c-.38.023-.726-.21-.839-.563l-1.421-3.044h-8.657l-1.421 3.044c-.126.344-.464.57-.839.563h-2.52c-.186.016-.367-.07-.47-.223-.103-.152-.111-.348-.021-.508zm12.51-6l-2.897-6.206h-.086l-2.839 6.205h5.823zM87.54 20.43h-4.257c-.293 0-.53-.244-.53-.544v-2.342c0-.3.237-.544.53-.544h12.162c.292 0 .53.244.53.544v2.342c0 .3-.238.544-.53.544h-4.257v16.026c-.01.297-.241.535-.53.544H88.07c-.288-.012-.519-.248-.53-.544V20.43zM101.06 17.543c-.002-.143.052-.282.15-.384.097-.102.229-.159.367-.159h11.166c.287 0 .52.243.52.543v2.34c0 .3-.233.543-.52.543h-8.125v5.389h6.763c.282.009.508.245.517.538v2.344c-.009.294-.235.53-.517.54h-6.763v7.22c-.009.296-.237.534-.521.543h-2.52c-.138 0-.27-.057-.368-.16-.097-.101-.15-.24-.15-.383V17.543zM117.332 17.544c-.001-.144.053-.282.152-.384.098-.103.231-.16.37-.16h2.55c.288.01.519.247.528.544V33.57h7.06c.291 0 .527.244.527.544v2.342c0 .3-.236.544-.527.544h-10.137c-.14 0-.273-.057-.371-.16-.099-.102-.153-.24-.152-.384V17.544zM141.705 17c4.114-.014 7.832 2.41 9.418 6.143 1.587 3.732.73 8.037-2.17 10.906-2.9 2.87-7.272 3.738-11.078 2.2-3.805-1.537-6.294-5.178-6.305-9.223-.011-2.652 1.05-5.2 2.952-7.08 1.901-1.882 4.486-2.941 7.183-2.946zm0 16.385c2.633.01 5.013-1.542 6.026-3.933 1.012-2.39.457-5.146-1.406-6.976s-4.665-2.375-7.096-1.377c-2.43.997-4.009 3.338-3.996 5.927.022 3.505 2.907 6.34 6.472 6.36z" transform="translate(-642 -860) translate(0 516) translate(620 314) translate(22 30)"/>
                        <g fill-rule="nonzero">
                            <path fill="#E21D7A" d="M3.057 3.519L15.615 3.587 15.684 16.146 3.125 16.077z" transform="translate(-642 -860) translate(0 516) translate(620 314) translate(22 30) translate(.374) rotate(-45 9.37 9.832)"/>
                            <path fill="#AF2185" d="M0.442 27.5L9.372 18.667 0.442 9.833z" transform="translate(-642 -860) translate(0 516) translate(620 314) translate(22 30) translate(.374)"/>
                            <path fill="#293A89" d="M3.059 21.187L15.617 21.255 15.685 33.814 3.127 33.746z" transform="translate(-642 -860) translate(0 516) translate(620 314) translate(22 30) translate(.374) rotate(-45 9.372 27.5)"/>
                            <path fill="#158EB2" d="M9.372 36.333L18.302 45.167 18.302 27.5z" transform="translate(-642 -860) translate(0 516) translate(620 314) translate(22 30) translate(.374)"/>
                            <path fill="#3DB8C0" d="M3.06 38.856L15.619 38.924 15.687 51.483 3.129 51.414z" transform="translate(-642 -860) translate(0 516) translate(620 314) translate(22 30) translate(.374) rotate(-45 9.374 45.17)"/>
                        </g>
                    </g>
                </g>
            </g>
        </g>
    </g>
</svg>
