<svg xmlns="http://www.w3.org/2000/svg" width="119" height="28" viewBox="0 0 119 28">
    <g fill="none" fill-rule="evenodd">
        <g>
            <g>
                <g>
                    <g>
                        <path d="M0 0H119V28H0z" transform="translate(-33 -1093) translate(0 582) translate(22 496) matrix(1 0 0 -1 11 43)"/>
                        <path fill="#FFF" fill-rule="nonzero" d="M65.908 10.179c0-.223-.02-.452-.08-.653-.248-.835-1.1-1.541-2.164-1.541-.888 0-1.593.512-1.593 1.594 0 1.656 1.794 2.114 3.837 2.104v-1.504zm3.204 2.885c0 2.733-1.148 5.136-5.03 5.136-1.992 0-3.574-.569-4.437-1.075l.632-2.196c.789.505 2.046.924 3.236.924 1.968.005 2.291-1.132 2.291-1.861v-.173c-4.292.007-7.004-1.503-7.004-4.58 0-1.878 1.381-3.639 3.783-3.639 1.476 0 2.712.599 3.451 1.559h.074s.49-2.084 3.192-1.287c-.142.867-.188 1.791-.188 2.905v4.287M0 21.7S2.886 10.106 3.347 8.224c.538-2.197 1.507-3.005 4.3-2.46l1.803 7.19c.456 1.785.763 3.057 1.057 4.873h.051c.207-1.834.5-3.094.876-4.88 0 0 .734-3.263 1.11-4.977.377-1.714 1.425-2.793 4.161-2.206L21 21.7h-3.468l-1.466-6.89c-.394-2.005-.752-3.572-1.028-5.407h-.049c-.25 1.817-.57 3.322-.97 5.275L12.492 21.7H8.88l-1.633-6.845c-.462-2.08-.895-3.759-1.17-5.531h-.05c-.282 1.669-.657 3.78-1.064 5.793 0 0-.97 4.895-1.31 6.583H0M27.408 10.179c0-.223-.019-.452-.08-.653-.248-.835-1.1-1.541-2.164-1.541-.888 0-1.593.512-1.593 1.594 0 1.656 1.795 2.114 3.837 2.104v-1.504zm3.204 2.885c0 2.733-1.148 5.136-5.029 5.136-1.993 0-3.575-.569-4.438-1.075l.631-2.196c.79.505 2.046.924 3.236.924 1.97.005 2.293-1.132 2.293-1.861v-.173c-4.293.007-7.005-1.503-7.005-4.58 0-1.878 1.38-3.639 3.78-3.639 1.479 0 2.714.599 3.455 1.559h.072s.491-2.084 3.193-1.287c-.142.867-.188 1.791-.188 2.905v4.287M36.4 9.018L36.4 21.7 32.9 21.7 32.9 5.6 36.4 5.6 36.4 9.018M79.8 22.4V10.213c0-1.68.32-2.858 1.004-3.577.598-.629 1.582-1.036 2.762-1.036 1.003 0 1.99.188 2.455.36l-.044 2.62c-.346-.083-.744-.15-1.288-.15-1.156 0-1.544.731-1.544 2.24v4.662H86.1v3.161h-2.955V22.4H79.8M70.7 17.922V5.6h3.332v6.31c0 .34.02.637.072.909.247 1.322 1.227 2.166 2.634 2.166.387 0 .663-.043.962-.087v3.226c-.25.052-.422.076-.734.076-1.244 0-2.658-.828-3.252-2.602h-.09v2.324H70.7M38.5 17.922V5.6h3.313v7.226c0 .339.039.697.156 1.009.274.727.944 1.578 2.014 1.578 1.337 0 1.962-1.142 1.962-2.79V5.6h3.31v7.313c0 .324.044.713.138 1 .273.827.995 1.5 1.989 1.5 1.355 0 2.006-1.122 2.006-3.062V5.6H56.7v7.257c0 3.827-1.923 5.343-4.094 5.343-.961 0-1.72-.244-2.406-.67-.577-.357-1.094-.865-1.545-1.534h-.049c-.524 1.328-1.755 2.204-3.36 2.204-2.063 0-2.99-1.056-3.552-1.952h-.049v1.674H38.5" transform="translate(-33 -1093) translate(0 582) translate(22 496) matrix(1 0 0 -1 11 43)"/>
                        <path fill="#FAB41D" fill-rule="nonzero" d="M103.947 18.9c.6 0 1.093.329 1.16.755l.593 7.072c0 .699-.776 1.273-1.751 1.273-.975 0-1.749-.574-1.749-1.273l.592-7.072c.065-.426.56-.755 1.157-.755h-.002M99.876 16.114c.317.543.292 1.153-.04 1.424l-5.786 4.04c-.6.347-1.503-.07-2.015-.954-.514-.883-.423-1.869.178-2.215l6.405-2.97c.401-.148.946.136 1.26.679l-.002-.004M107.32 16.118c.316-.543.859-.827 1.26-.679l6.407 2.97c.603.346.69 1.332.18 2.215-.515.884-1.418 1.3-2.018.954l-5.786-4.04c-.33-.27-.355-.881-.04-1.424l-.003.004M103.947 9.1c.6 0 1.093-.327 1.16-.753l.593-7.073c0-.7-.776-1.274-1.751-1.274-.975 0-1.749.573-1.749 1.274l.592 7.073c.065.426.56.753 1.157.753h-.002M107.32 11.884c.316.544.859.826 1.26.676l6.407-2.967c.603-.347.69-1.334.18-2.218-.515-.881-1.418-1.3-2.018-.954l-5.786 4.037c-.33.274-.355.885-.04 1.427l-.003-.001M99.876 11.885c.317-.542.292-1.153-.04-1.427L94.05 6.421c-.6-.346-1.503.073-2.015.954-.514.884-.423 1.87.178 2.218l6.405 2.967c.401.15.946-.132 1.261-.676l-.003.001M117.766 6.696h.135c.148 0 .278.046.278.177 0 .105-.064.177-.258.177-.078 0-.123-.006-.155-.013v-.341zm0-.617h-.2v1.096c.11.02.225.033.374.033.181 0 .271-.033.342-.085.065-.046.11-.132.11-.23 0-.138-.096-.223-.213-.263v-.013c.097-.04.149-.125.181-.263.032-.17.052-.235.078-.275h-.207c-.033.04-.058.138-.084.289-.026.118-.098.17-.252.17h-.13V6.08zm.18 1.438c-.465 0-.82-.388-.82-.86 0-.486.355-.866.834-.866.465-.008.807.38.807.859 0 .48-.342.867-.814.867h-.006zm.014.183c.581 0 1.04-.46 1.04-1.043 0-.598-.459-1.057-1.047-1.057-.588 0-1.053.46-1.053 1.057 0 .584.465 1.043 1.053 1.043h.007" transform="translate(-33 -1093) translate(0 582) translate(22 496) matrix(1 0 0 -1 11 43)"/>
                    </g>
                </g>
            </g>
        </g>
    </g>
</svg>
